<svg width="446" height="406" viewBox="0 0 446 406" fill="none" xmlns="http://www.w3.org/2000/svg">
<path d="M146.016 396.822C143.812 397.503 141.336 398.614 140.776 400.783C147.714 405.156 156.296 406.159 164.499 405.944C172.701 405.729 180.886 404.295 189.107 404.242C199.947 404.242 212.161 406.159 220.869 399.636C217.002 397.207 212.561 395.823 207.987 395.622C209.595 385.586 152.448 394.833 146.016 396.822Z" fill="url(#paint0_linear_6_425)"/>
<path d="M6.73417 277.274C3.80725 277.274 -0.239864 278.743 0.482833 281.557L134.055 292.309C149.774 293.581 165.511 294.836 181.302 294.836C205.151 294.836 228.891 291.933 252.686 290.571C275.09 289.298 297.529 289.388 319.951 289.495C340.71 289.603 366.24 293.313 386.403 287.918C389.438 287.112 392.492 284.693 392.293 281.592C392.203 280.159 391.444 278.671 392.004 277.345C392.329 276.694 392.845 276.157 393.485 275.804C397.623 273.277 402.898 275.248 407.668 276.288C415.26 277.925 423.188 276.925 430.126 273.456C431.426 272.92 432.534 272.008 433.306 270.84C433.674 270.25 433.807 269.545 433.68 268.863C433.553 268.181 433.175 267.569 432.619 267.148C432.058 266.873 431.439 266.732 430.813 266.736L389.926 263.582C388.416 263.35 386.873 263.486 385.427 263.976C383.819 264.675 383.91 266.539 382.609 267.31C380.495 268.546 375.689 267.883 373.268 268.026C367.071 268.367 360.874 268.707 354.658 269.012C342.288 269.598 329.894 270.093 317.476 270.5C292.181 271.342 266.76 271.844 241.412 272.292C191.275 273.098 141.12 273.528 91.0006 275.446C62.9058 276.485 34.829 276.664 6.73417 277.274Z" fill="url(#paint1_linear_6_425)"/>
<path d="M109.447 1.1698C107.096 0.359731 104.528 0.423417 102.221 1.34902C100.732 1.87571 99.3712 2.70599 98.226 3.78631C97.0809 4.86664 96.1767 6.17304 95.5717 7.62125C95.5598 7.80951 95.5076 7.99307 95.4184 8.1597C95.3293 8.32633 95.2054 8.47218 95.0549 8.58752C94.9044 8.70286 94.7308 8.78503 94.5458 8.82854C94.3607 8.87205 94.1685 8.8759 93.9818 8.83984C91.3525 8.83383 88.815 9.79842 86.8632 11.5459C84.5867 13.6067 84.5867 16.1336 84.2796 19.0905C83.9068 18.9045 83.4954 18.8077 83.0781 18.8077C82.6608 18.8077 82.2494 18.9045 81.8766 19.0905C81.1324 19.4544 80.4546 19.939 79.8711 20.5241C78.8744 21.318 78.0767 22.3301 77.5405 23.481C76.8178 25.4344 77.6308 27.5849 77.6669 29.6637C77.6796 29.7568 77.6717 29.8516 77.6436 29.9414C77.6155 30.0311 77.568 30.1137 77.5043 30.1834C77.4301 30.2149 77.3502 30.2312 77.2694 30.2312C77.1887 30.2312 77.1088 30.2149 77.0346 30.1834C76.4745 30.0758 75.9686 29.7891 75.4085 29.7354C74.7533 29.7415 74.1207 29.9738 73.6195 30.3924C73.1183 30.8111 72.7798 31.3898 72.6622 32.0292C72.4491 33.3128 72.5169 34.6268 72.861 35.8821C73.1967 37.1383 73.159 38.4639 72.7526 39.6992C72.3196 40.5107 71.7515 41.2438 71.0723 41.8676C69.1128 43.679 67.8376 46.1012 67.4588 48.7313C67.3525 50.0023 67.6976 51.2702 68.4345 52.3154C68.8129 52.8315 69.3198 53.2414 69.9056 53.5052C70.4914 53.7691 71.1362 53.8778 71.7769 53.8207C74.7761 53.4265 75.824 49.251 78.6787 48.2653C81.5333 47.2797 84.7313 43.9464 86.5742 41.3121C88.0557 39.1975 89.5011 36.7423 91.9944 35.9359C92.815 35.7629 93.6061 35.4732 94.3431 35.0757C94.8334 34.6962 95.2394 34.2203 95.5356 33.6779C96.5681 32.168 97.366 30.5128 97.9024 28.7676C98.8058 25.3269 97.9024 21.456 99.5827 18.284C100.062 17.3741 100.73 16.575 101.543 15.9388C102.356 15.3026 103.295 14.8438 104.298 14.5924C105.147 14.3773 106.105 14.3236 106.882 14.0906C107.864 13.8093 108.793 13.3672 109.628 12.7824C110.727 12.1556 111.673 11.2956 112.397 10.2639C113.122 9.23225 113.608 8.05445 113.82 6.81482C113.982 4.288 111.688 2.02999 109.447 1.1698Z" fill="#FF681C"/>
<path d="M116.837 5.41701C117.74 5.76261 118.489 6.41626 118.949 7.26047C119.409 8.10469 119.551 9.0841 119.349 10.0226C119.039 10.7815 118.578 11.4704 117.993 12.0477L114.723 15.6318L113.368 10.6498C113.228 9.71502 112.761 8.85875 112.049 8.23056C111.584 7.96649 111.058 7.82755 110.523 7.82755C109.987 7.82755 109.461 7.96649 108.996 8.23056C108.038 8.71442 107.189 9.46708 106.34 10.0226C106.105 10.166 105.78 10.3273 105.527 10.1839C105.274 10.0405 105.238 9.52084 105.364 9.16243C106.918 4.89731 112.862 3.71455 116.837 5.41701Z" fill="#FF681C"/>
<path d="M119.059 140.234C119.158 141.912 119.721 143.53 120.685 144.911C122.149 146.704 124.588 147.6 126.612 148.908C126.82 149.013 127.002 149.162 127.146 149.344C127.29 149.527 127.391 149.739 127.443 149.965C127.431 150.183 127.354 150.393 127.222 150.569C127.09 150.744 126.909 150.877 126.702 150.951C126.273 151.071 125.824 151.101 125.383 151.04C123.319 150.719 121.238 150.522 119.15 150.449C118.102 150.449 116.891 150.556 116.223 149.75C115.792 149.067 115.643 148.245 115.807 147.456C115.992 144.492 115.749 141.517 115.084 138.621C114.863 137.915 114.783 137.172 114.85 136.435C114.917 136.094 115.073 135.777 115.303 135.515C115.533 135.252 115.827 135.054 116.158 134.94C116.489 134.826 116.844 134.8 117.188 134.864C117.532 134.928 117.854 135.08 118.12 135.306C119.312 136.327 118.915 138.854 119.059 140.234Z" fill="#FCBDBA"/>
<path d="M85.6347 151.327C85.3896 152.989 85.6019 154.685 86.249 156.237C87.315 158.37 89.5373 159.642 91.2537 161.327C91.4397 161.468 91.5903 161.65 91.6937 161.858C91.7971 162.066 91.8506 162.295 91.8499 162.528C91.7966 162.739 91.68 162.929 91.5155 163.073C91.351 163.217 91.1463 163.308 90.9284 163.334C90.4881 163.379 90.0432 163.324 89.6276 163.173C87.6643 162.462 85.6616 161.864 83.6292 161.381C82.5994 161.201 81.3889 161.022 80.901 160.126C80.6049 159.377 80.6049 158.545 80.901 157.796C81.6855 154.924 82.0505 151.955 81.9851 148.98C81.9118 148.244 81.9855 147.501 82.2019 146.793C82.3377 146.473 82.5557 146.194 82.8341 145.983C83.1124 145.773 83.4416 145.638 83.7887 145.593C84.1359 145.547 84.489 145.593 84.8128 145.725C85.1367 145.857 85.42 146.071 85.6347 146.345C86.6645 147.546 85.7612 149.947 85.6347 151.327Z" fill="#FCBDBA"/>
<path d="M79.0581 70.6841C79.0581 70.6841 96.2944 96.0598 107.587 103.64C107.37 106.178 107.424 108.731 107.749 111.257C108.327 115.36 110.333 118.962 110.983 122.995L113.151 136.56C113.242 137.17 113.422 137.905 114.019 138.12C114.377 138.233 114.762 138.233 115.121 138.12L119.89 136.829C119.604 128.678 119.779 120.517 120.414 112.385C120.806 109.097 120.89 105.779 120.667 102.475C119.872 95.3071 113.946 88.9094 109.827 83.1569C107.352 79.6803 104.696 74.4833 101.227 71.8489C98.3361 69.6626 94.2528 70.702 90.6212 71.0604C87.8978 71.3182 85.1501 71.1244 82.4909 70.487C81.9472 70.2344 81.3487 70.1201 80.7494 70.1546C80.15 70.189 79.5688 70.371 79.0581 70.6841Z" fill="#473F47"/>
<path d="M72.4995 70.5228C72.4995 70.5228 79.2025 100.397 86.9534 111.543C85.8271 113.838 84.9373 116.239 84.2975 118.711C83.8697 120.735 83.6218 122.792 83.5568 124.858L82.003 149.804C84.4048 149.929 86.8097 149.625 89.1035 148.908L97.9204 126.919C99.604 123.416 100.597 119.627 100.847 115.755C100.847 108.264 93.6203 80.9168 92.7712 79.5369C90.8741 76.4366 86.7005 75.9528 83.1954 74.9492C80.5636 74.2113 78.0772 73.0357 75.842 71.4726C74.7399 70.7916 73.7462 70.1285 72.4995 70.5228Z" fill="#473F47"/>
<path d="M134.381 47.2617C138.054 48.9429 142.13 49.564 146.142 49.0538C147.319 48.7322 148.553 48.671 149.756 48.8746C149.232 49.6093 148.726 50.6667 149.467 51.2939C149.694 51.441 149.955 51.5274 150.226 51.5448C151.2 51.6693 152.19 51.5649 153.116 51.2401C153.554 51.025 154.038 50.9203 154.526 50.9355C154.956 51.0415 155.327 51.312 155.557 51.688C155.787 52.064 155.858 52.5149 155.754 52.9426C155.498 53.7958 154.932 54.524 154.164 54.9855C152.924 55.8007 151.486 56.2735 150 56.3554C148.514 56.4373 147.033 56.1253 145.709 55.4515C144.95 55.0393 144.245 54.5196 143.468 54.1074C141.974 53.4319 140.394 52.9616 138.771 52.7096C134.021 51.7344 129.352 50.4045 124.805 48.7312C124.116 48.5686 123.467 48.2687 122.899 47.8497C122.331 47.4307 121.854 46.9014 121.498 46.294C120.577 44.036 122.275 40.2548 124.985 41.7243C128.129 43.5342 130.966 45.8639 134.381 47.2617Z" fill="#FCBDBA"/>
<path d="M111.941 34.3947C117.306 37.8737 123.291 40.3066 129.575 41.563C129.846 41.563 130.171 41.7422 130.243 42.011C130.272 42.194 130.227 42.3809 130.117 42.5307C128.834 45.0927 127.211 47.4733 125.293 49.6094C125.087 49.8804 124.821 50.1011 124.516 50.2545C124.216 50.3417 123.901 50.3676 123.59 50.3307C123.28 50.2937 122.98 50.1946 122.709 50.0395C118.65 48.4266 114.675 46.6345 110.785 44.6633C107.322 43.157 104.238 40.9113 101.751 38.0864C100.511 36.6205 99.7762 34.7993 99.655 32.8894C99.655 30.7747 101.606 26.9756 104.298 28.015C105.509 28.4809 106.575 29.9683 107.496 30.8106C108.902 32.0945 110.387 33.2915 111.941 34.3947Z" fill="#4945FF"/>
<path d="M111.941 34.3947C117.306 37.8737 123.291 40.3066 129.575 41.563C129.846 41.563 130.171 41.7422 130.243 42.011C130.272 42.194 130.227 42.3809 130.117 42.5307C128.834 45.0927 127.211 47.4733 125.293 49.6094C125.087 49.8804 124.821 50.1011 124.516 50.2545C124.216 50.3417 123.901 50.3676 123.59 50.3307C123.28 50.2937 122.98 50.1946 122.709 50.0395C118.65 48.4266 114.675 46.6345 110.785 44.6633C107.322 43.157 104.238 40.9113 101.751 38.0864C100.511 36.6205 99.7762 34.7993 99.655 32.8894C99.655 30.7747 101.606 26.9756 104.298 28.015C105.509 28.4809 106.575 29.9683 107.496 30.8106C108.902 32.0945 110.387 33.2915 111.941 34.3947Z" fill="url(#paint2_linear_6_425)"/>
<path d="M187.571 23.7141C188.536 24.9215 189.112 26.3892 189.224 27.9261C189.336 29.463 188.979 30.9977 188.199 32.3303C187.419 33.6628 186.253 34.7315 184.851 35.397C183.45 36.0626 181.88 36.2941 180.344 36.0614C180.344 36.0614 171.798 36.2585 173.731 44.2512L189.992 64.7883L169.287 80.9169C161.229 82.8344 161.03 74.3579 161.03 74.3579C161.251 72.8363 161.007 71.2839 160.33 69.9012C159.652 68.5186 158.572 67.3691 157.23 66.6012C155.887 65.8333 154.343 65.4823 152.797 65.5935C151.252 65.7048 149.775 66.2731 148.558 67.2252C147.341 68.1773 146.44 69.4693 145.971 70.9345C145.502 72.3997 145.486 73.9708 145.926 75.4448C146.367 76.9188 147.242 78.228 148.44 79.2035C149.638 80.1789 151.103 80.7757 152.647 80.9169C160 83.3182 157.145 90.4148 157.145 90.4148L136.44 106.543L94.3611 53.552L114.868 37.4234C122.926 35.5059 123.124 43.9824 123.124 43.9824C122.933 45.239 123.059 46.5233 123.491 47.7197C123.924 48.9161 124.649 49.9872 125.603 50.8365C126.556 51.6859 127.707 52.287 128.952 52.5857C130.198 52.8845 131.499 52.8716 132.738 52.5481C133.977 52.2246 135.116 51.6008 136.052 50.7326C136.988 49.8645 137.692 48.7792 138.1 47.5745C138.508 46.3697 138.608 45.0832 138.391 43.8305C138.174 42.5779 137.646 41.3985 136.856 40.3982C136.197 39.5764 135.377 38.8956 134.445 38.3966C133.513 37.8977 132.49 37.591 131.435 37.4951C124.154 35.1116 127.009 27.9434 127.009 27.9434L147.913 11.5818L164.174 32.1368C164.174 32.1368 171.401 34.9683 173.749 27.6745C173.904 26.1472 174.517 24.7009 175.508 23.5218C176.499 22.3428 177.823 21.485 179.31 21.059C180.797 20.6329 182.378 20.6581 183.851 21.1313C185.323 21.6045 186.619 22.5041 187.571 23.7141Z" fill="#4945FF"/>
<path d="M187.571 23.7141C188.536 24.9215 189.112 26.3892 189.224 27.9261C189.336 29.463 188.979 30.9977 188.199 32.3303C187.419 33.6628 186.253 34.7315 184.851 35.397C183.45 36.0626 181.88 36.2941 180.344 36.0614C180.344 36.0614 171.798 36.2585 173.731 44.2512L189.992 64.7883L169.287 80.9169C161.229 82.8344 161.03 74.3579 161.03 74.3579C161.251 72.8363 161.007 71.2839 160.33 69.9012C159.652 68.5186 158.572 67.3691 157.23 66.6012C155.887 65.8333 154.343 65.4823 152.797 65.5935C151.252 65.7048 149.775 66.2731 148.558 67.2252C147.341 68.1773 146.44 69.4693 145.971 70.9345C145.502 72.3997 145.486 73.9708 145.926 75.4448C146.367 76.9188 147.242 78.228 148.44 79.2035C149.638 80.1789 151.103 80.7757 152.647 80.9169C160 83.3182 157.145 90.4148 157.145 90.4148L136.44 106.543L94.3611 53.552L114.868 37.4234C122.926 35.5059 123.124 43.9824 123.124 43.9824C122.933 45.239 123.059 46.5233 123.491 47.7197C123.924 48.9161 124.649 49.9872 125.603 50.8365C126.556 51.6859 127.707 52.287 128.952 52.5857C130.198 52.8845 131.499 52.8716 132.738 52.5481C133.977 52.2246 135.116 51.6008 136.052 50.7326C136.988 49.8645 137.692 48.7792 138.1 47.5745C138.508 46.3697 138.608 45.0832 138.391 43.8305C138.174 42.5779 137.646 41.3985 136.856 40.3982C136.197 39.5764 135.377 38.8956 134.445 38.3966C133.513 37.8977 132.49 37.591 131.435 37.4951C124.154 35.1116 127.009 27.9434 127.009 27.9434L147.913 11.5818L164.174 32.1368C164.174 32.1368 171.401 34.9683 173.749 27.6745C173.904 26.1472 174.517 24.7009 175.508 23.5218C176.499 22.3428 177.823 21.485 179.31 21.059C180.797 20.6329 182.378 20.6581 183.851 21.1313C185.323 21.6045 186.619 22.5041 187.571 23.7141Z" fill="url(#paint3_linear_6_425)"/>
<path d="M119.15 70.4512C123.576 74.0353 128.183 77.8883 133.604 78.8201C134.646 79.0518 135.725 79.0744 136.777 78.8867C137.829 78.699 138.832 78.3047 139.728 77.727C140.038 77.5446 140.289 77.2802 140.455 76.9636C140.621 76.647 140.695 76.2907 140.668 75.9349C140.469 75.0568 139.385 74.7522 138.5 74.5909C134.359 74.0293 130.383 72.6129 126.828 70.4333C125.51 69.5078 124.26 68.4896 123.088 67.3868L114.29 59.6092C114.182 59.4796 114.047 59.3753 113.894 59.304C113.741 59.2327 113.573 59.1962 113.404 59.197C113.043 59.197 112.826 59.6092 112.664 59.9318C112.118 61.0326 111.706 62.1936 111.435 63.3905C111.164 64.6987 111.435 64.8779 112.573 65.6305C114.85 67.1598 117.042 68.7667 119.15 70.4512Z" fill="url(#paint4_linear_6_425)"/>
<path d="M123.233 63.8922C126.294 66.5491 130.054 68.2892 134.073 68.91C135.269 68.9261 136.447 69.2013 137.524 69.7164C136.783 70.2719 135.988 71.2217 136.548 71.9565C136.728 72.161 136.959 72.3154 137.217 72.4045C138.117 72.7857 139.094 72.9573 140.072 72.9063C140.555 72.8332 141.05 72.87 141.517 73.0138C141.706 73.1231 141.871 73.2682 142.003 73.4409C142.135 73.6136 142.232 73.8104 142.287 74.0202C142.343 74.2299 142.356 74.4484 142.326 74.6632C142.296 74.878 142.224 75.0848 142.113 75.2718C141.641 76.031 140.889 76.5776 140.017 76.7951C138.598 77.2389 137.085 77.2968 135.636 76.9626C134.187 76.6285 132.855 75.9146 131.779 74.8955C131.146 74.2862 130.622 73.5873 129.972 72.9959C128.729 71.932 127.343 71.0454 125.853 70.3616C121.568 68.1033 117.461 65.5273 113.567 62.6557C112.952 62.3097 112.414 61.844 111.986 61.2866C111.557 60.7292 111.247 60.0915 111.073 59.412C110.821 56.9748 113.513 53.8028 115.717 55.9892C118.282 58.5698 120.36 61.5267 123.233 63.8922Z" fill="#FCBDBA"/>
<path d="M72.4995 74.3579C72.8232 74.7426 73.231 75.049 73.692 75.2539C75.51 76.2826 77.3998 77.1809 79.3471 77.942C84.4069 79.7386 89.9455 79.6941 94.9754 77.8166C96.9879 77.098 98.877 76.0765 100.576 74.788C101.221 74.3524 101.763 73.7839 102.166 73.1214C102.646 72.0409 102.796 70.8449 102.6 69.6806C102.148 63.6413 101.48 57.4049 102.6 51.5449C102.96 49.5318 103.567 47.5698 104.407 45.7028C105.87 43.1549 107.08 40.4721 108.02 37.6922C108.342 35.9839 108.285 34.2263 107.851 32.5425C107.417 30.8586 106.618 29.289 105.509 27.9434C103.16 24.9685 98.8599 22.3342 95.0657 23.6783C90.6831 25.3163 86.8821 28.1952 84.1349 31.9576C81.1394 36.1709 78.7666 40.7874 77.0886 45.6669C76.3659 47.5844 75.6613 49.5019 75.1012 51.4732C73.905 56.2417 73.1312 61.1047 72.7886 66.0069C72.5899 68.0498 72.4092 70.0928 72.1924 72.1357C72.0218 72.889 72.1309 73.678 72.4995 74.3579Z" fill="#4945FF"/>
<path d="M94.9754 77.8165C96.988 77.0979 98.8771 76.0765 100.576 74.7879C101.221 74.3524 101.763 73.7839 102.166 73.1213C102.646 72.0408 102.796 70.8449 102.6 69.6806C102.148 63.6413 101.48 57.4049 102.6 51.5448C101.877 50.828 101.064 50.1829 100.269 49.5377C98.4624 48.0682 95.8607 45.1651 93.241 45.3622C93.8733 48.1041 94.3792 50.8997 94.7586 53.6953C95.1381 56.4909 94.9935 59.3941 95.4452 62.1539C96.0445 67.0371 95.9289 71.9805 95.1019 76.8309C95.025 77.1541 94.9826 77.4845 94.9754 77.8165Z" fill="url(#paint5_linear_6_425)"/>
<path d="M116.963 54.4838C117.105 54.5551 117.23 54.6537 117.333 54.7737C117.435 54.8937 117.512 55.0327 117.56 55.1827C117.565 55.4805 117.455 55.7691 117.253 55.9891C115.611 58.2872 113.552 60.2622 111.182 61.8133C110.953 61.9936 110.677 62.1055 110.387 62.1359C110.054 62.1005 109.742 61.9554 109.502 61.7237C105.888 58.9818 102.275 56.3475 98.7516 53.4802C96.4732 51.8766 94.4615 49.9296 92.7893 47.7097C91.5607 45.7061 90.624 43.5401 90.0069 41.2762C87.8569 34.556 94.3612 31.6349 98.7154 36.5631C104.461 43.0862 109.7 49.448 116.963 54.4838Z" fill="#4945FF"/>
<path d="M116.078 150.001C115.984 149.778 115.951 149.535 115.983 149.296C116.014 149.056 116.11 148.83 116.259 148.639C116.656 148.263 117.307 148.442 117.813 148.639C118.93 149.176 120.098 149.603 121.3 149.911C122.51 150.227 123.795 150.093 124.913 149.535C125.527 149.177 126.124 148.639 126.828 148.693C127.183 148.745 127.522 148.874 127.822 149.069C128.907 149.627 130.07 150.02 131.273 150.234C131.779 150.277 132.268 150.436 132.7 150.7C132.831 150.791 132.926 150.924 132.971 151.076C132.971 151.435 132.628 151.703 132.285 151.829C128.527 153.28 124.317 152.743 120.306 152.313C119.856 152.25 119.4 152.25 118.951 152.313C118.282 152.438 117.469 152.779 116.909 152.313C116.43 151.629 116.143 150.831 116.078 150.001Z" fill="#473F47"/>
<path d="M80.395 160.216C80.3362 159.984 80.3368 159.741 80.3967 159.509C80.4567 159.278 80.5741 159.065 80.7383 158.89C81.19 158.567 81.8043 158.89 82.2921 159.087C83.3419 159.749 84.4482 160.319 85.5984 160.789C86.764 161.219 88.0464 161.219 89.2119 160.789C89.8623 160.52 90.5128 160.055 91.2174 160.198C91.5592 160.297 91.8783 160.462 92.1569 160.682C93.1518 161.404 94.2555 161.967 95.4271 162.348C95.9302 162.452 96.401 162.673 96.8002 162.993C96.8587 163.042 96.9065 163.102 96.9407 163.17C96.9749 163.238 96.9947 163.312 96.9989 163.388C96.9989 163.746 96.6015 163.961 96.2401 164.051C92.3195 165.036 88.2182 164.051 84.2976 163.065C83.8571 162.938 83.4011 162.872 82.9425 162.868C82.274 162.868 81.4249 163.155 80.919 162.545C80.5531 161.824 80.373 161.023 80.395 160.216Z" fill="#473F47"/>
<path d="M113.856 17.7106C113.549 18.6963 113.242 19.6819 112.989 20.6855C112.702 22.1823 112.303 23.6558 111.796 25.094C111.539 25.8112 111.128 26.4645 110.591 27.009C110.055 27.5535 109.406 27.9762 108.689 28.248C107.957 28.4798 107.164 28.4228 106.474 28.089C105.784 27.7551 105.251 27.1702 104.985 26.4559C104.117 26.6531 103.81 27.7104 103.828 28.6064C103.974 29.483 103.808 30.3825 103.359 31.1512C102.546 32.1009 100.956 31.7067 99.8897 31.0257C98.276 29.9471 97.0213 28.4176 96.2847 26.631C95.5482 24.8445 95.3629 22.8813 95.7523 20.9901C96.6376 16.9938 96.6015 12.209 98.896 8.75031C99.7205 7.58316 100.771 6.59023 101.986 5.82924C103.05 5.05606 104.292 4.55726 105.599 4.37766C106.514 4.32442 107.432 4.39679 108.327 4.59271C112.158 5.23786 115.41 5.7934 115.428 10.1481C115.31 12.7355 114.78 15.2881 113.856 17.7106Z" fill="#FCBDBA"/>
<path d="M109.14 10.6678C108.544 10.6678 107.858 10.5244 107.334 10.8828C106.81 11.2413 106.774 12.0477 106.448 12.6749C105.816 13.8398 104.208 14.001 102.997 14.6103C102.264 14.9995 101.654 15.582 101.233 16.2934C100.812 17.0049 100.597 17.8178 100.613 18.6425C100.636 18.1148 100.504 17.5918 100.233 17.1372C100.161 17.0294 100.067 16.9374 99.9579 16.8669C99.8486 16.7964 99.7258 16.7487 99.5973 16.7269C99.4687 16.7051 99.337 16.7096 99.2102 16.7401C99.0834 16.7705 98.9643 16.8264 98.86 16.9042C98.6971 17.0957 98.6019 17.3349 98.589 17.5852C98.5399 18.0969 98.6237 18.6127 98.8324 19.0832C99.0411 19.5538 99.3679 19.9635 99.7815 20.2733C99.4063 21.0417 98.8175 21.6878 98.0845 22.1355C97.3515 22.5832 96.5047 22.8137 95.644 22.8001C95.1002 22.813 94.5692 22.6353 94.1444 22.2983C93.8772 22.0257 93.679 21.694 93.5663 21.3306C92.5364 18.4633 94.1083 15.3988 94.4877 12.3702C94.5238 11.3008 94.7 10.2406 95.0117 9.21622C95.3467 8.4926 95.8051 7.83177 96.3667 7.26286C98.0532 5.25395 100.286 3.76741 102.799 2.97982C105.22 2.31676 110.026 2.65724 111.923 4.55683C112.353 5.10042 112.625 5.75065 112.709 6.43684C112.793 7.12303 112.686 7.81893 112.399 8.4489C112.112 9.07886 111.657 9.61879 111.082 10.01C110.508 10.4012 109.836 10.6287 109.14 10.6678Z" fill="#FF681C"/>
<path d="M108.074 282.721V249.192C112.519 239.622 121.282 246.145 121.282 246.145C122.65 247.567 124.416 248.55 126.352 248.968C128.289 249.385 130.307 249.217 132.146 248.486C133.986 247.756 135.562 246.495 136.673 244.867C137.783 243.239 138.377 241.319 138.377 239.353C138.377 237.388 137.783 235.468 136.673 233.84C135.562 232.212 133.986 230.951 132.146 230.22C130.307 229.49 128.289 229.322 126.352 229.739C124.416 230.157 122.65 231.14 121.282 232.562C113.007 237.938 108.074 229.515 108.074 229.515V195.968H141.879C141.879 195.968 150.443 191.075 144.95 182.867C143.516 181.511 142.525 179.759 142.105 177.838C141.684 175.918 141.853 173.916 142.59 172.091C143.327 170.267 144.598 168.703 146.239 167.601C147.88 166.5 149.816 165.911 151.798 165.911C153.779 165.911 155.715 166.5 157.357 167.601C158.998 168.703 160.269 170.267 161.005 172.091C161.742 173.916 161.911 175.918 161.491 177.838C161.07 179.759 160.079 181.511 158.645 182.867C158.645 182.867 152.069 191.559 161.717 195.968H195.521V282.721H108.074Z" fill="url(#paint6_linear_6_425)"/>
<path d="M43.3026 280.929H37.1958L99.7091 117.206C99.9193 116.678 100.285 116.224 100.759 115.904C101.232 115.585 101.792 115.414 102.365 115.414C102.827 115.413 103.283 115.524 103.693 115.737C104.103 115.949 104.454 116.258 104.717 116.635C104.981 117.012 105.147 117.447 105.203 117.903C105.259 118.358 105.203 118.82 105.039 119.249L43.3026 280.929Z" fill="#4945FF"/>
<path d="M79.9252 280.929H73.8184L137.018 115.378H143.125L79.9252 280.929Z" fill="#4945FF"/>
<path d="M127.153 141.238H94.8489L96.4749 136.973H128.78L127.153 141.238Z" fill="#4945FF"/>
<path d="M117.216 167.241H84.9119L86.556 162.976H118.861L117.216 167.241Z" fill="#4945FF"/>
<path d="M107.297 193.244H74.9929L76.619 188.96H108.924L107.297 193.244Z" fill="#4945FF"/>
<path d="M97.3785 219.228H65.074L66.7 214.963H99.0046L97.3785 219.228Z" fill="#4945FF"/>
<path d="M87.4412 245.231H55.1367L56.7808 240.966H89.0673L87.4412 245.231Z" fill="#4945FF"/>
<path d="M96.6376 141.238L88.3266 162.976H118.915L117.289 167.241H86.7547L78.4618 188.961H108.978L107.352 193.226H76.7815L68.4886 214.963H99.0406L97.4145 219.229H66.8625L58.5515 240.966H89.0854L87.4413 245.231H56.9254L43.3026 280.929H37.1958L99.7091 117.206C99.9806 116.644 100.431 116.187 100.991 115.905C101.551 115.623 102.19 115.532 102.807 115.647C103.425 115.761 103.987 116.074 104.407 116.537C104.826 117.001 105.08 117.589 105.129 118.21C105.129 118.552 105.068 118.892 104.949 119.213L98.1734 136.973H128.689L127.063 141.238H96.6376Z" fill="url(#paint7_linear_6_425)"/>
<path d="M79.9252 280.929H73.8184L137.018 115.378H143.125L79.9252 280.929Z" fill="url(#paint8_linear_6_425)"/>
<path d="M382.898 139.374C381.995 140.131 380.913 140.649 379.754 140.879C378.69 140.924 377.628 140.734 376.646 140.324L361.614 135.36C360.479 136.237 359.72 137.509 359.492 138.919C359.265 140.329 359.584 141.772 360.386 142.958C361.859 144.559 363.776 145.694 365.896 146.22L376.213 149.893C378.594 150.997 381.192 151.561 383.82 151.546C386.448 151.53 389.04 150.935 391.408 149.804C394.479 148.782 397.858 147.51 399.339 144.643C400.821 141.775 399.737 137.976 400.17 134.625C400.741 132.497 401.145 130.328 401.381 128.138C401.381 126.256 399.827 123.425 397.569 123.819C395.617 124.159 394.316 127.528 393.287 128.944C390.383 132.928 386.879 136.446 382.898 139.374Z" fill="white"/>
<path d="M359.736 134.518C359.579 134.114 359.339 133.748 359.031 133.442C358.879 133.289 358.685 133.183 358.473 133.138C358.261 133.094 358.04 133.112 357.838 133.191C357.641 133.312 357.482 133.485 357.38 133.691C357.278 133.897 357.236 134.128 357.26 134.356C357.275 134.437 357.273 134.52 357.254 134.6C357.235 134.68 357.201 134.756 357.152 134.822C357.043 134.93 356.845 134.822 356.682 134.822C354.984 134.5 353.249 134.249 351.515 134.069C351.329 134.033 351.136 134.046 350.957 134.11C350.779 134.173 350.621 134.283 350.5 134.428C350.379 134.574 350.301 134.749 350.273 134.935C350.245 135.121 350.268 135.311 350.34 135.485C350.529 136.056 350.816 136.59 351.19 137.062C352.075 138.496 352.4 140.378 353.809 141.309C354.671 141.809 355.673 142.017 356.664 141.901C357.658 141.901 358.633 141.668 359.627 141.722C360.284 141.861 360.969 141.786 361.578 141.507C361.806 141.338 361.987 141.114 362.104 140.857C362.221 140.6 362.27 140.318 362.247 140.037C362.142 139.152 361.826 138.304 361.326 137.564C360.765 136.596 360.241 135.557 359.736 134.518Z" fill="#FDB9A9"/>
<path d="M401.652 246.755C395.906 245.464 397.027 253.547 395.509 256.557C394.548 258.103 393.326 259.474 391.895 260.607C390.487 261.771 389.566 263.413 389.312 265.213C389.278 265.548 389.347 265.885 389.511 266.181C389.803 266.535 390.213 266.776 390.667 266.862C393.952 267.813 397.481 267.466 400.514 265.894C401.934 265.229 403.114 264.147 403.892 262.794C404.522 261.335 404.818 259.756 404.76 258.17C404.94 254.801 406.458 247.812 401.652 246.755Z" fill="#FDB9A9"/>
<path d="M396.557 263.421C396.557 263.421 380.188 264.12 387.126 269.209C394.064 274.299 404.416 267.973 405.428 266.808C406.44 265.643 405.609 263.654 405.609 263.654L396.557 263.421Z" fill="#4945FF"/>
<path d="M404.705 265.661C403.26 267.453 395.563 269.801 392.148 269.55C388.734 269.299 385.68 267.758 386.023 265.553C386.367 263.349 392.365 258.278 393.503 258.296C394.642 258.314 395.527 260.912 397.803 261.45C398.821 261.617 399.864 261.524 400.835 261.179C401.806 260.834 402.671 260.248 403.35 259.478C403.553 259.209 403.842 259.015 404.169 258.927C404.497 258.84 404.844 258.863 405.157 258.994C405.633 260.059 405.841 261.222 405.762 262.383C405.683 263.545 405.321 264.67 404.705 265.661Z" fill="white"/>
<path d="M421.4 249.945C415.654 248.618 416.774 256.719 415.257 259.711C414.297 261.263 413.074 262.639 411.643 263.779C410.236 264.936 409.314 266.572 409.06 268.367C409.03 268.708 409.099 269.05 409.258 269.353C409.556 269.702 409.963 269.941 410.415 270.034C413.7 270.978 417.226 270.631 420.261 269.066C421.679 268.389 422.857 267.302 423.64 265.948C424.267 264.494 424.563 262.922 424.507 261.342C424.688 257.937 426.206 250.966 421.4 249.945Z" fill="#FDB9A9"/>
<path d="M416.305 266.539C416.305 266.539 399.935 267.22 406.873 272.345C413.811 277.471 424.164 271.091 425.176 269.926C426.187 268.761 425.356 266.772 425.356 266.772L416.305 266.539Z" fill="#4945FF"/>
<path d="M424.453 268.743C423.008 270.535 415.311 272.901 411.896 272.65C408.481 272.399 405.428 270.858 405.771 268.654C406.115 266.449 412.113 261.378 413.251 261.485C414.389 261.593 415.275 264.102 417.551 264.622C418.567 264.793 419.61 264.703 420.581 264.361C421.552 264.019 422.418 263.436 423.098 262.668C423.299 262.396 423.588 262.2 423.916 262.112C424.244 262.024 424.593 262.05 424.905 262.184C425.362 263.234 425.56 264.377 425.482 265.518C425.403 266.659 425.05 267.765 424.453 268.743Z" fill="white"/>
<path d="M406.566 176.237L414.263 256.593L425.356 255.231C429.747 235.626 428.663 176.972 428.663 176.972L406.566 176.237Z" fill="#473F47"/>
<path d="M414.263 174.068L406.566 254.407L395.437 253.045C389.095 202.222 394.335 170.61 394.335 170.61L414.263 174.068Z" fill="#473F47"/>
<path d="M395.346 145.019C395.202 143.55 394.804 142.08 394.66 140.575C394.298 137.547 394.353 134.484 394.822 131.471C395.345 128.256 396.324 125.131 397.731 122.188C398.996 119.643 401.345 118.604 403.91 117.278C406.093 116.114 408.456 115.321 410.902 114.93C412.624 114.774 414.359 114.871 416.052 115.217C421.291 116.203 428.175 118.801 431.752 122.977C434.444 126.041 434.751 130.45 434.842 134.518C434.95 140.127 434.842 145.736 434.48 151.345C434.48 152.152 434.39 152.958 434.318 153.782C434.026 160.022 433.075 166.215 431.481 172.259C431.182 174.147 430.151 175.844 428.608 176.99C424.507 179.355 418.256 178.047 413.829 177.438C407.957 176.613 401.941 175.753 396.737 172.922C395.657 172.462 394.784 171.627 394.28 170.574C394.021 169.247 394.192 167.874 394.768 166.649C396.575 160.915 395.166 154.875 395.166 149.015C395.166 147.958 395.292 146.883 395.292 145.808C395.346 145.557 395.346 145.288 395.346 145.019Z" fill="white"/>
<path d="M413.775 155.395C415.168 156.255 416.703 156.861 418.31 157.187C423.098 158.567 428.012 159.302 432.764 160.771C433.087 160.834 433.387 160.982 433.631 161.201C433.826 161.499 433.915 161.852 433.884 162.205C433.906 163.585 433.699 164.96 433.27 166.273C433.13 166.929 432.751 167.51 432.204 167.904C431.51 168.154 430.748 168.154 430.054 167.904L412.149 164.14C410.868 163.816 409.55 163.659 408.229 163.674C406.662 163.855 405.126 164.235 403.657 164.803C400.912 165.676 398.085 166.276 395.22 166.596C395.372 163.206 395.789 159.832 396.467 156.506C396.729 155.523 397.105 154.573 397.587 153.675C398.164 152.788 398.843 151.97 399.61 151.238C402.501 148.245 404.507 144.499 407.434 141.507C408.969 139.93 410.884 138.926 412.239 137.242C412.781 136.561 417.479 130.7 417.027 130.073C417.931 131.184 420.171 130.073 420.984 131.22C421.49 131.937 420.984 132.905 420.514 133.639C417.053 139.389 414.637 145.698 413.378 152.277C413.016 153.8 412.474 154.338 413.775 155.395Z" fill="url(#paint9_linear_6_425)"/>
<path d="M399.177 81.8308C400.838 82.8893 402.143 84.4155 402.924 86.2139C403.705 88.0123 403.928 90.0012 403.563 91.9258C403.199 93.8504 402.263 95.6232 400.876 97.0174C399.49 98.4115 397.715 99.3635 395.78 99.7514C395.78 99.7514 385.518 103.586 391.281 112.439L419.792 130.45L401.724 158.728C392.799 164.445 388.933 154.266 388.933 154.266C388.544 152.344 387.585 150.582 386.178 149.205C384.771 147.829 382.982 146.901 381.039 146.542C379.096 146.183 377.09 146.409 375.278 147.19C373.466 147.971 371.93 149.273 370.87 150.927C369.81 152.58 369.273 154.511 369.328 156.47C369.383 158.43 370.028 160.328 371.179 161.92C372.331 163.513 373.937 164.727 375.79 165.407C377.644 166.087 379.66 166.201 381.579 165.735C391.516 165.538 391.083 175.341 391.083 175.341L373.015 203.62L299.228 157.026L317.205 128.998C326.13 123.299 329.997 133.46 329.997 133.46C330.379 135.389 331.336 137.16 332.743 138.545C334.15 139.929 335.943 140.864 337.891 141.228C339.838 141.593 341.851 141.37 343.67 140.589C345.489 139.807 347.03 138.504 348.095 136.846C349.16 135.187 349.699 133.251 349.644 131.286C349.589 129.321 348.941 127.417 347.785 125.82C346.629 124.224 345.016 123.007 343.157 122.328C341.297 121.649 339.274 121.537 337.35 122.009C327.413 122.206 327.865 112.403 327.865 112.403L346.185 83.8379L374.713 101.866C374.713 101.866 384.596 102.296 384.398 92.4398C384.082 91.1452 384.031 89.801 384.249 88.4867C384.466 87.1724 384.947 85.9146 385.662 84.7877C387.085 82.649 389.292 81.1441 391.815 80.5921C394.338 80.0401 396.979 80.4844 399.177 81.8308Z" fill="#4945FF"/>
<path d="M443.171 139.768C443.911 141.047 444.516 142.398 444.978 143.8C445.561 146.258 445.623 148.809 445.158 151.291C444.94 153.725 444.059 156.054 442.611 158.029C439.557 161.614 434.101 161.954 429.367 161.506C423.994 161.014 418.688 159.957 413.54 158.352C413.062 158.245 412.612 158.037 412.221 157.743C411.804 157.274 411.518 156.706 411.39 156.094C410.996 154.609 410.736 153.091 410.613 151.56C416.034 150.019 422.032 151.273 427.687 150.449C428.072 150.447 428.452 150.355 428.794 150.178C429.136 150.002 429.43 149.747 429.653 149.435C429.875 149.123 430.02 148.763 430.074 148.384C430.128 148.006 430.09 147.62 429.964 147.259C429.692 144.105 427.723 141.345 426.802 138.299C425.899 135.367 425.975 132.224 427.019 129.338C427.329 128.321 427.859 127.383 428.57 126.588C429.281 125.793 430.157 125.16 431.138 124.733C433.396 123.998 434.264 125.754 435.51 127.403C438.38 131.324 440.941 135.458 443.171 139.768Z" fill="white"/>
<path d="M408.355 149.553C408.142 149.381 407.886 149.27 407.614 149.23C407.406 149.252 407.208 149.328 407.04 149.451C406.871 149.574 406.739 149.739 406.657 149.929C406.498 150.316 406.317 150.693 406.115 151.058C405.843 151.357 405.507 151.591 405.132 151.744C404.756 151.896 404.351 151.962 403.946 151.937C403.135 151.856 402.318 151.856 401.507 151.937C401.207 151.997 400.927 152.133 400.694 152.331C400.472 152.547 400.316 152.82 400.243 153.119C400.105 153.728 400.122 154.361 400.292 154.962C400.463 155.562 400.781 156.112 401.218 156.56C402.101 157.447 403.185 158.111 404.38 158.495C405.6 159.029 406.952 159.192 408.265 158.961C408.985 158.754 409.672 158.446 410.306 158.047L412.944 156.596C413.164 156.493 413.361 156.346 413.522 156.166C414.1 155.449 413.305 153.298 412.781 152.582C411.463 151.363 409.972 150.343 408.355 149.553Z" fill="#FDB9A9"/>
<path d="M406.584 106.794C406.584 105.253 406.711 103.694 406.873 102.189C407.036 100.683 407.235 99.5006 407.488 98.1745C407.505 97.7819 407.607 97.3977 407.788 97.0482C407.969 96.6986 408.224 96.392 408.535 96.1494C410.624 94.9126 413.024 94.291 415.455 94.3574C416.375 94.2931 417.298 94.4193 418.166 94.7278C419.033 95.0363 419.827 95.5204 420.496 96.1494C421.312 97.1786 421.797 98.4274 421.887 99.7336C421.972 103.125 421.632 106.514 420.876 109.823C420.494 112.421 420.354 115.049 420.46 117.672C419.18 118.516 417.709 119.034 416.178 119.177C415.466 119.171 414.759 119.056 414.082 118.837C413.705 118.752 413.372 118.536 413.143 118.228C413.062 117.94 413.062 117.637 413.143 117.35C413.161 117.075 413.161 116.8 413.143 116.525C413.248 114.99 413.218 113.449 413.052 111.92C413.055 111.853 413.044 111.787 413.019 111.725C412.994 111.663 412.956 111.607 412.908 111.561C412.809 111.526 412.7 111.526 412.601 111.561H412.167C411.398 111.642 410.623 111.642 409.854 111.561C408.929 111.471 408.069 111.051 407.433 110.378C406.699 109.335 406.395 108.053 406.584 106.794Z" fill="#FDB9A9"/>
<path d="M409.8 96.9737C409.258 96.9737 408.77 97.2605 408.301 96.9737C407.809 96.5697 407.377 96.0992 407.018 95.5759C406.155 94.4403 405.731 93.0347 405.825 91.6155C405.859 90.9733 406.072 90.3529 406.44 89.8234C406.841 89.3417 407.356 88.9662 407.939 88.7302C409.06 88.1829 410.307 87.9417 411.553 88.0313C413.358 88.2641 415.041 89.0613 416.359 90.3073C416.636 90.5944 416.976 90.8151 417.352 90.9524C417.698 91.0244 418.055 91.0244 418.4 90.9524C420.687 90.7615 422.959 91.455 424.742 92.8878C425.754 93.7659 426.549 94.895 427.597 95.6655C428.645 96.4361 429.674 96.7229 430.216 97.7085C430.443 98.1665 430.534 98.6788 430.48 99.1861C430.426 99.6934 430.228 100.175 429.909 100.576C429.237 101.362 428.311 101.893 427.289 102.081C427.402 102.373 427.454 102.684 427.444 102.995C427.434 103.307 427.361 103.614 427.23 103.898C427.098 104.182 426.912 104.436 426.68 104.648C426.448 104.859 426.176 105.022 425.88 105.128C425.463 105.191 425.06 105.324 424.688 105.522C424.435 105.719 424.326 106.024 424.074 106.221C423.477 106.705 422.7 106.866 422.447 107.69C422.372 108.037 422.342 108.393 422.357 108.748C422.313 109.273 422.098 109.771 421.743 110.163C421.508 110.414 421.092 111.041 420.749 111.113C420.406 111.185 420.099 110.773 419.99 110.414C419.567 108.895 419.675 107.277 420.297 105.827C420.745 105.126 421.006 104.325 421.056 103.497C421.056 102.673 419.864 102.027 419.25 102.511C418.635 102.995 418.599 104.16 417.949 103.927C418.352 102.769 418.322 101.505 417.865 100.367C417.407 99.2284 416.552 98.2913 415.455 97.7264C414.238 97.3571 412.97 97.1817 411.697 97.2067C411.103 97.0825 410.498 97.0164 409.891 97.0096L409.8 96.9737Z" fill="#473F47"/>
<path d="M412.167 111.597C413.961 111.258 415.716 110.742 417.407 110.056C417.559 111.468 417.216 112.889 416.437 114.08C415.657 115.272 414.487 116.16 413.125 116.597C413.26 115.065 413.26 113.523 413.125 111.991C413.123 111.858 413.071 111.73 412.98 111.633C412.881 111.597 412.772 111.597 412.673 111.633H412.257L412.167 111.597Z" fill="#DE9F93"/>
<path d="M355.598 124.482C355.872 124.871 356.049 125.32 356.115 125.79C356.181 126.26 356.134 126.739 355.977 127.188C355.664 128.085 355.206 128.926 354.622 129.679L351.786 133.837C351.045 134.912 349.979 136.13 348.732 136.023C345.625 135.808 344.252 127.815 345.408 125.45C346.745 122.493 353.556 121.955 355.598 124.482Z" fill="#FDB9A9"/>
<path d="M370.233 195.968V282.721H282.786V249.174C282.786 249.174 287.719 240.68 295.993 246.127C297.361 247.549 299.127 248.532 301.064 248.95C303 249.367 305.018 249.199 306.858 248.469C308.697 247.738 310.274 246.477 311.385 244.849C312.495 243.222 313.089 241.301 313.089 239.336C313.089 237.37 312.495 235.45 311.385 233.822C310.274 232.194 308.697 230.933 306.858 230.203C305.018 229.472 303 229.304 301.064 229.721C299.127 230.139 297.361 231.122 295.993 232.544C295.993 232.544 287.231 239.067 282.786 229.497V195.968H316.59C326.238 191.559 319.662 182.867 319.662 182.867C318.228 181.511 317.237 179.759 316.816 177.838C316.396 175.918 316.565 173.916 317.302 172.091C318.038 170.267 319.309 168.703 320.95 167.601C322.592 166.5 324.528 165.911 326.509 165.911C328.491 165.911 330.427 166.5 332.068 167.601C333.709 168.703 334.98 170.267 335.717 172.091C336.454 173.916 336.623 175.918 336.202 177.838C335.782 179.759 334.791 181.511 333.357 182.867C327.937 191.075 336.428 195.968 336.428 195.968H370.233Z" fill="#4945FF"/>
<path d="M370.233 195.968V282.721H282.786V249.174C282.786 249.174 287.719 240.68 295.993 246.127C297.361 247.549 299.127 248.532 301.064 248.95C303 249.367 305.018 249.199 306.858 248.469C308.697 247.738 310.274 246.477 311.385 244.849C312.495 243.222 313.089 241.301 313.089 239.336C313.089 237.37 312.495 235.45 311.385 233.822C310.274 232.194 308.697 230.933 306.858 230.203C305.018 229.472 303 229.304 301.064 229.721C299.127 230.139 297.361 231.122 295.993 232.544C295.993 232.544 287.231 239.067 282.786 229.497V195.968H316.59C326.238 191.559 319.662 182.867 319.662 182.867C318.228 181.511 317.237 179.759 316.816 177.838C316.396 175.918 316.565 173.916 317.302 172.091C318.038 170.267 319.309 168.703 320.95 167.601C322.592 166.5 324.528 165.911 326.509 165.911C328.491 165.911 330.427 166.5 332.068 167.601C333.709 168.703 334.98 170.267 335.717 172.091C336.454 173.916 336.623 175.918 336.202 177.838C335.782 179.759 334.791 181.511 333.357 182.867C327.937 191.075 336.428 195.968 336.428 195.968H370.233Z" fill="url(#paint10_linear_6_425)"/>
<path d="M225.657 152.582C225.651 154.546 225.054 156.464 223.941 158.089C222.828 159.715 221.251 160.973 219.412 161.703C217.574 162.433 215.557 162.601 213.621 162.186C211.685 161.771 209.918 160.792 208.547 159.374C200.272 153.997 195.34 162.42 195.34 162.42V195.968H282.786V109.214H195.34V142.743C199.785 152.313 208.547 145.79 208.547 145.79C209.918 144.372 211.685 143.392 213.621 142.977C215.557 142.562 217.574 142.73 219.412 143.46C221.251 144.19 222.828 145.449 223.941 147.074C225.054 148.699 225.651 150.617 225.657 152.582Z" fill="#4945FF"/>
<path d="M232.216 209.068C230.782 210.424 229.791 212.176 229.37 214.097C228.949 216.018 229.118 218.019 229.855 219.844C230.592 221.668 231.863 223.232 233.504 224.334C235.145 225.435 237.081 226.024 239.063 226.024C241.045 226.024 242.981 225.435 244.622 224.334C246.263 223.232 247.534 221.668 248.271 219.844C249.008 218.019 249.177 216.018 248.756 214.097C248.335 212.176 247.344 210.424 245.911 209.068C245.911 209.068 239.334 200.376 248.982 195.968H229.126C229.126 195.968 237.708 200.86 232.216 209.068Z" fill="#4945FF"/>
<path d="M195.34 109.214V142.743C199.785 152.313 208.547 145.79 208.547 145.79C209.915 144.368 211.681 143.385 213.618 142.967C215.554 142.55 217.572 142.718 219.412 143.449C221.251 144.179 222.828 145.44 223.938 147.068C225.049 148.696 225.643 150.616 225.643 152.582C225.643 154.547 225.049 156.468 223.938 158.095C222.828 159.723 221.251 160.984 219.412 161.715C217.572 162.446 215.554 162.613 213.618 162.196C211.681 161.779 209.915 160.796 208.547 159.374C200.272 153.997 195.34 162.42 195.34 162.42V195.968H229.126C229.126 195.968 237.69 200.86 232.198 209.068C230.764 210.424 229.773 212.176 229.352 214.097C228.932 216.018 229.101 218.019 229.837 219.844C230.574 221.668 231.845 223.232 233.486 224.334C235.127 225.435 237.064 226.024 239.045 226.024C241.027 226.024 242.963 225.435 244.604 224.334C246.245 223.232 247.516 221.668 248.253 219.844C248.99 218.019 249.159 216.018 248.738 214.097C248.317 212.176 247.326 210.424 245.893 209.068C245.893 209.068 239.316 200.376 248.964 195.968H282.786V109.214H195.34Z" fill="url(#paint11_linear_6_425)"/>
<path d="M195.34 195.968V282.721H282.786V249.174C282.786 249.174 287.719 240.68 295.994 246.127C297.362 247.549 299.128 248.532 301.064 248.95C303.001 249.367 305.019 249.199 306.858 248.469C308.698 247.738 310.274 246.477 311.385 244.849C312.495 243.222 313.089 241.301 313.089 239.336C313.089 237.37 312.495 235.45 311.385 233.822C310.274 232.194 308.698 230.933 306.858 230.203C305.019 229.472 303.001 229.304 301.064 229.721C299.128 230.139 297.362 231.122 295.994 232.544C295.994 232.544 287.231 239.067 282.786 229.497V195.968H249C239.352 200.376 245.929 209.068 245.929 209.068C247.363 210.424 248.354 212.176 248.774 214.097C249.195 216.018 249.026 218.019 248.289 219.844C247.552 221.668 246.281 223.232 244.64 224.334C242.999 225.435 241.063 226.024 239.081 226.024C237.1 226.024 235.164 225.435 233.522 224.334C231.881 223.232 230.61 221.668 229.874 219.844C229.137 218.019 228.968 216.018 229.388 214.097C229.809 212.176 230.8 210.424 232.234 209.068C237.654 200.86 229.162 195.968 229.162 195.968H195.34Z" fill="#4945FF"/>
<path d="M108.074 282.721V249.192C112.519 239.622 121.282 246.145 121.282 246.145C122.65 247.567 124.416 248.55 126.352 248.968C128.289 249.385 130.307 249.217 132.146 248.486C133.986 247.756 135.562 246.495 136.673 244.867C137.783 243.239 138.377 241.319 138.377 239.353C138.377 237.388 137.783 235.468 136.673 233.84C135.562 232.212 133.986 230.951 132.146 230.22C130.307 229.49 128.289 229.322 126.352 229.739C124.416 230.157 122.65 231.14 121.282 232.562C113.007 237.938 108.074 229.515 108.074 229.515V195.968H141.879C141.879 195.968 150.443 191.075 144.95 182.867C143.516 181.511 142.525 179.759 142.105 177.838C141.684 175.918 141.853 173.916 142.59 172.091C143.327 170.267 144.598 168.703 146.239 167.601C147.88 166.5 149.816 165.911 151.798 165.911C153.779 165.911 155.715 166.5 157.357 167.601C158.998 168.703 160.269 170.267 161.005 172.091C161.742 173.916 161.911 175.918 161.491 177.838C161.07 179.759 160.079 181.511 158.645 182.867C158.645 182.867 152.069 191.559 161.717 195.968H195.521V282.721H108.074Z" fill="#4945FF"/>
<path d="M108.074 282.721V249.192C112.519 239.622 121.282 246.145 121.282 246.145C122.65 247.567 124.416 248.55 126.352 248.968C128.289 249.385 130.307 249.217 132.146 248.486C133.986 247.756 135.562 246.495 136.673 244.867C137.783 243.239 138.377 241.319 138.377 239.353C138.377 237.388 137.783 235.468 136.673 233.84C135.562 232.212 133.986 230.951 132.146 230.22C130.307 229.49 128.289 229.322 126.352 229.739C124.416 230.157 122.65 231.14 121.282 232.562C113.007 237.938 108.074 229.515 108.074 229.515V195.968H141.879C141.879 195.968 150.443 191.075 144.95 182.867C143.516 181.511 142.525 179.759 142.105 177.838C141.684 175.918 141.853 173.916 142.59 172.091C143.327 170.267 144.598 168.703 146.239 167.601C147.88 166.5 149.816 165.911 151.798 165.911C153.779 165.911 155.715 166.5 157.357 167.601C158.998 168.703 160.269 170.267 161.005 172.091C161.742 173.916 161.911 175.918 161.491 177.838C161.07 179.759 160.079 181.511 158.645 182.867C158.645 182.867 152.069 191.559 161.717 195.968H195.521V282.721H108.074Z" fill="url(#paint12_linear_6_425)"/>
<path d="M225.766 152.6C225.76 154.564 225.162 156.482 224.049 158.107C222.937 159.733 221.36 160.991 219.521 161.721C217.682 162.451 215.665 162.619 213.729 162.204C211.793 161.789 210.027 160.81 208.656 159.392C208.656 159.392 199.893 152.868 195.448 162.438V195.968H161.644C151.996 191.559 158.573 182.868 158.573 182.868C160.007 181.511 160.998 179.759 161.418 177.838C161.839 175.918 161.67 173.916 160.933 172.091C160.196 170.267 158.925 168.703 157.284 167.601C155.643 166.5 153.707 165.911 151.725 165.911C149.744 165.911 147.808 166.5 146.166 167.601C144.525 168.703 143.254 170.267 142.518 172.091C141.781 173.916 141.612 175.918 142.032 177.838C142.453 179.759 143.444 181.511 144.878 182.868C150.298 191.075 141.806 195.968 141.806 195.968H108.074V109.214H141.553C151.201 113.622 144.625 122.314 144.625 122.314C143.191 123.671 142.2 125.422 141.779 127.343C141.359 129.264 141.528 131.265 142.265 133.09C143.001 134.914 144.272 136.478 145.913 137.58C147.555 138.681 149.491 139.27 151.472 139.27C153.454 139.27 155.39 138.681 157.031 137.58C158.672 136.478 159.943 134.914 160.68 133.09C161.417 131.265 161.586 129.264 161.165 127.343C160.745 125.422 159.754 123.671 158.32 122.314C152.9 114.106 161.391 109.214 161.391 109.214H195.521V142.761C195.521 142.761 200.453 151.256 208.728 145.808C210.099 144.39 211.866 143.41 213.801 142.995C215.737 142.58 217.754 142.748 219.593 143.478C221.432 144.208 223.009 145.467 224.122 147.092C225.234 148.717 225.832 150.635 225.838 152.6H225.766Z" fill="#4945FF"/>
<path d="M247.193 319.298C247.225 321.265 246.661 323.196 245.574 324.842C244.488 326.489 242.929 327.774 241.098 328.532C239.268 329.29 237.25 329.487 235.306 329.096C233.362 328.705 231.58 327.745 230.192 326.34C230.192 326.34 221.339 319.943 217.039 329.566L217.527 363.096L183.723 363.58C174.002 359.314 180.452 350.533 180.452 350.533C181.86 349.157 182.82 347.394 183.209 345.472C183.597 343.55 183.397 341.557 182.634 339.748C181.871 337.94 180.58 336.4 178.926 335.325C177.273 334.251 175.334 333.692 173.357 333.721C171.381 333.749 169.459 334.364 167.838 335.485C166.216 336.606 164.971 338.183 164.261 340.013C163.551 341.842 163.409 343.841 163.854 345.751C164.299 347.661 165.31 349.395 166.757 350.73C172.376 358.848 163.885 363.866 163.885 363.866L130.08 364.35L128.816 277.596L162.295 277.13C172.015 281.395 165.565 290.176 165.565 290.176C164.157 291.553 163.198 293.315 162.809 295.238C162.42 297.16 162.62 299.153 163.383 300.961C164.146 302.77 165.437 304.31 167.091 305.384C168.744 306.459 170.684 307.018 172.66 306.989C174.636 306.961 176.558 306.346 178.18 305.225C179.801 304.103 181.046 302.527 181.756 300.697C182.466 298.867 182.608 296.869 182.163 294.959C181.718 293.049 180.707 291.315 179.26 289.979C173.641 281.861 182.133 276.843 182.133 276.843L216.262 276.36L216.75 309.907C216.75 309.907 221.809 318.33 229.993 312.757C230.921 311.775 232.04 310.989 233.282 310.447C234.524 309.905 235.863 309.618 237.22 309.602C239.837 309.583 242.355 310.592 244.223 312.409C246.092 314.226 247.16 316.702 247.193 319.298Z" fill="#4945FF"/>
<path d="M141.065 277.919C139.855 279.245 138.915 282.166 140.83 283.402C141.516 283.769 142.275 283.977 143.053 284.012L153.279 285.248C152.972 285.248 158.32 345.014 160.416 357.719C160.668 359.225 161.301 361.106 162.837 361.304C163.297 361.276 163.745 361.142 164.143 360.912C164.542 360.681 164.88 360.361 165.131 359.977C166.607 357.683 167.449 355.044 167.57 352.325C170.11 332.817 171.318 313.161 171.184 293.492C171.184 289.603 171.039 285.535 169.088 282.148C167.889 280.305 166.318 278.73 164.474 277.52C162.63 276.311 160.553 275.495 158.374 275.123C152.538 273.815 145.311 273.224 141.065 277.919Z" fill="url(#paint13_linear_6_425)"/>
<path d="M165.673 401.966V402.199C166.107 403.292 167.48 403.65 168.636 403.794C169.728 403.913 170.827 403.96 171.925 403.937C172.451 403.956 172.977 403.883 173.478 403.722C173.938 403.521 174.369 403.262 174.761 402.951L177.923 400.622C178.811 400.014 179.624 399.304 180.344 398.507C181.056 397.687 181.43 396.631 181.392 395.55C181.354 395.016 181.152 394.506 180.813 394.089C180.473 393.673 180.013 393.369 179.495 393.22C178.835 393.14 178.167 393.14 177.507 393.22C176.773 393.314 176.028 393.194 175.361 392.876C174.694 392.558 174.134 392.055 173.749 391.428C173.619 390.843 173.302 390.316 172.846 389.923C172.386 389.701 171.865 389.638 171.365 389.744C170.268 389.798 169.185 390.01 168.149 390.371C167.626 390.557 167.152 390.856 166.762 391.246C166.371 391.637 166.073 392.109 165.89 392.629C165.78 393.111 165.731 393.605 165.746 394.099C165.809 395.119 165.809 396.142 165.746 397.163C165.601 398.436 165.529 399.717 165.529 400.998C165.539 401.325 165.587 401.65 165.673 401.966Z" fill="#262836"/>
<path d="M196.334 402.378C194.205 403.344 192.014 404.17 189.775 404.851C188.884 405.232 187.886 405.289 186.957 405.012C186.592 404.837 186.27 404.586 186.011 404.277C185.752 403.968 185.564 403.608 185.457 403.22C185.262 402.429 185.183 401.614 185.222 400.801C185.36 399.542 185.621 398.3 185.999 397.091C186.198 395.962 186.36 394.833 186.505 393.704C186.74 392.073 186.957 390.461 187.155 388.848L192.847 390.048C193.443 390.174 194.003 392.45 194.364 392.934C194.629 393.29 194.971 393.583 195.365 393.791C195.759 393.998 196.195 394.116 196.641 394.134C197.61 393.995 198.588 393.917 199.568 393.901C200.199 394.048 200.764 394.399 201.173 394.898C201.581 395.398 201.811 396.018 201.826 396.661C201.821 397.3 201.682 397.932 201.418 398.515C201.153 399.098 200.769 399.62 200.29 400.048C199.332 400.909 198.232 401.6 197.038 402.091L196.334 402.378Z" fill="#262836"/>
<path d="M196.424 396.07C194.93 396.912 193.379 397.648 191.781 398.274H191.636C188.998 399.295 186.053 395.192 186.053 395.192C186.053 395.192 182.332 372.396 182.44 362.934C182.566 356.447 181.013 347.2 178.682 330.426C178.104 347.558 175.177 355.085 175.918 361.232C177.056 370.569 175.701 393.758 175.701 393.758C175.701 393.758 173.207 398.274 170.479 397.665H170.317C168.674 397.294 167.062 396.803 165.493 396.195C165.493 396.195 162.313 364.26 162.313 355.838C162.313 347.415 162.674 339.87 162.674 339.87L161.012 313.204L168.094 302.99L168.673 302.757L169.215 302.219L177.074 296.502C177.074 296.502 177.074 297.829 176.929 300.087L183.036 303.33L183.614 303.76L184.211 303.904L194.437 305.696C194.437 305.696 197.111 346.609 198.05 354.978C198.99 363.347 196.424 396.07 196.424 396.07Z" fill="#4945FF"/>
<path d="M196.424 396.07C194.93 396.912 193.379 397.648 191.781 398.274H191.636C188.998 399.295 186.053 395.192 186.053 395.192C186.053 395.192 182.332 372.396 182.44 362.934C182.566 356.447 181.013 347.2 178.682 330.426C178.104 347.558 175.177 355.085 175.918 361.232C177.056 370.569 175.701 393.758 175.701 393.758C175.701 393.758 173.207 398.274 170.479 397.665H170.317C168.674 397.294 167.062 396.803 165.493 396.195C165.493 396.195 162.313 364.26 162.313 355.838C162.313 347.415 162.674 339.87 162.674 339.87L161.012 313.204L168.094 302.99L168.673 302.757L169.215 302.219L177.074 296.502C177.074 296.502 177.074 297.829 176.929 300.087L183.036 303.33L183.614 303.76L184.211 303.904L194.437 305.696C194.437 305.696 197.111 346.609 198.05 354.978C198.99 363.347 196.424 396.07 196.424 396.07Z" fill="url(#paint14_linear_6_425)"/>
<path d="M244.556 253.457C244.682 253.367 244.833 253.317 244.989 253.314C245.405 253.314 245.423 253.977 245.278 254.371C244.901 255.47 244.352 256.504 243.652 257.435C243.426 257.668 243.291 257.973 243.273 258.296C243.273 258.618 243.562 258.851 243.779 259.084C244.443 259.849 244.916 260.76 245.158 261.741C245.4 262.722 245.404 263.746 245.17 264.729C244.669 266.692 243.638 268.483 242.189 269.908C241.84 270.349 241.406 270.717 240.913 270.991C240.42 271.264 239.877 271.439 239.316 271.503C237.365 271.503 234.926 269.12 234.149 267.471C233.866 266.648 233.804 265.765 233.968 264.911C234.133 264.056 234.519 263.259 235.088 262.597C237.393 258.789 240.656 255.64 244.556 253.457Z" fill="#A67C52"/>
<path d="M187.951 234.64C188.583 235.286 189.558 235.949 189.287 236.791C189.143 237.239 188.655 237.508 188.294 237.83C187.402 238.768 186.921 240.018 186.957 241.307C186.995 242.589 186.812 243.868 186.415 245.088C186.189 245.692 185.76 246.2 185.201 246.527C184.641 246.853 183.985 246.978 183.343 246.88C182.603 246.683 181.862 246.038 181.139 246.343C180.416 246.647 180.416 247.239 180.127 247.74C179.733 248.358 179.171 248.853 178.507 249.17C177.843 249.487 177.102 249.612 176.369 249.532C174.92 249.316 173.523 248.836 172.25 248.117C171.709 247.903 171.239 247.543 170.895 247.077C170.685 246.623 170.634 246.112 170.75 245.626C171.197 244.167 171.927 242.809 172.9 241.629C174.458 239.248 175.396 236.52 175.629 233.691C175.773 231.719 175.629 229.551 176.911 228.028C178.718 225.949 182.819 225.967 184.969 227.49C187.119 229.013 185.963 232.615 187.951 234.64Z" fill="#A67C52"/>
<path d="M185.385 225.716C185.133 226.207 184.752 226.622 184.283 226.917C183.325 227.472 182.476 228.117 181.609 228.709C180.734 229.28 180.119 230.167 179.892 231.182C179.513 232.974 180.525 235.017 179.892 236.827C179.657 237.203 179.061 236.97 178.826 236.612C178.591 236.253 178.447 235.805 178.086 235.59C177.453 235.232 176.694 235.841 176.423 236.504C176.143 237.275 176.175 238.124 176.512 238.872C176.849 239.62 177.464 240.21 178.23 240.518C178.14 241.092 177.399 241.325 176.803 241.253C176.214 241.093 175.606 241.014 174.996 241.02C173.641 241.271 173.189 243.189 171.78 243.386C171.313 243.355 170.86 243.218 170.456 242.984C170.052 242.751 169.707 242.429 169.449 242.042L167.805 240.25C167.54 239.901 167.25 239.572 166.938 239.264C166.559 238.977 165.944 238.959 165.637 238.619C165.33 238.278 165.637 237.472 165.312 237.042C165.158 236.882 164.965 236.765 164.752 236.701C164.279 236.464 163.902 236.073 163.685 235.594C163.468 235.114 163.424 234.575 163.559 234.067C163.603 233.939 163.603 233.8 163.559 233.673C163.559 233.493 163.306 233.422 163.126 233.332C162.627 233.012 162.26 232.525 162.091 231.96C161.922 231.395 161.962 230.788 162.204 230.25C162.479 229.632 162.872 229.072 163.361 228.601C163.533 228.338 163.778 228.129 164.066 227.999C164.354 227.868 164.673 227.823 164.987 227.866L165.258 225.519C165.251 225.121 165.334 224.727 165.499 224.365C165.665 224.002 165.909 223.681 166.215 223.424C166.521 223.167 166.881 222.98 167.268 222.878C167.656 222.775 168.061 222.759 168.456 222.831L167.914 220.895C167.814 220.648 167.814 220.372 167.914 220.125C168.062 219.953 168.267 219.839 168.492 219.802C169.122 219.624 169.77 219.516 170.425 219.479C170.19 218.936 170.009 218.372 169.883 217.795C169.842 217.712 169.826 217.618 169.839 217.527C169.851 217.435 169.891 217.349 169.953 217.279C170.015 217.21 170.097 217.161 170.187 217.138C170.278 217.115 170.373 217.119 170.461 217.15C170.701 217.186 170.944 217.186 171.184 217.15C171.184 217.15 170.822 215.501 170.804 215.358C170.695 214.84 170.792 214.3 171.075 213.852C171.273 213.629 171.523 213.459 171.804 213.355C172.085 213.252 172.387 213.22 172.683 213.261C173.27 213.364 173.833 213.57 174.346 213.87C174.346 213.243 175.123 212.92 175.755 212.867C176.972 212.799 178.187 213.038 179.287 213.561C180.386 214.084 181.334 214.875 182.042 215.859C182.159 216.033 182.292 216.195 182.44 216.343C182.729 216.526 183.046 216.659 183.379 216.738C183.892 216.963 184.348 217.298 184.713 217.72C185.079 218.141 185.345 218.638 185.493 219.175C185.764 220.24 185.873 221.339 185.818 222.436C185.86 223.279 185.781 224.124 185.584 224.945C185.548 225.209 185.481 225.468 185.385 225.716Z" fill="#2F3554"/>
<path d="M176.405 246.038C177.91 246.663 179.371 247.387 180.778 248.206C181.212 248.437 181.588 248.762 181.88 249.156C182.036 249.372 182.131 249.625 182.156 249.889C182.182 250.154 182.136 250.42 182.024 250.661C181.645 251.324 180.741 251.091 180.055 250.841C176.871 249.769 173.511 249.307 170.154 249.479C169.93 249.515 169.699 249.49 169.489 249.404C169.278 249.319 169.096 249.177 168.962 248.995C168.883 248.775 168.854 248.541 168.876 248.309C168.898 248.077 168.97 247.852 169.088 247.651C170.804 244.228 173.605 244.783 176.405 246.038Z" fill="white"/>
<path d="M238.25 272.453C237.597 274.062 236.634 275.529 235.414 276.772C234.239 278.08 233.029 279.334 231.8 280.553C228.832 283.399 225.701 286.074 222.423 288.564C220.196 290.515 217.543 291.926 214.672 292.685C213.508 292.956 212.289 292.881 211.167 292.47C210.255 292.019 209.429 291.412 208.728 290.678C207.897 289.854 198.249 278.833 198.086 278.833C197.539 279.124 197.116 279.601 196.894 280.177C195.5 283.041 194.637 286.131 194.346 289.298C194.229 290.712 194.229 292.132 194.346 293.546C194.726 298.366 196.424 303.33 194.744 307.882C194.408 308.844 193.852 309.715 193.118 310.427C192.411 311.04 191.596 311.52 190.715 311.843C189.157 312.475 187.533 312.932 185.873 313.205C184.924 313.378 183.964 313.48 183 313.509C179.387 313.653 175.954 312.972 172.413 313.133C169.413 313.294 166.432 314.065 163.379 313.957C162.948 314.04 162.504 314.03 162.078 313.927C161.652 313.823 161.253 313.63 160.91 313.359C160.566 313.088 160.286 312.746 160.089 312.358C159.891 311.969 159.781 311.543 159.765 311.108C158.595 304.727 157.991 298.257 157.959 291.771C157.959 289.513 157.832 287.237 157.688 284.979C157.561 283.062 158.085 278.188 155.881 277.811C150.28 276.736 144.462 278.098 138.807 277.309C138.964 273.639 140.536 270.169 143.198 267.614C144.503 266.521 145.92 265.566 147.425 264.765C149.158 263.534 150.714 262.075 152.051 260.428C155.893 255.722 160.76 251.942 166.288 249.371C167.168 248.943 168.096 248.619 169.052 248.403H169.287C169.425 248.388 169.564 248.388 169.702 248.403C170.911 248.303 172.128 248.375 173.316 248.618C181.377 249.945 189.352 251.74 197.201 253.995C198.237 254.225 199.218 254.651 200.092 255.249C200.702 255.796 201.225 256.43 201.646 257.131C203.85 260.428 206 263.761 208.222 267.059C210.137 269.89 212.016 273.439 214.835 275.517C220.97 273.044 226.762 269.804 232.071 265.876C232.812 265.321 233.77 264.711 234.619 265.088C234.901 265.213 235.154 265.396 235.359 265.625C237.437 267.417 239.262 269.389 238.25 272.453Z" fill="white"/>
<defs>
<linearGradient id="paint0_linear_6_425" x1="178.23" y1="350.032" x2="181.91" y2="421.341" gradientUnits="userSpaceOnUse">
<stop offset="0.01"/>
<stop offset="0.08" stop-opacity="0.69"/>
<stop offset="0.21" stop-opacity="0.32"/>
<stop offset="1" stop-opacity="0"/>
</linearGradient>
<linearGradient id="paint1_linear_6_425" x1="86141.9" y1="3896.35" x2="86161.7" y2="8375.94" gradientUnits="userSpaceOnUse">
<stop offset="0.01"/>
<stop offset="0.08" stop-opacity="0.69"/>
<stop offset="0.21" stop-opacity="0.32"/>
<stop offset="1" stop-opacity="0"/>
</linearGradient>
<linearGradient id="paint2_linear_6_425" x1="-62135.8" y1="28327.4" x2="-61581.7" y2="28545.1" gradientUnits="userSpaceOnUse">
<stop offset="0.01"/>
<stop offset="0.08" stop-opacity="0.69"/>
<stop offset="0.21" stop-opacity="0.32"/>
<stop offset="1" stop-opacity="0"/>
</linearGradient>
<linearGradient id="paint3_linear_6_425" x1="207.523" y1="171.167" x2="52.9118" y2="-145.314" gradientUnits="userSpaceOnUse">
<stop offset="0.01"/>
<stop offset="0.08" stop-opacity="0.69"/>
<stop offset="0.21" stop-opacity="0.32"/>
<stop offset="1" stop-opacity="0"/>
</linearGradient>
<linearGradient id="paint4_linear_6_425" x1="4542.47" y1="1828.91" x2="4665.61" y2="2722.97" gradientUnits="userSpaceOnUse">
<stop offset="0.01"/>
<stop offset="0.08" stop-opacity="0.69"/>
<stop offset="0.21" stop-opacity="0.32"/>
<stop offset="1" stop-opacity="0"/>
</linearGradient>
<linearGradient id="paint5_linear_6_425" x1="-24941" y1="-4496.59" x2="-25204.8" y2="-4302.22" gradientUnits="userSpaceOnUse">
<stop offset="0.01"/>
<stop offset="0.08" stop-opacity="0.69"/>
<stop offset="0.21" stop-opacity="0.32"/>
<stop offset="1" stop-opacity="0"/>
</linearGradient>
<linearGradient id="paint6_linear_6_425" x1="14956.5" y1="15096.6" x2="14720.9" y2="35969.5" gradientUnits="userSpaceOnUse">
<stop offset="0.01"/>
<stop offset="0.08" stop-opacity="0.69"/>
<stop offset="0.21" stop-opacity="0.32"/>
<stop offset="1" stop-opacity="0"/>
</linearGradient>
<linearGradient id="paint7_linear_6_425" x1="14994.5" y1="26251.1" x2="6951.76" y2="28803.9" gradientUnits="userSpaceOnUse">
<stop offset="0.01"/>
<stop offset="0.08" stop-opacity="0.69"/>
<stop offset="0.21" stop-opacity="0.32"/>
<stop offset="1" stop-opacity="0"/>
</linearGradient>
<linearGradient id="paint8_linear_6_425" x1="9148.83" y1="24030.9" x2="-1966.23" y2="26699.5" gradientUnits="userSpaceOnUse">
<stop offset="0.01"/>
<stop offset="0.08" stop-opacity="0.69"/>
<stop offset="0.21" stop-opacity="0.32"/>
<stop offset="1" stop-opacity="0"/>
</linearGradient>
<linearGradient id="paint9_linear_6_425" x1="11507.8" y1="3813.3" x2="13959.3" y2="9667.4" gradientUnits="userSpaceOnUse">
<stop offset="0.01"/>
<stop offset="0.08" stop-opacity="0.69"/>
<stop offset="0.21" stop-opacity="0.32"/>
<stop offset="1" stop-opacity="0"/>
</linearGradient>
<linearGradient id="paint10_linear_6_425" x1="15094.5" y1="15909.6" x2="39365.7" y2="28648" gradientUnits="userSpaceOnUse">
<stop offset="0.01"/>
<stop offset="0.08" stop-opacity="0.69"/>
<stop offset="0.21" stop-opacity="0.32"/>
<stop offset="1" stop-opacity="0"/>
</linearGradient>
<linearGradient id="paint11_linear_6_425" x1="17612" y1="29675.1" x2="24419.2" y2="2273.83" gradientUnits="userSpaceOnUse">
<stop offset="0.01"/>
<stop offset="0.08" stop-opacity="0.69"/>
<stop offset="0.21" stop-opacity="0.32"/>
<stop offset="1" stop-opacity="0"/>
</linearGradient>
<linearGradient id="paint12_linear_6_425" x1="15128.7" y1="10502.5" x2="14074.4" y2="45219.6" gradientUnits="userSpaceOnUse">
<stop offset="0.01"/>
<stop offset="0.08" stop-opacity="0.69"/>
<stop offset="0.21" stop-opacity="0.32"/>
<stop offset="1" stop-opacity="0"/>
</linearGradient>
<linearGradient id="paint13_linear_6_425" x1="4693.51" y1="18907" x2="9899.99" y2="20950.2" gradientUnits="userSpaceOnUse">
<stop offset="0.01"/>
<stop offset="0.08" stop-opacity="0.69"/>
<stop offset="0.21" stop-opacity="0.32"/>
<stop offset="1" stop-opacity="0"/>
</linearGradient>
<linearGradient id="paint14_linear_6_425" x1="6251.7" y1="24301.1" x2="10632.6" y2="26541.9" gradientUnits="userSpaceOnUse">
<stop offset="0.01"/>
<stop offset="0.08" stop-opacity="0.69"/>
<stop offset="0.21" stop-opacity="0.32"/>
<stop offset="1" stop-opacity="0"/>
</linearGradient>
</defs>
</svg>
