<svg width="557" height="449" viewBox="0 0 557 449" fill="none" xmlns="http://www.w3.org/2000/svg">
<g clip-path="url(#clip0_1_608)">
<path d="M281.808 449C433.792 449 557 439.369 557 427.489C557 415.609 433.792 405.978 281.808 405.978C129.823 405.978 6.61523 415.609 6.61523 427.489C6.61523 439.369 129.823 449 281.808 449Z" fill="#3F3D56"/>
<path d="M515.568 387.528L518.148 406.453L500.093 408.173L502.672 384.947L515.568 387.528Z" fill="#A0616A"/>
<path d="M430.452 127.742C430.452 127.742 432.172 150.968 432.172 151.828C432.172 152.688 420.135 212.043 420.135 212.043C420.135 212.043 402.94 244.732 420.135 243.871C437.33 243.011 432.172 212.904 432.172 212.904L450.227 163.011L442.489 127.742L430.452 127.742Z" fill="#A0616A"/>
<path d="M458.824 387.528L456.245 406.453L474.3 408.173L471.721 384.947L458.824 387.528Z" fill="#A0616A"/>
<path d="M439.05 210.323L434.751 216.345C434.751 216.345 432.172 242.151 434.751 250.753C437.33 259.355 442.489 298.925 442.489 301.506C442.489 304.087 443.349 305.807 442.489 306.667C441.629 307.528 439.05 307.528 440.769 309.248C442.489 310.968 442.489 316.13 442.489 316.13V320.431L453.666 384.087C453.666 384.087 446.788 391.829 451.946 391.829C457.105 391.829 476.019 391.829 475.159 383.227L473.44 382.366C473.44 382.366 470.861 325.592 471.72 323.011C472.58 320.431 471.72 315.27 471.72 315.27C471.72 315.27 470.001 312.689 471.72 311.829C473.44 310.968 473.44 304.087 473.44 304.087L481.178 251.613C481.178 251.613 488.056 286.882 492.355 290.323C496.653 293.764 495.794 302.366 495.794 302.366L499.233 378.065C499.233 378.065 495.794 386.668 499.233 388.388C502.672 390.108 517.288 396.13 518.147 387.528C519.007 378.926 523.306 304.087 523.306 300.646C523.306 297.205 522.446 295.484 523.306 292.904C524.166 290.323 522.446 290.323 523.306 290.323C524.166 290.323 521.586 287.743 521.586 286.022V243.872C521.586 243.872 522.446 235.269 523.306 233.549C524.166 231.828 522.446 230.108 523.306 227.527C524.166 224.947 521.586 216.345 521.586 216.345L482.897 206.022L439.05 210.323Z" fill="#2F2E41"/>
<path d="M469.141 403.012C469.141 403.012 473.44 398.711 467.422 398.711C463.558 398.789 459.752 399.668 456.245 401.291L451.946 416.775C451.946 416.775 434.321 430.969 454.095 429.248C473.87 427.528 470.861 428.818 470.861 428.818C470.861 428.818 476.879 427.098 477.739 425.377C478.599 423.657 476.019 398.711 476.019 398.711C476.019 398.711 473.44 405.592 469.141 403.012Z" fill="#2F2E41"/>
<path d="M506.111 403.012C506.111 403.012 501.812 398.71 507.83 398.71C511.694 398.789 515.499 399.668 519.007 401.291L523.306 416.775C523.306 416.775 540.931 430.969 521.156 429.248C501.382 427.528 501.812 428.818 501.812 428.818C501.812 428.818 495.794 427.098 494.934 425.377C494.074 423.657 499.233 398.71 499.233 398.71C499.233 398.71 501.812 405.592 506.111 403.012Z" fill="#2F2E41"/>
<path d="M450.227 59.7851C462.572 59.7851 472.58 49.7717 472.58 37.4195C472.58 25.0673 462.572 15.0538 450.227 15.0538C437.881 15.0538 427.873 25.0673 427.873 37.4195C427.873 49.7717 437.881 59.7851 450.227 59.7851Z" fill="#A0616A"/>
<path d="M442.489 53.7635C442.489 53.7635 445.928 70.9679 445.928 73.5485C445.928 76.1292 460.544 83.8711 460.544 83.8711L476.879 63.2259C476.879 63.2259 466.562 48.6022 466.562 45.1614L442.489 53.7635Z" fill="#A0616A"/>
<path d="M455.385 76.1292C455.385 76.1292 447.892 74.1336 445.62 70.8303C445.62 70.8303 421.855 94.1937 421.855 98.4948L440.769 132.043C440.769 132.043 440.769 144.086 442.489 144.947C444.208 145.807 442.489 144.947 442.489 148.387C442.489 151.828 437.33 174.194 439.05 177.635C440.769 181.076 442.489 178.495 440.769 183.656C439.05 188.818 434.751 216.345 434.751 216.345C434.751 216.345 450.227 211.183 472.58 219.785C494.934 228.388 521.586 216.345 521.586 216.345C521.586 216.345 514.708 200.861 516.428 195.699C518.147 190.538 512.129 181.076 512.129 181.076L507.83 101.936C507.83 101.936 513.849 66.6668 509.55 64.9464L500.952 61.5055L473.419 58.1198C473.419 58.1198 466.562 75.269 455.385 76.1292Z" fill="#D0CDE1"/>
<path d="M430.452 92.4733L421.855 98.4948C421.855 98.4948 417.556 111.398 421.855 117.42C426.153 123.441 427.873 132.043 427.873 132.043L445.068 130.323L430.452 92.4733Z" fill="#D0CDE1"/>
<path d="M433.16 13.7828L429.282 12.2296C429.282 12.2296 437.39 3.29893 448.67 4.07553L445.497 0.580867C445.497 0.580867 453.252 -2.52543 460.302 5.62865C464.008 9.91508 468.296 14.9535 470.969 20.6293H475.122L473.389 24.4475L479.455 28.2657L473.229 27.5798C473.818 30.8762 473.617 34.2656 472.64 37.4685L472.807 40.4864C472.807 40.4864 465.59 29.3144 465.59 27.7612V31.6441C465.59 31.6441 461.712 28.1495 461.712 25.8198L459.597 28.5378L458.54 24.2666L445.497 28.5378L447.612 25.0432L439.505 26.2081L442.677 21.9369C442.677 21.9369 433.512 26.9847 433.16 31.2559C432.807 35.5271 428.225 40.9632 428.225 40.9632L426.11 37.0802C426.11 37.0802 422.937 19.6071 433.16 13.7828Z" fill="#2F2E41"/>
<path d="M438.344 187.199H96.6938V427.326H438.344V187.199Z" fill="#F2F2F2"/>
<path d="M211.239 278.819H125.454V428.65H211.239V278.819Z" fill="#3F3D56"/>
<path d="M164.43 287.807H141.322V309.36H164.43V287.807Z" fill="#F2F2F2"/>
<path d="M195.371 287.807H172.263V309.36H195.371V287.807Z" fill="#F2F2F2"/>
<path d="M164.43 317.198H141.322V339.534H164.43V317.198Z" fill="#F2F2F2"/>
<path d="M195.371 317.198H172.263V339.534H195.371V317.198Z" fill="#F2F2F2"/>
<path d="M200.33 369.279C203.342 369.279 205.784 366.836 205.784 363.822C205.784 360.808 203.342 358.364 200.33 358.364C197.317 358.364 194.875 360.808 194.875 363.822C194.875 366.836 197.317 369.279 200.33 369.279Z" fill="#4945FF"/>
<path d="M409.584 264.596H239.999V406.985H409.584V264.596Z" fill="#3F3D56"/>
<path d="M474.047 232.407H60.9915L88.5319 174.796L94.6952 161.896L102.759 145.028L108.922 132.129L116.067 117.186H441.503L445.723 132.129L449.367 145.028L454.133 161.896L457.777 174.796L474.047 232.407Z" fill="#3F3D56"/>
<path d="M251.899 323.635H245.949V360.349H251.899V323.635Z" fill="#4945FF"/>
<path d="M251.899 329.092H245.949V333.558H251.899V329.092Z" fill="#F2F2F2"/>
<path d="M251.899 350.426H245.949V354.891H251.899V350.426Z" fill="#F2F2F2"/>
<path d="M269.255 323.635H254.875V360.349H269.255V323.635Z" fill="#4945FF"/>
<path d="M269.255 329.092H254.875V333.558H269.255V329.092Z" fill="#F2F2F2"/>
<path d="M269.255 350.426H254.875V354.891H269.255V350.426Z" fill="#F2F2F2"/>
<path d="M278.676 323.635H272.726V360.349H278.676V323.635Z" fill="#4945FF"/>
<path d="M278.676 329.092H272.726V333.558H278.676V329.092Z" fill="#F2F2F2"/>
<path d="M278.676 350.426H272.726V354.891H278.676V350.426Z" fill="#F2F2F2"/>
<path d="M287.602 323.635H281.651V360.349H287.602V323.635Z" fill="#4945FF"/>
<path d="M287.602 329.092H281.651V333.558H287.602V329.092Z" fill="#F2F2F2"/>
<path d="M287.602 350.426H281.651V354.891H287.602V350.426Z" fill="#F2F2F2"/>
<path d="M293.336 323.765L287.768 325.865L300.71 360.219L306.278 358.119L293.336 323.765Z" fill="#4945FF"/>
<path d="M295.26 328.872L289.692 330.972L291.266 335.15L296.834 333.05L295.26 328.872Z" fill="#F2F2F2"/>
<path d="M302.78 348.834L297.212 350.934L298.787 355.112L304.354 353.012L302.78 348.834Z" fill="#F2F2F2"/>
<path d="M404.13 323.635H389.75V360.349H404.13V323.635Z" fill="#4945FF"/>
<path d="M404.13 329.092H389.75V333.558H404.13V329.092Z" fill="#F2F2F2"/>
<path d="M404.13 350.426H389.75V354.891H404.13V350.426Z" fill="#F2F2F2"/>
<path d="M386.279 323.635H380.328V360.349H386.279V323.635Z" fill="#4945FF"/>
<path d="M386.279 329.092H380.328V333.558H386.279V329.092Z" fill="#F2F2F2"/>
<path d="M386.279 350.426H380.328V354.891H386.279V350.426Z" fill="#F2F2F2"/>
<path d="M377.353 323.635H371.403V360.349H377.353V323.635Z" fill="#4945FF"/>
<path d="M377.353 329.092H371.403V333.558H377.353V329.092Z" fill="#F2F2F2"/>
<path d="M377.353 350.426H371.403V354.891H377.353V350.426Z" fill="#F2F2F2"/>
<path d="M365.669 323.765L352.726 358.119L358.294 360.219L371.237 325.865L365.669 323.765Z" fill="#4945FF"/>
<path d="M363.745 328.872L362.171 333.05L367.739 335.15L369.313 330.971L363.745 328.872Z" fill="#F2F2F2"/>
<path d="M356.224 348.834L354.65 353.012L360.218 355.112L361.792 350.934L356.224 348.834Z" fill="#F2F2F2"/>
<path d="M409.584 360.349H239.999V363.822H409.584V360.349Z" fill="#F2F2F2"/>
<path d="M345.122 323.635H313.882V360.349H345.122V323.635Z" fill="#4945FF"/>
<path d="M337.436 331.573H321.568V338.519H337.436V331.573Z" fill="#F2F2F2"/>
<path d="M326.279 264.596H323.304V296.348H326.279V264.596Z" fill="#F2F2F2"/>
<path d="M324.791 301.309C327.53 301.309 329.75 299.088 329.75 296.348C329.75 293.608 327.53 291.387 324.791 291.387C322.053 291.387 319.833 293.608 319.833 296.348C319.833 299.088 322.053 301.309 324.791 301.309Z" fill="#F2F2F2"/>
<path d="M449.367 145.028H102.759L108.922 132.129H445.723L449.367 145.028Z" fill="#4945FF"/>
<path d="M457.777 174.796H88.5319L94.6952 161.896H454.133L457.777 174.796Z" fill="#4945FF"/>
<path d="M494.074 100.215C494.074 100.215 489.095 113.024 490.135 125.698C490.326 127.967 491.089 130.151 492.355 132.043L431.36 161.016C431.36 161.016 403.8 163.871 410.678 175.914C417.556 187.957 442.489 169.893 442.489 169.893C442.489 169.893 507.83 160.43 512.989 150.968C518.147 141.506 521.586 101.936 521.586 101.936L494.074 100.215Z" fill="#A0616A"/>
<path d="M496.654 64.9464H509.55C509.55 64.9464 519.007 66.6669 521.586 83.8712C524.166 101.076 526.745 105.377 524.166 105.377C521.586 105.377 490.635 104.516 490.635 103.656C490.635 102.796 496.654 64.9464 496.654 64.9464Z" fill="#D0CDE1"/>
<path d="M66.152 321.92C102.687 321.92 132.304 292.287 132.304 255.733C132.304 219.178 102.687 189.545 66.152 189.545C29.6173 189.545 0 219.178 0 255.733C0 292.287 29.6173 321.92 66.152 321.92Z" fill="#4945FF"/>
<path opacity="0.1" d="M66.152 312.654C97.5719 312.654 123.043 287.169 123.043 255.733C123.043 224.296 97.5719 198.812 66.152 198.812C34.7321 198.812 9.26123 224.296 9.26123 255.733C9.26123 287.169 34.7321 312.654 66.152 312.654Z" fill="black"/>
<path d="M63.4259 289.321V281.037C59.2402 280.955 54.9101 279.478 52.3844 277.427L54.1163 271.932C57.1178 274.182 60.7578 275.418 64.5084 275.458C69.6324 275.458 73.0964 272.095 73.0964 267.42C73.0964 262.908 70.2818 260.12 64.9414 257.659C57.5803 254.378 53.0338 250.604 53.0338 243.468C53.0338 236.66 57.2917 231.492 63.9312 230.262V221.977H68.4055V229.934C71.7418 229.979 74.9962 230.975 77.7873 232.805L75.9829 238.218C73.306 236.385 70.1339 235.412 66.8899 235.429C61.3333 235.429 59.2402 239.203 59.2402 242.484C59.2402 246.749 61.9104 248.882 68.1891 251.835C75.6221 255.28 79.375 259.545 79.375 266.846C79.375 273.326 75.4057 279.396 67.9724 280.79V289.321H63.4259Z" fill="#F2F2F2"/>
</g>
<defs>
<clipPath id="clip0_1_608">
<rect width="557" height="449" fill="white"/>
</clipPath>
</defs>
</svg>
