<svg width="762" height="419" viewBox="0 0 762 419" fill="none" xmlns="http://www.w3.org/2000/svg">
<path d="M577.277 92.4852C577.337 90.5985 577.024 88.7185 576.357 86.9528C575.689 85.187 574.679 83.5702 573.386 82.1949C572.092 80.8195 570.539 79.7127 568.817 78.9378C567.094 78.1628 565.236 77.7349 563.348 77.6785L523.687 76.495L490.062 48.4371C489.923 46.95 489.37 45.5315 488.465 44.343C487.56 43.1546 486.339 42.2438 484.942 41.7146C483.544 41.1853 482.026 41.0587 480.56 41.3492C479.094 41.6397 477.739 42.3356 476.65 43.3577C475.56 44.3799 474.779 45.6871 474.396 47.1308C474.014 48.5745 474.044 50.0966 474.484 51.5238C474.924 52.9511 475.757 54.2262 476.886 55.204C478.016 56.1818 479.398 56.8231 480.874 57.0549L516.121 97.1833L560.062 106.095C562.11 106.51 564.225 106.474 566.258 105.989C568.29 105.503 570.193 104.581 571.832 103.285C573.471 101.989 574.807 100.351 575.748 98.4858C576.688 96.6206 577.21 94.5727 577.277 92.4852Z" fill="#9E616A"/>
<path d="M523.407 102.414L528.6 75.5502L528.769 75.4189C529.872 74.5606 531.208 74.0541 532.603 73.9657C533.997 73.8772 535.387 74.2107 536.589 74.9228L536.89 75.0995L571.908 76.0421L576.007 78.4525L578.373 77.8755C585.524 76.1312 592.751 74.9486 597.158 78.0764C599.649 79.8428 601.061 82.7838 601.476 87.063C601.774 90.1356 601.377 93.2359 600.314 96.1345C599.252 99.033 597.55 101.656 595.336 103.808C593.122 105.961 590.452 107.589 587.523 108.571C584.595 109.553 581.482 109.864 578.417 109.482L576.656 109.244L570.888 106.916L561.968 107.974L556.63 105.782L523.407 102.414Z" fill="#3F3D56"/>
<path d="M387.804 399.408C387.922 404.986 387.152 410.548 385.522 415.885C385.465 416.079 385.397 416.272 385.328 416.466H351.736C352.216 414.103 352.979 411.806 354.007 409.625C356.802 403.695 361.366 398.621 365.873 393.581C372.081 386.637 378.14 379.75 379.098 370.719C381.559 374.468 383.522 378.519 384.94 382.772C383.204 383.414 381.611 384.391 380.251 385.645C379.874 385.999 379.475 386.512 379.669 387.002C379.851 387.413 380.353 387.549 380.798 387.641C381.871 387.846 382.943 388.051 384.016 388.245C384.86 388.416 385.716 388.576 386.572 388.735C387.324 392.245 387.737 395.819 387.804 399.408Z" fill="#E6E6E6"/>
<path d="M416.022 395.714C410.636 398.986 407.213 404.049 404.418 409.716C401.985 410.27 399.739 411.449 397.902 413.137C397.514 413.49 397.115 414.003 397.32 414.494C397.492 414.904 398.005 415.041 398.45 415.132C399.511 415.337 400.595 415.543 401.656 415.737C401.554 415.976 401.451 416.227 401.348 416.466H365.748C367.364 414.288 369.154 412.244 371.099 410.355C371.522 409.933 371.955 409.533 372.4 409.123C376.938 405.025 382.149 401.738 387.804 399.408C396.713 395.686 406.455 394.411 416.022 395.714Z" fill="#E6E6E6"/>
<path d="M371.681 416.466H339.983C339.81 413.93 339.825 411.384 340.029 408.849C340.715 401.005 343.096 393.402 347.006 386.566C350.916 379.729 356.263 373.821 362.679 369.248C361.035 375.098 361.88 380.913 363.591 386.751C363.352 386.831 363.112 386.899 362.895 386.991C361.159 387.633 359.566 388.609 358.206 389.864C357.829 390.218 357.43 390.731 357.624 391.221C357.795 391.631 358.308 391.768 358.753 391.86C359.826 392.065 360.899 392.27 361.96 392.464C362.815 392.635 363.671 392.795 364.527 392.966C364.926 393.034 365.326 393.114 365.725 393.194C365.782 393.33 365.816 393.456 365.874 393.581C367.882 399.112 370.073 404.687 371.1 410.355C371.354 411.777 371.529 413.212 371.624 414.653C371.659 415.258 371.681 415.862 371.681 416.466Z" fill="#E6E6E6"/>
<path d="M234.082 367.181C234.422 383.298 232.197 399.367 227.489 414.786C227.324 415.346 227.126 415.906 226.928 416.466H129.872C131.26 409.639 133.462 403.002 136.433 396.699C144.51 379.568 157.697 364.908 170.719 350.346C188.653 330.283 206.159 310.384 208.928 284.292C216.037 295.122 221.711 306.827 225.808 319.115C220.792 320.971 216.189 323.792 212.258 327.417C211.17 328.438 210.016 329.92 210.577 331.337C211.104 332.523 212.555 332.919 213.84 333.182C216.939 333.775 220.038 334.368 223.137 334.928C225.577 335.422 228.049 335.883 230.522 336.345C232.695 346.486 233.887 356.812 234.082 367.181Z" fill="#E6E6E6"/>
<path d="M315.611 356.507C300.05 365.962 290.16 380.589 282.083 396.963C275.054 398.564 268.565 401.971 263.258 406.846C262.138 407.868 260.984 409.35 261.577 410.767C262.072 411.953 263.555 412.348 264.841 412.612C267.907 413.205 271.039 413.798 274.105 414.358C273.808 415.05 273.511 415.774 273.215 416.466H170.356C175.026 410.173 180.196 404.268 185.818 398.808C187.038 397.589 188.291 396.436 189.576 395.25C202.688 383.408 217.744 373.913 234.082 367.181C259.822 356.428 287.968 352.743 315.611 356.507Z" fill="#E6E6E6"/>
<path d="M187.499 416.466H95.916C95.4158 409.137 95.4599 401.782 96.0479 394.459C99.7073 349.226 124.334 306.135 161.488 280.042C156.741 296.943 159.18 313.745 164.126 330.612C163.433 330.843 162.741 331.041 162.115 331.304C157.099 333.161 152.496 335.981 148.565 339.606C147.477 340.628 146.323 342.11 146.884 343.527C147.378 344.713 148.862 345.108 150.147 345.372C153.246 345.965 156.345 346.558 159.411 347.118C161.884 347.612 164.356 348.073 166.829 348.567C167.983 348.765 169.137 348.995 170.29 349.226C170.455 349.621 170.554 349.984 170.719 350.346C176.521 366.324 182.851 382.434 185.818 398.808C186.553 402.917 187.059 407.063 187.335 411.228C187.433 412.974 187.499 414.72 187.499 416.466Z" fill="#E6E6E6"/>
<path d="M585.522 367.181C585.862 383.298 583.636 399.367 578.929 414.786C578.764 415.346 578.566 415.906 578.368 416.466H481.312C482.7 409.639 484.902 403.002 487.873 396.699C495.95 379.568 509.137 364.908 522.159 350.346C540.093 330.283 557.599 310.384 560.368 284.292C567.477 295.122 573.151 306.827 577.247 319.115C572.232 320.971 567.629 323.792 563.698 327.417C562.61 328.438 561.456 329.92 562.016 331.337C562.544 332.523 563.994 332.919 565.28 333.182C568.379 333.775 571.478 334.368 574.577 334.928C577.017 335.422 579.489 335.883 581.962 336.345C584.135 346.486 585.327 356.812 585.522 367.181Z" fill="#E6E6E6"/>
<path d="M667.051 356.507C651.49 365.962 641.6 380.589 633.523 396.963C626.494 398.564 620.005 401.971 614.698 406.846C613.577 407.868 612.424 409.35 613.017 410.767C613.512 411.953 614.995 412.348 616.281 412.612C619.347 413.205 622.479 413.798 625.544 414.358C625.248 415.05 624.951 415.774 624.655 416.466H521.796C526.466 410.173 531.636 404.268 537.258 398.808C538.478 397.589 539.731 396.436 541.016 395.25C554.128 383.408 569.184 373.913 585.522 367.181C611.261 356.428 639.408 352.743 667.051 356.507Z" fill="#E6E6E6"/>
<path d="M538.939 416.466H447.356C446.856 409.137 446.9 401.782 447.488 394.459C451.147 349.226 475.774 306.135 512.928 280.042C508.181 296.943 510.62 313.745 515.565 330.612C514.873 330.843 514.181 331.041 513.554 331.304C508.539 333.161 503.936 335.981 500.005 339.606C498.917 340.628 497.763 342.11 498.323 343.527C498.818 344.713 500.301 345.108 501.587 345.372C504.686 345.965 507.785 346.558 510.851 347.118C513.324 347.612 515.796 348.073 518.269 348.567C519.422 348.765 520.576 348.995 521.73 349.226C521.895 349.621 521.994 349.984 522.159 350.346C527.961 366.324 534.291 382.434 537.258 398.808C537.992 402.917 538.499 407.063 538.774 411.228C538.873 412.974 538.939 414.72 538.939 416.466Z" fill="#E6E6E6"/>
<path d="M383.113 100.617C383.105 118.147 376.779 135.088 365.294 148.339C353.808 161.59 337.931 170.264 320.569 172.774C303.207 175.283 285.522 171.46 270.75 162.004C255.978 152.549 245.107 138.093 240.129 121.283C235.151 104.473 236.397 86.4337 243.64 70.467C250.883 54.5003 263.638 41.6744 279.57 34.337C295.502 26.9995 313.545 25.6415 330.398 30.5114C347.25 35.3814 361.783 46.1535 371.338 60.856C370.24 61.8294 369.211 62.8771 368.257 63.9916C368.006 64.2767 367.755 64.5845 367.515 64.881C367.162 65.3143 366.831 65.7476 366.511 66.1923C366.135 66.7055 365.781 67.2299 365.439 67.7659C363.747 70.3922 362.455 73.255 361.605 76.2608C363.822 73.6027 366.426 71.2926 369.329 69.4078C369.39 69.3669 369.455 69.3325 369.523 69.3052C369.809 69.1228 370.094 68.9403 370.391 68.7579C371.659 67.9855 372.973 67.2924 374.327 66.6826C374.441 66.637 374.555 66.58 374.669 66.5344C380.235 77.0324 383.135 88.7361 383.113 100.617Z" fill="#6C63FF"/>
<path d="M344.147 416.512C342.629 415.258 341.146 413.969 339.697 412.624C328.126 401.753 319.034 388.518 313.042 373.821C308.138 361.964 305.268 349.367 304.553 336.557C304.382 333.524 304.347 330.503 304.427 327.481C304.634 319.6 305.725 311.767 307.679 304.129C309.973 295.258 313.419 286.74 317.024 278.325C318.804 274.163 320.653 269.989 322.433 265.782C327.864 252.988 332.748 239.887 333.501 225.919C334.431 207.921 329.168 190.148 318.588 175.554C317.298 173.775 320.265 172.065 321.543 173.832C322.855 175.622 324.087 177.469 325.24 179.374C334.493 194.697 338.465 212.629 336.547 230.423C335.167 242.544 331.059 253.935 326.381 265.109C323.973 270.902 321.406 276.626 318.987 282.384C318.257 284.117 317.538 285.85 316.842 287.606C314.128 294.194 311.934 300.984 310.281 307.914C308.562 315.578 307.731 323.413 307.805 331.267C307.828 333.342 307.896 335.406 308.033 337.47C308.934 351.136 312.354 364.519 318.12 376.945C324.722 391.29 334.444 403.981 346.577 414.094C348.277 415.497 345.836 417.903 344.147 416.512Z" fill="#3F3D56"/>
<path d="M318.975 384.87C317.116 384.357 315.275 383.79 313.453 383.171C298.596 378.023 285.011 369.762 273.608 358.941C262.209 348.215 253.137 335.264 246.953 320.89C243.863 313.689 241.586 306.167 240.164 298.462C239.393 294.084 238.848 289.669 238.532 285.235C238.133 279.841 237.996 274.414 237.928 269.009C237.779 256.763 237.973 244.243 236.113 232.11C235.123 225.077 233.217 218.204 230.442 211.666C223.745 196.292 212.323 183.448 197.831 174.995C195.926 173.889 197.649 170.936 199.554 172.042C201.323 173.068 203.057 174.151 204.746 175.314C218.492 184.787 229.036 198.207 234.984 213.798C237.094 219.473 238.601 225.355 239.479 231.346C241.545 244.699 241.157 258.473 241.396 271.939C241.476 276.523 241.636 281.118 242.001 285.702C242.349 290.637 243.024 295.543 244.021 300.389C245.626 307.964 248.079 315.334 251.335 322.361C257.946 336.526 267.449 349.153 279.233 359.431C290.97 369.733 304.853 377.297 319.877 381.574C321.999 382.167 321.098 385.474 318.975 384.87Z" fill="#3F3D56"/>
<path d="M189.125 176.557C178.504 181.263 166.913 183.369 155.314 182.7C143.715 182.03 132.443 178.605 122.435 172.708C112.427 166.811 103.971 158.613 97.7696 148.795C91.5685 138.977 87.8012 127.822 86.7806 116.256C85.7599 104.691 87.5154 93.0488 91.9012 82.2975C96.287 71.5462 103.177 61.9958 111.998 54.4396C120.819 46.8834 131.317 41.5395 142.619 38.8517C153.922 36.164 165.703 36.21 176.985 38.986C176.654 39.442 176.334 39.9209 176.026 40.3999C174.334 43.0262 173.042 45.889 172.192 48.8948C174.409 46.2367 177.013 43.9266 179.917 42.0418C179.978 42.0009 180.043 41.9665 180.111 41.9392C180.396 41.7568 180.682 41.5743 180.978 41.3919C181.458 41.0954 181.937 40.8217 182.427 40.5594C192.807 43.98 202.286 49.6846 210.166 57.2527C209.068 58.0056 208.02 58.8283 207.028 59.7157C205.931 60.6891 204.901 61.7369 203.947 62.8515C203.696 63.1365 203.445 63.4443 203.206 63.7408C202.852 64.1741 202.521 64.6074 202.202 65.0521C202.167 65.1091 202.122 65.1547 202.088 65.2118C201.757 65.6679 201.437 66.1467 201.129 66.6257C199.437 69.252 198.145 72.1149 197.295 75.1206C199.512 72.4625 202.116 70.1524 205.02 68.2676C205.081 68.2267 205.146 68.1923 205.214 68.165C205.499 67.9826 205.785 67.8001 206.081 67.6177C206.56 67.3212 207.04 67.0476 207.53 66.7853C208.34 66.3406 209.173 65.9301 210.018 65.5424C210.132 65.4969 210.246 65.4397 210.36 65.3942C212.164 64.6053 214.03 63.9683 215.94 63.49C223.081 72.1833 228.116 82.4075 230.652 93.3652C233.188 104.323 233.158 115.718 230.562 126.662C227.967 137.606 222.877 147.803 215.689 156.457C208.502 165.112 199.411 171.991 189.125 176.557L189.125 176.557Z" fill="#6C63FF"/>
<path d="M399.263 102.095C394.415 118.943 395.801 136.972 403.168 152.882C410.534 168.792 423.388 181.519 439.377 188.733C455.365 195.947 473.419 197.165 490.233 192.165C507.047 187.165 521.496 176.281 530.936 161.505C540.376 146.729 544.176 129.049 541.638 111.703C539.101 94.3569 530.397 78.5039 517.12 67.0462C503.843 55.5885 486.88 49.2924 469.338 49.3106C451.795 49.3287 434.846 55.6598 421.592 67.145C422.377 68.384 423.076 69.6755 423.684 71.0104C423.846 71.3537 424.002 71.719 424.15 72.0701C424.37 72.5843 424.568 73.0923 424.752 73.608C424.972 74.2052 425.166 74.807 425.347 75.4167C426.245 78.4084 426.694 81.5168 426.678 84.6402C425.284 81.4727 423.422 78.5326 421.153 75.9183C421.106 75.8621 421.053 75.811 420.995 75.7659C420.772 75.5117 420.548 75.2575 420.313 75.0002C419.309 73.9072 418.238 72.8776 417.106 71.9171C417.008 71.8417 416.915 71.7553 416.818 71.6799C408.562 80.2282 402.533 90.6726 399.263 102.095Z" fill="#6C63FF"/>
<path d="M440.542 191.928C438.887 193.205 437.286 194.55 435.738 195.964C423.324 207.357 414.883 222.421 411.651 238.952C411.422 240.138 411.228 241.335 411.057 242.532C408.41 260.982 412.404 279.704 414.355 298.04C414.423 298.667 414.492 299.283 414.549 299.91C415.528 308.508 415.646 317.183 414.903 325.805C414.116 333.595 412.482 341.276 410.03 348.712C405.086 363.546 397.183 377.223 386.799 388.918C376.424 400.699 363.606 410.08 349.236 416.409C347.239 417.276 345.493 414.323 347.513 413.456C349.304 412.669 351.084 411.848 352.83 410.97C366.734 403.866 378.922 393.819 388.545 381.529C398.184 369.334 405.132 355.24 408.935 340.172C410.859 332.545 411.882 324.719 411.981 316.854C412.016 311.527 411.765 306.202 411.228 300.902C410.795 296.272 410.202 291.643 409.608 287.025C407.725 272.544 405.831 257.834 407.566 243.387C408.098 238.86 409.03 234.388 410.35 230.024C415.243 214.001 424.932 199.862 438.111 189.51C439.834 188.165 442.276 190.571 440.542 191.928Z" fill="#3F3D56"/>
<path d="M320.613 233.801C316.434 223.726 308.6 215.24 301.702 206.53C293.314 195.917 276.051 200.813 274.923 214.282C282.664 216.824 283.669 227.998 274.814 229.527C277.075 253.906 292.642 276.387 314.282 287.685L324.985 267.701C326.431 256.324 324.28 242.632 320.613 233.801Z" fill="#3F3D56"/>
<path d="M324.98 267.749C325.099 267.513 325.218 267.277 325.338 267.042L324.985 267.701L324.98 267.749Z" fill="#2F2E41"/>
<path d="M401.627 319.32C397.448 309.245 389.614 300.759 382.715 292.049C374.328 281.436 357.065 286.332 355.936 299.8C363.677 302.343 364.682 313.516 355.828 315.046C358.089 339.425 373.656 361.905 395.296 373.204L405.999 353.22C407.445 341.842 405.293 328.151 401.627 319.32Z" fill="#3F3D56"/>
<path d="M428.71 292.885C437.237 299.693 448.197 303.345 458.446 307.646C470.918 312.895 483.671 300.279 478.154 287.94C470.146 289.447 463.869 280.147 470.885 274.536C457.129 254.276 432.636 242.097 408.226 242.641L408.507 265.305C412.735 275.967 421.234 286.92 428.71 292.885Z" fill="#3F3D56"/>
<path d="M221.141 294.025C212.614 300.833 201.654 304.486 191.405 308.786C178.933 314.035 166.18 301.42 171.697 289.08C179.705 290.587 185.982 281.287 178.966 275.676C192.722 255.416 217.215 243.237 241.625 243.781L241.344 266.445C237.116 277.107 228.617 288.06 221.141 294.025Z" fill="#3F3D56"/>
<path d="M405.994 353.268C406.112 353.032 406.232 352.796 406.352 352.561L405.999 353.22L405.994 353.268Z" fill="#2F2E41"/>
<path d="M545.141 146.227L542.859 154.209L544 187.275L591.923 172.452L596.735 140.763L545.141 146.227Z" fill="#9E616A"/>
<path d="M510.44 394.997L498.577 392.692L501.833 345.867L519.341 349.27L510.44 394.997Z" fill="#9E616A"/>
<path d="M515.597 389.926L511.621 388.91L499.057 385.678L497.065 385.163L495.501 393.2L475.276 402.035C474.276 402.471 473.441 403.214 472.894 404.157C472.347 405.1 472.116 406.193 472.235 407.276C472.354 408.359 472.817 409.376 473.556 410.178C474.294 410.98 475.27 411.525 476.341 411.733L498.675 416.073L504.063 408.873L504.029 417.114L512.44 418.748L515.597 389.926Z" fill="#2F2E41"/>
<path d="M663.061 386.98L651.424 390.242L633.293 346.943L650.467 342.128L663.061 386.98Z" fill="#9E616A"/>
<path d="M665.389 380.135L661.38 381.01L648.701 383.761L646.69 384.194L648.904 392.077L634.802 409.047C634.104 409.884 633.693 410.923 633.628 412.011C633.562 413.099 633.847 414.179 634.44 415.094C635.034 416.009 635.904 416.71 636.924 417.095C637.945 417.48 639.061 417.528 640.111 417.234L662.018 411.09L663.597 402.239L667.269 409.618L675.519 407.304L665.389 380.135Z" fill="#2F2E41"/>
<path d="M541.718 180.434L595.849 163.78C595.849 163.78 594.205 169.032 601.011 180.329C608.12 192.131 612.15 205.905 612.304 216.751C612.639 240.215 615.783 263.554 622.816 285.943L623.427 287.886C623.427 287.886 639.822 301.252 646.693 329.807L660.826 364.481L643.27 369.716L597.291 300.484L592.922 296.95C589.743 294.378 587.153 291.154 585.329 287.496C583.504 283.838 582.487 279.831 582.346 275.745L568.535 252.884L558.27 273.01L541.671 296.605L531.54 331.356C528.486 347.545 525.953 362.7 515.474 375.417L496.516 372.885L509.768 293.319L521.646 258.742L530.553 232.814L536.012 216.922L541.718 180.434Z" fill="#2F2E41"/>
<path d="M538.404 163.788C537.68 168.346 538.852 172.562 538.265 177.945C538.168 178.837 535.89 180.924 535.82 181.811C535.653 183.923 537.327 184.795 537.379 186.798C537.419 188.362 535.786 191.088 536.008 192.525C538.351 207.678 551.996 214.407 602.051 182.372C602.051 182.372 606.48 179.716 603.424 174.273C602.609 172.822 606.17 171.132 606.48 169.092C606.716 167.542 604.772 165.526 605.024 163.78C605.32 161.72 605.625 159.533 605.931 157.244C609.923 127.37 614.074 80.0559 602.475 68.2046L595.925 56.1467L571.385 60.3202L571.299 70.6647L553.85 88.8501C553.85 88.8501 536.943 106.255 542.695 123.057C546.867 139.207 545.317 146.45 538.404 163.788Z" fill="#3F3D56"/>
<path d="M588.499 94.1781C586.687 93.6464 584.787 93.4771 582.909 93.68C581.031 93.8828 579.212 94.4538 577.555 95.3603C575.898 96.2667 574.436 97.4909 573.253 98.9625C572.071 100.434 571.19 102.125 570.661 103.937L559.564 142.006L523.948 167.494C522.473 167.254 520.96 167.433 519.582 168.011C518.204 168.588 517.015 169.54 516.152 170.759C515.288 171.979 514.785 173.415 514.699 174.906C514.612 176.397 514.946 177.883 515.663 179.193C516.38 180.504 517.45 181.587 518.753 182.32C520.055 183.052 521.537 183.405 523.03 183.337C524.523 183.269 525.967 182.784 527.198 181.936C528.428 181.089 529.396 179.913 529.991 178.543L577.706 154.515L597.364 114.245C598.28 112.368 598.775 110.313 598.815 108.225C598.855 106.137 598.438 104.065 597.594 102.155C596.75 100.244 595.499 98.5403 593.928 97.1626C592.357 95.7849 590.504 94.7664 588.499 94.1781Z" fill="#9E616A"/>
<path d="M584.601 148.78L559.881 137.017L559.797 136.82C559.242 135.538 559.087 134.118 559.351 132.747C559.615 131.375 560.287 130.115 561.278 129.131L561.525 128.883L571.224 95.2461L574.587 91.8854L574.622 89.4524C574.727 82.0964 575.394 74.8095 579.53 71.3303C581.866 69.3638 585.069 68.7364 589.318 69.4083C592.37 69.8908 595.273 71.0527 597.814 72.8081C600.355 74.5635 602.469 76.8674 603.999 79.5493C605.528 82.2312 606.435 85.2225 606.652 88.302C606.868 91.3814 606.389 94.4701 605.25 97.3395L604.577 98.983L600.875 103.978L599.662 112.873L596.2 117.487L584.601 148.78Z" fill="#3F3D56"/>
<path d="M551.413 59.8461L556.657 59.3872C556.057 57.3205 555.683 55.1945 555.543 53.0469C556.745 55.3601 558.406 57.4042 560.425 59.0545L590.5 56.4021L608.798 19.5001C604.442 5.20071 593.161 -3.2159 578.927 1.15973C578.069 1.42348 577.192 1.73805 576.318 2.09716C568.232 3.17498 560.879 7.34625 555.808 13.7328C550.737 20.1193 548.344 28.2229 549.132 36.3373C542.099 49.366 547.555 54.0776 551.413 59.8461Z" fill="#2F2E41"/>
<path d="M572.12 53.5683C583.534 53.5683 592.788 44.3211 592.788 32.9141C592.788 21.5072 583.534 12.26 572.12 12.26C560.705 12.26 551.451 21.5072 551.451 32.9141C551.451 44.3211 560.705 53.5683 572.12 53.5683Z" fill="#9E616A"/>
<path d="M544.433 27.2091C546.647 28.7786 552.655 28.9222 559.577 28.3998C559.526 28.2688 559.484 28.1345 559.443 28.0002C558.842 25.9334 558.468 23.8074 558.329 21.6598C559.531 23.973 561.192 26.0172 563.211 27.6675C563.362 27.7907 563.513 27.9138 563.674 28.0338C569.562 27.4224 575.695 26.4646 580.47 25.6187C580.811 37.975 571.559 51.0409 575.003 57.5586L612.764 53.8888C611.661 51.0799 611 48.1166 610.807 45.105C612.627 48.5986 615.472 51.4528 618.96 53.2846L622.17 52.9765L621.705 48.2684C623.741 27.1645 606.981 11.352 586.13 6.9172C581.493 3.13832 575.547 1.34773 569.593 1.93686L564.878 2.39102C561.905 2.67896 559.018 3.54931 556.381 4.95239C553.745 6.35547 551.41 8.26378 549.512 10.5684C547.613 12.873 546.187 15.5287 545.316 18.384C544.445 21.2392 544.144 24.238 544.433 27.2091Z" fill="#2F2E41"/>
<path d="M576.38 3.13756C581.108 3.9751 585.393 6.44225 588.489 10.11C591.586 13.7777 593.297 18.4138 593.327 23.2122C593.339 23.5564 593.484 23.8826 593.732 24.1219C593.98 24.3612 594.311 24.495 594.656 24.495C595 24.495 595.332 24.3612 595.58 24.1219C595.828 23.8826 595.973 23.5564 595.985 23.2122C595.955 17.8334 594.053 12.6326 590.604 8.50228C587.156 4.37201 582.377 1.5698 577.087 0.576534C575.415 0.275532 574.697 2.83457 576.38 3.13756H576.38Z" fill="#FD6584"/>
<path d="M760.942 418.728L1.05179 419C0.772558 418.999 0.505046 418.888 0.307884 418.69C0.110723 418.493 0 418.225 0 417.946C0 417.667 0.110723 417.399 0.307884 417.201C0.505046 417.004 0.772558 416.892 1.05179 416.892L760.942 416.62C761.222 416.62 761.49 416.731 761.688 416.928C761.886 417.126 761.997 417.394 761.997 417.674C761.997 417.953 761.886 418.221 761.688 418.419C761.49 418.617 761.222 418.728 760.942 418.728Z" fill="#CACACA"/>
<path d="M166.07 67.8034C150.154 72.2683 118.207 77.7651 124.429 99.943C128.623 114.894 157.311 101.434 166.952 98.7294C175.904 96.218 191.891 100.149 195.387 109.803C196.153 111.917 201.606 116.661 198.736 119.038C194.444 122.593 187.87 125.243 182.763 127.308C173.33 131.121 165.274 138.167 155.412 140.934C146.381 143.467 137.35 146.001 128.319 148.535" stroke="white" stroke-width="3" stroke-linecap="round"/>
<path d="M124.372 58.0695C141.5 92.1081 152.644 129.655 171.03 161.881" stroke="white" stroke-width="3" stroke-linecap="round"/>
<path d="M132.896 53.7298C136.38 66.1499 140.943 76.4827 146.462 87.8087C150.804 96.7224 160.927 105.031 163.781 115.206C167.508 128.491 180.393 139.693 183.96 152.409" stroke="white" stroke-width="3" stroke-linecap="round"/>
<path d="M328.151 66.511C311.621 66.511 279.377 63.1742 279.377 86.2083C279.377 101.736 310.634 96.5259 320.647 96.5259C329.945 96.5259 344.276 104.629 345.034 114.868C345.2 117.111 349.169 123.151 345.764 124.665C340.671 126.928 333.625 127.704 328.151 128.312C318.038 129.436 308.378 134.044 298.136 134.044C288.756 134.044 279.377 134.044 269.997 134.044" stroke="white" stroke-width="3" stroke-linecap="round"/>
<path d="M290.632 45.8758C297.93 83.2758 298.517 122.438 307.515 158.432" stroke="white" stroke-width="3" stroke-linecap="round"/>
<path d="M300.012 43.9999C300.012 56.8996 301.614 68.0808 303.868 80.4763C305.642 90.2318 313.143 100.965 313.143 111.533C313.143 125.331 322.523 139.598 322.523 152.804" stroke="white" stroke-width="3" stroke-linecap="round"/>
<path d="M502.687 101.084C488.271 92.9972 461.781 74.3116 450.512 94.4008C442.915 107.943 472.725 118.692 481.458 123.591C489.567 128.139 498.101 142.218 493.753 151.519C492.801 153.556 493.308 160.766 489.597 160.42C484.048 159.902 477.524 157.132 472.451 154.984C463.082 151.017 452.402 150.31 443.469 145.299C435.289 140.71 427.109 136.121 418.928 131.532" stroke="white" stroke-width="3" stroke-linecap="round"/>
<path d="M480.061 64.7316C468.128 100.92 449.48 135.362 439.719 171.157" stroke="white" stroke-width="3" stroke-linecap="round"/>
<path d="M489.159 67.6844C482.848 78.9349 478.775 89.4704 474.676 101.384C471.451 110.76 472.742 123.791 467.572 133.008C460.821 145.042 462.022 162.073 455.561 173.591" stroke="white" stroke-width="3" stroke-linecap="round"/>
</svg>
