<svg width="523" height="429" viewBox="0 0 523 429" fill="none" xmlns="http://www.w3.org/2000/svg">
<path d="M49.9442 399.808C49.7025 399.808 49.4708 399.712 49.2999 399.541C49.129 399.37 49.033 399.139 49.033 398.897V117.111C49.033 116.87 49.129 116.638 49.2999 116.467C49.4708 116.297 49.7025 116.201 49.9442 116.201C50.1859 116.201 50.4177 116.297 50.5886 116.467C50.7595 116.638 50.8555 116.87 50.8555 117.111V398.897C50.8555 399.139 50.7595 399.37 50.5886 399.541C50.4177 399.712 50.1859 399.808 49.9442 399.808Z" fill="#D1D3D4"/>
<path d="M159.44 399.808C159.198 399.808 158.967 399.712 158.796 399.541C158.625 399.37 158.529 399.139 158.529 398.897V117.111C158.529 116.87 158.625 116.638 158.796 116.467C158.967 116.297 159.198 116.201 159.44 116.201C159.682 116.201 159.913 116.297 160.084 116.467C160.255 116.638 160.351 116.87 160.351 117.111V398.897C160.351 399.139 160.255 399.37 160.084 399.541C159.913 399.712 159.682 399.808 159.44 399.808Z" fill="#D1D3D4"/>
<path d="M268.79 399.808C268.548 399.808 268.317 399.712 268.146 399.541C267.975 399.37 267.879 399.139 267.879 398.897V117.111C267.879 116.87 267.975 116.638 268.146 116.467C268.317 116.297 268.548 116.201 268.79 116.201C269.032 116.201 269.263 116.297 269.434 116.467C269.605 116.638 269.701 116.87 269.701 117.111V398.897C269.701 399.139 269.605 399.37 269.434 399.541C269.263 399.712 269.032 399.808 268.79 399.808Z" fill="#D1D3D4"/>
<path d="M378.322 399.808C378.081 399.808 377.849 399.712 377.678 399.541C377.507 399.37 377.411 399.139 377.411 398.897V117.111C377.411 116.87 377.507 116.638 377.678 116.467C377.849 116.297 378.081 116.201 378.322 116.201C378.564 116.201 378.796 116.297 378.967 116.467C379.138 116.638 379.234 116.87 379.234 117.111V398.897C379.234 399.139 379.138 399.37 378.967 399.541C378.796 399.712 378.564 399.808 378.322 399.808Z" fill="#D1D3D4"/>
<path d="M487.782 399.808C487.54 399.808 487.308 399.712 487.137 399.541C486.966 399.37 486.87 399.139 486.87 398.897V117.111C486.87 116.87 486.966 116.638 487.137 116.467C487.308 116.297 487.54 116.201 487.782 116.201C488.023 116.201 488.255 116.297 488.426 116.467C488.597 116.638 488.693 116.87 488.693 117.111V398.897C488.693 399.139 488.597 399.37 488.426 399.541C488.255 399.712 488.023 399.808 487.782 399.808Z" fill="#D1D3D4"/>
<path d="M487.782 117.985H49.9442C49.7025 117.985 49.4707 117.89 49.2999 117.719C49.129 117.548 49.033 117.316 49.033 117.075C49.033 116.833 49.129 116.602 49.2999 116.431C49.4707 116.26 49.7025 116.164 49.9442 116.164H487.782C488.023 116.164 488.255 116.26 488.426 116.431C488.597 116.602 488.693 116.833 488.693 117.075C488.693 117.316 488.597 117.548 488.426 117.719C488.255 117.89 488.023 117.985 487.782 117.985Z" fill="#D1D3D4"/>
<path d="M487.782 211.186H49.9442C49.7025 211.186 49.4707 211.09 49.2999 210.919C49.129 210.748 49.033 210.517 49.033 210.275C49.033 210.034 49.129 209.802 49.2999 209.631C49.4707 209.461 49.7025 209.365 49.9442 209.365H487.782C488.023 209.365 488.255 209.461 488.426 209.631C488.597 209.802 488.693 210.034 488.693 210.275C488.693 210.517 488.597 210.748 488.426 210.919C488.255 211.09 488.023 211.186 487.782 211.186Z" fill="#D1D3D4"/>
<path d="M487.782 304.35H49.9442C49.7025 304.35 49.4707 304.254 49.2999 304.083C49.129 303.912 49.033 303.681 49.033 303.439C49.033 303.198 49.129 302.966 49.2999 302.795C49.4707 302.625 49.7025 302.529 49.9442 302.529H487.782C488.023 302.529 488.255 302.625 488.426 302.795C488.597 302.966 488.693 303.198 488.693 303.439C488.693 303.681 488.597 303.912 488.426 304.083C488.255 304.254 488.023 304.35 487.782 304.35Z" fill="#D1D3D4"/>
<path d="M512.768 400.609H10.2319C9.99026 400.609 9.75848 400.513 9.58758 400.343C9.41669 400.172 9.32069 399.94 9.32069 399.699C9.32535 399.459 9.42285 399.23 9.59274 399.06C9.76263 398.89 9.99172 398.793 10.2319 398.788H512.768C513.008 398.793 513.237 398.89 513.407 399.06C513.577 399.23 513.675 399.459 513.679 399.699C513.679 399.94 513.583 400.172 513.412 400.343C513.241 400.513 513.01 400.609 512.768 400.609Z" fill="#D1D3D4"/>
<path d="M89.4378 390.848V410.77C89.4378 418.328 111.016 424.446 137.643 424.446C164.27 424.446 185.866 418.328 185.866 410.77V390.848H89.4378Z" fill="white"/>
<path d="M137.57 425.357C113.422 425.357 88.4536 419.894 88.4536 410.789V390.849C88.4536 390.607 88.5496 390.375 88.7205 390.205C88.8914 390.034 89.1232 389.938 89.3649 389.938H185.866C186.108 389.938 186.34 390.034 186.511 390.205C186.681 390.375 186.777 390.607 186.777 390.849V410.771C186.777 419.894 161.791 425.357 137.57 425.357ZM90.2761 391.759V410.771C90.2761 416.944 109.285 423.518 137.57 423.518C165.855 423.518 184.955 416.926 184.955 410.771V391.759H90.2761Z" fill="#231F20"/>
<path d="M137.643 404.506C164.266 404.506 185.848 398.391 185.848 390.848C185.848 383.305 164.266 377.191 137.643 377.191C111.02 377.191 89.4378 383.305 89.4378 390.848C89.4378 398.391 111.02 404.506 137.643 404.506Z" fill="#231F20"/>
<path d="M137.57 405.307C110.087 405.307 88.563 398.952 88.563 390.849C88.563 382.745 110.087 376.28 137.57 376.28C165.053 376.28 186.595 382.636 186.595 390.849C186.595 399.061 165.126 405.307 137.57 405.307ZM137.57 377.992C109.212 377.992 90.185 384.657 90.185 390.867C90.185 397.076 109.23 403.723 137.57 403.723C165.91 403.723 184.955 397.076 184.955 390.867C184.955 384.657 166.001 377.974 137.57 377.974V377.992Z" fill="#231F20"/>
<path d="M79.5781 360.383V380.323C79.5781 387.862 101.156 393.981 127.783 393.981C154.41 393.981 176.007 387.862 176.007 380.323V360.383H79.5781Z" fill="white"/>
<path d="M127.783 394.891C103.635 394.891 78.6668 389.428 78.6668 380.323V360.383C78.6668 360.141 78.7628 359.91 78.9337 359.739C79.1046 359.568 79.3364 359.472 79.578 359.472H176.007C176.248 359.472 176.48 359.568 176.651 359.739C176.822 359.91 176.918 360.141 176.918 360.383V380.323C176.918 389.446 151.931 394.891 127.783 394.891ZM80.4893 361.293V380.323C80.4893 386.478 99.498 393.07 127.783 393.07C156.068 393.07 175.168 386.478 175.168 380.323V361.293H80.4893Z" fill="#231F20"/>
<path d="M127.783 374.04C154.406 374.04 175.988 367.926 175.988 360.383C175.988 352.84 154.406 346.725 127.783 346.725C101.16 346.725 79.5781 352.84 79.5781 360.383C79.5781 367.926 101.16 374.04 127.783 374.04Z" fill="white"/>
<path d="M127.783 374.951C103.635 374.951 78.6668 369.488 78.6668 360.383C78.6668 351.278 103.635 345.814 127.783 345.814C151.931 345.814 176.991 351.278 176.991 360.383C176.991 369.488 151.931 374.951 127.783 374.951ZM127.783 347.635C99.498 347.635 80.4893 354.228 80.4893 360.383C80.4893 366.538 99.498 373.13 127.783 373.13C156.068 373.13 175.168 366.538 175.168 360.383C175.168 354.228 156.087 347.635 127.783 347.635Z" fill="#231F20"/>
<path d="M127.783 369.579C107.244 369.579 86.4307 366.429 86.4307 360.474C86.4307 354.519 107.244 351.278 127.783 351.278C148.323 351.278 169.136 354.428 169.136 360.474C169.136 366.52 148.341 369.579 127.783 369.579ZM127.783 353.008C103.289 353.008 88.2532 357.305 88.2532 360.383C88.2532 363.46 103.289 367.667 127.783 367.667C152.278 367.667 167.313 363.369 167.313 360.383C167.313 357.396 152.278 353.008 127.783 353.008Z" fill="#D1D3D4"/>
<path d="M202.651 394.436V414.358C202.651 421.915 224.248 428.034 250.875 428.034C277.502 428.034 299.08 421.915 299.08 414.358V394.436H202.651Z" fill="white"/>
<path d="M250.875 428.944C226.727 428.944 201.667 423.481 201.667 414.376V394.436C201.667 394.194 201.763 393.963 201.934 393.792C202.105 393.621 202.337 393.525 202.579 393.525H299.007C299.249 393.525 299.48 393.621 299.651 393.792C299.822 393.963 299.918 394.194 299.918 394.436V414.358C299.991 423.481 275.023 428.944 250.875 428.944ZM203.49 395.346V414.358C203.49 420.513 222.499 427.105 250.875 427.105C279.251 427.105 298.26 420.495 298.26 414.358V395.346H203.49Z" fill="#231F20"/>
<path d="M250.875 408.094C277.498 408.094 299.08 401.979 299.08 394.436C299.08 386.893 277.498 380.778 250.875 380.778C224.252 380.778 202.67 386.893 202.67 394.436C202.67 401.979 224.252 408.094 250.875 408.094Z" fill="#231F20"/>
<path d="M250.875 408.895C223.392 408.895 201.85 402.54 201.85 394.436C201.85 386.332 223.392 379.959 250.875 379.959C278.358 379.959 299.882 386.314 299.882 394.436C299.882 402.558 278.358 408.895 250.875 408.895ZM250.875 381.579C222.517 381.579 203.49 388.226 203.49 394.454C203.49 400.682 222.535 407.311 250.875 407.311C279.215 407.311 298.26 400.664 298.26 394.454C298.26 388.244 279.233 381.561 250.875 381.561V381.579Z" fill="#231F20"/>
<path d="M210.47 365.646V385.677C210.47 393.216 232.048 399.335 258.675 399.335C285.302 399.335 306.898 393.216 306.898 385.677V365.646H210.47Z" fill="white"/>
<path d="M258.639 400.245C234.491 400.245 209.431 394.782 209.431 385.677V365.645C209.431 365.404 209.527 365.172 209.698 365.002C209.869 364.831 210.101 364.735 210.342 364.735H306.771C307.013 364.735 307.244 364.831 307.415 365.002C307.586 365.172 307.682 365.404 307.682 365.645V385.677C307.773 394.782 282.787 400.245 258.639 400.245ZM211.254 366.647V385.677C211.254 391.832 230.262 398.424 258.639 398.424C287.015 398.424 306.024 391.832 306.024 385.677V366.556L211.254 366.647Z" fill="#231F20"/>
<path d="M258.639 379.303C285.262 379.303 306.844 373.188 306.844 365.645C306.844 358.102 285.262 351.988 258.639 351.988C232.016 351.988 210.434 358.102 210.434 365.645C210.434 373.188 232.016 379.303 258.639 379.303Z" fill="#231F20"/>
<path d="M258.639 380.104C231.155 380.104 209.632 373.749 209.632 365.645C209.632 357.542 231.155 351.186 258.639 351.186C286.122 351.186 307.664 357.524 307.664 365.645C307.664 373.767 286.122 380.104 258.639 380.104ZM258.639 352.789C230.281 352.789 211.254 359.436 211.254 365.645C211.254 371.855 230.299 378.502 258.639 378.502C286.979 378.502 306.024 371.855 306.024 365.645C306.024 359.436 287.015 352.789 258.639 352.789Z" fill="#231F20"/>
<path d="M202.651 336.746V356.777C202.651 364.316 224.248 370.435 250.875 370.435C277.502 370.435 299.08 364.316 299.08 356.777V336.746H202.651Z" fill="white"/>
<path d="M250.875 371.254C226.727 371.254 201.667 365.791 201.667 356.686V336.655C201.672 336.415 201.769 336.186 201.939 336.016C202.109 335.846 202.338 335.749 202.579 335.744H299.007C299.249 335.744 299.48 335.84 299.651 336.011C299.822 336.182 299.918 336.413 299.918 336.655V356.686C299.991 365.809 275.023 371.254 250.875 371.254ZM203.49 337.656V356.686C203.49 362.841 222.499 369.433 250.875 369.433C279.251 369.433 298.26 362.841 298.26 356.686V337.656H203.49Z" fill="#231F20"/>
<path d="M250.875 350.403C277.498 350.403 299.08 344.289 299.08 336.746C299.08 329.203 277.498 323.088 250.875 323.088C224.252 323.088 202.67 329.203 202.67 336.746C202.67 344.289 224.252 350.403 250.875 350.403Z" fill="#231F20"/>
<path d="M250.875 351.223C223.392 351.223 201.85 344.868 201.85 336.655C201.85 328.442 223.392 322.196 250.875 322.196C278.358 322.196 299.882 328.551 299.882 336.655C299.882 344.758 278.358 351.223 250.875 351.223ZM250.875 323.907C222.517 323.907 203.49 330.554 203.49 336.764C203.49 342.974 222.535 349.62 250.875 349.62C279.215 349.62 298.26 342.974 298.26 336.764C298.26 330.554 279.233 323.889 250.875 323.889V323.907Z" fill="#231F20"/>
<path d="M218.197 313.127V333.049C218.197 340.606 239.794 346.725 266.421 346.725C293.047 346.725 314.626 340.606 314.626 333.049V313.127H218.197Z" fill="white"/>
<path d="M266.421 347.635C242.273 347.635 217.213 342.172 217.213 333.067V313.127C217.213 312.885 217.309 312.654 217.48 312.483C217.651 312.312 217.883 312.216 218.125 312.216H314.553C314.795 312.216 315.026 312.312 315.197 312.483C315.368 312.654 315.464 312.885 315.464 313.127V333.049C315.537 342.172 290.66 347.635 266.421 347.635ZM219.036 314.037V333.049C219.036 339.204 238.044 345.796 266.421 345.796C294.797 345.796 313.806 339.186 313.806 333.049V314.037H219.036Z" fill="#231F20"/>
<path d="M266.421 326.785C293.044 326.785 314.626 320.67 314.626 313.127C314.626 305.584 293.044 299.469 266.421 299.469C239.798 299.469 218.216 305.584 218.216 313.127C218.216 320.67 239.798 326.785 266.421 326.785Z" fill="#231F20"/>
<path d="M266.421 327.586C238.919 327.586 217.396 321.231 217.396 313.127C217.396 305.023 238.919 298.65 266.421 298.65C293.922 298.65 315.428 305.005 315.428 313.127C315.428 321.249 293.904 327.586 266.421 327.586ZM266.421 300.27C238.044 300.27 219.036 306.935 219.036 313.145C219.036 319.355 238.081 326.002 266.421 326.002C294.761 326.002 313.806 319.355 313.806 313.145C313.806 306.935 294.779 300.252 266.421 300.252V300.27Z" fill="#231F20"/>
<path d="M207.627 289.49V309.43C207.627 316.969 229.205 323.088 255.832 323.088C282.459 323.088 304.055 316.969 304.055 309.43V289.49H207.627Z" fill="white"/>
<path d="M255.832 323.999C231.684 323.999 206.716 318.535 206.716 309.43V289.49C206.716 289.248 206.812 289.017 206.983 288.846C207.153 288.675 207.385 288.579 207.627 288.579H304.055C304.297 288.579 304.529 288.675 304.7 288.846C304.871 289.017 304.967 289.248 304.967 289.49V309.43C304.967 318.554 279.98 323.999 255.832 323.999ZM208.538 290.4V309.43C208.538 315.585 227.547 322.177 255.832 322.177C284.117 322.177 303.217 315.585 303.217 309.43V290.4H208.538Z" fill="#231F20"/>
<path d="M255.832 303.148C282.455 303.148 304.037 297.033 304.037 289.49C304.037 281.947 282.455 275.832 255.832 275.832C229.209 275.832 207.627 281.947 207.627 289.49C207.627 297.033 229.209 303.148 255.832 303.148Z" fill="white"/>
<path d="M255.832 304.058C231.684 304.058 206.716 298.595 206.716 289.49C206.716 280.385 231.684 274.922 255.832 274.922C279.98 274.922 305.04 280.385 305.04 289.49C305.04 298.595 279.98 304.058 255.832 304.058ZM255.832 276.743C227.547 276.743 208.538 283.335 208.538 289.49C208.538 295.645 227.547 302.237 255.832 302.237C284.117 302.237 303.217 295.645 303.217 289.49C303.217 283.335 284.135 276.743 255.832 276.743Z" fill="#231F20"/>
<path d="M255.832 298.686C235.292 298.686 214.479 295.536 214.479 289.581C214.479 283.626 235.292 280.385 255.832 280.385C276.372 280.385 297.185 283.535 297.185 289.581C297.185 295.627 276.39 298.686 255.832 298.686ZM255.832 282.115C231.338 282.115 216.302 286.412 216.302 289.49C216.302 292.567 231.338 296.774 255.832 296.774C280.326 296.774 295.362 292.476 295.362 289.49C295.362 286.503 280.326 282.115 255.832 282.115Z" fill="#D1D3D4"/>
<path d="M444.916 383.455V403.395C444.916 410.934 423.338 417.053 396.711 417.053C370.085 417.053 348.488 410.934 348.488 403.395V383.455H444.916Z" fill="white"/>
<path d="M396.711 417.964C372.563 417.964 347.504 412.5 347.504 403.395V383.455C347.504 383.214 347.6 382.982 347.771 382.811C347.942 382.64 348.173 382.545 348.415 382.545H444.844C445.085 382.545 445.317 382.64 445.488 382.811C445.659 382.982 445.755 383.214 445.755 383.455V403.395C445.828 412.5 420.859 417.964 396.711 417.964ZM349.326 384.366V403.395C349.326 409.55 368.335 416.143 396.711 416.143C425.088 416.143 444.005 409.55 444.005 403.395V384.366H349.326Z" fill="#231F20"/>
<path d="M396.711 397.113C423.334 397.113 444.916 390.998 444.916 383.455C444.916 375.912 423.334 369.797 396.711 369.797C370.088 369.797 348.506 375.912 348.506 383.455C348.506 390.998 370.088 397.113 396.711 397.113Z" fill="#231F20"/>
<path d="M396.711 397.914C369.228 397.914 347.686 391.559 347.686 383.455C347.686 375.352 369.228 368.978 396.711 368.978C424.195 368.978 445.718 375.333 445.718 383.455C445.718 391.577 424.195 397.914 396.711 397.914ZM396.711 370.599C368.353 370.599 349.326 377.245 349.326 383.455C349.326 389.665 368.39 396.312 396.711 396.312C425.033 396.312 444.096 389.665 444.096 383.455C444.096 377.245 425.069 370.599 396.711 370.599Z" fill="#231F20"/>
<path d="M429.389 359.818V379.758C429.389 387.297 407.792 393.416 381.165 393.416C354.539 393.416 332.96 387.297 332.96 379.758V359.818H429.389Z" fill="white"/>
<path d="M381.165 394.327C357.017 394.327 331.958 388.864 331.958 379.758V359.818C331.958 359.577 332.054 359.345 332.225 359.174C332.396 359.004 332.627 358.908 332.869 358.908H429.298C429.539 358.908 429.771 359.004 429.942 359.174C430.113 359.345 430.209 359.577 430.209 359.818V379.758C430.3 388.882 405.314 394.327 381.165 394.327ZM333.78 360.729V379.758C333.78 385.913 352.789 392.506 381.165 392.506C409.542 392.506 428.55 385.913 428.55 379.758V360.729H333.78Z" fill="#231F20"/>
<path d="M381.165 373.476C407.788 373.476 429.371 367.361 429.371 359.818C429.371 352.275 407.788 346.16 381.165 346.16C354.542 346.16 332.96 352.275 332.96 359.818C332.96 367.361 354.542 373.476 381.165 373.476Z" fill="#231F20"/>
<path d="M381.165 374.295C353.682 374.295 332.158 367.94 332.158 359.818C332.158 351.696 353.682 345.359 381.165 345.359C408.649 345.359 430.191 351.715 430.191 359.818C430.191 367.922 408.649 374.295 381.165 374.295ZM381.165 346.98C352.807 346.98 333.78 353.627 333.78 359.836C333.78 366.046 352.825 372.693 381.165 372.693C409.505 372.693 428.55 366.046 428.55 359.836C428.55 353.627 409.523 346.962 381.165 346.962V346.98Z" fill="#231F20"/>
<path d="M439.959 336.181V356.212C439.959 363.77 418.381 369.888 391.754 369.888C365.127 369.888 343.513 363.679 343.513 356.121V336.09L439.959 336.181Z" fill="white"/>
<path d="M391.736 370.69C367.606 370.69 342.619 365.227 342.619 356.122V336.09C342.619 335.849 342.715 335.617 342.886 335.446C343.057 335.276 343.289 335.18 343.531 335.18H439.959C440.201 335.18 440.433 335.276 440.604 335.446C440.774 335.617 440.87 335.849 440.87 336.09V356.122C440.87 365.245 415.884 370.69 391.736 370.69ZM344.442 337.092V356.122C344.442 362.277 363.451 368.869 391.736 368.869C420.021 368.869 439.121 362.277 439.121 356.122V337.092H344.442Z" fill="#231F20"/>
<path d="M391.754 349.839C418.377 349.839 439.959 343.724 439.959 336.181C439.959 328.638 418.377 322.523 391.754 322.523C365.131 322.523 343.549 328.638 343.549 336.181C343.549 343.724 365.131 349.839 391.754 349.839Z" fill="#231F20"/>
<path d="M391.736 350.658C364.253 350.658 342.729 344.303 342.729 336.09C342.729 327.877 364.253 321.631 391.736 321.631C419.219 321.631 440.761 327.986 440.761 336.09C440.761 344.194 419.237 350.658 391.736 350.658ZM391.736 323.343C363.378 323.343 344.351 329.99 344.351 336.199C344.351 342.409 363.396 349.074 391.736 349.074C420.076 349.074 439.121 342.427 439.121 336.199C439.121 329.971 420.057 323.325 391.736 323.325V323.343Z" fill="#231F20"/>
<path d="M441.654 309.43V329.352C441.654 336.91 420.076 343.028 393.449 343.028C366.822 343.028 345.226 336.91 345.226 329.352V309.43H441.654Z" fill="white"/>
<path d="M393.449 343.939C369.301 343.939 344.242 338.476 344.242 329.371V309.43C344.242 309.189 344.338 308.957 344.508 308.786C344.679 308.616 344.911 308.52 345.153 308.52H441.581C441.823 308.52 442.055 308.616 442.226 308.786C442.397 308.957 442.493 309.189 442.493 309.43V329.352C442.565 338.476 417.579 343.939 393.449 343.939ZM346.064 310.341V329.352C346.064 335.526 365.073 342.1 393.449 342.1C421.825 342.1 440.834 335.507 440.834 329.352V310.341H346.064Z" fill="#231F20"/>
<path d="M393.449 323.088C420.072 323.088 441.654 316.973 441.654 309.43C441.654 301.887 420.072 295.773 393.449 295.773C366.826 295.773 345.244 301.887 345.244 309.43C345.244 316.973 366.826 323.088 393.449 323.088Z" fill="#231F20"/>
<path d="M393.449 323.889C365.947 323.889 344.424 317.534 344.424 309.43C344.424 301.327 365.947 294.953 393.449 294.953C420.951 294.953 442.456 301.308 442.456 309.43C442.456 317.552 420.932 323.889 393.449 323.889ZM393.449 296.574C365.073 296.574 346.064 303.239 346.064 309.448C346.064 315.658 365.109 322.305 393.449 322.305C421.789 322.305 440.834 315.658 440.834 309.448C440.834 303.239 421.88 296.556 393.449 296.556V296.574Z" fill="#231F20"/>
<path d="M432.195 283.335V303.257C432.195 310.814 410.599 316.933 383.972 316.933C357.345 316.933 335.767 310.814 335.767 303.257V283.335H432.195Z" fill="white"/>
<path d="M383.972 317.843C359.824 317.843 334.856 312.38 334.856 303.275V283.335C334.856 283.093 334.952 282.862 335.123 282.691C335.293 282.52 335.525 282.424 335.767 282.424H432.195C432.437 282.424 432.669 282.52 432.84 282.691C433.011 282.862 433.107 283.093 433.107 283.335V303.257C433.107 312.38 408.12 317.843 383.972 317.843ZM336.678 284.245V303.257C336.678 309.43 355.687 316.004 383.972 316.004C412.257 316.004 431.357 309.412 431.357 303.257V284.245H336.678Z" fill="#231F20"/>
<path d="M383.972 296.993C410.595 296.993 432.177 290.878 432.177 283.335C432.177 275.792 410.595 269.677 383.972 269.677C357.349 269.677 335.767 275.792 335.767 283.335C335.767 290.878 357.349 296.993 383.972 296.993Z" fill="#231F20"/>
<path d="M383.972 297.794C356.489 297.794 334.965 291.439 334.965 283.335C334.965 275.231 356.489 268.767 383.972 268.767C411.455 268.767 432.997 275.122 432.997 283.335C432.997 291.548 411.455 297.794 383.972 297.794ZM383.972 270.478C355.614 270.478 336.587 277.143 336.587 283.353C336.587 289.563 355.632 296.21 383.972 296.21C412.312 296.21 431.357 289.563 431.357 283.353C431.357 277.143 412.33 270.46 383.972 270.46V270.478Z" fill="#231F20"/>
<path d="M444.916 256.566V276.415C444.916 283.972 423.338 290.091 396.711 290.091C370.085 290.091 348.488 283.972 348.488 276.415V256.566H444.916Z" fill="white"/>
<path d="M396.711 291.074C372.563 291.074 347.504 285.611 347.504 276.506V256.566C347.504 256.324 347.6 256.093 347.771 255.922C347.942 255.751 348.173 255.655 348.415 255.655H444.844C445.085 255.655 445.317 255.751 445.488 255.922C445.659 256.093 445.755 256.324 445.755 256.566V276.415C445.828 285.611 420.859 291.074 396.711 291.074ZM349.326 257.476V276.415C349.326 282.588 368.335 289.162 396.711 289.162C425.088 289.162 444.005 282.57 444.005 276.415V257.476H349.326Z" fill="#231F20"/>
<path d="M396.711 270.223C423.334 270.223 444.916 264.109 444.916 256.566C444.916 249.023 423.334 242.908 396.711 242.908C370.088 242.908 348.506 249.023 348.506 256.566C348.506 264.109 370.088 270.223 396.711 270.223Z" fill="white"/>
<path d="M396.711 271.134C372.563 271.134 347.504 265.671 347.504 256.566C347.504 247.461 372.49 241.998 396.711 241.998C420.932 241.998 445.828 247.461 445.828 256.566C445.828 265.671 420.859 271.134 396.711 271.134ZM396.711 243.819C368.408 243.819 349.326 250.429 349.326 256.566C349.326 262.703 368.335 269.313 396.711 269.313C425.088 269.313 444.005 262.721 444.005 256.566C444.005 250.411 424.996 243.8 396.711 243.8V243.819Z" fill="#231F20"/>
<path d="M396.711 265.762C376.153 265.762 355.359 262.593 355.359 256.566C355.359 250.538 376.153 247.461 396.711 247.461C417.269 247.461 438.064 250.611 438.064 256.566C438.064 262.521 417.251 265.762 396.711 265.762ZM396.711 249.191C372.217 249.191 357.181 253.488 357.181 256.475C357.181 259.461 372.217 263.85 396.711 263.85C421.206 263.85 436.241 259.552 436.241 256.475C436.241 253.397 421.206 249.191 396.711 249.191Z" fill="#D1D3D4"/>
<path d="M170.721 191.391C170.721 191.391 164.962 185.181 164.598 182.942C164.233 180.702 163.796 172.944 161.9 174.31C160.005 175.676 160.461 181.23 160.461 181.23C160.461 181.23 152.606 171.833 150.291 173.946C147.976 176.058 147.029 177.934 146.883 182.031C146.737 186.128 166.493 203.301 166.493 203.301" fill="white"/>
<path d="M166.493 204.12C166.273 204.122 166.059 204.045 165.892 203.902C162.538 200.988 145.844 186.219 145.972 181.904C145.864 180.264 146.136 178.622 146.769 177.106C147.401 175.59 148.376 174.24 149.617 173.163C149.844 172.976 150.106 172.837 150.388 172.753C150.669 172.668 150.965 172.64 151.257 172.671C153.626 172.853 157.253 176.404 159.44 178.771C159.531 176.95 159.932 174.547 161.263 173.563C161.479 173.394 161.737 173.286 162.01 173.251C162.282 173.216 162.559 173.254 162.812 173.363C164.142 173.946 164.634 176.349 165.217 181.193C165.217 181.849 165.345 182.413 165.418 182.796C165.636 184.162 169.063 188.259 171.304 190.772C171.473 190.945 171.567 191.177 171.567 191.418C171.567 191.66 171.473 191.892 171.304 192.065C171.22 192.15 171.119 192.218 171.008 192.264C170.897 192.31 170.778 192.334 170.657 192.334C170.537 192.334 170.418 192.31 170.307 192.264C170.196 192.218 170.095 192.15 170.011 192.065C169.026 190.99 164.051 185.527 163.668 183.142C163.668 182.741 163.541 182.14 163.449 181.466C163.305 179.349 162.901 177.257 162.247 175.239C161.354 176.204 161.171 179.227 161.317 181.212C161.339 181.402 161.297 181.595 161.198 181.759C161.099 181.924 160.949 182.051 160.77 182.122C160.591 182.202 160.39 182.22 160.199 182.174C160.007 182.128 159.837 182.02 159.713 181.867C157.417 179.117 153.043 174.692 151.148 174.583C150.929 174.583 150.892 174.583 150.856 174.583C148.651 176.513 147.885 178.316 147.758 182.013C147.667 184.307 157.49 194.25 167.058 202.572C167.143 202.655 167.21 202.754 167.256 202.864C167.302 202.973 167.326 203.091 167.326 203.21C167.326 203.328 167.302 203.446 167.256 203.555C167.21 203.665 167.143 203.764 167.058 203.847C166.913 204.009 166.71 204.108 166.493 204.12Z" fill="#231F20"/>
<path d="M159.914 190.062C159.735 190.065 159.56 190.014 159.411 189.917C159.261 189.82 159.145 189.68 159.076 189.515C158.436 188.11 158.159 186.567 158.271 185.027C158.382 183.488 158.878 182 159.713 180.702C159.859 180.51 160.071 180.381 160.308 180.341C160.545 180.3 160.788 180.351 160.989 180.483C161.181 180.628 161.31 180.842 161.347 181.08C161.385 181.318 161.328 181.561 161.19 181.758V181.758C160.542 182.799 160.162 183.983 160.082 185.206C160.003 186.429 160.227 187.653 160.734 188.769C160.785 188.877 160.814 188.995 160.819 189.115C160.824 189.235 160.804 189.354 160.762 189.467C160.719 189.579 160.655 189.681 160.572 189.768C160.488 189.854 160.389 189.923 160.278 189.971C160.164 190.025 160.04 190.056 159.914 190.062V190.062Z" fill="#231F20"/>
<path d="M263.322 372.656C263.175 374.985 263.175 377.321 263.322 379.649C263.614 380.541 265.4 384.985 265.145 386.332C264.89 387.68 250.018 411.262 246.3 407.529C242.582 403.796 252.096 386.587 252.096 384.803C252.096 383.018 250.911 372.62 250.911 372.62L263.322 372.656Z" fill="white"/>
<path d="M247.285 408.858C246.984 408.863 246.686 408.808 246.407 408.695C246.128 408.583 245.875 408.415 245.663 408.203C242.765 405.307 245.863 397.404 249.563 388.864C250.194 387.554 250.736 386.204 251.185 384.821C251.185 383.473 250.419 376.353 250 372.766C249.987 372.638 250.002 372.509 250.041 372.386C250.081 372.264 250.146 372.152 250.232 372.056C250.317 371.96 250.422 371.883 250.539 371.83C250.656 371.776 250.783 371.748 250.911 371.746H263.323C263.446 371.745 263.569 371.771 263.682 371.821C263.795 371.871 263.896 371.945 263.979 372.037C264.068 372.124 264.137 372.23 264.181 372.346C264.225 372.462 264.243 372.587 264.234 372.711C264.075 374.924 264.075 377.145 264.234 379.358C264.234 379.485 264.361 379.722 264.452 380.013C265.582 383.091 266.275 385.367 266.038 386.514C265.655 388.19 253.773 407.092 248.123 408.731C247.85 408.81 247.568 408.853 247.285 408.858V408.858ZM251.932 373.567C252.242 376.262 253.007 383.346 253.007 384.839C252.62 386.499 252.007 388.098 251.185 389.592C249.071 394.49 244.642 404.67 246.902 406.91C246.902 406.91 247.084 407.092 247.485 407.001C252.096 405.945 263.705 387.643 264.252 386.077C264.028 384.19 263.518 382.348 262.739 380.614C262.637 380.384 262.551 380.147 262.484 379.904C262.287 377.79 262.287 375.663 262.484 373.549L251.932 373.567Z" fill="#231F20"/>
<path d="M230.518 374.259C230.518 374.259 229.916 384.202 230.518 386.423C231.119 388.645 232.158 391.176 231.848 392.524C231.538 393.871 213.277 409.896 212.384 407.092C211.491 404.288 218.926 392.87 219.072 390.848C219.218 388.827 216.703 373.239 216.703 373.239L230.518 374.259Z" fill="white"/>
<path d="M212.967 408.312C212.659 408.33 212.353 408.246 212.099 408.071C211.845 407.896 211.656 407.641 211.563 407.347C210.944 405.398 212.93 401.338 215.81 395.838C216.749 394.216 217.548 392.516 218.197 390.757C218.307 389.355 216.849 379.595 215.828 373.367C215.811 373.23 215.823 373.09 215.863 372.958C215.904 372.827 215.973 372.705 216.065 372.602C216.158 372.503 216.271 372.426 216.397 372.375C216.523 372.325 216.659 372.303 216.794 372.31L230.627 373.348C230.865 373.367 231.087 373.479 231.244 373.659C231.401 373.84 231.48 374.075 231.465 374.314C231.156 378.271 231.156 382.247 231.465 386.205C231.629 386.788 231.811 387.388 231.994 388.026C232.626 389.521 232.907 391.14 232.814 392.761C232.468 394.327 216.721 408.185 213.094 408.349L212.967 408.312ZM217.76 374.204C218.38 378.028 220.093 389.082 219.965 390.903C219.371 392.942 218.5 394.891 217.377 396.694C215.773 399.735 213.186 404.688 213.186 406.455C216.247 405.763 230.098 393.817 230.991 392.196C230.904 390.947 230.628 389.719 230.171 388.554C229.965 387.935 229.782 387.328 229.624 386.733C229.293 382.886 229.293 379.017 229.624 375.169L217.76 374.204Z" fill="#231F20"/>
<path d="M349.673 198.111C349.673 198.111 355.65 192.12 356.106 189.898C356.562 187.676 357.309 179.937 359.15 181.375C360.99 182.814 360.316 188.35 360.316 188.35C360.316 188.35 368.535 179.245 370.741 181.375C372.946 183.506 373.857 185.491 373.857 189.57C373.857 193.649 353.445 210.075 353.445 210.075" fill="white"/>
<path d="M353.445 210.858C353.31 210.86 353.176 210.831 353.053 210.774C352.93 210.718 352.821 210.634 352.734 210.53C352.582 210.341 352.51 210.099 352.534 209.858C352.558 209.616 352.676 209.393 352.862 209.237C362.74 201.316 372.909 191.737 372.909 189.443C372.909 185.801 372.217 183.98 370.085 181.904C370.085 181.904 370.085 181.904 369.811 181.904C367.898 181.904 363.378 186.238 360.954 188.896C360.826 189.043 360.653 189.144 360.462 189.183C360.271 189.223 360.073 189.199 359.897 189.115C359.724 189.033 359.58 188.9 359.485 188.734C359.391 188.568 359.35 188.376 359.368 188.186C359.605 186.201 359.551 183.142 358.694 182.177C357.962 184.169 357.473 186.241 357.236 188.35C357.127 189.042 357.035 189.625 356.963 190.025C356.489 192.393 351.313 197.656 350.274 198.694C350.189 198.779 350.088 198.847 349.977 198.893C349.866 198.939 349.747 198.963 349.627 198.963C349.507 198.963 349.388 198.939 349.277 198.893C349.165 198.847 349.065 198.779 348.98 198.694C348.812 198.52 348.718 198.288 348.718 198.047C348.718 197.806 348.812 197.574 348.98 197.401C351.386 194.997 354.903 191.009 355.176 189.661C355.176 189.279 355.341 188.732 355.432 188.077C356.197 183.251 356.78 180.793 358.129 180.338C358.385 180.232 358.666 180.2 358.94 180.245C359.213 180.29 359.469 180.411 359.678 180.592C360.99 181.63 361.3 183.998 361.318 185.873C363.596 183.597 367.369 180.174 369.738 180.083C370.03 180.059 370.324 180.098 370.6 180.195C370.876 180.292 371.129 180.446 371.342 180.647C372.555 181.763 373.492 183.144 374.08 184.683C374.669 186.222 374.892 187.876 374.732 189.515C374.732 193.831 357.436 207.944 353.974 210.73C353.817 210.832 353.631 210.877 353.445 210.858V210.858Z" fill="#231F20"/>
<path d="M239.375 261.628L297.695 264.669C297.695 264.669 301.34 280.622 291.353 288.543C281.365 296.464 261.245 304.659 260.042 310.395C258.839 316.132 266.074 366.337 265.291 378.21L247.376 382.453C247.376 382.453 231.921 322.523 232.304 312.635C232.686 302.747 237.862 298.067 237.862 298.067C237.862 298.067 223.592 310.286 223.191 313.054C222.79 315.822 233.433 379.412 233.433 379.412C233.433 379.412 214.516 380.159 214.133 378.957C213.75 377.755 196.254 319.009 200.61 306.334C204.966 293.66 239.375 261.628 239.375 261.628Z" fill="#231F20"/>
<path d="M247.303 383.328C247.124 383.329 246.949 383.271 246.807 383.162C246.665 383.053 246.564 382.9 246.519 382.727C245.899 380.287 231.046 322.633 231.429 312.672C231.538 309.259 232.312 305.901 233.707 302.784C228.513 307.5 224.084 312.016 223.92 313.218C223.683 315.367 229.916 353.918 234.163 379.303C234.179 379.419 234.171 379.537 234.139 379.65C234.108 379.763 234.054 379.868 233.98 379.959C233.83 380.126 233.621 380.23 233.397 380.25C213.878 381.015 213.495 379.868 213.35 379.249C213.204 378.629 195.307 319.155 199.827 306.098C204.201 293.351 237.461 262.393 238.883 261.027C238.961 260.955 239.053 260.9 239.153 260.866C239.254 260.831 239.36 260.818 239.466 260.827L297.786 263.868C297.962 263.882 298.129 263.952 298.263 264.066C298.397 264.18 298.492 264.334 298.533 264.505C298.679 265.179 302.087 281.04 291.918 289.18C287.149 292.693 282.136 295.864 276.918 298.668C269.355 303.002 261.536 307.482 260.899 310.614C260.334 313.309 261.81 327.185 263.231 340.588C264.853 356.103 266.548 372.147 266.147 378.338C266.136 378.51 266.07 378.673 265.958 378.805C265.847 378.936 265.696 379.028 265.528 379.066L247.613 383.309L247.303 383.328ZM237.808 297.302C237.921 297.302 238.034 297.327 238.138 297.374C238.241 297.421 238.334 297.49 238.409 297.575C238.554 297.728 238.635 297.93 238.635 298.14C238.635 298.35 238.554 298.552 238.409 298.704C238.409 298.704 233.488 303.33 233.105 312.726C232.759 321.831 246.173 374.641 247.959 381.561L264.507 377.646C264.781 371.145 263.086 355.029 261.573 340.752C260.006 325.983 258.657 313.236 259.258 310.304C260.06 306.444 267.478 302.201 276.08 297.266C281.219 294.501 286.158 291.379 290.86 287.924C299.208 281.241 297.531 268.366 297.021 265.452L239.63 262.448C236.514 265.361 205.312 294.844 201.266 306.626C197.111 318.681 213.422 374.259 214.698 378.502C216.266 378.957 224.576 378.957 232.376 378.684C230.773 368.996 221.897 315.695 222.298 312.981C222.699 310.268 234.8 299.579 237.224 297.503C237.386 297.364 237.595 297.293 237.808 297.302V297.302Z" fill="#231F20"/>
<path d="M300.283 266.126C300.283 266.126 296.82 240.923 293.54 227.885C293.54 227.885 303.235 244.784 314.826 245.731C326.417 246.678 360.553 207.38 360.553 207.38L351.003 193.831C351.003 193.831 327.11 212.679 313.332 218.634C309.687 210.312 288.601 180.392 276.426 174.401C264.252 168.41 248.688 173.126 240.359 179.864C236.331 183.178 225.779 189.242 207.554 205.978C194.426 201.342 182.005 194.907 170.648 186.857L161.263 200.132C161.263 200.132 199.535 235.46 210.051 230.197L234.399 217.978L233.105 265.58L300.283 266.126Z" fill="#4945FF"/>
<path d="M250.784 135.941C250.784 135.941 240.906 164.185 236.495 170.085L262.138 179.682L266.949 134.156L250.784 135.941Z" fill="white"/>
<path d="M262.138 180.592C262.029 180.61 261.919 180.61 261.81 180.592L236.167 170.996C236.037 170.942 235.921 170.861 235.826 170.757C235.732 170.653 235.661 170.529 235.621 170.395C235.575 170.26 235.564 170.115 235.589 169.975C235.615 169.835 235.676 169.704 235.766 169.593C240.031 163.875 249.818 135.977 249.927 135.686C249.982 135.525 250.081 135.383 250.213 135.277C250.346 135.17 250.506 135.104 250.674 135.085L266.858 133.264C266.994 133.246 267.132 133.26 267.262 133.304C267.391 133.349 267.509 133.422 267.605 133.519C267.701 133.616 267.774 133.734 267.818 133.863C267.862 133.992 267.877 134.13 267.861 134.265L263.031 179.791C263.021 179.929 262.977 180.062 262.904 180.18C262.831 180.297 262.731 180.395 262.612 180.465C262.468 180.55 262.305 180.594 262.138 180.592ZM237.899 169.666L261.354 178.444L265.929 135.176L251.458 136.815C250.091 140.639 242.236 162.655 237.899 169.63V169.666Z" fill="#231F20"/>
<path d="M255.777 170.522L252.88 183.142C252.88 183.142 251.349 191.063 259.787 190.335C262.278 190.095 264.684 189.303 266.831 188.018C268.977 186.733 270.811 184.986 272.198 182.905L275.588 159.96C275.734 158.995 277.119 149.508 278.85 141.185C269.155 139.182 260.625 136.724 260.625 136.724C261.409 137.853 257.91 137.343 257.91 137.361C256.357 137.045 254.762 136.983 253.189 137.179C251.567 142.642 248.925 148.506 247.995 154.078C247.388 157.413 247.09 160.796 247.102 164.185C247.212 170.613 255.777 170.522 255.777 170.522Z" fill="white"/>
<path d="M258.73 191.209C257.771 191.275 256.808 191.133 255.909 190.794C255.009 190.454 254.194 189.925 253.517 189.242C252.853 188.36 252.38 187.348 252.129 186.273C251.878 185.197 251.854 184.081 252.059 182.996L254.739 171.323C251.367 171.068 246.355 169.375 246.264 164.185C246.24 160.753 246.539 157.327 247.157 153.951C247.908 150.174 248.988 146.469 250.383 142.879C251.075 140.912 251.786 138.891 252.369 136.942C252.413 136.791 252.501 136.655 252.62 136.551C252.74 136.448 252.887 136.381 253.044 136.36C254.706 136.152 256.392 136.207 258.037 136.524C258.643 136.584 259.254 136.584 259.86 136.524C259.881 136.393 259.931 136.269 260.006 136.159C260.102 136.024 260.237 135.921 260.393 135.862C260.549 135.804 260.718 135.793 260.88 135.832C260.972 135.832 269.501 138.308 279.105 140.275C279.215 140.291 279.32 140.333 279.412 140.396C279.504 140.459 279.579 140.542 279.634 140.639C279.695 140.729 279.738 140.83 279.76 140.936C279.782 141.042 279.782 141.152 279.761 141.258C278.249 148.542 277.01 156.664 276.536 159.851C276.536 159.851 276.536 159.851 273.109 182.942C273.101 183.047 273.063 183.148 273 183.233C271.557 185.437 269.633 187.286 267.373 188.642C265.114 189.998 262.576 190.826 259.951 191.063L258.73 191.209ZM253.682 183.342C253.538 184.173 253.56 185.024 253.748 185.846C253.936 186.668 254.285 187.445 254.775 188.132C255.432 188.732 256.222 189.169 257.081 189.406C257.939 189.643 258.841 189.675 259.714 189.497C262.045 189.267 264.298 188.532 266.315 187.344C268.333 186.155 270.067 184.541 271.396 182.614C271.724 180.501 274.731 160.069 274.768 159.851C275.242 156.61 276.426 148.925 277.866 141.823C270.357 140.257 263.614 138.436 261.263 137.78C260.971 138.09 260.243 138.508 257.782 138.181C256.475 137.916 255.138 137.837 253.809 137.944C253.244 139.765 252.588 141.586 251.987 143.407C250.602 146.915 249.517 150.533 248.743 154.224C248.14 157.504 247.847 160.832 247.868 164.167C247.977 169.63 255.395 169.63 255.723 169.63C255.849 169.625 255.975 169.65 256.089 169.704C256.203 169.758 256.303 169.839 256.379 169.939C256.456 170.039 256.509 170.154 256.535 170.278C256.56 170.401 256.556 170.528 256.525 170.65L253.627 183.269L253.682 183.342Z" fill="#231F20"/>
<path d="M260.552 150.946C260.552 150.946 255.085 156.409 255.923 157.757C256.761 159.104 259.678 158.849 259.678 158.849" fill="white"/>
<path d="M259.185 159.869C258.11 159.869 255.996 159.687 255.158 158.321C254.319 156.956 255.978 154.406 259.896 150.4C259.98 150.314 260.08 150.245 260.19 150.197C260.301 150.15 260.419 150.125 260.539 150.123C260.66 150.121 260.779 150.143 260.891 150.188C261.002 150.232 261.104 150.298 261.19 150.382C261.276 150.465 261.345 150.565 261.393 150.675C261.44 150.786 261.466 150.904 261.467 151.024C261.469 151.144 261.447 151.264 261.403 151.375C261.358 151.487 261.292 151.588 261.208 151.674C259.371 153.326 257.863 155.309 256.762 157.52C257.035 157.902 258.584 158.085 259.623 158.03C259.861 158.019 260.093 158.101 260.273 158.256C260.453 158.412 260.566 158.631 260.589 158.868C260.599 158.989 260.584 159.111 260.546 159.226C260.508 159.341 260.448 159.448 260.368 159.54C260.288 159.631 260.191 159.706 260.082 159.76C259.972 159.813 259.854 159.844 259.732 159.851L259.185 159.869Z" fill="#231F20"/>
<path d="M256.519 148.737C256.69 147.992 256.503 147.314 256.101 147.221C255.699 147.129 255.234 147.658 255.062 148.403C254.891 149.148 255.078 149.827 255.48 149.919C255.883 150.011 256.348 149.482 256.519 148.737Z" fill="#231F20"/>
<path d="M266.847 151.655C267.018 150.91 266.831 150.231 266.429 150.139C266.026 150.046 265.561 150.575 265.39 151.32C265.219 152.065 265.406 152.744 265.808 152.836C266.21 152.929 266.675 152.4 266.847 151.655Z" fill="#231F20"/>
<path d="M258.147 145.301L259.513 142.679L260.479 145.774L268.626 148.196L270.886 144.827L270.649 149.38L274.932 149.817C274.932 149.817 266.858 169.848 267.168 182.414C267.168 182.414 291.371 189.097 297.64 184.781C297.64 184.781 290.769 160.033 291.079 150.181C291.389 140.33 290.806 131.862 279.032 127.309C267.259 122.757 258.766 124.195 252.588 129.567C250.754 131.239 249.28 133.267 248.259 135.528C247.237 137.789 246.688 140.235 246.647 142.715C246.647 142.715 255.686 145.137 258.147 145.301Z" fill="white"/>
<path d="M290.387 187.185C280.928 187.185 267.66 183.542 266.931 183.36C266.737 183.318 266.563 183.21 266.44 183.053C266.317 182.897 266.252 182.703 266.257 182.504C265.983 171.578 271.943 155.189 273.547 150.673L270.448 150.363C270.218 150.34 270.006 150.229 269.856 150.052C269.706 149.875 269.631 149.647 269.647 149.416V148.142L269.227 148.779C269.122 148.939 268.967 149.061 268.787 149.127C268.606 149.193 268.409 149.198 268.225 149.143L260.078 146.721C259.934 146.679 259.802 146.602 259.695 146.497C259.587 146.392 259.506 146.263 259.459 146.12L259.149 145.137L258.803 145.793C258.722 145.956 258.593 146.09 258.433 146.178C258.274 146.266 258.091 146.303 257.91 146.284C255.413 146.047 246.628 143.717 246.264 143.607C246.073 143.559 245.903 143.449 245.781 143.294C245.659 143.139 245.592 142.948 245.59 142.751C245.618 140.134 246.19 137.551 247.269 135.165C248.349 132.78 249.911 130.644 251.859 128.893C258.712 122.92 267.915 122.101 279.196 126.471C291.425 131.206 292.154 140.038 291.826 150.145C291.517 159.814 298.296 184.289 298.369 184.526C298.414 184.71 298.403 184.903 298.338 185.081C298.273 185.26 298.157 185.415 298.005 185.527C295.663 186.761 293.029 187.333 290.387 187.185V187.185ZM268.061 181.721C274.914 183.542 291.225 187.002 296.583 184.344C295.453 180.228 289.876 159.232 290.168 150.09C290.478 140.275 289.822 132.408 278.704 128.11C267.933 123.94 259.586 124.614 253.189 130.205C249.86 133.248 247.847 137.467 247.576 141.968C249.544 142.478 255.176 143.935 257.636 144.317L258.712 142.26C258.791 142.1 258.917 141.967 259.073 141.879C259.229 141.792 259.408 141.753 259.586 141.768C259.768 141.784 259.941 141.853 260.083 141.966C260.226 142.08 260.332 142.232 260.388 142.405L261.208 145.046L268.243 147.122L270.066 144.317C270.175 144.152 270.336 144.027 270.524 143.961C270.711 143.895 270.915 143.892 271.105 143.953C271.297 144.013 271.463 144.135 271.579 144.3C271.694 144.465 271.752 144.663 271.742 144.864L271.542 148.506L274.968 148.852C275.106 148.871 275.238 148.92 275.354 148.995C275.471 149.071 275.569 149.171 275.643 149.289C275.71 149.415 275.745 149.556 275.745 149.699C275.745 149.841 275.71 149.982 275.643 150.108C275.697 150.418 268.061 169.593 268.061 181.721Z" fill="#231F20"/>
<path d="M251.476 160.142C251.476 160.142 257.655 167.554 263.76 159.796Z" fill="white"/>
<path d="M257.691 164.258C256.362 164.157 255.067 163.793 253.881 163.186C252.695 162.58 251.642 161.743 250.784 160.725C250.69 160.637 250.617 160.53 250.568 160.411C250.519 160.293 250.495 160.165 250.499 160.037C250.503 159.909 250.533 159.783 250.589 159.667C250.645 159.552 250.725 159.45 250.823 159.367C250.921 159.284 251.036 159.223 251.159 159.188C251.282 159.153 251.412 159.144 251.539 159.162C251.666 159.18 251.788 159.225 251.896 159.294C252.005 159.362 252.098 159.453 252.169 159.559C253.562 161.175 255.515 162.203 257.636 162.437H257.855C258.915 162.333 259.938 161.991 260.848 161.436C261.757 160.881 262.528 160.127 263.104 159.232C263.254 159.041 263.473 158.917 263.714 158.888C263.955 158.859 264.198 158.927 264.389 159.077C264.58 159.227 264.703 159.446 264.732 159.687C264.761 159.928 264.693 160.17 264.544 160.361C263.802 161.474 262.815 162.404 261.659 163.08C260.503 163.755 259.208 164.158 257.873 164.258H257.691Z" fill="#231F20"/>
<path d="M255.777 170.522C255.777 170.522 262.539 170.358 265.418 168.592C265.418 168.592 261.263 177.424 253.554 180.192L255.777 170.522Z" fill="#231F20"/>
<path d="M253.554 181.102C253.334 181.105 253.12 181.027 252.952 180.884C252.827 180.776 252.734 180.635 252.683 180.478C252.631 180.321 252.624 180.153 252.661 179.991L254.884 170.322C254.93 170.124 255.041 169.948 255.2 169.823C255.359 169.697 255.556 169.629 255.759 169.63C255.759 169.63 262.302 169.43 264.872 167.809C265.039 167.709 265.234 167.665 265.428 167.684C265.622 167.703 265.805 167.783 265.949 167.914C266.094 168.044 266.193 168.218 266.232 168.409C266.271 168.599 266.248 168.798 266.166 168.974C266.002 169.338 261.773 178.079 253.791 181.029C253.715 181.064 253.636 181.089 253.554 181.102ZM256.506 171.414L254.83 178.699C258.34 176.734 261.279 173.891 263.359 170.449C261.112 170.994 258.817 171.317 256.506 171.414Z" fill="#231F20"/>
<path d="M360.553 197.109C360.421 197.143 360.283 197.143 360.152 197.109C360.044 197.057 359.948 196.983 359.868 196.894C359.789 196.804 359.728 196.699 359.689 196.586C359.65 196.473 359.634 196.353 359.641 196.233C359.649 196.114 359.68 195.997 359.733 195.889C360.289 194.794 360.563 193.579 360.531 192.351C360.5 191.124 360.162 189.924 359.55 188.86C359.42 188.657 359.376 188.411 359.427 188.175C359.478 187.94 359.621 187.734 359.824 187.603C359.924 187.537 360.036 187.491 360.154 187.468C360.272 187.446 360.393 187.447 360.511 187.473C360.628 187.498 360.739 187.547 360.837 187.616C360.935 187.686 361.018 187.774 361.081 187.877C361.873 189.201 362.315 190.704 362.366 192.246C362.417 193.787 362.076 195.317 361.373 196.69C361.287 196.828 361.166 196.94 361.021 197.014C360.877 197.087 360.715 197.12 360.553 197.109V197.109Z" fill="#231F20"/>
<path d="M297.093 232.583C297.093 232.583 286.158 218.652 279.196 210.002Z" fill="white"/>
<path d="M297.093 233.493C296.954 233.495 296.815 233.465 296.689 233.405C296.562 233.345 296.451 233.257 296.364 233.147C296.255 233.02 285.429 219.125 278.486 210.585C278.333 210.396 278.262 210.155 278.288 209.915C278.314 209.674 278.434 209.453 278.622 209.301C278.811 209.149 279.052 209.078 279.293 209.103C279.534 209.129 279.755 209.249 279.907 209.438C286.815 217.996 297.695 231.891 297.804 232.037C297.951 232.227 298.016 232.469 297.986 232.708C297.955 232.947 297.831 233.164 297.64 233.311C297.483 233.431 297.291 233.495 297.093 233.493V233.493Z" fill="#231F20"/>
<path d="M233.288 260.608C233.168 260.604 233.05 260.576 232.942 260.525C232.833 260.475 232.735 260.404 232.654 260.316C232.573 260.228 232.509 260.125 232.468 260.013C232.427 259.901 232.408 259.781 232.413 259.662L233.871 201.662C233.871 201.42 233.967 201.189 234.138 201.018C234.309 200.847 234.54 200.751 234.782 200.751C235.024 200.751 235.256 200.847 235.427 201.018C235.597 201.189 235.693 201.42 235.693 201.662L234.235 259.662C234.238 259.787 234.215 259.911 234.168 260.027C234.122 260.143 234.052 260.248 233.963 260.337C233.875 260.425 233.769 260.495 233.653 260.541C233.537 260.588 233.413 260.611 233.288 260.608V260.608Z" fill="#231F20"/>
<path d="M343.057 128.42C378.276 128.42 406.826 99.8924 406.826 64.7021C406.826 29.5117 378.276 0.984253 343.057 0.984253C307.838 0.984253 279.288 29.5117 279.288 64.7021C279.288 99.8924 307.838 128.42 343.057 128.42Z" fill="#4945FF"/>
<path d="M364.927 45.6723L372.563 36.4579C369.725 33.3168 366.236 30.8311 362.339 29.1738C358.1 27.3427 353.5 26.4993 348.887 26.7075C344.274 26.9157 339.768 28.1701 335.712 30.3757C327.037 34.6733 322.007 42.0667 319.164 51.099C318.234 54.0309 318.253 54.0309 315.118 54.0491H306.461V62.6261H317.196V66.9966H306.479V75.6101H318.162C321.807 89.9598 329.662 99.9026 344.825 102.361C350.194 103.424 355.752 102.995 360.894 101.12C366.035 99.2445 370.564 95.9953 373.985 91.7262L366.385 82.7667C362.94 86.2995 359.295 89.3042 354.375 90.0508C352.02 90.5447 349.59 90.5556 347.231 90.0829C344.872 89.6102 342.633 88.6638 340.651 87.3011C336.775 84.3746 334.042 80.1884 332.924 75.4644H360.444V66.8691H331.757V62.4804H360.444V53.9216H333.106C335.147 47.4205 338.701 42.3581 345.171 40.1182C352.826 37.4413 359.332 39.7904 364.927 45.6723Z" fill="white"/>
<path d="M343.057 119.515C332.207 119.515 321.601 116.3 312.58 110.277C303.559 104.255 296.527 95.694 292.375 85.6782C288.223 75.6624 287.137 64.6414 289.254 54.0087C291.37 43.376 296.595 33.6093 304.267 25.9435C311.939 18.2778 321.714 13.0574 332.355 10.9424C342.996 8.82743 354.026 9.91291 364.05 14.0616C374.074 18.2102 382.641 25.2358 388.669 34.2497C394.697 43.2637 397.914 53.8612 397.914 64.7022C397.89 79.2321 392.103 93.16 381.82 103.434C371.538 113.708 357.599 119.491 343.057 119.515V119.515ZM343.057 11.7102C332.568 11.7102 322.314 14.8181 313.592 20.641C304.871 26.4638 298.073 34.74 294.059 44.423C290.045 54.106 288.995 64.761 291.041 75.0404C293.088 85.3198 298.139 94.7621 305.556 102.173C312.973 109.584 322.423 114.631 332.71 116.676C342.998 118.721 353.662 117.671 363.352 113.66C373.043 109.65 381.326 102.857 387.154 94.1429C392.981 85.4284 396.092 75.183 396.092 64.7022C396.072 50.6537 390.479 37.1862 380.537 27.2525C370.595 17.3187 357.117 11.7295 343.057 11.7102V11.7102Z" fill="white"/>
<path d="M179.943 128.42C215.162 128.42 243.712 99.8924 243.712 64.7021C243.712 29.5117 215.162 0.984253 179.943 0.984253C144.724 0.984253 116.174 29.5117 116.174 64.7021C116.174 99.8924 144.724 128.42 179.943 128.42Z" fill="#4945FF"/>
<path d="M173.674 85.0248C174.943 82.6195 175.713 79.9831 175.938 77.2734C176.164 74.5636 175.84 71.8363 174.986 69.2547H185.119V60.8415C181.128 60.8415 177.246 60.6958 173.382 60.8415C172.604 60.9648 171.808 60.8046 171.139 60.39C170.47 59.9755 169.972 59.3342 169.737 58.5834C166.566 51.9731 167.404 45.3081 172.343 40.3731C177.282 35.4381 185.101 34.4366 190.295 40.8466C192.018 43.1783 193.6 45.6106 195.033 48.1307C195.507 48.8955 195.854 49.715 196.291 50.5527L207.226 45.7816C205.804 43.2321 204.529 40.7373 203.089 38.37C200.535 33.8171 196.744 30.0795 192.154 27.5895C183.169 23.0916 174.494 24.1842 166.639 30.0661C162.784 32.7538 159.77 36.477 157.944 40.8049C156.119 45.1329 155.557 49.8888 156.324 54.5225C156.579 56.5621 157.18 58.5652 157.672 60.7504H149.817V69.1818C153.626 69.1818 157.326 69.1818 161.026 69.1818C161.445 69.1818 162.119 69.2911 162.247 69.5642C163.377 71.8587 164.634 74.2079 163.96 76.8484C163.248 79.9308 161.803 82.7964 159.747 85.2024C157.691 87.6084 155.085 89.4838 152.15 90.67L151.385 91.0706L155.266 101.596C155.904 101.359 156.415 101.214 156.87 101.013C158.93 100.066 160.934 98.9921 163.03 98.1544C168.115 96.1331 173.291 95.4229 178.503 97.7538C179.816 98.3365 181.146 98.8646 182.476 99.4291C190.386 102.798 197.403 100.376 204.346 96.2059C202.542 92.491 200.902 88.8489 199.243 85.2069C198.332 85.7532 197.603 86.2449 196.838 86.6455C193.466 88.4665 189.912 89.7959 186.103 88.4665C182.294 87.1372 178.212 85.2069 173.674 85.0248Z" fill="white"/>
<path d="M179.943 119.515C169.094 119.512 158.49 116.294 149.471 110.269C140.452 104.244 133.424 95.6817 129.275 85.6656C125.125 75.6495 124.042 64.629 126.16 53.9975C128.279 43.3661 133.505 33.601 141.178 25.9371C148.85 18.2732 158.625 13.0546 169.266 10.9411C179.907 8.82757 190.936 9.91412 200.959 14.0633C210.981 18.2125 219.548 25.238 225.575 34.2516C231.602 43.2652 234.819 53.862 234.819 64.7022C234.799 79.2367 229.011 93.1702 218.724 103.446C208.436 113.722 194.489 119.501 179.943 119.515ZM179.943 11.7102C169.455 11.7138 159.203 14.8248 150.484 20.6498C141.764 26.4748 134.97 34.7523 130.958 44.4356C126.947 54.119 125.899 64.7733 127.948 75.0515C129.996 85.3298 135.049 94.7703 142.467 102.18C149.884 109.589 159.334 114.634 169.621 116.677C179.909 118.72 190.571 117.67 200.261 113.659C209.951 109.647 218.233 102.855 224.059 94.141C229.886 85.4269 232.996 75.1822 232.996 64.7022C232.982 50.6491 227.387 37.1761 217.44 27.2407C207.493 17.3054 194.008 11.7199 179.943 11.7102V11.7102Z" fill="white"/>
<path d="M63.7952 230.197C99.014 230.197 127.564 201.67 127.564 166.479C127.564 131.289 99.014 102.762 63.7952 102.762C28.5764 102.762 0.0259247 131.289 0.0259247 166.479C0.0259247 201.67 28.5764 230.197 63.7952 230.197Z" fill="#4945FF"/>
<path d="M79.6874 165.933C76.79 164.37 73.8155 162.954 70.7754 161.69C70.4742 161.603 70.213 161.413 70.0367 161.154C69.8604 160.894 69.78 160.582 69.8095 160.27C69.8095 155.043 69.8095 149.817 69.8095 144.591C69.8338 144.364 69.8703 144.139 69.9188 143.917C73.7274 145.123 77.1482 147.316 79.8332 150.272C82.4029 147.304 84.8086 144.481 87.269 141.622C82.9587 136.791 77.2085 133.471 70.8665 132.153C69.9553 131.953 69.6637 131.625 69.7001 130.696C69.7001 128.875 69.7001 127.054 69.7001 124.996H60.2231V131.461C57.7467 132.172 55.3128 133.023 52.9331 134.01C46.2263 137.325 41.9981 142.515 41.6518 150.272C41.3055 158.03 44.987 163.256 51.3657 166.935C53.9646 168.336 56.6352 169.6 59.3665 170.722C59.6716 170.803 59.9372 170.992 60.1146 171.253C60.292 171.513 60.3694 171.83 60.3325 172.143C60.3325 176.477 60.3325 180.774 60.3325 185.09V190.644C55.3126 189.661 50.707 187.186 47.1193 183.542L38.9545 192.465C44.6707 198.173 52.1969 201.714 60.2413 202.481V207.944H69.8095V202.135L71.1763 201.789C74.0593 201.114 76.8157 199.983 79.3411 198.438C91.3514 191.081 92.0075 173.272 79.6874 165.933ZM60.1684 156.828C58.6081 156.459 57.21 155.594 56.1844 154.362C55.1589 153.13 54.5616 151.599 54.4822 149.999C54.5244 148.454 55.1225 146.976 56.1668 145.835C57.2111 144.695 58.6318 143.968 60.1684 143.789V156.828ZM69.9006 189.825C69.9006 189.57 69.8095 189.315 69.8095 189.06V175.457C71.4525 175.835 72.9164 176.765 73.9576 178.09C74.9987 179.415 75.5544 181.057 75.5321 182.741C75.5424 184.393 74.9907 185.999 73.9674 187.296C72.9442 188.593 71.5102 189.504 69.9006 189.88V189.825Z" fill="white"/>
<path d="M63.7952 221.292C52.9455 221.292 42.3394 218.078 33.3181 212.055C24.2969 206.032 17.2657 197.471 13.1137 187.456C8.9617 177.44 7.87534 166.419 9.99202 155.786C12.1087 145.153 17.3333 135.387 25.0053 127.721C32.6772 120.055 42.4518 114.835 53.0931 112.72C63.7343 110.605 74.7643 111.69 84.7882 115.839C94.812 119.988 103.38 127.013 109.407 136.027C115.435 145.041 118.652 155.639 118.652 166.48C118.633 181.011 112.847 194.942 102.564 205.217C92.2803 215.492 78.3383 221.273 63.7952 221.292ZM63.7952 113.488C53.3059 113.488 43.0522 116.595 34.3307 122.418C25.6091 128.241 18.8116 136.517 14.7975 146.2C10.7834 155.883 9.73314 166.538 11.7795 176.818C13.8259 187.097 18.8769 196.539 26.294 203.95C33.711 211.362 43.1609 216.409 53.4486 218.453C63.7364 220.498 74.3999 219.449 84.0907 215.438C93.7816 211.427 102.064 204.635 107.892 195.92C113.72 187.206 116.83 176.96 116.83 166.48C116.815 152.43 111.223 138.959 101.28 129.025C91.3376 119.09 77.8564 113.502 63.7952 113.488V113.488Z" fill="white"/>
<path d="M459.205 230.197C494.424 230.197 522.974 201.67 522.974 166.479C522.974 131.289 494.424 102.762 459.205 102.762C423.986 102.762 395.436 131.289 395.436 166.479C395.436 201.67 423.986 230.197 459.205 230.197Z" fill="#4945FF"/>
<path d="M488.091 133.628L469.502 168.118H484.811V176.258H467.169V180.338H484.793V188.478H467.133V207.762H451.386V188.623H433.672V180.465H451.295V176.258H433.69V168.155H448.981C442.711 156.555 436.569 145.155 430.336 133.555H437.845C440.633 133.555 443.422 133.555 446.21 133.555C446.523 133.509 446.841 133.581 447.103 133.756C447.366 133.931 447.554 134.197 447.632 134.502C451.277 143 454.952 151.45 458.658 159.851C458.804 160.197 458.986 160.506 459.278 161.089C459.606 160.415 459.824 160.015 460.007 159.596C463.725 151.256 467.449 142.921 471.179 134.593C471.379 134.174 471.908 133.61 472.29 133.592C477.484 133.61 482.66 133.628 488.091 133.628Z" fill="white"/>
<path d="M459.205 221.292C448.355 221.292 437.749 218.078 428.728 212.055C419.706 206.032 412.675 197.471 408.523 187.456C404.371 177.44 403.285 166.419 405.402 155.786C407.518 145.153 412.743 135.387 420.415 127.721C428.087 120.055 437.861 114.835 448.503 112.72C459.144 110.605 470.174 111.69 480.198 115.839C490.222 119.988 498.789 127.013 504.817 136.027C510.845 145.041 514.062 155.639 514.062 166.48C514.043 181.011 508.257 194.942 497.973 205.217C487.69 215.492 473.748 221.273 459.205 221.292ZM459.205 113.488C448.716 113.488 438.462 116.595 429.74 122.418C421.019 128.241 414.221 136.517 410.207 146.2C406.193 155.883 405.143 166.538 407.189 176.818C409.235 187.097 414.287 196.539 421.704 203.95C429.121 211.362 438.57 216.409 448.858 218.453C459.146 220.498 469.809 219.449 479.5 215.438C489.191 211.427 497.474 204.635 503.302 195.92C509.129 187.206 512.24 176.96 512.24 166.48C512.225 152.43 506.633 138.959 496.69 129.025C486.747 119.09 473.266 113.502 459.205 113.488V113.488Z" fill="white"/>
</svg>
