<svg width="542" height="282" viewBox="0 0 542 282" fill="none" xmlns="http://www.w3.org/2000/svg">
<path d="M376.407 -2.59526e-05L0 223.044L11.3202 242.148L387.728 19.1038L376.407 -2.59526e-05Z" fill="#F2F2F2"/>
<path d="M458.219 18.6996L81.8113 241.744L93.1315 260.848L469.539 37.8034L458.219 18.6996Z" fill="#F2F2F2"/>
<path d="M530.68 39.1525L154.272 262.197L165.593 281.301L542 58.2563L530.68 39.1525Z" fill="#F2F2F2"/>
<path d="M245.174 261.462C310.26 261.462 363.023 208.699 363.023 143.613C363.023 78.527 310.26 25.7643 245.174 25.7643C180.088 25.7643 127.325 78.527 127.325 143.613C127.325 208.699 180.088 261.462 245.174 261.462Z" fill="white"/>
<path d="M126.449 143.613C126.449 78.1477 179.709 24.8878 245.174 24.8878C310.639 24.8878 363.899 78.1477 363.899 143.613C363.899 209.078 310.639 262.338 245.174 262.338C179.709 262.338 126.449 209.078 126.449 143.613ZM128.202 143.613C128.202 208.112 180.675 260.585 245.174 260.585C309.673 260.585 362.146 208.112 362.146 143.613C362.146 79.1145 309.673 26.6409 245.174 26.6409C180.675 26.6409 128.202 79.1145 128.202 143.613H128.202Z" fill="#3F3D56"/>
<path d="M224.166 144.125C224.166 139.97 225.398 135.909 227.707 132.454C230.015 128.999 233.296 126.307 237.135 124.717C240.973 123.127 245.197 122.711 249.273 123.521C253.348 124.332 257.091 126.333 260.029 129.271C262.967 132.209 264.968 135.952 265.778 140.027C266.589 144.102 266.173 148.326 264.583 152.165C262.993 156.003 260.3 159.284 256.845 161.593C253.391 163.901 249.329 165.133 245.174 165.133C239.603 165.133 234.259 162.92 230.319 158.98C226.38 155.04 224.166 149.697 224.166 144.125V144.125ZM245.174 124.142C239.876 124.148 234.797 126.256 231.05 130.002C227.304 133.748 225.197 138.827 225.191 144.125C225.191 148.078 226.363 151.941 228.559 155.227C230.755 158.514 233.875 161.075 237.527 162.587C241.178 164.1 245.196 164.496 249.073 163.725C252.949 162.953 256.51 161.05 259.304 158.256C262.099 155.461 264.002 151.9 264.773 148.024C265.544 144.148 265.149 140.13 263.636 136.478C262.124 132.827 259.562 129.706 256.276 127.51C252.99 125.314 249.126 124.142 245.174 124.142Z" fill="#3F3D56"/>
<path d="M205.208 144.125C205.208 136.221 207.552 128.494 211.943 121.921C216.335 115.349 222.577 110.226 229.88 107.202C237.182 104.177 245.218 103.385 252.971 104.927C260.724 106.469 267.845 110.276 273.434 115.865C279.024 121.454 282.83 128.576 284.372 136.328C285.914 144.081 285.123 152.117 282.098 159.42C279.073 166.723 273.95 172.964 267.378 177.356C260.805 181.748 253.078 184.092 245.174 184.092C239.925 184.092 234.728 183.058 229.879 181.049C225.031 179.041 220.625 176.097 216.914 172.386C213.202 168.674 210.258 164.269 208.25 159.42C206.241 154.571 205.208 149.374 205.208 144.125V144.125ZM245.174 105.184C237.472 105.184 229.943 107.468 223.539 111.747C217.135 116.026 212.144 122.108 209.197 129.223C206.249 136.339 205.478 144.169 206.981 151.722C208.483 159.276 212.192 166.215 217.638 171.661C223.084 177.107 230.023 180.816 237.577 182.318C245.131 183.821 252.96 183.05 260.076 180.102C267.192 177.155 273.273 172.164 277.552 165.76C281.831 159.356 284.115 151.827 284.115 144.125C284.104 133.801 279.997 123.903 272.697 116.603C265.396 109.302 255.498 105.196 245.174 105.184Z" fill="#CCCCCC"/>
<path d="M167.291 144.125C167.291 128.722 171.859 113.664 180.417 100.856C188.975 88.0483 201.139 78.0659 215.37 72.1712C229.601 66.2764 245.26 64.7341 260.368 67.7392C275.476 70.7443 289.353 78.1619 300.245 89.054C311.138 99.9461 318.555 113.823 321.56 128.931C324.565 144.039 323.023 159.699 317.128 173.93C311.234 188.161 301.251 200.325 288.443 208.882C275.636 217.44 260.578 222.008 245.174 222.008C224.525 221.985 204.729 213.772 190.128 199.171C175.528 184.57 167.315 164.774 167.291 144.125ZM245.174 67.2675C229.973 67.2675 215.113 71.7752 202.474 80.2204C189.835 88.6657 179.984 100.669 174.167 114.713C168.349 128.757 166.827 144.211 169.793 159.12C172.759 174.029 180.079 187.723 190.827 198.472C201.576 209.221 215.271 216.541 230.18 219.506C245.089 222.472 260.542 220.95 274.586 215.133C288.63 209.316 300.634 199.465 309.079 186.825C317.524 174.186 322.032 159.326 322.032 144.125C322.009 123.749 313.904 104.213 299.495 89.8041C285.087 75.3955 265.551 67.2906 245.174 67.2675Z" fill="#CCCCCC"/>
<path d="M245.174 153.348C250.551 153.348 254.909 148.99 254.909 143.613C254.909 138.236 250.551 133.878 245.174 133.878C239.797 133.878 235.439 138.236 235.439 143.613C235.439 148.99 239.797 153.348 245.174 153.348Z" fill="#00BFA6"/>
<path d="M220.067 181.53C225.444 181.53 229.802 177.171 229.802 171.794C229.802 166.418 225.444 162.059 220.067 162.059C214.69 162.059 210.332 166.418 210.332 171.794C210.332 177.171 214.69 181.53 220.067 181.53Z" fill="#00BFA6"/>
<path d="M318.017 177.431C323.394 177.431 327.753 173.072 327.753 167.695C327.753 162.319 323.394 157.96 318.017 157.96C312.641 157.96 308.282 162.319 308.282 167.695C308.282 173.072 312.641 177.431 318.017 177.431Z" fill="#00BFA6"/>
<path d="M245.174 148.224C247.721 148.224 249.785 146.16 249.785 143.613C249.785 141.066 247.721 139.002 245.174 139.002C242.627 139.002 240.562 141.066 240.562 143.613C240.562 146.16 242.627 148.224 245.174 148.224Z" fill="#2F2E41"/>
<path d="M318.017 172.307C320.564 172.307 322.629 170.242 322.629 167.695C322.629 165.148 320.564 163.084 318.017 163.084C315.47 163.084 313.406 165.148 313.406 167.695C313.406 170.242 315.47 172.307 318.017 172.307Z" fill="#2F2E41"/>
<path d="M220.067 176.918C222.614 176.918 224.679 174.853 224.679 172.307C224.679 169.76 222.614 167.695 220.067 167.695C217.52 167.695 215.456 169.76 215.456 172.307C215.456 174.853 217.52 176.918 220.067 176.918Z" fill="#2F2E41"/>
<path d="M29.972 96.4735C32.5188 96.4735 34.5834 94.4089 34.5834 91.862C34.5834 89.3152 32.5188 87.2506 29.972 87.2506C27.4251 87.2506 25.3605 89.3152 25.3605 91.862C25.3605 94.4089 27.4251 96.4735 29.972 96.4735Z" fill="#00BFA6"/>
<path d="M244.918 92.1186H42.525V91.0938H245.943V143.869H244.918V92.1186Z" fill="#2F2E41"/>
<path d="M16.6498 91.862C16.6498 89.2271 17.4311 86.6515 18.895 84.4607C20.3588 82.2699 22.4394 80.5624 24.8737 79.554C27.308 78.5457 29.9866 78.2819 32.5708 78.7959C35.1551 79.31 37.5288 80.5788 39.392 82.4419C41.2551 84.305 42.5239 86.6788 43.0379 89.263C43.5519 91.8472 43.2881 94.5258 42.2798 96.9601C41.2715 99.3944 39.564 101.475 37.3732 102.939C35.1824 104.403 32.6067 105.184 29.9719 105.184C28.2224 105.184 26.49 104.839 24.8737 104.17C23.2574 103.5 21.7888 102.519 20.5517 101.282C19.3147 100.045 18.3334 98.5764 17.6639 96.9601C16.9944 95.3438 16.6498 93.6115 16.6498 91.862ZM29.9719 79.5647C27.5397 79.5647 25.1621 80.286 23.1399 81.6372C21.1176 82.9884 19.5414 84.909 18.6107 87.156C17.6799 89.4031 17.4364 91.8756 17.9109 94.2611C18.3854 96.6465 19.5566 98.8377 21.2764 100.557C22.9962 102.277 25.1873 103.448 27.5728 103.923C29.9582 104.397 32.4308 104.154 34.6778 103.223C36.9248 102.292 38.8454 100.716 40.1966 98.694C41.5479 96.6717 42.2691 94.2942 42.2691 91.862C42.2654 88.6017 40.9686 85.476 38.6632 83.1707C36.3578 80.8653 33.2322 79.5685 29.9719 79.5647Z" fill="#2F2E41"/>
<path d="M60.7151 229.181C63.2619 229.181 65.3265 227.117 65.3265 224.57C65.3265 222.023 63.2619 219.958 60.7151 219.958C58.1682 219.958 56.1036 222.023 56.1036 224.57C56.1036 227.117 58.1682 229.181 60.7151 229.181Z" fill="#00BFA6"/>
<path d="M47.3929 224.57C47.3929 221.935 48.1742 219.359 49.6381 217.169C51.1019 214.978 53.1825 213.27 55.6168 212.262C58.0511 211.254 60.7297 210.99 63.3139 211.504C65.8981 212.018 68.2719 213.287 70.135 215.15C71.9981 217.013 73.2669 219.387 73.781 221.971C74.295 224.555 74.0312 227.234 73.0229 229.668C72.0146 232.102 70.3071 234.183 68.1163 235.647C65.9255 237.111 63.3498 237.892 60.7149 237.892C57.1817 237.892 53.7932 236.488 51.2948 233.99C48.7965 231.492 47.3929 228.103 47.3929 224.57ZM60.7149 212.273C58.2827 212.273 55.9052 212.994 53.8829 214.345C51.8607 215.696 50.2845 217.617 49.3537 219.864C48.423 222.111 48.1794 224.584 48.6539 226.969C49.1284 229.354 50.2996 231.546 52.0194 233.265C53.7392 234.985 55.9304 236.156 58.3158 236.631C60.7013 237.105 63.1738 236.862 65.4209 235.931C67.6679 235 69.5885 233.424 70.9397 231.402C72.2909 229.38 73.0122 227.002 73.0122 224.57C73.0084 221.31 71.7116 218.184 69.4063 215.879C67.1009 213.573 63.9752 212.276 60.7149 212.273Z" fill="#2F2E41"/>
<path d="M460.973 117.994C463.52 117.994 465.584 115.929 465.584 113.382C465.584 110.835 463.52 108.771 460.973 108.771C458.426 108.771 456.361 110.835 456.361 113.382C456.361 115.929 458.426 117.994 460.973 117.994Z" fill="#00BFA6"/>
<path d="M447.651 113.382C447.651 110.747 448.432 108.172 449.896 105.981C451.36 103.79 453.44 102.083 455.875 101.074C458.309 100.066 460.988 99.8022 463.572 100.316C466.156 100.83 468.53 102.099 470.393 103.962C472.256 105.825 473.525 108.199 474.039 110.783C474.553 113.367 474.289 116.046 473.281 118.48C472.272 120.915 470.565 122.995 468.374 124.459C466.183 125.923 463.608 126.704 460.973 126.704C459.223 126.704 457.491 126.36 455.875 125.69C454.258 125.021 452.79 124.039 451.553 122.802C450.316 121.565 449.334 120.097 448.665 118.48C447.995 116.864 447.651 115.132 447.651 113.382ZM460.973 101.085C457.713 101.089 454.587 102.386 452.281 104.691C449.976 106.996 448.679 110.122 448.676 113.382C448.676 115.814 449.397 118.192 450.748 120.214C452.099 122.237 454.02 123.813 456.267 124.743C458.514 125.674 460.987 125.918 463.372 125.443C465.757 124.969 467.949 123.798 469.668 122.078C471.388 120.358 472.559 118.167 473.034 115.781C473.508 113.396 473.265 110.923 472.334 108.676C471.403 106.429 469.827 104.509 467.805 103.157C465.783 101.806 463.405 101.085 460.973 101.085V101.085Z" fill="#2F2E41"/>
<path d="M317.504 114.927L448.155 112.87L448.171 113.894L318.529 115.936V167.695H317.504V114.927Z" fill="#2F2E41"/>
<path d="M73.525 224.058H219.554V172.307H220.579V225.082H73.525V224.058Z" fill="#2F2E41"/>
<path d="M58.1532 115.944H1.79069V119.531H58.1532V115.944Z" fill="#CCCCCC"/>
<path d="M58.1532 126.192H1.79069V129.779H58.1532V126.192Z" fill="#CCCCCC"/>
<path d="M58.1532 136.44H1.79069V140.026H58.1532V136.44Z" fill="#CCCCCC"/>
<path d="M88.8963 248.652H32.5338V252.239H88.8963V248.652Z" fill="#CCCCCC"/>
<path d="M88.8963 258.9H32.5338V262.487H88.8963V258.9Z" fill="#CCCCCC"/>
<path d="M88.8963 269.148H32.5338V272.734H88.8963V269.148Z" fill="#CCCCCC"/>
<path d="M489.154 137.977H432.792V141.563H489.154V137.977Z" fill="#CCCCCC"/>
<path d="M489.154 148.224H432.792V151.811H489.154V148.224Z" fill="#CCCCCC"/>
<path d="M489.154 158.472H432.792V162.059H489.154V158.472Z" fill="#CCCCCC"/>
</svg>
