<svg width="400" height="325" viewBox="0 0 400 325" fill="none" xmlns="http://www.w3.org/2000/svg">
<path d="M36.0361 0C35.4444 0.000649966 34.877 0.236022 34.4585 0.654483C34.0401 1.07294 33.8047 1.64031 33.804 2.2321V78.3646C33.8047 78.9563 34.0401 79.5237 34.4585 79.9422C34.877 80.3606 35.4444 80.596 36.0361 80.5967H295.636C296.227 80.596 296.795 80.3606 297.213 79.9422C297.632 79.5237 297.867 78.9563 297.868 78.3646V2.2321C297.867 1.64031 297.632 1.07294 297.213 0.654483C296.795 0.236022 296.227 0.000649966 295.636 0H36.0361Z" fill="#E6E6E6"/>
<path d="M39.397 75.0037H292.273V5.59296H39.397V75.0037Z" fill="white"/>
<path d="M260.354 60.6035C259.869 60.6035 259.388 60.6991 258.939 60.8849C258.49 61.0707 258.083 61.3431 257.739 61.6865C257.396 62.0298 257.124 62.4375 256.938 62.8861C256.752 63.3347 256.656 63.8155 256.656 64.3011C256.656 64.7867 256.752 65.2676 256.938 65.7162C257.124 66.1648 257.396 66.5724 257.739 66.9158C258.083 67.2591 258.49 67.5315 258.939 67.7173C259.388 67.9032 259.869 67.9988 260.354 67.9988H275.144C275.63 67.9988 276.11 67.9032 276.559 67.7173C277.008 67.5315 277.415 67.2591 277.759 66.9158C278.102 66.5724 278.374 66.1648 278.56 65.7162C278.746 65.2676 278.842 64.7867 278.842 64.3011C278.842 63.8155 278.746 63.3347 278.56 62.8861C278.374 62.4375 278.102 62.0298 277.759 61.6865C277.415 61.3431 277.008 61.0707 276.559 60.8849C276.11 60.6991 275.63 60.6035 275.144 60.6035H260.354Z" fill="#F50057"/>
<path d="M278.842 53.4316H108.108V54.4048H278.842V53.4316Z" fill="#E6E6E6"/>
<path d="M72.4197 61.8345C84.3138 61.8345 93.9558 52.1924 93.9558 40.2984C93.9558 28.4043 84.3138 18.7622 72.4197 18.7622C60.5256 18.7622 50.8835 28.4043 50.8835 40.2984C50.8835 52.1924 60.5256 61.8345 72.4197 61.8345Z" fill="#E6E6E6"/>
<path d="M108.38 47.999L107.84 47.1895L125.582 35.3618L137.748 41.202L155.247 30.0218L155.483 30.1225L190.058 44.8714L217.779 31.2537L244.697 42.167L278.521 49.0426L279.166 49.7711L244.891 43.2958L217.816 32.3186L190.085 45.9404L155.337 31.1178L137.814 42.3127L125.659 36.4783L108.38 47.999Z" fill="#3F3D56"/>
<path d="M111.27 61.1134C110.44 61.1267 109.649 61.4657 109.067 62.0571C108.485 62.6486 108.159 63.4451 108.159 64.2749C108.159 65.1047 108.485 65.9012 109.067 66.4927C109.649 67.0841 110.44 67.4231 111.27 67.4364H144.347C145.184 67.4488 145.993 67.1281 146.594 66.5448C147.196 65.9615 147.541 65.1633 147.555 64.3255C147.568 63.4877 147.248 62.6789 146.666 62.0766C146.083 61.4743 145.286 61.1279 144.448 61.1134C144.414 61.1128 144.38 61.1128 144.347 61.1134H111.27Z" fill="#E6E6E6"/>
<path d="M81.0824 40.0308C80.8402 39.7886 80.5117 39.6525 80.1691 39.6525C79.8266 39.6525 79.4981 39.7886 79.2558 40.0308L79.2558 40.0308L73.7112 45.5753V31.9031C73.7084 31.5624 73.571 31.2367 73.3291 30.9968C73.0872 30.7569 72.7603 30.6223 72.4196 30.6223C72.0789 30.6223 71.752 30.7569 71.5101 30.9968C71.2682 31.2367 71.1309 31.5624 71.128 31.9031V45.5753L65.5835 40.0308C65.3417 39.7889 65.0138 39.6527 64.6718 39.6523C64.3297 39.6518 64.0015 39.787 63.759 40.0282C63.5165 40.2694 63.3796 40.597 63.3784 40.939C63.3771 41.2811 63.5115 41.6096 63.7522 41.8527L63.7569 41.8573L71.5063 49.6068C71.7485 49.849 72.0771 49.9851 72.4196 49.9851C72.7622 49.9851 73.0907 49.849 73.3329 49.6068L81.0824 41.8573C81.3246 41.6151 81.4606 41.2866 81.4606 40.9441C81.4606 40.6016 81.3246 40.2731 81.0824 40.0308Z" fill="white"/>
<path d="M138.168 121.93C137.576 121.93 137.008 122.166 136.59 122.584C136.172 123.003 135.936 123.57 135.936 124.162V200.294C135.936 200.886 136.172 201.453 136.59 201.872C137.008 202.29 137.576 202.526 138.168 202.526H397.768C398.36 202.526 398.927 202.29 399.346 201.872C399.764 201.453 399.999 200.886 400 200.294V124.162C399.999 123.57 399.764 123.003 399.346 122.584C398.927 122.166 398.36 121.93 397.768 121.93H138.168Z" fill="#E6E6E6"/>
<path d="M141.529 196.933H394.406V127.523H141.529V196.933Z" fill="white"/>
<path d="M362.486 182.535C361.505 182.535 360.565 182.924 359.871 183.618C359.178 184.311 358.788 185.252 358.788 186.232C358.788 187.213 359.178 188.154 359.871 188.847C360.565 189.54 361.505 189.93 362.486 189.93H377.274C378.255 189.93 379.196 189.54 379.889 188.847C380.582 188.154 380.972 187.213 380.972 186.232C380.972 185.252 380.582 184.311 379.889 183.618C379.196 182.924 378.255 182.535 377.274 182.535H362.486Z" fill="#F50057"/>
<path d="M380.974 175.362H210.24V176.335H380.974V175.362Z" fill="#E6E6E6"/>
<path d="M174.551 183.765C186.445 183.765 196.087 174.123 196.087 162.229C196.087 150.335 186.445 140.693 174.551 140.693C162.657 140.693 153.015 150.335 153.015 162.229C153.015 174.123 162.657 183.765 174.551 183.765Z" fill="#F50057"/>
<path d="M210.51 169.929L209.97 169.12L227.711 157.292L239.878 163.132L257.377 151.952L257.614 152.053L292.187 166.802L319.909 153.184L346.828 164.097L380.652 134.139L381.297 134.867L347.021 165.223L319.947 154.247L292.216 167.868L257.468 153.046L239.945 164.241L227.793 158.409L210.51 169.929Z" fill="#3F3D56"/>
<path d="M213.402 183.043C212.563 183.029 211.754 183.349 211.151 183.933C210.549 184.516 210.203 185.315 210.189 186.153C210.175 186.992 210.495 187.801 211.079 188.404C211.662 189.006 212.46 189.352 213.299 189.366C213.333 189.367 213.368 189.367 213.402 189.366H246.478C247.308 189.353 248.099 189.014 248.681 188.422C249.263 187.831 249.59 187.034 249.59 186.205C249.59 185.375 249.263 184.578 248.681 183.987C248.099 183.395 247.308 183.056 246.478 183.043H213.402Z" fill="#E6E6E6"/>
<path d="M165.888 162.496C166.008 162.616 166.15 162.711 166.307 162.776C166.464 162.841 166.632 162.875 166.801 162.875C166.971 162.875 167.139 162.841 167.296 162.776C167.452 162.711 167.595 162.616 167.715 162.496L167.715 162.496L173.259 156.952V170.624C173.259 170.967 173.395 171.295 173.638 171.537C173.88 171.779 174.208 171.916 174.551 171.916C174.893 171.916 175.222 171.779 175.464 171.537C175.706 171.295 175.843 170.967 175.843 170.624V156.952L181.387 162.496C181.507 162.616 181.649 162.711 181.806 162.776C181.963 162.841 182.131 162.875 182.3 162.875C182.47 162.875 182.638 162.841 182.795 162.776C182.951 162.711 183.094 162.616 183.214 162.496C183.334 162.376 183.429 162.234 183.494 162.077C183.559 161.921 183.592 161.753 183.592 161.583C183.592 161.413 183.559 161.245 183.494 161.089C183.429 160.932 183.334 160.79 183.214 160.67L175.464 152.92C175.222 152.678 174.893 152.542 174.551 152.542C174.208 152.542 173.88 152.678 173.638 152.92L165.888 160.67C165.646 160.912 165.51 161.24 165.51 161.583C165.51 161.926 165.646 162.254 165.888 162.496Z" fill="white"/>
<path d="M2.23212 243.86C1.64032 243.861 1.07296 244.096 0.654496 244.515C0.236035 244.933 0.000649966 245.5 0 246.092V322.225C0.000649966 322.816 0.236035 323.384 0.654496 323.802C1.07296 324.221 1.64032 324.456 2.23212 324.457H261.832C262.423 324.456 262.991 324.221 263.409 323.802C263.828 323.384 264.063 322.816 264.064 322.225V246.092C264.063 245.5 263.828 244.933 263.409 244.515C262.991 244.096 262.423 243.861 261.832 243.86H2.23212Z" fill="#E6E6E6"/>
<path d="M5.59375 318.864H258.471V249.453H5.59375V318.864Z" fill="white"/>
<path d="M226.55 304.464C225.569 304.464 224.629 304.854 223.935 305.547C223.242 306.241 222.852 307.181 222.852 308.162C222.852 309.143 223.242 310.083 223.935 310.777C224.629 311.47 225.569 311.86 226.55 311.86H241.34C242.321 311.86 243.261 311.47 243.955 310.777C244.648 310.083 245.038 309.143 245.038 308.162C245.038 307.181 244.648 306.241 243.955 305.547C243.261 304.854 242.321 304.464 241.34 304.464H226.55Z" fill="#F50057"/>
<path d="M245.038 297.292H74.3037V298.266H245.038V297.292Z" fill="#E6E6E6"/>
<path d="M38.6156 305.695C50.5097 305.695 60.1518 296.052 60.1518 284.158C60.1518 272.264 50.5097 262.622 38.6156 262.622C26.7215 262.622 17.0795 272.264 17.0795 284.158C17.0795 296.052 26.7215 305.695 38.6156 305.695Z" fill="#F50057"/>
<path d="M74.5742 291.86L74.0348 291.05L91.7763 279.222L103.942 285.062L121.442 273.879L156.252 288.727L183.973 275.11L210.889 286.026L244.712 272.439L245.357 273.167L211.086 287.155L184.011 276.179L156.281 289.8L121.533 274.978L104.011 286.174L91.8556 280.339L74.5742 291.86Z" fill="#3F3D56"/>
<path d="M77.466 304.973C76.6363 304.986 75.8451 305.325 75.2631 305.916C74.6811 306.508 74.3549 307.304 74.3549 308.134C74.3549 308.964 74.6811 309.76 75.2631 310.352C75.8451 310.943 76.6363 311.282 77.466 311.296H110.542C110.958 311.302 111.37 311.227 111.756 311.075C112.142 310.922 112.495 310.695 112.793 310.406C113.091 310.117 113.33 309.773 113.495 309.392C113.66 309.011 113.749 308.601 113.756 308.186C113.762 307.77 113.687 307.358 113.535 306.972C113.382 306.586 113.155 306.233 112.866 305.935C112.577 305.637 112.232 305.398 111.851 305.233C111.47 305.068 111.061 304.979 110.645 304.973C110.611 304.972 110.577 304.972 110.542 304.973H77.466Z" fill="#E6E6E6"/>
<path d="M29.9527 284.426C30.0726 284.546 30.2149 284.641 30.3716 284.706C30.5283 284.771 30.6963 284.804 30.8659 284.804C31.0355 284.804 31.2034 284.771 31.3601 284.706C31.5168 284.641 31.6592 284.546 31.7792 284.426L31.7792 284.426L37.3238 278.881V292.554C37.3253 292.894 37.4615 293.221 37.7027 293.462C37.9439 293.703 38.2704 293.838 38.6113 293.839C38.9521 293.84 39.2796 293.707 39.5223 293.468C39.765 293.228 39.9032 292.903 39.907 292.562V278.881L45.4515 284.426C45.6931 284.669 46.0213 284.806 46.3638 284.807C46.7064 284.807 47.0353 284.672 47.2781 284.431C47.5209 284.189 47.6578 283.861 47.6587 283.518C47.6596 283.176 47.5244 282.847 47.2828 282.604L47.2781 282.599L39.5287 274.85C39.2865 274.608 38.9579 274.472 38.6154 274.472C38.2728 274.472 37.9443 274.608 37.7021 274.85L29.9527 282.599C29.8327 282.719 29.7376 282.862 29.6727 283.018C29.6078 283.175 29.5743 283.343 29.5743 283.513C29.5743 283.682 29.6078 283.85 29.6727 284.007C29.7376 284.164 29.8327 284.306 29.9527 284.426Z" fill="white"/>
</svg>
