<svg width="348" height="188" viewBox="0 0 348 188" fill="none" xmlns="http://www.w3.org/2000/svg">
<path opacity="0.45" d="M176.233 187.522C270.734 187.522 347.342 182.682 347.342 176.712C347.342 170.742 270.734 165.903 176.233 165.903C81.7317 165.903 5.12402 170.742 5.12402 176.712C5.12402 182.682 81.7317 187.522 176.233 187.522Z" fill="#E6E6E6"/>
<path d="M36.4826 104.151L25.0959 98.625L23.5713 101.766L34.958 107.293L36.4826 104.151Z" fill="#24285B"/>
<path d="M46.8997 112.28L12.2647 95.4688L0.639648 119.421L35.2747 136.231L46.8997 112.28Z" fill="#FFD200"/>
<path d="M122.519 31.7197C122.519 31.7197 197.629 46.2951 214.986 56.6991L210.926 66.8491C210.926 66.8491 166.621 55.3591 133.319 59.2361L122.519 31.7197Z" fill="#4945FF"/>
<path opacity="0.08" d="M122.519 31.7197C122.519 31.7197 197.629 46.2951 214.986 56.6991L210.926 66.8491C210.926 66.8491 166.621 55.3591 133.319 59.2361L122.519 31.7197Z" fill="black"/>
<path d="M211.859 64.5652C211.859 64.5652 220.609 70.3302 220.934 68.6252C221.258 66.9202 219.249 64.7682 219.249 64.7682C219.249 64.7682 229.155 64.3822 229.399 62.0172C229.642 59.6522 214.935 56.6782 214.935 56.6782L211.859 64.5652Z" fill="#F4A28C"/>
<path d="M152.34 172.876C152.34 172.876 154.025 175.982 157.039 175.779C160.054 175.576 161.272 178.357 158.714 179.524C156.156 180.691 148.747 178.316 148.747 178.316L148.148 172.845L152.34 172.876Z" fill="#4945FF"/>
<path d="M38.7718 157.082C38.7718 157.082 35.4527 158.29 35.2091 161.295C34.9655 164.299 32.0322 165.101 31.2506 162.401C30.4691 159.701 33.9302 152.718 33.9302 152.718L39.4315 152.951L38.7718 157.082Z" fill="#4945FF"/>
<path d="M118.337 11.044C118.673 13.9241 118.618 16.8364 118.175 19.7019C118.105 20.0426 117.968 20.366 117.772 20.6532C117.576 20.9404 117.324 21.1856 117.033 21.3746C116.741 21.5636 116.414 21.6925 116.072 21.7539C115.729 21.8152 115.378 21.8077 115.039 21.7319C113.94 21.5504 112.916 21.0554 112.092 20.3064C111.267 19.5573 110.676 18.5862 110.39 17.5095L108.705 13.0029C108.458 12.0625 108.51 11.0685 108.854 10.159C109.197 9.24948 109.816 8.46968 110.623 7.92788C113.486 5.69488 118.175 7.87718 118.337 11.044Z" fill="#F4A28C"/>
<path d="M108.989 13.7744L106.787 30.7148L116.216 31.2527L114.034 18.7073L108.989 13.7744Z" fill="#F4A28C"/>
<path d="M112.927 15.6622C112.927 15.6622 112.826 13.6322 111.324 13.8555C109.822 14.0788 109.943 16.9005 112.004 17.1644L112.927 15.6622Z" fill="#F4A28C"/>
<path d="M118.54 14.3325L120.053 16.2915C120.138 16.4039 120.193 16.5358 120.214 16.6752C120.235 16.8145 120.22 16.9568 120.172 17.0891C120.123 17.2214 120.042 17.3394 119.936 17.4323C119.83 17.5253 119.703 17.5902 119.566 17.6211L117.536 18.0474L118.54 14.3325Z" fill="#F4A28C"/>
<path opacity="0.31" d="M114.622 21.4378C113.443 21.1754 112.366 20.5718 111.527 19.7021C111.527 19.7021 111.75 22.8283 115.262 25.7921L114.622 21.4378Z" fill="#CE8172"/>
<path d="M82.6496 113.082C82.6496 113.082 77.5746 128.987 88.3036 133.088C93.2966 134.986 105.559 134.976 117.241 134.417C124.347 134.089 131.301 136.548 136.62 141.271C141.94 145.993 145.206 152.606 145.722 159.701L146.666 172.399L152.228 172.876L154.167 150.14C154.841 142.228 152.373 134.369 147.298 128.262C142.223 122.156 134.948 118.292 127.046 117.507L82.6496 113.082Z" fill="#24285B"/>
<path d="M108.644 16.4236L107.426 9.31862C107.426 9.31862 104.625 7.16682 106.959 5.16722C109.294 3.16772 110.908 5.08602 112.927 2.12222C113.205 1.54892 113.656 1.07702 114.215 0.77312C114.775 0.46922 115.416 0.348619 116.048 0.428119C116.68 0.507719 117.272 0.78352 117.739 1.21672C118.206 1.64982 118.525 2.21862 118.652 2.84292C119.16 4.97442 123.971 4.71052 122.712 7.67432C121.453 10.6381 117.201 10.4249 115.993 10.3539C110.694 10.0392 114.663 17.5096 108.644 16.4236Z" fill="#24285B"/>
<path d="M108.33 30.4304L110.258 30.2477C114.642 29.8032 119.069 30.3864 123.188 31.9509C127.307 33.5154 131.005 36.0183 133.989 39.2609C136.535 42.1079 138.466 45.4489 139.663 49.0759C144.981 65.1129 120.865 116.888 120.865 116.888L82.6504 113.082C82.6504 113.082 63.5786 31.3033 108.33 30.4304Z" fill="#4945FF"/>
<path opacity="0.08" d="M119.637 45.7869C119.21 50.8699 117.513 55.7649 114.702 60.0209C111.891 64.2769 108.056 67.7589 103.549 70.1469C87.847 78.6729 101.793 115.234 101.793 115.234L82.65 113.082C82.65 113.082 77.951 90.0009 78.59 77.9929C79.229 65.9859 86.568 42.5599 119.637 45.7869Z" fill="black"/>
<path d="M112.471 32.8158C115.627 34.1822 118.235 36.5654 119.88 39.5858C121.728 43.077 122.529 48.081 118.368 54.09C110.055 66.108 72.3878 26.6852 36.244 96.345L28.124 92.955C28.124 92.955 56.0873 7.52197 112.471 32.8158Z" fill="#4945FF"/>
<path opacity="0.46" d="M112.471 32.8158C115.627 34.1822 118.235 36.5654 119.88 39.5858C121.728 43.077 122.529 48.081 118.368 54.09C110.055 66.108 72.3878 26.6852 36.244 96.345L28.124 92.955C28.124 92.955 56.0873 7.52197 112.471 32.8158Z" fill="white"/>
<path d="M29.9309 93.6948C29.9309 93.6948 26.0536 99.9378 28.6317 102.13C31.2098 104.323 35.6149 105.49 36.2442 96.3448L29.9309 93.6948Z" fill="#F4A28C"/>
<path d="M82.295 115.203C81.676 116.381 67.0698 151.51 58.6656 153.773C50.2614 156.037 38.3656 152.373 38.3656 152.373L37.6855 158.463C37.6855 158.463 56.5341 167.466 69.3941 164.116C82.254 160.767 104.98 129.525 104.98 129.525L84.101 115.538" fill="#24285B"/>
<path d="M231.855 153.185V159.346C231.855 162.137 224.07 164.421 214.478 164.421C204.886 164.421 197.112 162.127 197.112 159.346V153.185H231.855Z" fill="#FFD200"/>
<path d="M231.855 160.604V166.765C231.855 169.557 224.07 171.84 214.478 171.79C204.886 171.739 197.101 169.496 197.112 166.715V160.564L231.855 160.604Z" fill="#FFD200"/>
<path opacity="0.08" d="M231.855 160.604V166.765C231.855 169.557 224.07 171.84 214.478 171.79C204.886 171.739 197.101 169.496 197.112 166.715V160.564L231.855 160.604Z" fill="black"/>
<path d="M231.508 160.417C231.513 157.654 223.809 155.4 214.302 155.383C204.795 155.367 197.084 157.594 197.079 160.357C197.074 163.121 204.778 165.375 214.285 165.391C223.792 165.408 231.503 163.181 231.508 160.417Z" fill="#FFD200"/>
<path opacity="0.08" d="M231.855 153.185V159.346C231.855 162.137 224.07 164.421 214.478 164.421C204.886 164.421 197.112 162.127 197.112 159.346V153.185H231.855Z" fill="black"/>
<path d="M230.586 145.826V151.987C230.586 154.778 222.801 157.062 213.209 157.062C203.618 157.062 195.833 154.768 195.843 151.987V145.765L230.586 145.826Z" fill="#FFD200"/>
<path d="M231.855 138.406V144.567C231.855 147.348 224.06 149.642 214.468 149.642C204.876 149.642 197.101 147.348 197.112 144.567V138.406H231.855Z" fill="#FFD200"/>
<path d="M231.528 153.056C231.533 150.292 223.83 148.039 214.323 148.022C204.815 148.005 197.104 150.232 197.099 152.996C197.095 155.76 204.798 158.013 214.305 158.03C223.812 158.047 231.523 155.82 231.528 153.056Z" fill="#FFD200"/>
<path opacity="0.08" d="M230.586 145.826V151.987C230.586 154.778 222.801 157.062 213.209 157.062C203.618 157.062 195.833 154.768 195.843 151.987V145.765L230.586 145.826Z" fill="black"/>
<path d="M230.278 145.766C230.282 143.002 222.579 140.748 213.072 140.732C203.565 140.715 195.854 142.942 195.849 145.706C195.844 148.469 203.547 150.723 213.054 150.74C222.562 150.756 230.273 148.529 230.278 145.766Z" fill="#FFD200"/>
<path opacity="0.08" d="M231.855 138.406V144.567C231.855 147.348 224.06 149.642 214.468 149.642C204.876 149.642 197.101 147.348 197.112 144.567V138.406H231.855Z" fill="black"/>
<path d="M231.874 138.415C231.878 135.651 224.103 133.397 214.506 133.38C204.909 133.364 197.125 135.59 197.12 138.354C197.115 141.118 204.891 143.372 214.488 143.388C224.085 143.405 231.869 141.178 231.874 138.415Z" fill="#FFD200"/>
<path d="M289.416 93.0662C289.416 93.0662 301.19 115.396 303.981 139.147C306.772 162.898 299.464 179.361 259.189 176.641C218.914 173.921 209.17 157.437 216.559 135.513C223.948 113.589 256.144 87.1592 256.144 87.1592L289.416 93.0662Z" fill="#24285B"/>
<path d="M289.416 93.0659C289.416 93.0659 310.061 80.0949 304.641 70.6749C299.221 61.2559 286.015 63.5699 279.174 60.1899C272.333 56.8099 235.621 50.8829 256.144 87.1589L289.416 93.0659Z" fill="#24285B"/>
<path d="M286.594 87.8188C286.594 87.8188 265.827 83.8798 248.359 84.4888" stroke="#FFD200" stroke-width="3.045" stroke-linecap="round" stroke-linejoin="round"/>
<path d="M255.078 87.017C255.078 87.017 246.552 62.413 233.124 73.933C219.695 85.454 254.246 87.017 254.246 87.017C254.246 87.017 220.243 95.137 236.24 108.738C252.236 122.339 255.078 87.017 255.078 87.017Z" stroke="#FFD200" stroke-width="3.045" stroke-linecap="round" stroke-linejoin="round"/>
<path d="M253.302 157.062C264.497 157.062 273.572 147.987 273.572 136.792C273.572 125.598 264.497 116.523 253.302 116.523C242.107 116.523 233.032 125.598 233.032 136.792C233.032 147.987 242.107 157.062 253.302 157.062Z" fill="#4945FF"/>
<path d="M258.245 126.734C258.874 126.927 259.006 127.201 258.813 127.83L258.397 129.17C259.469 129.624 260.397 130.362 261.08 131.305C261.763 132.247 262.176 133.359 262.275 134.519C262.406 135.28 262.153 135.585 261.32 135.696L259.788 135.889C259.067 135.991 258.773 135.767 258.651 134.996C258.578 134.231 258.261 133.51 257.748 132.938C257.235 132.366 256.551 131.974 255.799 131.819C253.464 131.108 252.196 131.464 251.739 133.027C251.645 133.521 251.726 134.033 251.969 134.474C252.211 134.915 252.6 135.258 253.068 135.442C253.675 135.782 254.302 136.084 254.946 136.346C256.17 136.78 257.322 137.392 258.367 138.163C258.896 138.534 259.353 138.998 259.717 139.533C260.045 140.193 260.238 140.911 260.285 141.647C260.332 142.382 260.232 143.12 259.991 143.816C259.077 146.8 256.459 148.211 252.774 147.653L252.338 149.074C252.145 149.703 251.891 149.866 251.252 149.673L249.749 149.216C249.12 149.023 248.968 148.739 249.161 148.11L249.587 146.709C248.385 146.253 247.346 145.449 246.601 144.401C245.856 143.353 245.44 142.107 245.405 140.822C245.405 140.152 245.71 139.807 246.42 139.807L247.912 139.716C248.663 139.716 248.927 139.939 249.008 140.731C249.062 141.551 249.384 142.33 249.925 142.949C250.467 143.567 251.197 143.99 252.003 144.151C254.52 144.923 256.063 144.517 256.519 142.903C256.646 142.539 256.65 142.143 256.531 141.777C256.412 141.41 256.176 141.093 255.86 140.873C255.081 140.301 254.223 139.846 253.312 139.523C252.077 139.068 250.92 138.424 249.881 137.615C249.368 137.23 248.925 136.76 248.572 136.224C248.229 135.589 248.021 134.889 247.961 134.169C247.902 133.449 247.992 132.725 248.227 132.042C249.13 129.089 251.597 127.688 255.241 128.297L255.657 126.947C255.85 126.318 256.134 126.165 256.763 126.358L258.245 126.734Z" fill="white"/>
<path d="M304.661 70.2691C304.661 70.2691 308.589 77.7301 300.225 78.7451C291.862 79.7601 285 72.0661 278.352 73.7711C271.704 75.4761 252.378 78.6131 249.932 69.4271C247.486 60.2411 259.29 55.8871 267.116 57.0131C274.942 58.1401 302.519 61.5201 304.661 70.2691Z" fill="#4945FF"/>
<path d="M322.586 154.098V160.99C322.586 164.116 313.867 166.633 303.128 166.613C292.39 166.593 283.691 164.045 283.691 160.919V154.027L322.586 154.098Z" fill="#FFD200"/>
<path d="M322.566 162.401V169.293C322.566 172.419 313.857 174.936 303.118 174.916C292.379 174.896 283.671 172.358 283.681 169.232V162.34L322.566 162.401Z" fill="#FFD200"/>
<path opacity="0.08" d="M322.566 162.401V169.293C322.566 172.419 313.857 174.936 303.118 174.916C292.379 174.896 283.671 172.358 283.681 169.232V162.34L322.566 162.401Z" fill="black"/>
<path d="M322.211 162.19C322.216 159.096 313.595 156.572 302.956 156.554C292.316 156.535 283.687 159.029 283.681 162.123C283.676 165.217 292.297 167.741 302.936 167.759C313.576 167.778 322.205 165.285 322.211 162.19Z" fill="#FFD200"/>
<path opacity="0.08" d="M322.586 154.098V160.99C322.586 164.116 313.867 166.633 303.128 166.613C292.39 166.593 283.691 164.045 283.691 160.919V154.027L322.586 154.098Z" fill="black"/>
<path d="M321.175 145.856V152.748C321.175 155.874 312.456 158.392 301.717 158.371C290.979 158.351 282.28 155.803 282.28 152.687V145.765L321.175 145.856Z" fill="#FFD200"/>
<path d="M322.606 137.554V144.446C322.606 147.572 313.897 150.089 303.159 150.069C292.42 150.048 283.711 147.501 283.722 144.374V137.483L322.606 137.554Z" fill="#FFD200"/>
<path d="M322.231 153.954C322.236 150.86 313.616 148.337 302.976 148.318C292.337 148.299 283.707 150.793 283.702 153.887C283.696 156.982 292.317 159.505 302.957 159.524C313.596 159.542 322.226 157.049 322.231 153.954Z" fill="#FFD200"/>
<path opacity="0.08" d="M321.175 145.856V152.748C321.175 155.874 312.456 158.392 301.717 158.371C290.979 158.351 282.28 155.803 282.28 152.687V145.765L321.175 145.856Z" fill="black"/>
<path d="M320.848 145.8C320.854 142.706 312.233 140.182 301.593 140.163C290.954 140.145 282.324 142.638 282.319 145.733C282.313 148.827 290.934 151.351 301.574 151.369C312.213 151.388 320.843 148.894 320.848 145.8Z" fill="#FFD200"/>
<path opacity="0.08" d="M322.606 137.554V144.446C322.606 147.572 313.897 150.089 303.159 150.069C292.42 150.048 283.711 147.501 283.722 144.374V137.483L322.606 137.554Z" fill="black"/>
<path opacity="0.08" d="M321.845 176.205C329.816 176.205 336.278 169.743 336.278 161.772C336.278 153.8 329.816 147.338 321.845 147.338C313.874 147.338 307.412 153.8 307.412 161.772C307.412 169.743 313.874 176.205 321.845 176.205Z" fill="black"/>
<path opacity="0.08" d="M312.243 147.328C312.243 147.328 297.13 151.936 299.556 174.824C299.556 174.824 309.411 175.149 314.08 173.952C318.262 172.876 312.243 147.328 312.243 147.328Z" fill="black"/>
<path d="M322.627 137.564C322.633 134.47 313.93 131.946 303.19 131.928C292.449 131.909 283.738 134.402 283.733 137.496C283.727 140.591 292.43 143.114 303.17 143.133C313.911 143.152 322.622 140.659 322.627 137.564Z" fill="#FFD200"/>
<path d="M321.845 176.205C329.816 176.205 336.278 169.743 336.278 161.772C336.278 153.8 329.816 147.338 321.845 147.338C313.874 147.338 307.412 153.8 307.412 161.772C307.412 169.743 313.874 176.205 321.845 176.205Z" fill="#FFD200"/>
<path opacity="0.08" d="M321.845 176.205C329.816 176.205 336.278 169.743 336.278 161.772C336.278 153.8 329.816 147.338 321.845 147.338C313.874 147.338 307.412 153.8 307.412 161.772C307.412 169.743 313.874 176.205 321.845 176.205Z" fill="black"/>
<g opacity="0.08">
<path opacity="0.08" d="M322.545 171.861C330.517 171.861 336.979 165.399 336.979 157.427C336.979 149.456 330.517 142.994 322.545 142.994C314.574 142.994 308.112 149.456 308.112 157.427C308.112 165.399 314.574 171.861 322.545 171.861Z" fill="black"/>
</g>
<path d="M322.545 171.861C330.517 171.861 336.979 165.399 336.979 157.427C336.979 149.456 330.517 142.994 322.545 142.994C314.574 142.994 308.112 149.456 308.112 157.427C308.112 165.399 314.574 171.861 322.545 171.861Z" fill="#FFD200"/>
<path d="M323.012 150.972C323.418 150.972 323.55 151.114 323.55 151.52V152.393C324.266 152.47 324.947 152.74 325.521 153.175C326.095 153.609 326.54 154.191 326.808 154.859C327.021 155.286 326.94 155.519 326.453 155.732L325.59 156.118C325.174 156.311 324.981 156.23 324.748 155.803C324.568 155.362 324.251 154.99 323.843 154.743C323.436 154.496 322.959 154.387 322.484 154.433C320.972 154.433 320.282 154.88 320.282 155.885C320.316 156.194 320.455 156.482 320.677 156.701C320.899 156.919 321.19 157.054 321.5 157.082C321.921 157.175 322.349 157.239 322.779 157.275C323.584 157.317 324.38 157.471 325.144 157.732C325.512 157.861 325.856 158.053 326.159 158.3C326.473 158.631 326.719 159.022 326.881 159.449C327.043 159.876 327.118 160.331 327.103 160.787C327.103 162.726 325.803 164.035 323.52 164.37V165.294C323.52 165.7 323.388 165.842 322.982 165.842H321.967C321.561 165.842 321.419 165.7 321.419 165.294V164.39C320.624 164.334 319.863 164.045 319.232 163.559C318.6 163.074 318.125 162.413 317.866 161.66C317.827 161.58 317.807 161.493 317.807 161.404C317.807 161.316 317.828 161.228 317.867 161.149C317.906 161.069 317.963 161 318.033 160.946C318.103 160.892 318.185 160.855 318.272 160.838L319.145 160.523C319.592 160.361 319.784 160.523 319.977 160.909C320.156 161.387 320.488 161.792 320.921 162.062C321.354 162.332 321.865 162.451 322.373 162.401C324.007 162.401 324.819 161.893 324.819 160.838C324.834 160.596 324.767 160.356 324.629 160.157C324.491 159.958 324.289 159.812 324.058 159.742C323.492 159.544 322.9 159.431 322.302 159.407C321.488 159.354 320.688 159.18 319.927 158.889C319.557 158.752 319.214 158.553 318.912 158.3C318.595 157.985 318.347 157.608 318.183 157.192C318.018 156.776 317.942 156.331 317.957 155.885C317.957 153.976 319.165 152.697 321.439 152.393V151.52C321.439 151.114 321.581 150.972 321.987 150.972H323.012Z" fill="white"/>
</svg>
