<svg width="346" height="278" viewBox="0 0 346 278" fill="none" xmlns="http://www.w3.org/2000/svg">
<g clip-path="url(#clip0_1_960)">
<path d="M309.361 135.925C309.361 138.421 309.293 140.901 309.158 143.363C308.667 152.567 307.237 161.698 304.889 170.612C304.886 170.615 304.886 170.615 304.889 170.619C304.581 171.798 304.254 172.973 303.909 174.137C303.894 174.194 303.878 174.246 303.86 174.299C303.349 176.045 302.802 177.775 302.221 179.488V179.492C293.088 206.413 275.744 229.798 252.626 246.363C229.508 262.929 201.777 271.841 173.329 271.849C108.984 271.849 55.078 227.216 40.9261 167.24C38.5068 156.977 37.2887 146.468 37.2961 135.925C37.2961 133.829 37.3436 131.745 37.4388 129.673C38.5664 104.334 46.8027 79.8236 61.207 58.9394C61.3798 58.6841 61.5564 58.4288 61.7368 58.1772C86.3204 23.0058 127.138 0 173.329 0C238.609 0 293.146 45.944 306.321 107.238C306.323 107.24 306.325 107.242 306.325 107.245C307.174 111.195 307.848 115.205 308.346 119.276C309.025 124.799 309.364 130.359 309.361 135.925Z" fill="#F2F2F2"/>
<path d="M344.784 249.929C343.768 253.599 342.182 257.087 340.083 260.266C335.394 267.351 328.682 272.77 321.306 277.106C320.795 277.41 320.276 277.707 319.757 278H314.583L314.403 277.587V277.583L314.192 277.106L314.166 277.05L314.155 277.106L313.948 278H311.408C311.197 277.703 310.991 277.407 310.788 277.106C310.491 276.667 310.205 276.224 309.935 275.773C309.457 274.985 309.03 274.168 308.657 273.325C308.612 273.231 308.574 273.137 308.537 273.044L308.706 272.86L308.003 269.788L309.416 269.555L307.868 264.783C307.924 264.607 307.988 264.43 308.056 264.254C308.924 262.057 310.555 260.416 312.49 259.038C314.482 257.615 316.8 256.474 318.931 255.287C319.93 254.728 320.915 254.138 321.873 253.515V253.511C323.098 252.719 324.287 251.871 325.439 250.969C325.459 250.956 325.478 250.943 325.496 250.928C325.512 250.916 325.527 250.904 325.541 250.89C330.707 246.857 335.079 241.901 338.434 236.273C338.434 236.273 338.435 236.273 338.435 236.272C338.436 236.272 338.436 236.272 338.437 236.272C338.437 236.271 338.437 236.271 338.437 236.27C338.438 236.27 338.438 236.269 338.438 236.269C338.55 236.089 338.656 235.908 338.761 235.724V235.721C340.135 233.36 341.317 230.892 342.297 228.342V228.339C342.372 228.151 342.44 227.963 342.511 227.776C342.609 227.941 342.703 228.106 342.793 228.271C342.793 228.271 342.794 228.271 342.794 228.271C342.795 228.272 342.795 228.272 342.796 228.272C342.796 228.273 342.796 228.273 342.796 228.273C342.797 228.274 342.797 228.274 342.797 228.275C346.442 234.789 346.787 242.637 344.784 249.929Z" fill="#F0F0F0"/>
<path d="M342.797 228.275C342.833 231.752 342.471 235.221 341.718 238.616C341.38 240.169 340.958 241.703 340.455 243.212C339.48 246.163 338.204 249.006 336.649 251.698C336.562 251.844 336.48 251.987 336.39 252.129V252.133C335.725 253.253 335.004 254.338 334.229 255.385C333.056 257.052 331.607 258.507 329.945 259.688C328.587 260.584 327.051 261.177 325.443 261.426C325.142 261.483 324.834 261.524 324.522 261.561C323.279 261.708 321.993 261.764 320.761 262.027C320.137 262.15 319.529 262.346 318.95 262.609C316.965 263.529 315.849 265.455 315.361 267.513C315.274 267.873 315.207 268.238 315.154 268.602C314.745 271.399 315.196 274.305 314.963 277.106C314.936 277.403 314.902 277.703 314.861 278H314.583L314.403 277.587V277.583C314.421 277.426 314.436 277.268 314.451 277.106C314.542 275.73 314.553 274.35 314.485 272.972C314.47 272.353 314.459 271.729 314.467 271.106C314.474 270.607 314.493 270.107 314.53 269.612V269.608C314.557 269.3 314.587 268.996 314.628 268.692C314.747 267.761 314.977 266.847 315.312 265.97C315.639 265.066 316.153 264.241 316.822 263.55C317.49 262.859 318.297 262.317 319.19 261.959C319.735 261.755 320.297 261.598 320.87 261.49C322.129 261.25 323.429 261.19 324.695 261.032C324.831 261.017 324.966 260.998 325.097 260.976C325.266 260.949 325.432 260.919 325.597 260.889C327.254 260.595 328.819 259.918 330.167 258.911C331.768 257.644 333.16 256.133 334.293 254.435C334.909 253.552 335.495 252.651 336.04 251.724C336.04 251.723 336.04 251.723 336.04 251.722C336.04 251.722 336.041 251.721 336.041 251.721C336.041 251.721 336.042 251.72 336.042 251.72C336.043 251.72 336.043 251.72 336.044 251.72C336.07 251.675 336.096 251.634 336.123 251.589L336.126 251.581C338.464 247.59 340.17 243.262 341.184 238.751C341.218 238.586 341.256 238.42 341.293 238.255C341.991 234.998 342.327 231.674 342.297 228.343V228.339C342.297 228.181 342.293 228.027 342.289 227.869C342.282 227.546 342.782 227.475 342.789 227.798C342.793 227.956 342.797 228.113 342.793 228.271C342.793 228.271 342.794 228.271 342.794 228.271C342.795 228.272 342.795 228.272 342.795 228.272C342.796 228.273 342.796 228.273 342.796 228.273C342.796 228.274 342.797 228.274 342.797 228.275Z" fill="white"/>
<path d="M336.175 252.027C337.607 252.754 339.251 252.949 340.813 252.576C342.375 252.204 343.754 251.288 344.703 249.994C344.894 249.731 344.495 249.422 344.303 249.685C343.422 250.892 342.137 251.745 340.682 252.089C339.227 252.432 337.696 252.245 336.367 251.561C336.078 251.412 335.888 251.88 336.175 252.027Z" fill="white"/>
<path d="M325.645 261.039C324.599 257.929 324.764 254.54 326.107 251.547C326.241 251.251 325.773 251.059 325.64 251.356C324.248 254.473 324.083 258 325.179 261.234C325.284 261.542 325.749 261.345 325.645 261.039V261.039Z" fill="white"/>
<path d="M341.439 238.301C340.826 238.135 340.264 237.82 339.804 237.384C339.343 236.947 338.998 236.403 338.8 235.801C338.699 235.492 338.234 235.688 338.334 235.996C338.556 236.66 338.938 237.261 339.445 237.744C339.953 238.227 340.572 238.579 341.247 238.768C341.309 238.791 341.378 238.79 341.439 238.765C341.5 238.739 341.549 238.691 341.576 238.631C341.602 238.569 341.601 238.499 341.575 238.438C341.55 238.376 341.5 238.327 341.439 238.301Z" fill="white"/>
<path d="M321.873 253.511V253.515C321.757 256.196 321.421 258.863 320.87 261.49V261.494C320.84 261.674 320.798 261.851 320.761 262.027C319.854 266.089 318.582 270.062 316.962 273.896C316.514 274.977 316.046 276.048 315.556 277.106C315.421 277.407 315.282 277.703 315.139 278H314.583L314.403 277.587V277.583L314.192 277.106L314.166 277.05L314.155 277.106L313.948 278H308.574L307.53 277.106L306.008 275.804L308.135 273.483L308.484 273.1L308.537 273.044L308.706 272.86L308.003 269.788L309.416 269.556L307.868 264.783L307.135 262.526L306.951 261.96L305.88 258.659L302.648 259.264L302.122 257.424C303.091 255.18 303.897 252.87 304.535 250.511C304.538 250.492 304.546 250.477 304.55 250.459C306.257 244.105 306.769 237.489 306.06 230.948V230.945C306.038 230.734 306.011 230.52 305.981 230.314V230.306C305.659 227.596 305.116 224.916 304.358 222.294C304.305 222.095 304.245 221.899 304.189 221.704C304.362 221.779 304.531 221.851 304.704 221.926L304.707 221.929H304.715C304.989 222.05 305.264 222.177 305.53 222.312C311.941 225.425 316.657 231.268 319.337 238.004C319.344 238.023 319.352 238.038 319.359 238.056C320.757 241.588 321.59 245.317 321.828 249.107C321.918 250.573 321.933 252.043 321.873 253.511Z" fill="#F0F0F0"/>
<path d="M312.122 278H311.528C311.34 277.696 311.137 277.399 310.934 277.106C310.611 276.652 310.278 276.208 309.935 275.773C309.638 275.398 309.341 275.026 309.044 274.654C308.736 274.268 308.431 273.881 308.135 273.483L308.484 273.1C308.54 273.175 308.597 273.25 308.657 273.325C309.619 274.591 310.66 275.807 311.55 277.106C311.75 277.399 311.941 277.696 312.122 278Z" fill="white"/>
<path d="M304.064 221.914C304.162 222.038 304.263 222.165 304.357 222.293C305.09 223.243 305.783 224.223 306.435 225.233C307.598 227.015 308.63 228.879 309.524 230.809C309.596 230.959 309.667 231.113 309.735 231.267C311.648 235.485 312.896 239.974 313.432 244.574C313.44 244.619 313.444 244.66 313.447 244.706C313.571 245.779 313.652 246.857 313.688 247.938C313.808 249.975 313.606 252.017 313.09 253.991C313.015 254.25 312.933 254.506 312.842 254.753C312.616 255.361 312.333 255.945 311.997 256.499C311.755 256.904 311.487 257.291 311.193 257.66C311.016 257.885 310.832 258.106 310.637 258.321C310.524 258.444 310.407 258.568 310.291 258.692C310.193 258.786 310.099 258.884 310.001 258.978C308.987 259.961 307.867 260.874 306.95 261.959L307.134 262.526C308.017 261.407 309.156 260.48 310.182 259.503C310.826 258.898 311.412 258.234 311.933 257.521C312.001 257.423 312.072 257.325 312.136 257.224C312.484 256.716 312.785 256.177 313.034 255.613C313.162 255.332 313.278 255.043 313.383 254.742C313.997 252.801 314.277 250.769 314.21 248.734C314.198 247.431 314.12 246.129 313.977 244.833C313.962 244.664 313.943 244.499 313.921 244.33C313.54 241.246 312.845 238.209 311.847 235.266C310.583 231.532 308.845 227.976 306.676 224.685C306.056 223.742 305.398 222.822 304.703 221.925C304.613 221.801 304.519 221.681 304.421 221.557C304.222 221.302 303.865 221.658 304.064 221.914Z" fill="white"/>
<path d="M313.742 244.881C315.323 244.6 316.753 243.766 317.776 242.529C318.799 241.291 319.348 239.731 319.326 238.127C319.324 238.061 319.297 237.999 319.251 237.953C319.204 237.907 319.142 237.881 319.076 237.88C319.011 237.879 318.948 237.904 318.9 237.949C318.852 237.993 318.824 238.055 318.821 238.12C318.844 239.615 318.332 241.068 317.377 242.218C316.422 243.368 315.088 244.139 313.614 244.393C313.293 244.448 313.424 244.936 313.742 244.881Z" fill="white"/>
<path d="M310.764 258.41C308.055 256.557 306.145 253.752 305.414 250.554C305.342 250.237 304.853 250.365 304.926 250.682C305.692 254.008 307.686 256.924 310.51 258.846C310.779 259.029 311.032 258.592 310.764 258.41H310.764Z" fill="white"/>
<path d="M309.674 230.755C309.085 230.991 308.446 231.077 307.816 231.006C307.185 230.934 306.582 230.707 306.06 230.346C305.794 230.159 305.541 230.596 305.806 230.781C306.384 231.178 307.05 231.428 307.747 231.509C308.443 231.589 309.149 231.498 309.802 231.243C309.866 231.224 309.92 231.181 309.953 231.124C309.987 231.067 309.997 230.999 309.982 230.934C309.965 230.87 309.923 230.815 309.865 230.781C309.808 230.747 309.739 230.738 309.674 230.755Z" fill="white"/>
<path d="M237.988 58.941H0.373227C0.273486 58.9388 0.178566 58.8977 0.1088 58.8264C0.0390343 58.7552 -3.05176e-05 58.6595 -3.05176e-05 58.5598C-3.05176e-05 58.4601 0.0390343 58.3644 0.1088 58.2931C0.178566 58.2218 0.273486 58.1807 0.373227 58.1785H237.988C238.088 58.1807 238.183 58.2218 238.252 58.2931C238.322 58.3644 238.361 58.4601 238.361 58.5598C238.361 58.6595 238.322 58.7552 238.252 58.8264C238.183 58.8977 238.088 58.9388 237.988 58.941Z" fill="#CACACA"/>
<path d="M8.77383 53.6036C11.0413 53.6036 12.8794 51.726 12.8794 49.4099C12.8794 47.0938 11.0413 45.2162 8.77383 45.2162C6.50641 45.2162 4.6683 47.0938 4.6683 49.4099C4.6683 51.726 6.50641 53.6036 8.77383 53.6036Z" fill="#3F3D56"/>
<path d="M22.9566 53.6036C25.224 53.6036 27.0621 51.726 27.0621 49.4099C27.0621 47.0938 25.224 45.2162 22.9566 45.2162C20.6892 45.2162 18.851 47.0938 18.851 49.4099C18.851 51.726 20.6892 53.6036 22.9566 53.6036Z" fill="#3F3D56"/>
<path d="M37.1393 53.6036C39.4067 53.6036 41.2448 51.726 41.2448 49.4099C41.2448 47.0938 39.4067 45.2162 37.1393 45.2162C34.8719 45.2162 33.0338 47.0938 33.0338 49.4099C33.0338 51.726 34.8719 53.6036 37.1393 53.6036Z" fill="#3F3D56"/>
<path d="M229.489 46.2556H219.414C219.215 46.2596 219.024 46.3416 218.885 46.4841C218.745 46.6267 218.667 46.8183 218.667 47.0178C218.667 47.2174 218.745 47.409 218.885 47.5515C219.024 47.6941 219.215 47.7761 219.414 47.7801H229.489C229.689 47.7761 229.879 47.6941 230.019 47.5515C230.159 47.409 230.237 47.2174 230.237 47.0178C230.237 46.8183 230.159 46.6267 230.019 46.4841C229.879 46.3416 229.689 46.2596 229.489 46.2556Z" fill="#3F3D56"/>
<path d="M229.489 49.1168H219.414C219.215 49.1208 219.024 49.2028 218.885 49.3453C218.745 49.4879 218.667 49.6795 218.667 49.8791C218.667 50.0786 218.745 50.2703 218.885 50.4128C219.024 50.5553 219.215 50.6373 219.414 50.6413H229.489C229.689 50.6373 229.879 50.5553 230.019 50.4128C230.159 50.2703 230.237 50.0786 230.237 49.8791C230.237 49.6795 230.159 49.4879 230.019 49.3453C229.879 49.2028 229.689 49.1208 229.489 49.1168Z" fill="#3F3D56"/>
<path d="M229.489 51.9742H219.414C219.215 51.9782 219.024 52.0603 218.885 52.2028C218.745 52.3453 218.667 52.5369 218.667 52.7365C218.667 52.936 218.745 53.1277 218.885 53.2702C219.024 53.4127 219.215 53.4947 219.414 53.4987H229.489C229.689 53.4947 229.879 53.4127 230.019 53.2702C230.159 53.1277 230.237 52.936 230.237 52.7365C230.237 52.5369 230.159 52.3453 230.019 52.2028C229.879 52.0603 229.689 51.9782 229.489 51.9742Z" fill="#3F3D56"/>
<path d="M62.6274 74.4769H51.959C45.9422 86.3131 41.7066 98.9718 39.3892 112.044H62.6274C63.368 112.045 64.1016 111.9 64.786 111.618C65.4705 111.335 66.0924 110.92 66.6161 110.397C67.1397 109.874 67.5549 109.252 67.8377 108.568C68.1205 107.885 68.2654 107.152 68.2641 106.412V80.1054C68.2622 78.6125 67.6676 77.1815 66.6108 76.1262C65.554 75.071 64.1214 74.4778 62.6274 74.4769Z" fill="#CCCCCC"/>
<path d="M141.658 74.4769H93.3212C91.8272 74.4778 90.3946 75.071 89.3378 76.1263C88.281 77.1815 87.6864 78.6125 87.6844 80.1054V106.412C87.6863 107.905 88.2807 109.336 89.3374 110.392C90.3941 111.448 91.8268 112.042 93.3212 112.044H141.658C143.152 112.042 144.585 111.448 145.642 110.392C146.698 109.336 147.293 107.905 147.295 106.412V80.1054C147.293 78.6125 146.698 77.1815 145.641 76.1263C144.584 75.071 143.152 74.4778 141.658 74.4769Z" fill="#CCCCCC"/>
<path d="M220.688 74.4769H172.352C170.858 74.4778 169.425 75.071 168.368 76.1263C167.311 77.1815 166.717 78.6125 166.715 80.1054V106.412C166.717 107.905 167.311 109.336 168.368 110.392C169.425 111.448 170.857 112.042 172.352 112.044H220.688C222.183 112.042 223.615 111.448 224.672 110.392C225.729 109.336 226.323 107.905 226.325 106.412V80.1054C226.323 78.6125 225.728 77.1815 224.672 76.1263C223.615 75.071 222.182 74.4778 220.688 74.4769Z" fill="#CCCCCC"/>
<path d="M62.6274 129.673H37.4388C37.3449 131.745 37.2973 133.829 37.296 135.925C37.2887 146.468 38.5068 156.977 40.9261 167.24H62.6274C64.1218 167.238 65.5545 166.644 66.6111 165.588C67.6678 164.532 68.2623 163.101 68.2641 161.607V135.301C68.2621 133.808 67.6675 132.377 66.6108 131.322C65.554 130.267 64.1214 129.674 62.6274 129.673Z" fill="#CCCCCC"/>
<path d="M141.658 129.673H93.3212C91.8272 129.674 90.3946 130.267 89.3378 131.322C88.281 132.377 87.6864 133.808 87.6844 135.301V161.607C87.6863 163.101 88.2807 164.532 89.3374 165.588C90.3941 166.644 91.8268 167.238 93.3212 167.24H141.658C143.152 167.238 144.585 166.644 145.642 165.588C146.698 164.532 147.293 163.101 147.295 161.607V135.301C147.293 133.808 146.698 132.377 145.641 131.322C144.584 130.267 143.152 129.674 141.658 129.673Z" fill="#CCCCCC"/>
<path d="M220.688 129.673H172.352C170.858 129.674 169.425 130.267 168.368 131.322C167.311 132.377 166.717 133.808 166.715 135.301V161.607C166.717 163.101 167.311 164.532 168.368 165.588C169.425 166.644 170.857 167.238 172.352 167.24H220.688C220.842 167.24 220.996 167.232 221.15 167.217C221.754 167.173 222.346 167.027 222.902 166.785C223.908 166.355 224.768 165.641 225.376 164.731C225.984 163.821 226.313 162.754 226.325 161.66V135.301C226.323 133.808 225.728 132.377 224.672 131.322C223.615 130.267 222.182 129.674 220.688 129.673Z" fill="#CCCCCC"/>
<path d="M63.6363 118.327C69.8124 118.327 74.8192 113.324 74.8192 107.153C74.8192 100.981 69.8124 95.9785 63.6363 95.9785C57.4601 95.9785 52.4534 100.981 52.4534 107.153C52.4534 113.324 57.4601 118.327 63.6363 118.327Z" fill="#00B0FF"/>
<path d="M62.1107 112.968C61.9176 112.968 61.7271 112.923 61.5544 112.837C61.3817 112.751 61.2315 112.625 61.1156 112.471L58.0648 108.406C57.9667 108.276 57.8954 108.127 57.8549 107.969C57.8144 107.811 57.8054 107.646 57.8285 107.485C57.8516 107.323 57.9063 107.168 57.9896 107.027C58.0728 106.887 58.1829 106.764 58.3136 106.666C58.4443 106.568 58.593 106.497 58.7512 106.456C58.9095 106.416 59.0742 106.407 59.2359 106.43C59.3976 106.453 59.5532 106.508 59.6937 106.591C59.8343 106.674 59.9571 106.784 60.0551 106.915L62.0511 109.574L67.1775 101.89C67.268 101.754 67.3845 101.637 67.5202 101.546C67.656 101.455 67.8084 101.392 67.9687 101.36C68.1289 101.328 68.294 101.327 68.4544 101.359C68.6147 101.391 68.7673 101.454 68.9033 101.544C69.0394 101.635 69.1562 101.751 69.2471 101.887C69.338 102.023 69.4013 102.175 69.4333 102.335C69.4652 102.496 69.4653 102.661 69.4334 102.821C69.4016 102.981 69.3384 103.133 69.2476 103.269L63.1458 112.415C63.0354 112.58 62.887 112.717 62.7129 112.813C62.5388 112.909 62.3442 112.962 62.1453 112.968C62.1338 112.968 62.1222 112.968 62.1107 112.968Z" fill="white"/>
<path d="M145.181 119.453C151.357 119.453 156.364 114.45 156.364 108.279C156.364 102.108 151.357 97.1049 145.181 97.1049C139.004 97.1049 133.998 102.108 133.998 108.279C133.998 114.45 139.004 119.453 145.181 119.453Z" fill="#00B0FF"/>
<path d="M143.655 114.095C143.462 114.095 143.271 114.05 143.099 113.963C142.926 113.877 142.776 113.752 142.66 113.597L139.609 109.533C139.511 109.402 139.44 109.253 139.399 109.095C139.359 108.937 139.35 108.773 139.373 108.611C139.396 108.449 139.451 108.294 139.534 108.154C139.617 108.013 139.727 107.89 139.858 107.792C139.989 107.695 140.137 107.623 140.296 107.583C140.454 107.542 140.619 107.533 140.78 107.556C140.942 107.58 141.098 107.634 141.238 107.717C141.379 107.801 141.501 107.911 141.599 108.041L143.595 110.7L148.722 103.017C148.905 102.743 149.19 102.553 149.513 102.488C149.836 102.424 150.172 102.49 150.446 102.673C150.72 102.856 150.911 103.14 150.976 103.463C151.041 103.786 150.975 104.121 150.792 104.396L144.69 113.541C144.58 113.706 144.431 113.843 144.257 113.939C144.083 114.035 143.889 114.089 143.69 114.094C143.678 114.094 143.667 114.095 143.655 114.095Z" fill="white"/>
<path d="M304.875 168.492L301.374 134.637L300.45 120.704L310.248 118.933C310.248 118.933 311.715 128.512 312.998 134.133C314.265 139.68 311.311 167.749 311.233 168.489C311.952 169.132 312.46 169.978 312.687 170.915C312.915 171.852 312.853 172.837 312.509 173.738C312.165 174.639 311.555 175.414 310.76 175.961C309.965 176.509 309.023 176.802 308.058 176.802C307.092 176.803 306.15 176.511 305.354 175.964C304.559 175.418 303.949 174.643 303.604 173.742C303.259 172.841 303.195 171.857 303.422 170.92C303.649 169.982 304.156 169.136 304.875 168.492Z" fill="#A0616A"/>
<path d="M279.8 269.267L274.941 270.377L268.345 252.179L275.516 250.541L279.8 269.267Z" fill="#A0616A"/>
<path d="M280.678 267.4L279.438 267.681L279.31 267.711L273.639 266.787L273.474 266.761L271.107 269.585C269.489 269.955 268.085 270.951 267.203 272.355C266.321 273.759 266.032 275.456 266.402 277.072L266.409 277.106L266.451 277.271L267.172 277.106L282.117 273.689L280.678 267.4Z" fill="#2F2E41"/>
<path d="M308.766 272.442H303.781L301.411 253.232L308.766 253.232L308.766 272.442Z" fill="#A0616A"/>
<path d="M308.636 270.816L308.2 270.64L303.315 268.654L303.157 268.59L300.222 270.816C299.401 270.816 298.587 270.978 297.828 271.291C297.069 271.605 296.38 272.065 295.799 272.646C295.218 273.226 294.757 273.915 294.442 274.673C294.128 275.431 293.966 276.244 293.965 277.064V277.267L307.723 277.271H310.038V270.816H308.636Z" fill="#2F2E41"/>
<path d="M301.185 169.63L305.377 209.424C305.377 209.424 310.958 249.269 309.91 254.767C308.862 260.265 310.172 261.05 310.172 261.05L300.609 260.37C300.609 260.37 300.871 256.966 299.299 255.396C297.727 253.825 298.513 249.112 298.513 249.112L279.962 184.291L268.696 218.325C268.696 218.325 275.813 245.925 275.551 246.449C275.289 246.973 280.061 258.464 280.061 258.464L269.385 262.002C269.385 262.002 270.695 257.813 268.861 256.504C267.027 255.195 265.455 256.242 267.027 253.886C268.599 251.529 254.641 234.225 254.948 223.073C255.04 219.719 255.152 216.119 255.286 212.431C255.996 192.916 257.336 170.927 259.787 169.63C264.242 167.274 301.185 169.63 301.185 169.63Z" fill="#2F2E41"/>
<path d="M281.332 89.0579C287.026 89.0579 291.643 84.4452 291.643 78.7552C291.643 73.0652 287.026 68.4525 281.332 68.4525C275.637 68.4525 271.021 73.0652 271.021 78.7552C271.021 84.4452 275.637 89.0579 281.332 89.0579Z" fill="#A0616A"/>
<path d="M315.76 141.689L301.759 145.241L301.856 141.314L300.793 140.188L298.67 129.074L296.416 100.302L304.153 104.402L304.162 104.41C305.513 105.895 306.643 107.566 307.517 109.373C310.434 115.298 313.235 128.348 314.702 135.927C314.752 136.086 314.85 136.226 314.981 136.329C315.709 136.996 316.183 137.894 316.325 138.871C316.467 139.847 316.267 140.843 315.76 141.69V141.689Z" fill="#3F3D56"/>
<path d="M233.022 154.421C233.022 154.421 252.347 134.063 252.527 133.68C253.877 123.436 257.76 118.918 258.342 119.408L268.363 122.877C268.363 122.877 265.382 132.309 263.364 137.911C261.436 143.265 239.21 156.34 238.839 156.986C239.237 157.864 239.359 158.843 239.189 159.792C239.018 160.741 238.563 161.617 237.884 162.302C237.205 162.987 236.333 163.45 235.385 163.63C234.437 163.81 233.456 163.698 232.573 163.308C231.69 162.919 230.946 162.271 230.439 161.45C229.933 160.629 229.687 159.674 229.736 158.711C229.785 157.747 230.125 156.822 230.711 156.056C231.298 155.29 232.104 154.72 233.022 154.421Z" fill="#A0616A"/>
<path d="M273.177 102.155C273.177 102.155 264.501 97.9063 261.136 106.251C259.291 110.962 254.572 122.396 252.221 129.435C252.205 129.479 252.184 129.522 252.157 129.561C251.528 130.495 251.189 131.593 251.181 132.718C251.182 132.8 251.174 132.882 251.156 132.962C251.156 132.962 260.69 134.818 263.526 139.812L264.651 138.592L264.851 137.738L273.177 102.155Z" fill="#3F3D56"/>
<path d="M304.748 173.968C284.78 178.088 258.318 171.004 258.318 171.004L265.377 140.429L262.867 108.431C262.561 104.518 264.791 100.85 268.261 99.5502L273.052 97.7571L277.013 92.0918L288.325 92.4627L292.847 98.4104L296.416 100.302L304.153 104.402L304.187 104.419V104.436L301.759 127.968L300.294 142.157C300.294 142.157 304.742 158.115 303.829 160.231C302.916 162.344 303.71 161.324 303.931 162.453C304.152 163.583 304.83 163.654 304.932 165.88C305.038 168.102 304.748 173.968 304.748 173.968Z" fill="#3F3D56"/>
<path d="M292.517 75.0865C291.702 74.2833 292.929 72.1569 292.697 71.0368C292.432 69.7527 291.015 69.7151 290.678 68.448C290.314 67.0849 288.861 66.3428 287.517 65.9108C284.072 64.8094 280.396 64.6412 276.865 65.4233C275.302 65.8046 273.763 66.2783 272.256 66.8418C271.216 67.2075 272.219 66.2122 271.179 66.578C270.785 66.6657 270.438 66.896 270.204 67.2245C270.017 67.5778 270.269 68.1427 270.662 68.0712C269.393 68.6307 268.123 69.1902 266.853 69.7497C267.565 70.4951 268.277 71.2405 268.99 71.986C267.977 71.6981 266.898 72.9042 267.297 73.8773C267.458 74.1846 267.69 74.4481 267.976 74.6454C268.261 74.8427 268.59 74.9677 268.934 75.0097C270.078 75.2321 269.21 76.3198 270.375 76.2986C271.54 76.2774 279.664 73.8912 280.231 74.9087C280.634 75.6332 280.59 76.5929 281.166 77.1899C281.902 77.9536 283.189 77.6743 284.126 77.1771C285.064 76.6799 286.015 75.9965 287.07 76.1157C288.171 76.2402 289.004 78.2737 289.276 79.3476C289.547 80.4214 289.376 81.5512 289.203 82.6452C288.976 84.0819 286.706 85.5186 286.48 86.9553C288.999 87.6515 291.701 85.4366 292.697 81.5848C292.598 79.1499 294.253 76.798 292.517 75.0865Z" fill="#2F2E41"/>
<path d="M223.343 172.771C229.519 172.771 234.526 167.769 234.526 161.597C234.526 155.426 229.519 150.423 223.343 150.423C217.167 150.423 212.16 155.426 212.16 161.597C212.16 167.769 217.167 172.771 223.343 172.771Z" fill="#00B0FF"/>
<path d="M221.817 167.413C221.624 167.413 221.434 167.368 221.261 167.282C221.088 167.195 220.938 167.07 220.822 166.916L217.771 162.851C217.673 162.72 217.602 162.572 217.562 162.414C217.521 162.256 217.512 162.091 217.535 161.93C217.558 161.768 217.613 161.613 217.696 161.472C217.78 161.332 217.89 161.209 218.02 161.111C218.151 161.013 218.3 160.942 218.458 160.901C218.616 160.861 218.781 160.852 218.943 160.875C219.104 160.898 219.26 160.953 219.4 161.036C219.541 161.119 219.664 161.229 219.762 161.36L221.758 164.019L226.884 156.335C226.975 156.199 227.091 156.082 227.227 155.991C227.363 155.9 227.515 155.837 227.675 155.805C227.836 155.773 228.001 155.772 228.161 155.804C228.322 155.836 228.474 155.899 228.61 155.989C228.746 156.08 228.863 156.196 228.954 156.332C229.045 156.468 229.108 156.62 229.14 156.78C229.172 156.941 229.172 157.106 229.14 157.266C229.108 157.426 229.045 157.578 228.954 157.714L222.853 166.859C222.742 167.025 222.594 167.161 222.42 167.258C222.246 167.354 222.051 167.407 221.852 167.413C221.841 167.413 221.829 167.413 221.817 167.413Z" fill="white"/>
<path d="M343.819 277.553C343.819 277.612 343.807 277.67 343.785 277.724C343.763 277.779 343.73 277.828 343.688 277.869C343.647 277.911 343.597 277.944 343.543 277.966C343.488 277.989 343.43 278 343.371 278H238.044C237.925 278 237.812 277.953 237.728 277.869C237.644 277.785 237.597 277.672 237.597 277.553C237.597 277.435 237.644 277.321 237.728 277.237C237.812 277.153 237.925 277.106 238.044 277.106H343.371C343.43 277.106 343.488 277.118 343.543 277.14C343.597 277.162 343.647 277.195 343.688 277.237C343.73 277.278 343.763 277.328 343.785 277.382C343.807 277.436 343.819 277.494 343.819 277.553Z" fill="#CCCCCC"/>
</g>
<defs>
<clipPath id="clip0_1_960">
<rect width="346" height="278" fill="white"/>
</clipPath>
</defs>
</svg>
