<svg width="406" height="306" viewBox="0 0 406 306" fill="none" xmlns="http://www.w3.org/2000/svg">
<path opacity="0.45" d="M205.233 246.522C299.734 246.522 376.342 241.682 376.342 235.712C376.342 229.742 299.734 224.903 205.233 224.903C110.732 224.903 34.1243 229.742 34.1243 235.712C34.1243 241.682 110.732 246.522 205.233 246.522Z" fill="#E6E6E6"/>
<path d="M65.4829 163.151L54.0962 157.625L52.5716 160.766L63.9583 166.293L65.4829 163.151Z" fill="#24285B"/>
<path d="M75.8998 171.28L41.2648 154.469L29.6398 178.421L64.2748 195.231L75.8998 171.28Z" fill="#FFD200"/>
<path d="M151.519 90.7196C151.519 90.7196 226.629 105.295 243.986 115.699L239.926 125.849C239.926 125.849 195.621 114.359 162.319 118.236L151.519 90.7196Z" fill="#4945FF"/>
<path opacity="0.08" d="M151.519 90.7196C151.519 90.7196 226.629 105.295 243.986 115.699L239.926 125.849C239.926 125.849 195.621 114.359 162.319 118.236L151.519 90.7196Z" fill="black"/>
<path d="M240.859 123.565C240.859 123.565 249.609 129.33 249.934 127.625C250.258 125.92 248.249 123.768 248.249 123.768C248.249 123.768 258.155 123.382 258.399 121.017C258.642 118.652 243.935 115.678 243.935 115.678L240.859 123.565Z" fill="#F4A28C"/>
<path d="M181.34 231.876C181.34 231.876 183.025 234.982 186.039 234.779C189.054 234.576 190.272 237.357 187.714 238.524C185.156 239.691 177.747 237.316 177.747 237.316L177.148 231.845L181.34 231.876Z" fill="#4945FF"/>
<path d="M67.7716 216.082C67.7716 216.082 64.4525 217.29 64.2089 220.295C63.9653 223.299 61.032 224.101 60.2504 221.401C59.4689 218.701 62.93 211.718 62.93 211.718L68.4313 211.951L67.7716 216.082Z" fill="#4945FF"/>
<path d="M147.337 70.0441C147.673 72.9242 147.618 75.8365 147.175 78.702C147.105 79.0427 146.968 79.3661 146.772 79.6533C146.576 79.9405 146.324 80.1857 146.033 80.3747C145.741 80.5637 145.414 80.6926 145.072 80.754C144.729 80.8153 144.378 80.8078 144.039 80.732C142.94 80.5505 141.916 80.0555 141.092 79.3065C140.267 78.5574 139.676 77.5863 139.39 76.5096L137.705 72.003C137.458 71.0626 137.51 70.0686 137.854 69.1591C138.197 68.2496 138.816 67.4698 139.623 66.928C142.486 64.695 147.175 66.8773 147.337 70.0441Z" fill="#F4A28C"/>
<path d="M137.989 72.7744L135.787 89.7148L145.216 90.2527L143.034 77.7073L137.989 72.7744Z" fill="#F4A28C"/>
<path d="M141.927 74.6623C141.927 74.6623 141.826 72.6323 140.324 72.8556C138.822 73.0789 138.943 75.9006 141.004 76.1645L141.927 74.6623Z" fill="#F4A28C"/>
<path d="M147.54 73.3326L149.053 75.2916C149.138 75.404 149.193 75.5359 149.214 75.6753C149.235 75.8146 149.22 75.9569 149.172 76.0892C149.123 76.2215 149.042 76.3395 148.936 76.4324C148.83 76.5254 148.703 76.5903 148.566 76.6212L146.536 77.0475L147.54 73.3326Z" fill="#F4A28C"/>
<path opacity="0.31" d="M143.622 80.4377C142.443 80.1753 141.366 79.5717 140.527 78.702C140.527 78.702 140.75 81.8282 144.262 84.792L143.622 80.4377Z" fill="#CE8172"/>
<path d="M111.65 172.082C111.65 172.082 106.575 187.987 117.304 192.088C122.297 193.986 134.559 193.976 146.241 193.417C153.347 193.089 160.301 195.548 165.62 200.271C170.94 204.993 174.206 211.606 174.722 218.701L175.666 231.399L181.228 231.876L183.167 209.14C183.841 201.228 181.373 193.369 176.298 187.262C171.223 181.156 163.948 177.292 156.046 176.507L111.65 172.082Z" fill="#24285B"/>
<path d="M137.644 75.4236L136.426 68.3186C136.426 68.3186 133.625 66.1668 135.959 64.1672C138.294 62.1677 139.908 64.086 141.927 61.1222C142.205 60.5489 142.656 60.077 143.215 59.7731C143.775 59.4692 144.416 59.3486 145.048 59.4281C145.68 59.5077 146.272 59.7835 146.739 60.2167C147.206 60.6498 147.525 61.2186 147.652 61.8429C148.16 63.9744 152.971 63.7105 151.712 66.6743C150.453 69.6381 146.201 69.4249 144.993 69.3539C139.694 69.0392 143.663 76.5096 137.644 75.4236Z" fill="#24285B"/>
<path d="M137.33 89.4305L139.258 89.2478C143.642 88.8033 148.069 89.3865 152.188 90.951C156.307 92.5155 160.005 95.0184 162.989 98.261C165.535 101.108 167.466 104.449 168.663 108.076C173.981 124.113 149.865 175.888 149.865 175.888L111.65 172.082C111.65 172.082 92.5782 90.3034 137.33 89.4305Z" fill="#4945FF"/>
<path opacity="0.08" d="M148.637 104.787C148.21 109.87 146.513 114.765 143.702 119.021C140.891 123.277 137.056 126.759 132.549 129.147C116.847 137.673 130.793 174.234 130.793 174.234L111.65 172.082C111.65 172.082 106.951 149.001 107.59 136.993C108.229 124.986 115.568 101.56 148.637 104.787Z" fill="black"/>
<path d="M141.471 91.8158C144.627 93.1822 147.235 95.5654 148.88 98.5858C150.728 102.077 151.529 107.081 147.368 113.09C139.055 125.108 101.388 85.6852 65.2442 155.345L57.1242 151.955C57.1242 151.955 85.0875 66.522 141.471 91.8158Z" fill="#4945FF"/>
<path opacity="0.46" d="M141.471 91.8158C144.627 93.1822 147.235 95.5654 148.88 98.5858C150.728 102.077 151.529 107.081 147.368 113.09C139.055 125.108 101.388 85.6852 65.2442 155.345L57.1242 151.955C57.1242 151.955 85.0875 66.522 141.471 91.8158Z" fill="white"/>
<path d="M58.9309 152.695C58.9309 152.695 55.0536 158.938 57.6317 161.13C60.2098 163.323 64.6149 164.49 65.2442 155.345L58.9309 152.695Z" fill="#F4A28C"/>
<path d="M111.295 174.203C110.676 175.381 96.0698 210.51 87.6656 212.773C79.2614 215.037 67.3656 211.373 67.3656 211.373L66.6855 217.463C66.6855 217.463 85.5341 226.466 98.3941 223.116C111.254 219.767 133.98 188.525 133.98 188.525L113.101 174.538" fill="#24285B"/>
<path d="M260.855 212.185V218.346C260.855 221.137 253.07 223.421 243.478 223.421C233.886 223.421 226.112 221.127 226.112 218.346V212.185H260.855Z" fill="#FFD200"/>
<path d="M260.855 219.604V225.765C260.855 228.557 253.07 230.84 243.478 230.79C233.886 230.739 226.101 228.496 226.112 225.715V219.564L260.855 219.604Z" fill="#FFD200"/>
<path opacity="0.08" d="M260.855 219.604V225.765C260.855 228.557 253.07 230.84 243.478 230.79C233.886 230.739 226.101 228.496 226.112 225.715V219.564L260.855 219.604Z" fill="black"/>
<path d="M260.508 219.417C260.513 216.654 252.809 214.4 243.302 214.383C233.795 214.367 226.084 216.594 226.079 219.357C226.074 222.121 233.778 224.375 243.285 224.391C252.792 224.408 260.503 222.181 260.508 219.417Z" fill="#FFD200"/>
<path opacity="0.08" d="M260.855 212.185V218.346C260.855 221.137 253.07 223.421 243.478 223.421C233.886 223.421 226.112 221.127 226.112 218.346V212.185H260.855Z" fill="black"/>
<path d="M259.586 204.826V210.987C259.586 213.778 251.801 216.062 242.209 216.062C232.618 216.062 224.833 213.768 224.843 210.987V204.765L259.586 204.826Z" fill="#FFD200"/>
<path d="M260.855 197.406V203.567C260.855 206.348 253.06 208.642 243.468 208.642C233.876 208.642 226.101 206.348 226.112 203.567V197.406H260.855Z" fill="#FFD200"/>
<path d="M260.528 212.056C260.533 209.292 252.83 207.039 243.323 207.022C233.815 207.005 226.104 209.232 226.099 211.996C226.095 214.76 233.798 217.013 243.305 217.03C252.812 217.047 260.523 214.82 260.528 212.056Z" fill="#FFD200"/>
<path opacity="0.08" d="M259.586 204.826V210.987C259.586 213.778 251.801 216.062 242.209 216.062C232.618 216.062 224.833 213.768 224.843 210.987V204.765L259.586 204.826Z" fill="black"/>
<path d="M259.278 204.766C259.282 202.002 251.579 199.748 242.072 199.732C232.565 199.715 224.854 201.942 224.849 204.706C224.844 207.469 232.547 209.723 242.054 209.74C251.562 209.756 259.273 207.529 259.278 204.766Z" fill="#FFD200"/>
<path opacity="0.08" d="M260.855 197.406V203.567C260.855 206.348 253.06 208.642 243.468 208.642C233.876 208.642 226.101 206.348 226.112 203.567V197.406H260.855Z" fill="black"/>
<path d="M260.874 197.415C260.878 194.651 253.103 192.397 243.506 192.38C233.909 192.364 226.125 194.59 226.12 197.354C226.115 200.118 233.891 202.372 243.488 202.388C253.085 202.405 260.869 200.178 260.874 197.415Z" fill="#FFD200"/>
<path d="M318.416 152.066C318.416 152.066 330.19 174.396 332.981 198.147C335.772 221.898 328.464 238.361 288.189 235.641C247.914 232.921 238.17 216.437 245.559 194.513C252.948 172.589 285.144 146.159 285.144 146.159L318.416 152.066Z" fill="#24285B"/>
<path d="M318.416 152.066C318.416 152.066 339.061 139.095 333.641 129.675C328.221 120.256 315.015 122.57 308.174 119.19C301.333 115.81 264.621 109.883 285.144 146.159L318.416 152.066Z" fill="#24285B"/>
<path d="M315.594 146.819C315.594 146.819 294.827 142.88 277.359 143.489" stroke="#FFD200" stroke-width="3.045" stroke-linecap="round" stroke-linejoin="round"/>
<path d="M284.078 146.017C284.078 146.017 275.552 121.413 262.124 132.933C248.695 144.454 283.246 146.017 283.246 146.017C283.246 146.017 249.243 154.137 265.24 167.738C281.236 181.339 284.078 146.017 284.078 146.017Z" stroke="#FFD200" stroke-width="3.045" stroke-linecap="round" stroke-linejoin="round"/>
<path d="M282.302 216.062C293.497 216.062 302.572 206.987 302.572 195.792C302.572 184.598 293.497 175.523 282.302 175.523C271.107 175.523 262.032 184.598 262.032 195.792C262.032 206.987 271.107 216.062 282.302 216.062Z" fill="#4945FF"/>
<path d="M287.245 185.734C287.874 185.927 288.006 186.201 287.813 186.83L287.397 188.17C288.469 188.624 289.397 189.362 290.08 190.305C290.763 191.247 291.176 192.359 291.275 193.519C291.406 194.28 291.153 194.585 290.32 194.696L288.788 194.889C288.067 194.991 287.773 194.767 287.651 193.996C287.578 193.231 287.261 192.51 286.748 191.938C286.235 191.366 285.551 190.974 284.799 190.819C282.464 190.108 281.196 190.464 280.739 192.027C280.645 192.521 280.726 193.033 280.969 193.474C281.211 193.915 281.6 194.258 282.068 194.442C282.675 194.782 283.302 195.084 283.946 195.346C285.17 195.78 286.322 196.392 287.367 197.163C287.896 197.534 288.353 197.998 288.717 198.533C289.045 199.193 289.238 199.911 289.285 200.647C289.332 201.382 289.232 202.12 288.991 202.816C288.077 205.8 285.459 207.211 281.774 206.653L281.338 208.074C281.145 208.703 280.891 208.866 280.252 208.673L278.749 208.216C278.12 208.023 277.968 207.739 278.161 207.11L278.587 205.709C277.385 205.253 276.346 204.449 275.601 203.401C274.856 202.353 274.44 201.107 274.405 199.822C274.405 199.152 274.71 198.807 275.42 198.807L276.912 198.716C277.663 198.716 277.927 198.939 278.008 199.731C278.062 200.551 278.384 201.33 278.925 201.949C279.467 202.567 280.197 202.99 281.003 203.151C283.52 203.923 285.063 203.517 285.519 201.903C285.646 201.539 285.65 201.143 285.531 200.777C285.412 200.41 285.176 200.093 284.86 199.873C284.081 199.301 283.223 198.846 282.312 198.523C281.077 198.068 279.92 197.424 278.881 196.615C278.368 196.23 277.925 195.76 277.572 195.224C277.229 194.589 277.021 193.889 276.961 193.169C276.902 192.449 276.992 191.725 277.227 191.042C278.13 188.089 280.597 186.688 284.241 187.297L284.657 185.947C284.85 185.318 285.134 185.165 285.763 185.358L287.245 185.734Z" fill="white"/>
<path d="M333.661 129.269C333.661 129.269 337.589 136.73 329.225 137.745C320.862 138.76 314 131.066 307.352 132.771C300.704 134.476 281.378 137.613 278.932 128.427C276.486 119.241 288.29 114.887 296.116 116.013C303.942 117.14 331.519 120.52 333.661 129.269Z" fill="#4945FF"/>
<path d="M351.586 213.098V219.99C351.586 223.116 342.867 225.633 332.128 225.613C321.39 225.593 312.691 223.045 312.691 219.919V213.027L351.586 213.098Z" fill="#FFD200"/>
<path d="M351.566 221.401V228.293C351.566 231.419 342.857 233.936 332.118 233.916C321.379 233.896 312.671 231.358 312.681 228.232V221.34L351.566 221.401Z" fill="#FFD200"/>
<path opacity="0.08" d="M351.566 221.401V228.293C351.566 231.419 342.857 233.936 332.118 233.916C321.379 233.896 312.671 231.358 312.681 228.232V221.34L351.566 221.401Z" fill="black"/>
<path d="M351.211 221.19C351.216 218.096 342.595 215.572 331.956 215.554C321.316 215.535 312.687 218.029 312.681 221.123C312.676 224.217 321.297 226.741 331.936 226.759C342.576 226.778 351.205 224.285 351.211 221.19Z" fill="#FFD200"/>
<path opacity="0.08" d="M351.586 213.098V219.99C351.586 223.116 342.867 225.633 332.128 225.613C321.39 225.593 312.691 223.045 312.691 219.919V213.027L351.586 213.098Z" fill="black"/>
<path d="M350.175 204.856V211.748C350.175 214.874 341.456 217.392 330.717 217.371C319.979 217.351 311.28 214.803 311.28 211.687V204.765L350.175 204.856Z" fill="#FFD200"/>
<path d="M351.606 196.554V203.446C351.606 206.572 342.897 209.089 332.159 209.069C321.42 209.048 312.711 206.501 312.722 203.374V196.483L351.606 196.554Z" fill="#FFD200"/>
<path d="M351.231 212.954C351.236 209.86 342.616 207.337 331.976 207.318C321.337 207.299 312.707 209.793 312.702 212.887C312.696 215.982 321.317 218.505 331.957 218.524C342.596 218.542 351.226 216.049 351.231 212.954Z" fill="#FFD200"/>
<path opacity="0.08" d="M350.175 204.856V211.748C350.175 214.874 341.456 217.392 330.717 217.371C319.979 217.351 311.28 214.803 311.28 211.687V204.765L350.175 204.856Z" fill="black"/>
<path d="M349.848 204.8C349.854 201.706 341.233 199.182 330.593 199.163C319.954 199.145 311.324 201.638 311.319 204.733C311.313 207.827 319.934 210.351 330.574 210.369C341.213 210.388 349.843 207.894 349.848 204.8Z" fill="#FFD200"/>
<path opacity="0.08" d="M351.606 196.554V203.446C351.606 206.572 342.897 209.089 332.159 209.069C321.42 209.048 312.711 206.501 312.722 203.374V196.483L351.606 196.554Z" fill="black"/>
<path opacity="0.08" d="M350.845 235.205C358.816 235.205 365.278 228.743 365.278 220.772C365.278 212.8 358.816 206.338 350.845 206.338C342.874 206.338 336.412 212.8 336.412 220.772C336.412 228.743 342.874 235.205 350.845 235.205Z" fill="black"/>
<path opacity="0.08" d="M341.243 206.328C341.243 206.328 326.13 210.936 328.556 233.824C328.556 233.824 338.411 234.149 343.08 232.952C347.262 231.876 341.243 206.328 341.243 206.328Z" fill="black"/>
<path d="M351.627 196.564C351.633 193.47 342.93 190.946 332.19 190.928C321.449 190.909 312.738 193.402 312.733 196.496C312.727 199.591 321.43 202.114 332.17 202.133C342.911 202.152 351.622 199.659 351.627 196.564Z" fill="#FFD200"/>
<path d="M350.845 235.205C358.816 235.205 365.278 228.743 365.278 220.772C365.278 212.8 358.816 206.338 350.845 206.338C342.874 206.338 336.412 212.8 336.412 220.772C336.412 228.743 342.874 235.205 350.845 235.205Z" fill="#FFD200"/>
<path opacity="0.08" d="M350.845 235.205C358.816 235.205 365.278 228.743 365.278 220.772C365.278 212.8 358.816 206.338 350.845 206.338C342.874 206.338 336.412 212.8 336.412 220.772C336.412 228.743 342.874 235.205 350.845 235.205Z" fill="black"/>
<g opacity="0.08">
<path opacity="0.08" d="M351.545 230.861C359.517 230.861 365.979 224.399 365.979 216.427C365.979 208.456 359.517 201.994 351.545 201.994C343.574 201.994 337.112 208.456 337.112 216.427C337.112 224.399 343.574 230.861 351.545 230.861Z" fill="black"/>
</g>
<path d="M351.545 230.861C359.517 230.861 365.979 224.399 365.979 216.427C365.979 208.456 359.517 201.994 351.545 201.994C343.574 201.994 337.112 208.456 337.112 216.427C337.112 224.399 343.574 230.861 351.545 230.861Z" fill="#FFD200"/>
<path d="M352.012 209.972C352.418 209.972 352.55 210.114 352.55 210.52V211.393C353.266 211.47 353.947 211.74 354.521 212.175C355.095 212.609 355.54 213.191 355.808 213.859C356.021 214.286 355.94 214.519 355.453 214.732L354.59 215.118C354.174 215.311 353.981 215.23 353.748 214.803C353.568 214.362 353.251 213.99 352.843 213.743C352.436 213.496 351.959 213.387 351.484 213.433C349.972 213.433 349.282 213.88 349.282 214.885C349.316 215.194 349.455 215.482 349.677 215.701C349.899 215.919 350.19 216.054 350.5 216.082C350.921 216.175 351.349 216.239 351.779 216.275C352.584 216.317 353.38 216.471 354.144 216.732C354.512 216.861 354.856 217.053 355.159 217.3C355.473 217.631 355.719 218.022 355.881 218.449C356.043 218.876 356.118 219.331 356.103 219.787C356.103 221.726 354.803 223.035 352.52 223.37V224.294C352.52 224.7 352.388 224.842 351.982 224.842H350.967C350.561 224.842 350.419 224.7 350.419 224.294V223.39C349.624 223.334 348.863 223.045 348.232 222.559C347.6 222.074 347.125 221.413 346.866 220.66C346.827 220.58 346.807 220.493 346.807 220.404C346.807 220.316 346.828 220.228 346.867 220.149C346.906 220.069 346.963 220 347.033 219.946C347.103 219.892 347.185 219.855 347.272 219.838L348.145 219.523C348.592 219.361 348.784 219.523 348.977 219.909C349.156 220.387 349.488 220.792 349.921 221.062C350.354 221.332 350.865 221.451 351.373 221.401C353.007 221.401 353.819 220.893 353.819 219.838C353.834 219.596 353.767 219.356 353.629 219.157C353.491 218.958 353.289 218.812 353.058 218.742C352.492 218.544 351.9 218.431 351.302 218.407C350.488 218.354 349.688 218.18 348.927 217.889C348.557 217.752 348.214 217.553 347.912 217.3C347.595 216.985 347.347 216.608 347.183 216.192C347.018 215.776 346.942 215.331 346.957 214.885C346.957 212.976 348.165 211.697 350.439 211.393V210.52C350.439 210.114 350.581 209.972 350.987 209.972H352.012Z" fill="white"/>
</svg>
