<svg width="399" height="247" viewBox="0 0 399 247" fill="none" xmlns="http://www.w3.org/2000/svg">
<g clip-path="url(#clip0_1_924)">
<path d="M346.727 193.681C346.638 193.569 346.55 193.456 346.463 193.343C346.375 193.23 346.288 193.117 346.201 193.003C346.115 192.89 346.029 192.776 345.943 192.661C345.857 192.547 345.771 192.432 345.686 192.317C345.544 189.007 345.542 185.726 345.68 182.475C345.815 179.247 346.089 176.057 346.501 172.906C346.907 169.779 347.446 166.7 348.117 163.67C348.782 160.662 349.576 157.711 350.497 154.818C350.602 154.484 350.709 154.152 350.817 153.821C350.926 153.49 351.037 153.161 351.15 152.834C351.262 152.506 351.376 152.179 351.492 151.854C351.608 151.529 351.726 151.204 351.846 150.882C352.733 148.465 353.709 146.108 354.775 143.81C355.833 141.528 356.976 139.309 358.204 137.153C359.422 135.012 360.721 132.937 362.1 130.928C363.47 128.935 364.916 127.01 366.438 125.156L366.678 124.865L366.918 124.576L367.16 124.288L367.402 124.002L367.577 123.796L367.753 123.591C367.812 123.523 367.871 123.456 367.931 123.388C367.99 123.321 368.051 123.254 368.112 123.188L368.257 123.109L368.4 123.031L368.543 122.953L368.686 122.875L368.695 122.872L368.704 122.868L368.713 122.863L368.722 122.86L368.779 122.828L368.836 122.797L368.892 122.765L368.946 122.733L369.195 122.6L369.443 122.469L369.69 122.338L369.936 122.206L369.748 122.112L369.277 121.878L369.281 121.876C369.321 121.893 369.361 121.912 369.401 121.931C369.441 121.95 369.481 121.969 369.521 121.986C369.561 122.005 369.601 122.024 369.641 122.043C369.68 122.061 369.72 122.081 369.76 122.1L369.805 122.12L369.851 122.139L369.898 122.159C369.914 122.165 369.929 122.173 369.943 122.181C369.956 122.188 369.97 122.194 369.984 122.199L370.024 122.216L370.065 122.233L370.105 122.251C371.821 123.036 373.541 123.833 375.238 124.669C376.936 125.505 378.607 126.377 380.233 127.314C381.855 128.245 383.427 129.26 384.942 130.355C386.453 131.445 387.883 132.643 389.221 133.939C390.633 135.317 391.896 136.839 392.989 138.481C394.07 140.095 394.958 141.828 395.637 143.647C396.29 145.379 396.679 147.198 396.792 149.045C396.9 150.821 396.649 152.601 396.056 154.279C395.976 154.498 395.889 154.714 395.796 154.927C395.703 155.139 395.604 155.349 395.499 155.555C395.394 155.761 395.283 155.964 395.165 156.163C395.047 156.362 394.924 156.557 394.795 156.749C394.741 156.829 394.686 156.908 394.629 156.986C394.573 157.065 394.516 157.142 394.459 157.22C394.401 157.297 394.342 157.374 394.283 157.45C394.224 157.527 394.164 157.602 394.103 157.678C392.98 159.088 391.552 160.228 389.926 161.01C388.292 161.79 386.516 162.23 384.706 162.304C382.804 162.383 380.903 162.107 379.102 161.491C377.171 160.832 375.376 159.827 373.806 158.523C373.263 158.075 372.749 157.594 372.266 157.083C371.788 156.576 371.341 156.04 370.93 155.478C370.521 154.92 370.148 154.338 369.814 153.733C369.481 153.134 369.188 152.513 368.936 151.876C368.818 153.856 369.126 155.839 369.839 157.691C370.591 159.638 371.614 161.469 372.877 163.131C374.211 164.901 375.692 166.556 377.303 168.078C378.924 169.632 380.647 171.088 382.349 172.429C384.05 173.77 385.812 175.142 387.518 176.573C389.222 177.979 390.844 179.481 392.376 181.073C393.862 182.61 395.176 184.304 396.296 186.125C397.396 187.923 398.191 189.889 398.65 191.946C399.14 194.186 399.115 196.508 398.577 198.737C398.315 199.822 397.942 200.876 397.465 201.884C396.983 202.901 396.405 203.869 395.74 204.777L395.678 204.86L395.616 204.942L395.552 205.025L395.487 205.107C393.864 207.226 391.827 208.993 389.499 210.301C388.327 210.959 387.092 211.498 385.812 211.909C384.502 212.33 383.153 212.62 381.786 212.775C379.184 213.014 376.561 212.864 374.003 212.33C371.37 211.779 368.81 210.923 366.375 209.78C363.857 208.603 361.451 207.202 359.184 205.594C356.898 203.978 354.733 202.196 352.708 200.264C352.17 199.751 351.641 199.23 351.122 198.698C350.604 198.167 350.095 197.627 349.596 197.078C349.096 196.529 348.608 195.971 348.13 195.405C347.653 194.84 347.185 194.265 346.727 193.681Z" fill="#F2F2F2"/>
<path d="M388.556 155.331C386.949 154.498 385.402 153.55 383.93 152.495C380.989 150.39 378.362 147.878 376.126 145.036C375.018 143.625 374.014 142.136 373.123 140.58C372.379 139.265 371.718 137.905 371.146 136.507C370.586 135.144 370.116 133.745 369.738 132.321C369.368 130.93 369.093 129.515 368.914 128.087C368.738 126.688 368.661 125.279 368.683 123.869C368.685 123.79 368.687 123.711 368.689 123.632C368.69 123.554 368.692 123.475 368.694 123.395C368.696 123.316 368.699 123.238 368.703 123.16L368.715 122.926C368.647 122.979 368.58 123.033 368.513 123.087L368.312 123.25L368.111 123.415L367.912 123.58L367.783 123.686L367.655 123.793L367.527 123.901L367.4 124.009L367.575 123.804L367.754 123.592C367.813 123.524 367.872 123.456 367.932 123.389C367.991 123.321 368.052 123.255 368.113 123.189L368.258 123.11L368.401 123.031L368.542 122.953L368.684 122.875L368.693 122.872L368.702 122.868L368.711 122.864L368.72 122.861L368.778 122.829L368.835 122.798L368.891 122.766L368.945 122.734L369.194 122.601L369.441 122.47L369.689 122.339L369.936 122.208L369.743 122.112L369.272 121.877L369.275 121.875C369.316 121.893 369.356 121.911 369.396 121.93C369.435 121.949 369.475 121.968 369.516 121.986C369.556 122.004 369.596 122.023 369.635 122.042C369.675 122.061 369.714 122.08 369.754 122.099L369.8 122.119L369.846 122.138L369.892 122.158C369.908 122.164 369.923 122.172 369.937 122.18L369.933 122.255L369.928 122.325L369.924 122.395L369.92 122.465C369.746 124.84 369.87 127.226 370.288 129.57C370.719 131.983 371.425 134.338 372.394 136.589C373.394 138.92 374.645 141.135 376.125 143.196C377.653 145.328 379.405 147.291 381.349 149.052C383.306 150.801 385.441 152.34 387.719 153.644C388.844 154.288 390.003 154.872 391.19 155.393C392.367 155.909 393.571 156.361 394.797 156.747C394.743 156.827 394.687 156.906 394.631 156.985C394.575 157.063 394.518 157.141 394.461 157.218C394.403 157.295 394.344 157.372 394.285 157.449C394.226 157.525 394.166 157.601 394.105 157.676C393.632 157.52 393.162 157.353 392.694 157.177C392.226 157 391.761 156.814 391.298 156.619C390.835 156.423 390.375 156.218 389.918 156.003C389.462 155.788 389.008 155.564 388.556 155.331Z" fill="white"/>
<path d="M356.728 173.077C356.201 172.292 355.705 171.492 355.237 170.678C354.77 169.863 354.333 169.038 353.927 168.2C353.521 167.363 353.146 166.515 352.801 165.657C352.457 164.799 352.146 163.933 351.866 163.059C351.724 162.596 351.592 162.131 351.472 161.665C351.351 161.198 351.242 160.731 351.144 160.263C351.046 159.795 350.96 159.326 350.884 158.856C350.808 158.386 350.744 157.916 350.692 157.447C350.665 157.228 350.641 157.009 350.62 156.79C350.599 156.57 350.581 156.351 350.564 156.132C350.548 155.912 350.534 155.693 350.522 155.474C350.511 155.255 350.502 155.036 350.495 154.818C350.6 154.485 350.707 154.152 350.815 153.821C350.924 153.49 351.035 153.161 351.147 152.832C351.259 152.504 351.373 152.177 351.49 151.852C351.606 151.527 351.724 151.203 351.844 150.88C351.818 151.15 351.795 151.422 351.777 151.693C351.758 151.965 351.744 152.238 351.733 152.512C351.722 152.785 351.715 153.059 351.711 153.334C351.708 153.609 351.709 153.884 351.713 154.16C351.712 154.311 351.714 154.461 351.717 154.611C351.72 154.762 351.724 154.912 351.729 155.063C351.734 155.213 351.741 155.363 351.749 155.514C351.757 155.664 351.765 155.814 351.776 155.965C351.891 157.652 352.156 159.326 352.567 160.967C352.984 162.627 353.527 164.254 354.192 165.831C354.87 167.439 355.652 169.002 356.533 170.508C357.428 172.042 358.407 173.524 359.466 174.95C360.605 176.489 361.81 177.988 363.079 179.446C364.348 180.904 365.666 182.322 367.031 183.7C368.398 185.077 369.805 186.411 371.252 187.703C372.7 188.995 374.171 190.242 375.666 191.444C377.198 192.679 378.76 193.867 380.353 195.007C381.947 196.148 383.566 197.239 385.211 198.28C386.856 199.32 388.525 200.31 390.219 201.249C391.913 202.188 393.627 203.073 395.359 203.905C395.439 203.944 395.51 203.997 395.571 204.061C395.63 204.125 395.678 204.197 395.713 204.277C395.747 204.355 395.767 204.439 395.772 204.524C395.778 204.61 395.766 204.697 395.739 204.778C395.73 204.813 395.718 204.848 395.702 204.881C395.687 204.912 395.668 204.943 395.647 204.971C395.625 204.999 395.601 205.024 395.575 205.047C395.548 205.07 395.519 205.09 395.488 205.106C395.456 205.121 395.421 205.132 395.386 205.138C395.351 205.144 395.315 205.146 395.28 205.143C395.243 205.141 395.207 205.134 395.172 205.123C395.136 205.113 395.101 205.098 395.068 205.079C394.854 204.977 394.64 204.874 394.426 204.77C394.213 204.667 393.999 204.563 393.786 204.458C393.573 204.353 393.36 204.248 393.148 204.141C392.935 204.035 392.723 203.926 392.511 203.817C390.745 202.911 389.003 201.95 387.284 200.936C385.566 199.921 383.873 198.853 382.206 197.733C380.54 196.613 378.904 195.442 377.297 194.221C375.691 193 374.119 191.731 372.581 190.413C371.095 189.144 369.628 187.832 368.196 186.476C366.764 185.12 365.368 183.72 364.024 182.275C362.68 180.831 361.39 179.342 360.167 177.809C358.945 176.276 357.794 174.699 356.728 173.077Z" fill="white"/>
<path d="M389.991 47.0358L388.726 47.2L397.206 15.4058C397.831 13.2827 397.933 11.0403 397.503 8.86948C397.13 7.09576 396.207 5.48446 394.865 4.2642C393.46 3.04411 391.738 2.24579 389.898 1.96135C387.657 1.61468 385.37 1.717 383.169 2.26235L325.535 15.3736C323.523 15.8612 321.598 16.6524 319.825 17.72C317.897 18.8653 316.104 20.2234 314.479 21.7686C312.808 23.3444 311.308 25.0919 310.004 26.9821C308.73 28.8116 307.692 30.794 306.913 32.8825L246.611 198.566C245.608 201.291 244.957 204.131 244.672 207.02C244.409 209.584 244.533 212.174 245.042 214.701C245.467 216.897 246.354 218.978 247.645 220.805C248.828 222.467 250.496 223.724 252.421 224.404L313.315 245.345C316.02 246.265 318.924 246.438 321.719 245.845C324.707 245.195 327.518 243.902 329.955 242.056C332.692 240.002 335.045 237.483 336.907 234.614C338.97 231.461 340.511 227.998 341.472 224.356L382.297 71.2979L383.578 71.1953L389.991 47.0358Z" fill="#2F2E41"/>
<path d="M385.585 45.2756L384.321 45.4397L392.801 13.6455C393.426 11.5225 393.528 9.28 393.097 7.10922C392.724 5.33551 391.802 3.7242 390.46 2.50395C389.055 1.28386 387.333 0.485539 385.493 0.201096C383.252 -0.145575 380.964 -0.0432566 378.763 0.502096L321.129 13.6134C319.118 14.1009 317.192 14.8922 315.419 15.9598C313.491 17.1051 311.698 18.4631 310.074 20.0084C308.403 21.5841 306.903 23.3316 305.599 25.2218C304.325 27.0514 303.286 29.0337 302.508 31.1222L242.205 196.806C241.203 199.53 240.552 202.371 240.267 205.26C240.003 207.824 240.128 210.414 240.637 212.941C241.061 215.137 241.949 217.218 243.239 219.045C244.423 220.707 246.091 221.963 248.016 222.644L308.91 243.585C311.615 244.505 314.519 244.678 317.314 244.085C320.302 243.434 323.112 242.142 325.55 240.296C328.286 238.242 330.64 235.723 332.502 232.853C334.565 229.701 336.106 226.237 337.066 222.595L377.892 69.5376L379.173 69.4351L385.585 45.2756Z" fill="#3F3D56"/>
<path d="M378.254 4.6506L369.782 6.50459C369.874 7.23679 369.801 7.98041 369.568 8.68071C369.304 9.49983 368.921 10.2758 368.432 10.984C367.33 12.5917 365.86 13.9132 364.144 14.8385C363.938 14.9477 363.733 15.0484 363.529 15.1408C363.325 15.2333 363.121 15.3172 362.917 15.3926C362.714 15.468 362.512 15.5346 362.311 15.5924C362.111 15.6501 361.912 15.6988 361.716 15.7385L328.593 22.4384C327.978 22.5811 327.338 22.5738 326.727 22.4173C326.235 22.2854 325.801 21.9933 325.494 21.5873C325.184 21.1514 325.009 20.6342 324.991 20.0999C324.965 19.4184 325.073 18.7384 325.308 18.0981C325.367 17.9253 325.434 17.7513 325.509 17.5762C325.584 17.401 325.666 17.2259 325.755 17.0507C325.843 16.8747 325.939 16.6996 326.043 16.5253C326.148 16.351 326.258 16.1769 326.373 16.0029L320.101 17.3755C318.591 17.7294 317.144 18.3142 315.812 19.1093C314.357 19.9657 313.004 20.9844 311.779 22.1458C310.516 23.3324 309.383 24.65 308.4 26.0764C307.441 27.4548 306.662 28.9494 306.081 30.5242L245.891 197.648C245.143 199.701 244.662 201.843 244.461 204.019C244.276 205.94 244.385 207.878 244.786 209.766C245.12 211.398 245.801 212.939 246.785 214.284C247.686 215.504 248.943 216.416 250.383 216.896L311.725 236.803C313.749 237.452 315.909 237.548 317.983 237.084C320.192 236.579 322.266 235.606 324.067 234.233C326.081 232.709 327.815 230.848 329.191 228.732C330.714 226.407 331.857 223.856 332.577 221.172L388.625 14.5701C389.095 12.993 389.182 11.3266 388.879 9.70913C388.616 8.38364 387.945 7.17334 386.96 6.24715C385.927 5.32116 384.652 4.70746 383.284 4.47765C381.613 4.19728 379.902 4.2561 378.254 4.6506Z" fill="white"/>
<path d="M345.357 83.8024H223.331V42.4955H345.357V83.8024Z" fill="white"/>
<path d="M309.682 98.3813H190.088V156.292H309.682V98.3813Z" fill="white"/>
<path d="M209.517 126.19C214.294 126.19 218.167 122.321 218.167 117.549C218.167 112.776 214.294 108.907 209.517 108.907C204.739 108.907 200.866 112.776 200.866 117.549C200.866 122.321 204.739 126.19 209.517 126.19Z" fill="#F1EF43"/>
<path d="M229.496 111.788C229.113 111.788 228.746 111.939 228.476 112.209C228.206 112.48 228.054 112.846 228.054 113.228C228.054 113.61 228.206 113.976 228.476 114.246C228.746 114.516 229.113 114.668 229.496 114.668H297.465C297.847 114.667 298.213 114.515 298.482 114.245C298.752 113.975 298.903 113.609 298.903 113.228C298.903 112.847 298.752 112.481 298.482 112.211C298.213 111.941 297.847 111.789 297.465 111.788H229.496Z" fill="#E6E6E6"/>
<path d="M229.496 120.429C229.306 120.428 229.118 120.465 228.943 120.537C228.768 120.609 228.608 120.715 228.474 120.848C228.34 120.982 228.233 121.14 228.16 121.315C228.087 121.49 228.049 121.677 228.049 121.866C228.048 122.056 228.085 122.243 228.158 122.418C228.23 122.593 228.336 122.752 228.47 122.886C228.603 123.02 228.762 123.127 228.937 123.199C229.112 123.272 229.3 123.309 229.489 123.31H258.743C258.932 123.31 259.12 123.272 259.295 123.2C259.47 123.128 259.629 123.021 259.762 122.888C259.896 122.754 260.003 122.595 260.075 122.42C260.147 122.246 260.185 122.058 260.185 121.869C260.185 121.68 260.147 121.493 260.075 121.318C260.003 121.143 259.896 120.985 259.762 120.851C259.629 120.717 259.47 120.611 259.295 120.539C259.12 120.466 258.932 120.429 258.743 120.429H229.496Z" fill="#E6E6E6"/>
<path d="M202.881 134.244C201.785 134.244 200.892 134.89 200.892 135.684C200.892 136.479 201.785 137.125 202.881 137.125H296.658C297.755 137.125 298.648 136.479 298.648 135.684C298.648 134.89 297.755 134.244 296.658 134.244H202.881Z" fill="#E6E6E6"/>
<path d="M202.881 142.886C201.785 142.886 200.892 143.532 200.892 144.326C200.892 145.12 201.785 145.766 202.881 145.766H275.072C276.169 145.766 277.061 145.12 277.061 144.326C277.061 143.532 276.169 142.886 275.072 142.886H202.881Z" fill="#E6E6E6"/>
<path d="M310.898 157.507H188.872V97.1664H310.898V157.507ZM191.304 155.077H308.465V99.5962H191.304V155.077Z" fill="#E6E6E6"/>
<path d="M243.976 71.5191C248.753 71.5191 252.626 67.6502 252.626 62.8777C252.626 58.1051 248.753 54.2362 243.976 54.2362C239.198 54.2362 235.325 58.1051 235.325 62.8777C235.325 67.6502 239.198 71.5191 243.976 71.5191Z" fill="#F1EF43"/>
<path d="M263.955 57.1167C263.572 57.1167 263.206 57.2684 262.935 57.5385C262.665 57.8086 262.513 58.175 262.513 58.5569C262.513 58.9389 262.665 59.3052 262.935 59.5753C263.206 59.8454 263.572 59.9972 263.955 59.9972H331.924C332.306 59.9962 332.672 59.8441 332.941 59.5741C333.211 59.3041 333.362 58.9383 333.362 58.5569C333.362 58.1756 333.211 57.8098 332.941 57.5398C332.672 57.2698 332.306 57.1176 331.924 57.1167H263.955Z" fill="#E6E6E6"/>
<path d="M263.955 65.7581C263.765 65.7575 263.577 65.7942 263.402 65.8661C263.227 65.938 263.067 66.0437 262.933 66.1772C262.799 66.3106 262.692 66.4693 262.619 66.644C262.546 66.8187 262.508 67.006 262.508 67.1953C262.508 67.3846 262.545 67.5721 262.617 67.7471C262.689 67.9222 262.795 68.0812 262.929 68.2153C263.063 68.3493 263.222 68.4557 263.397 68.5283C263.572 68.601 263.759 68.6384 263.949 68.6386H317.432C317.814 68.6386 318.181 68.4869 318.451 68.2168C318.721 67.9467 318.873 67.5803 318.873 67.1984C318.873 66.8164 318.721 66.4501 318.451 66.18C318.181 65.9099 317.814 65.7581 317.432 65.7581H263.955Z" fill="#E6E6E6"/>
<path d="M345.357 83.8024H223.331V42.4955H345.357V83.8024ZM225.763 81.3726H342.925V44.9253H225.763V81.3726Z" fill="#E6E6E6"/>
<path d="M105.589 241.15H111.741L114.667 217.448L105.588 217.449L105.589 241.15Z" fill="#FFB6B6"/>
<path d="M123.604 246.855L104.271 246.856L104.271 239.394L117.045 239.394C118.785 239.394 120.453 240.084 121.683 241.312C122.913 242.541 123.604 244.207 123.604 245.945L123.604 246.855Z" fill="#2F2E41"/>
<path d="M44.0798 233.187L49.4702 236.147L63.4659 216.786L55.5103 212.417L44.0798 233.187Z" fill="#FFB6B6"/>
<path d="M57.114 246.856L40.1729 237.552L43.7715 231.014L54.9657 237.161C56.4898 237.998 57.6187 239.406 58.1039 241.074C58.5892 242.743 58.391 244.536 57.553 246.058L57.114 246.856Z" fill="#2F2E41"/>
<path d="M105.302 227.995C104.754 227.994 104.225 227.795 103.813 227.433C103.401 227.071 103.136 226.572 103.065 226.029L95.3721 166.812C95.3381 166.55 95.2221 166.306 95.0407 166.114C94.8593 165.922 94.6218 165.792 94.362 165.742C94.1022 165.693 93.8335 165.727 93.5943 165.84C93.355 165.952 93.1575 166.137 93.0298 166.368L60.969 224.474C60.7044 224.948 60.2782 225.312 59.7679 225.499C59.2575 225.686 58.6969 225.684 58.1879 225.494L51.1996 222.834C50.9186 222.727 50.6617 222.565 50.4442 222.357C50.2266 222.15 50.0528 221.901 49.9328 221.625C49.8129 221.35 49.7493 221.053 49.7458 220.753C49.7422 220.452 49.7988 220.154 49.9122 219.876L72.1215 165.376C72.1777 165.237 72.2159 165.092 72.2349 164.944C75.2431 141.686 82.8967 129.859 85.1708 126.788C85.3369 126.562 85.4462 126.3 85.4895 126.023C85.5328 125.746 85.5088 125.463 85.4196 125.198L85.107 124.261C84.9821 123.889 84.9565 123.491 85.0327 123.106C85.1089 122.722 85.2842 122.363 85.5415 122.067C93.7356 112.744 108.018 117.831 108.161 117.884L108.233 117.91L108.277 117.971C124.292 139.91 118.371 211.168 117.021 225.23C116.971 225.759 116.735 226.252 116.355 226.624C115.976 226.995 115.477 227.221 114.947 227.26L105.477 227.988C105.418 227.993 105.36 227.995 105.302 227.995Z" fill="#2F2E41"/>
<path d="M100.96 63.4519C108.52 63.4519 114.65 57.3295 114.65 49.777C114.65 42.2245 108.52 36.1021 100.96 36.1021C93.3994 36.1021 87.2704 42.2245 87.2704 49.777C87.2704 57.3295 93.3994 63.4519 100.96 63.4519Z" fill="#FFB8B8"/>
<path d="M79.7957 136.794L120.078 140.456C116.566 128.257 113.348 116.101 115.971 103.989C119.302 93.1764 119.611 87.1863 110.825 82.0938L104.893 68.8746L94.1571 68.4846L88.9221 67.0513C84.6926 73.8443 82.9625 81.8962 84.0288 89.8246C86.3045 107.066 85.69 123.064 79.7957 136.794Z" fill="#F1EF43"/>
<path d="M85.9101 75.7709L81.8582 57.1936C81.0128 52.7962 81.2249 48.261 82.4771 43.9614C82.6135 43.5208 82.7779 43.0893 82.9692 42.6696C84.0908 40.2278 85.8542 38.1356 88.0718 36.6157C90.2893 35.0957 92.8779 34.2049 95.5621 34.038C104.771 33.4026 106.122 34.3724 106.455 34.8507C111.659 34.6408 115.694 36.649 117.535 40.3652C117.715 40.7341 117.812 41.138 117.819 41.5484C117.827 41.9588 117.744 42.3659 117.576 42.7408C117.409 43.1157 117.161 43.4494 116.851 43.7184C116.54 43.9874 116.175 44.1851 115.78 44.2977C113.208 45.0383 109.593 45.8611 106.882 45.6191C101.449 52.1299 103.67 64.0586 109.183 71.1661L109.399 71.4454L103.937 72.5636L97.59 63.7337C97.4644 63.559 97.2826 63.4327 97.0749 63.3758C96.8672 63.319 96.6463 63.335 96.4491 63.4213C96.2519 63.5077 96.0903 63.659 95.9913 63.8501C95.8924 64.0411 95.8621 64.2603 95.9055 64.471L97.8326 73.8228L85.9101 75.7709Z" fill="#2F2E41"/>
<path d="M381.978 247H0V246.04H382.152L381.978 247Z" fill="#CACACA"/>
<path d="M164.157 125.794L64.5254 196.174L40.6502 162.448L140.282 92.0676L164.157 125.794Z" fill="white"/>
<path d="M74.2818 174.238C78.1826 171.482 79.1086 166.089 76.3501 162.193C73.5916 158.296 68.1932 157.371 64.2924 160.127C60.3915 162.882 59.4655 168.275 62.224 172.171C64.9825 176.068 70.3809 176.993 74.2818 174.238Z" fill="#F1EF43"/>
<path d="M82.2696 150.955C81.9574 151.176 81.7456 151.511 81.681 151.888C81.6163 152.264 81.704 152.651 81.9248 152.963C82.1456 153.275 82.4814 153.486 82.8582 153.551C83.2351 153.615 83.6222 153.528 83.9345 153.307L139.43 114.105C139.741 113.884 139.952 113.549 140.016 113.173C140.08 112.797 139.992 112.411 139.772 112.1C139.551 111.788 139.216 111.577 138.84 111.512C138.464 111.447 138.077 111.534 137.765 111.753L82.2696 150.955Z" fill="#E6E6E6"/>
<path d="M87.2643 158.011C86.952 158.231 86.74 158.566 86.6748 158.942C86.6096 159.318 86.6966 159.705 86.9165 160.017C87.1365 160.329 87.4715 160.541 87.848 160.607C88.2244 160.672 88.6115 160.586 88.9242 160.366L88.9292 160.363L132.592 129.519C132.904 129.299 133.116 128.963 133.18 128.587C133.245 128.21 133.157 127.824 132.936 127.512C132.827 127.357 132.688 127.226 132.528 127.125C132.368 127.024 132.19 126.956 132.003 126.924C131.626 126.859 131.239 126.947 130.927 127.167L87.2643 158.011Z" fill="#E6E6E6"/>
<path d="M164.157 125.794L64.5254 196.174L40.6502 162.448L140.282 92.0676L164.157 125.794ZM65.107 192.787L160.766 125.213L139.7 95.4544L44.0407 163.029L65.107 192.787Z" fill="#E6E6E6"/>
<path d="M391.655 113.298C392.008 113.285 392.36 113.345 392.689 113.474C393.002 113.599 393.285 113.787 393.521 114.027C393.758 114.267 393.943 114.554 394.064 114.869C394.192 115.203 394.251 115.56 394.236 115.918C394.222 116.284 394.136 116.645 393.985 116.979C393.836 117.307 393.63 117.605 393.375 117.859C393.122 118.112 392.825 118.317 392.498 118.463C392.167 118.611 391.809 118.693 391.446 118.703C391.092 118.714 390.74 118.651 390.412 118.518C390.102 118.391 389.82 118.202 389.586 117.961C389.351 117.72 389.168 117.433 389.049 117.118C388.923 116.785 388.866 116.43 388.881 116.075C388.896 115.71 388.981 115.351 389.132 115.018C389.28 114.694 389.484 114.398 389.736 114.146C389.988 113.894 390.283 113.689 390.607 113.542C390.937 113.393 391.293 113.31 391.655 113.298Z" fill="#F2F2F2"/>
<path d="M111.546 147.606L105.067 112.226L105.523 90.346L90.921 89.8902L93.6589 114.505L103.1 148.638C102.317 149.59 101.837 150.754 101.722 151.981C101.607 153.207 101.863 154.44 102.456 155.52C103.05 156.601 103.954 157.478 105.052 158.04C106.149 158.602 107.391 158.822 108.615 158.673C109.839 158.523 110.991 158.011 111.92 157.201C112.85 156.391 113.516 155.322 113.831 154.131C114.147 152.94 114.098 151.681 113.69 150.518C113.283 149.355 112.536 148.341 111.546 147.606H111.546Z" fill="#FFB8B8"/>
<path d="M90.0083 92.1694C95.2987 90.1564 101.145 90.1564 106.436 92.1694L105.523 73.9361C105.523 72.9783 105.334 72.0299 104.967 71.1451C104.6 70.2602 104.063 69.4562 103.385 68.7789C102.707 68.1017 101.902 67.5645 101.016 67.1979C100.13 66.8314 99.1808 66.6428 98.222 66.6428C97.2632 66.6428 96.3138 66.8314 95.428 67.1979C94.5422 67.5645 93.7374 68.1017 93.0594 68.7789C92.3814 69.4562 91.8436 70.2602 91.4767 71.1451C91.1098 72.0299 90.9209 72.9783 90.9209 73.9361L90.0083 92.1694Z" fill="#F1EF43"/>
</g>
<defs>
<clipPath id="clip0_1_924">
<rect width="399" height="247" fill="white"/>
</clipPath>
</defs>
</svg>
