<svg width="571" height="379" viewBox="0 0 571 379" fill="none" xmlns="http://www.w3.org/2000/svg">
<path d="M564.148 8.92395e-09H87.682C85.8672 0.00165072 84.1271 0.723496 82.8439 2.00708C81.5606 3.29067 80.839 5.03111 80.8374 6.84635V329.787C80.839 331.602 81.5606 333.343 82.8439 334.626C84.1271 335.91 85.8672 336.632 87.682 336.633H564.148C565.137 336.633 566.115 336.419 567.014 336.004C567.912 335.589 568.71 334.984 569.352 334.231C569.406 334.172 569.456 334.109 569.501 334.042C569.91 333.543 570.241 332.984 570.482 332.386C570.827 331.563 571.003 330.679 571 329.787V6.8464C570.998 5.02988 570.275 3.28843 568.99 2.00469C567.705 0.720944 565.964 -9.26214e-05 564.148 8.92395e-09ZM569.046 329.787C569.047 330.742 568.765 331.676 568.237 332.472C567.768 333.173 567.131 333.745 566.385 334.137C565.693 334.494 564.926 334.68 564.148 334.678H87.682C86.3855 334.677 85.1425 334.161 84.2258 333.244C83.309 332.327 82.7933 331.084 82.7917 329.787V6.8464C82.7933 5.5496 83.309 4.30637 84.2258 3.38939C85.1425 2.47241 86.3855 1.95657 87.682 1.955H564.148C565.445 1.95483 566.69 2.46986 567.608 3.38698C568.527 4.30411 569.044 5.54833 569.046 6.8464V329.787Z" fill="#3F3D56"/>
<path d="M570.018 27.4397H81.8125V29.3969H570.018V27.4397Z" fill="#3F3D56"/>
<path d="M98.4449 20.5505C101.687 20.5505 104.315 17.9217 104.315 14.6789C104.315 11.4361 101.687 8.80736 98.4449 8.80736C95.2029 8.80736 92.5747 11.4361 92.5747 14.6789C92.5747 17.9217 95.2029 20.5505 98.4449 20.5505Z" fill="#3F3D56"/>
<path d="M115.322 20.5505C118.564 20.5505 121.192 17.9217 121.192 14.6789C121.192 11.4361 118.564 8.80736 115.322 8.80736C112.08 8.80736 109.452 11.4361 109.452 14.6789C109.452 17.9217 112.08 20.5505 115.322 20.5505Z" fill="#3F3D56"/>
<path d="M132.199 20.5505C135.441 20.5505 138.069 17.9217 138.069 14.6789C138.069 11.4361 135.441 8.80736 132.199 8.80736C128.957 8.80736 126.329 11.4361 126.329 14.6789C126.329 17.9217 128.957 20.5505 132.199 20.5505Z" fill="#3F3D56"/>
<path d="M448.445 72.744H203.54C200.834 72.744 198.238 71.6687 196.325 69.7546C194.411 67.8405 193.336 65.2443 193.336 62.5373C193.336 59.8303 194.411 57.2342 196.325 55.3201C198.238 53.406 200.834 52.3306 203.54 52.3306H448.445C451.152 52.3306 453.747 53.406 455.661 55.3201C457.574 57.2342 458.65 59.8303 458.65 62.5373C458.65 65.2443 457.574 67.8405 455.661 69.7546C453.747 71.6687 451.152 72.744 448.445 72.744ZM203.54 53.9009C201.25 53.9009 199.054 54.8108 197.435 56.4304C195.816 58.0501 194.906 60.2468 194.906 62.5373C194.906 64.8279 195.816 67.0246 197.435 68.6442C199.054 70.2639 201.25 71.1738 203.54 71.1738H448.445C450.735 71.1738 452.931 70.2639 454.551 68.6442C456.17 67.0246 457.08 64.8279 457.08 62.5373C457.08 60.2468 456.17 58.0501 454.551 56.4304C452.931 54.8108 450.735 53.9009 448.445 53.9009H203.54Z" fill="#3F3D56"/>
<path d="M205.586 135.162H183.608C181.942 135.162 180.345 134.5 179.167 133.322C177.99 132.144 177.328 130.547 177.328 128.881C177.328 127.215 177.99 125.618 179.167 124.44C180.345 123.262 181.942 122.6 183.608 122.6H205.586C207.252 122.6 208.849 123.262 210.027 124.44C211.204 125.618 211.866 127.215 211.866 128.881C211.866 130.547 211.204 132.144 210.027 133.322C208.849 134.5 207.252 135.162 205.586 135.162Z" fill="#CCCCCC"/>
<path d="M231.49 156.361H183.608C181.942 156.361 180.345 155.699 179.167 154.521C177.99 153.343 177.328 151.745 177.328 150.08C177.328 148.414 177.99 146.816 179.167 145.638C180.345 144.46 181.942 143.799 183.608 143.799H231.49C233.155 143.799 234.752 144.46 235.93 145.638C237.108 146.816 237.769 148.414 237.769 150.08C237.769 151.745 237.108 153.343 235.93 154.521C234.752 155.699 233.155 156.361 231.49 156.361Z" fill="#CCCCCC"/>
<path d="M209.511 227.808H187.533C185.867 227.808 184.27 227.146 183.092 225.968C181.915 224.79 181.253 223.192 181.253 221.527C181.253 219.861 181.915 218.263 183.092 217.085C184.27 215.907 185.867 215.245 187.533 215.245H209.511C211.177 215.245 212.774 215.907 213.952 217.085C215.129 218.263 215.791 219.861 215.791 221.527C215.791 223.192 215.129 224.79 213.952 225.968C212.774 227.146 211.177 227.808 209.511 227.808Z" fill="#CCCCCC"/>
<path d="M235.415 249.006H187.533C185.867 249.006 184.27 248.344 183.092 247.167C181.915 245.989 181.253 244.391 181.253 242.725C181.253 241.059 181.915 239.462 183.092 238.284C184.27 237.106 185.867 236.444 187.533 236.444H235.415C237.08 236.444 238.677 237.106 239.855 238.284C241.033 239.462 241.694 241.059 241.694 242.725C241.694 244.391 241.033 245.989 239.855 247.167C238.677 248.344 237.08 249.006 235.415 249.006Z" fill="#CCCCCC"/>
<path d="M353.942 225.452H331.964C330.298 225.452 328.701 224.79 327.523 223.612C326.346 222.435 325.684 220.837 325.684 219.171C325.684 217.505 326.346 215.908 327.523 214.73C328.701 213.552 330.298 212.89 331.964 212.89H353.942C355.608 212.89 357.205 213.552 358.383 214.73C359.56 215.908 360.222 217.505 360.222 219.171C360.222 220.837 359.56 222.435 358.383 223.612C357.205 224.79 355.608 225.452 353.942 225.452Z" fill="#CCCCCC"/>
<path d="M379.846 246.651H331.964C330.298 246.651 328.701 245.989 327.523 244.811C326.346 243.633 325.684 242.036 325.684 240.37C325.684 238.704 326.346 237.106 327.523 235.928C328.701 234.75 330.298 234.089 331.964 234.089H379.846C381.511 234.089 383.108 234.75 384.286 235.928C385.464 237.106 386.125 238.704 386.125 240.37C386.125 242.036 385.464 243.633 384.286 244.811C383.108 245.989 381.511 246.651 379.846 246.651Z" fill="#CCCCCC"/>
<path d="M351.587 139.088H329.609C327.943 139.088 326.346 138.426 325.168 137.248C323.991 136.07 323.329 134.472 323.329 132.807C323.329 131.141 323.991 129.543 325.168 128.365C326.346 127.187 327.943 126.526 329.609 126.526H351.587C353.253 126.526 354.85 127.187 356.028 128.365C357.205 129.543 357.867 131.141 357.867 132.807C357.867 134.472 357.205 136.07 356.028 137.248C354.85 138.426 353.253 139.088 351.587 139.088Z" fill="#CCCCCC"/>
<path d="M377.491 160.286H329.609C327.943 160.286 326.346 159.625 325.168 158.447C323.991 157.269 323.329 155.671 323.329 154.005C323.329 152.339 323.991 150.742 325.168 149.564C326.346 148.386 327.943 147.724 329.609 147.724H377.491C379.156 147.724 380.753 148.386 381.931 149.564C383.109 150.742 383.77 152.339 383.77 154.005C383.77 155.671 383.109 157.269 381.931 158.447C380.753 159.625 379.156 160.286 377.491 160.286Z" fill="#CCCCCC"/>
<path d="M498.373 134.377H476.394C474.729 134.377 473.132 133.715 471.954 132.537C470.776 131.359 470.115 129.762 470.115 128.096C470.115 126.43 470.776 124.832 471.954 123.654C473.132 122.477 474.729 121.815 476.394 121.815H498.373C500.038 121.815 501.636 122.477 502.813 123.654C503.991 124.832 504.653 126.43 504.653 128.096C504.653 129.762 503.991 131.359 502.813 132.537C501.636 133.715 500.038 134.377 498.373 134.377Z" fill="#CCCCCC"/>
<path d="M524.276 155.576H476.394C474.729 155.576 473.132 154.914 471.954 153.736C470.776 152.558 470.115 150.96 470.115 149.294C470.115 147.629 470.776 146.031 471.954 144.853C473.132 143.675 474.729 143.013 476.394 143.013H524.276C525.942 143.013 527.539 143.675 528.717 144.853C529.894 146.031 530.556 147.629 530.556 149.294C530.556 150.96 529.894 152.558 528.717 153.736C527.539 154.914 525.942 155.576 524.276 155.576Z" fill="#CCCCCC"/>
<path d="M144.83 163.034C157.835 163.034 168.378 152.489 168.378 139.48C168.378 126.472 157.835 115.926 144.83 115.926C131.824 115.926 121.281 126.472 121.281 139.48C121.281 152.489 131.824 163.034 144.83 163.034Z" fill="#7B79FF"/>
<path d="M155.819 150.08H133.841C133.216 150.079 132.618 149.831 132.176 149.389C131.735 148.947 131.487 148.349 131.486 147.724V131.237C131.487 130.612 131.735 130.013 132.176 129.572C132.618 129.13 133.216 128.882 133.841 128.881H140.028C140.43 128.88 140.826 128.982 141.178 129.178C141.529 129.375 141.824 129.658 142.034 130.002L143.759 132.807H155.819C156.444 132.807 157.042 133.056 157.484 133.497C157.925 133.939 158.174 134.538 158.174 135.162V147.724C158.174 148.349 157.925 148.947 157.484 149.389C157.042 149.831 156.444 150.079 155.819 150.08ZM133.841 130.451C133.633 130.452 133.433 130.534 133.286 130.682C133.139 130.829 133.056 131.028 133.056 131.237V147.724C133.056 147.932 133.139 148.132 133.286 148.279C133.433 148.426 133.633 148.509 133.841 148.509H155.819C156.027 148.509 156.227 148.426 156.374 148.279C156.521 148.132 156.604 147.932 156.604 147.724V135.162C156.604 134.954 156.521 134.754 156.374 134.607C156.227 134.46 156.027 134.377 155.819 134.377H142.882L140.697 130.825C140.627 130.71 140.528 130.616 140.411 130.55C140.294 130.485 140.162 130.451 140.028 130.451H133.841Z" fill="white"/>
<path d="M289.261 166.96C302.266 166.96 312.809 156.414 312.809 143.406C312.809 130.397 302.266 119.852 289.261 119.852C276.255 119.852 265.712 130.397 265.712 143.406C265.712 156.414 276.255 166.96 289.261 166.96Z" fill="#7B79FF"/>
<path d="M299.465 158.324H279.057C278.432 158.323 277.834 158.075 277.392 157.633C276.951 157.191 276.702 156.593 276.702 155.968V130.844C276.702 130.219 276.951 129.621 277.392 129.179C277.834 128.738 278.432 128.489 279.057 128.489H293.844C294.381 128.489 294.901 128.672 295.32 129.008L300.94 133.526C301.215 133.746 301.438 134.025 301.59 134.343C301.742 134.661 301.821 135.009 301.82 135.362V155.968C301.819 156.593 301.571 157.191 301.13 157.633C300.688 158.075 300.09 158.323 299.465 158.324ZM279.057 130.059C278.848 130.059 278.649 130.142 278.502 130.289C278.355 130.436 278.272 130.636 278.272 130.844V155.968C278.272 156.176 278.355 156.376 278.502 156.523C278.649 156.67 278.848 156.753 279.057 156.753H299.465C299.673 156.753 299.873 156.67 300.02 156.523C300.167 156.376 300.25 156.176 300.25 155.968V135.362C300.25 135.244 300.224 135.128 300.174 135.022C300.123 134.916 300.049 134.823 299.957 134.75L294.336 130.232C294.196 130.12 294.023 130.059 293.844 130.059H279.057Z" fill="white"/>
<path d="M295.54 139.48H282.981C282.773 139.48 282.573 139.398 282.426 139.25C282.279 139.103 282.196 138.903 282.196 138.695C282.196 138.487 282.279 138.287 282.426 138.14C282.573 137.993 282.773 137.91 282.981 137.91H295.54C295.749 137.91 295.948 137.993 296.096 138.14C296.243 138.287 296.325 138.487 296.325 138.695C296.325 138.903 296.243 139.103 296.096 139.25C295.948 139.398 295.749 139.48 295.54 139.48Z" fill="white"/>
<path d="M295.54 144.191H282.981C282.773 144.191 282.573 144.109 282.426 143.961C282.279 143.814 282.196 143.614 282.196 143.406C282.196 143.198 282.279 142.998 282.426 142.851C282.573 142.704 282.773 142.621 282.981 142.621H295.54C295.749 142.621 295.948 142.704 296.096 142.851C296.243 142.998 296.325 143.198 296.325 143.406C296.325 143.614 296.243 143.814 296.096 143.961C295.948 144.109 295.749 144.191 295.54 144.191Z" fill="white"/>
<path d="M295.54 148.902H282.981C282.773 148.902 282.573 148.819 282.426 148.672C282.279 148.525 282.196 148.325 282.196 148.117C282.196 147.909 282.279 147.709 282.426 147.562C282.573 147.414 282.773 147.332 282.981 147.332H295.54C295.749 147.332 295.948 147.414 296.096 147.562C296.243 147.709 296.325 147.909 296.325 148.117C296.325 148.325 296.243 148.525 296.096 148.672C295.948 148.819 295.749 148.902 295.54 148.902Z" fill="white"/>
<path d="M434.477 162.249C447.482 162.249 458.025 151.704 458.025 138.695C458.025 125.687 447.482 115.141 434.477 115.141C421.471 115.141 410.928 125.687 410.928 138.695C410.928 151.704 421.471 162.249 434.477 162.249Z" fill="#7B79FF"/>
<path d="M445.466 147.332H423.487C422.863 147.331 422.264 147.083 421.823 146.641C421.381 146.2 421.133 145.601 421.132 144.976V132.414C421.133 131.79 421.381 131.191 421.823 130.749C422.264 130.308 422.863 130.059 423.487 130.059H445.466C446.09 130.059 446.689 130.308 447.13 130.749C447.572 131.191 447.82 131.79 447.821 132.414V144.976C447.82 145.601 447.572 146.2 447.13 146.641C446.689 147.083 446.09 147.331 445.466 147.332ZM423.487 131.629C423.279 131.629 423.08 131.712 422.932 131.859C422.785 132.006 422.702 132.206 422.702 132.414V144.976C422.702 145.184 422.785 145.384 422.932 145.531C423.08 145.678 423.279 145.761 423.487 145.761H445.466C445.674 145.761 445.873 145.678 446.021 145.531C446.168 145.384 446.251 145.184 446.251 144.976V132.414C446.251 132.206 446.168 132.006 446.021 131.859C445.873 131.712 445.674 131.629 445.466 131.629H423.487Z" fill="white"/>
<path d="M434.476 140.767C434.035 140.767 433.603 140.644 433.228 140.411L421.501 133.08C421.325 132.969 421.2 132.793 421.153 132.591C421.107 132.388 421.142 132.175 421.253 131.999C421.363 131.822 421.539 131.697 421.741 131.65C421.944 131.603 422.157 131.638 422.333 131.748L434.061 139.079C434.186 139.157 434.33 139.198 434.477 139.198C434.624 139.198 434.768 139.157 434.893 139.079L446.619 131.748C446.796 131.638 447.009 131.603 447.211 131.65C447.414 131.697 447.59 131.822 447.7 131.999C447.81 132.175 447.846 132.388 447.8 132.591C447.753 132.793 447.628 132.969 447.452 133.08L435.725 140.411C435.35 140.644 434.918 140.767 434.476 140.767Z" fill="white"/>
<path d="M144.83 255.68C157.835 255.68 168.378 245.134 168.378 232.126C168.378 219.117 157.835 208.572 144.83 208.572C131.824 208.572 121.281 219.117 121.281 232.126C121.281 245.134 131.824 255.68 144.83 255.68Z" fill="#7B79FF"/>
<path d="M155.819 240.762H133.841C133.216 240.762 132.618 240.513 132.176 240.072C131.735 239.63 131.487 239.032 131.486 238.407V225.845C131.487 225.22 131.735 224.622 132.176 224.18C132.618 223.739 133.216 223.49 133.841 223.49H155.819C156.444 223.49 157.042 223.739 157.484 224.18C157.925 224.622 158.174 225.22 158.174 225.845V238.407C158.174 239.032 157.925 239.63 157.484 240.072C157.042 240.513 156.444 240.762 155.819 240.762ZM133.841 225.06C133.633 225.06 133.433 225.143 133.286 225.29C133.139 225.437 133.056 225.637 133.056 225.845V238.407C133.056 238.615 133.139 238.815 133.286 238.962C133.433 239.109 133.633 239.192 133.841 239.192H155.819C156.027 239.192 156.227 239.109 156.374 238.962C156.521 238.815 156.604 238.615 156.604 238.407V225.845C156.604 225.637 156.521 225.437 156.374 225.29C156.227 225.143 156.027 225.06 155.819 225.06H133.841Z" fill="white"/>
<path d="M152.336 240.763H136.539C136.264 240.763 135.993 240.69 135.754 240.552C135.516 240.414 135.317 240.216 135.18 239.978C135.042 239.739 134.969 239.468 134.969 239.192C134.969 238.917 135.042 238.646 135.18 238.407L139.938 230.163C140.076 229.925 140.274 229.726 140.513 229.588C140.751 229.451 141.022 229.378 141.297 229.378C141.573 229.378 141.844 229.451 142.082 229.588C142.321 229.726 142.519 229.925 142.657 230.163L145.73 235.487L147.511 232.403C147.648 232.164 147.847 231.966 148.085 231.828C148.324 231.69 148.595 231.618 148.87 231.618C149.146 231.618 149.417 231.69 149.655 231.828C149.894 231.966 150.092 232.164 150.23 232.403L153.695 238.407C153.833 238.646 153.906 238.917 153.906 239.192C153.906 239.468 153.833 239.739 153.695 239.978C153.558 240.216 153.359 240.414 153.121 240.552C152.882 240.69 152.611 240.763 152.336 240.763H152.336ZM152.336 239.192L148.87 233.188L146.41 237.45C146.341 237.57 146.242 237.669 146.123 237.738C146.004 237.807 145.868 237.843 145.73 237.843C145.592 237.843 145.457 237.807 145.338 237.738C145.218 237.669 145.119 237.57 145.05 237.45L141.298 230.948L136.539 239.192H152.336Z" fill="white"/>
<path d="M153.464 229.77C154.331 229.77 155.034 229.067 155.034 228.2C155.034 227.333 154.331 226.63 153.464 226.63C152.597 226.63 151.894 227.333 151.894 228.2C151.894 229.067 152.597 229.77 153.464 229.77Z" fill="white"/>
<path d="M290.831 253.324C303.836 253.324 314.379 242.779 314.379 229.77C314.379 216.762 303.836 206.216 290.831 206.216C277.825 206.216 267.282 216.762 267.282 229.77C267.282 242.779 277.825 253.324 290.831 253.324Z" fill="#7B79FF"/>
<path d="M290.831 230.163C289.433 230.163 288.068 229.749 286.906 228.972C285.744 228.196 284.839 227.092 284.304 225.801C283.769 224.51 283.629 223.089 283.902 221.718C284.174 220.348 284.847 219.089 285.835 218.101C286.823 217.112 288.082 216.439 289.452 216.167C290.823 215.894 292.243 216.034 293.534 216.569C294.825 217.104 295.928 218.009 296.705 219.171C297.481 220.333 297.895 221.699 297.895 223.097C297.893 224.97 297.148 226.767 295.824 228.091C294.499 229.416 292.704 230.161 290.831 230.163ZM290.831 217.601C289.744 217.601 288.682 217.923 287.778 218.527C286.874 219.131 286.17 219.99 285.754 220.994C285.338 221.998 285.23 223.103 285.442 224.169C285.654 225.235 286.177 226.215 286.945 226.983C287.714 227.752 288.693 228.275 289.759 228.487C290.825 228.699 291.929 228.591 292.933 228.175C293.937 227.759 294.796 227.054 295.399 226.15C296.003 225.247 296.325 224.184 296.325 223.097C296.324 221.64 295.744 220.243 294.714 219.213C293.684 218.182 292.287 217.603 290.831 217.601Z" fill="white"/>
<path d="M297.11 243.51H284.551C283.823 243.509 283.124 243.22 282.609 242.705C282.094 242.189 281.805 241.491 281.804 240.762C281.804 238.368 282.755 236.071 284.448 234.378C286.141 232.685 288.437 231.733 290.831 231.733C293.225 231.733 295.521 232.685 297.214 234.378C298.907 236.071 299.858 238.368 299.858 240.762C299.857 241.491 299.567 242.189 299.052 242.705C298.537 243.22 297.839 243.509 297.11 243.51ZM290.831 233.304C288.854 233.306 286.958 234.092 285.56 235.491C284.162 236.889 283.376 238.785 283.374 240.762C283.374 241.075 283.498 241.374 283.719 241.595C283.94 241.816 284.239 241.94 284.551 241.94H297.11C297.422 241.94 297.722 241.816 297.942 241.595C298.163 241.374 298.287 241.075 298.288 240.762C298.285 238.785 297.499 236.889 296.101 235.491C294.703 234.092 292.808 233.306 290.831 233.304Z" fill="white"/>
<path d="M63.5318 369.953H73.1554L77.7332 332.825L63.5303 332.826L63.5318 369.953Z" fill="#FFB8B8"/>
<path d="M91.7143 378.89L61.4696 378.891L61.4691 367.203L80.0284 367.202C83.1275 367.202 86.0998 368.433 88.2914 370.625C90.4829 372.817 91.7142 375.79 91.7144 378.89L91.7143 378.89Z" fill="#2F2E41"/>
<path d="M27.4239 369.953H37.0474L41.6253 332.825L27.4224 332.826L27.4239 369.953Z" fill="#FFB8B8"/>
<path d="M55.6069 378.89L25.3622 378.891L25.3616 367.203L43.9209 367.202C47.0201 367.202 49.9924 368.433 52.184 370.625C54.3755 372.817 55.6068 375.79 55.6069 378.89L55.6069 378.89Z" fill="#2F2E41"/>
<path d="M28.5991 259.376C29.6359 258.709 30.5139 257.823 31.1712 256.78C31.8285 255.736 32.2491 254.562 32.4034 253.338C32.5577 252.115 32.442 250.873 32.0644 249.699C31.6868 248.525 31.0565 247.448 30.2179 246.545L36.5544 156.602L18.3019 158.372L17.8006 246.454C16.376 247.963 15.5547 249.943 15.4921 252.018C15.4296 254.094 16.1303 256.119 17.4613 257.712C18.7924 259.305 20.6614 260.354 22.7142 260.661C24.767 260.968 26.8609 260.51 28.5992 259.376H28.5991Z" fill="#FFB8B8"/>
<path d="M63.8184 351.254C62.9549 351.251 62.1222 350.933 61.4763 350.36C60.8305 349.786 60.416 348.997 60.3106 348.14L54.7169 301.344C54.6382 300.685 54.3237 300.077 53.8316 299.632C53.3395 299.187 52.703 298.935 52.0397 298.923C51.3763 298.91 50.7309 299.139 50.2228 299.565C49.7146 299.992 49.3779 300.588 49.2749 301.244L42.2284 346.049C42.1009 346.882 41.6784 347.642 41.0379 348.189C40.3975 348.737 39.5817 349.037 38.7391 349.033H27.318C26.8519 349.033 26.3904 348.941 25.9601 348.762C25.5298 348.582 25.1392 348.32 24.8109 347.989C24.4826 347.658 24.2229 347.265 24.047 346.833C23.871 346.402 23.7823 345.939 23.7857 345.473L29.2366 246.127C29.2387 245.281 29.5457 244.465 30.1014 243.827C30.6571 243.19 31.424 242.774 32.2614 242.657L74.6439 236.503C75.1474 236.43 75.6608 236.467 76.1489 236.611C76.637 236.754 77.0883 237.002 77.4719 237.336C77.8555 237.671 78.1623 238.084 78.3715 238.548C78.5806 239.012 78.6871 239.516 78.6836 240.025L77.9443 347.24C77.938 348.143 77.5858 349.01 76.96 349.662C76.3342 350.314 75.4825 350.701 74.58 350.744L63.9861 351.249C63.9299 351.252 63.874 351.254 63.8184 351.254Z" fill="#2F2E41"/>
<path d="M41.8457 249.88C37.7691 249.865 33.7257 249.145 29.8942 247.752C29.2447 247.512 28.6805 247.086 28.2729 246.527C27.8653 245.967 27.6324 245.299 27.6037 244.607C27.2381 236.492 25.099 194.717 18.8715 169.236C17.6611 164.237 17.9571 158.992 19.7223 154.161C21.4875 149.331 24.6428 145.131 28.7905 142.091C29.1255 141.85 29.467 141.614 29.815 141.382C33.4168 138.984 37.5721 137.547 41.8857 137.209C46.1993 136.871 50.5276 137.642 54.459 139.45C58.5204 141.267 62.0492 144.094 64.7096 147.661C67.3701 151.229 69.0737 155.417 69.6584 159.829L79.8137 235.242C79.8789 235.713 79.8478 236.193 79.7222 236.652C79.5965 237.111 79.379 237.54 79.0828 237.912C78.7931 238.282 78.4312 238.589 78.0192 238.815C77.6072 239.041 77.1536 239.181 76.686 239.226C73.1671 239.577 65.8689 240.941 56.5285 246.132C52.0368 248.62 46.9804 249.911 41.8457 249.88Z" fill="#3F3D56"/>
<path d="M29.4305 187.369L12.7184 182.837C11.8148 182.591 11.0457 181.996 10.5799 181.183C10.114 180.371 9.98947 179.407 10.2335 178.502L16.1085 156.829C16.7378 154.507 18.2041 152.501 20.2248 151.197C22.2454 149.892 24.6773 149.383 27.0515 149.766C29.4256 150.149 31.574 151.397 33.0822 153.271C34.5904 155.144 35.3517 157.51 35.2193 159.912L33.8819 184.154C33.8529 184.679 33.7069 185.192 33.4545 185.654C33.2021 186.116 32.8497 186.515 32.4231 186.824C31.9964 187.132 31.5063 187.341 30.9885 187.435C30.4707 187.529 29.9384 187.507 29.4305 187.369Z" fill="#3F3D56"/>
<path d="M48.0341 129.21C58.6817 129.21 67.3133 120.576 67.3133 109.926C67.3133 99.2763 58.6817 90.6427 48.0341 90.6427C37.3865 90.6427 28.7549 99.2763 28.7549 109.926C28.7549 120.576 37.3865 129.21 48.0341 129.21Z" fill="#FFB8B8"/>
<path d="M117.897 147.813C117.801 148.236 117.738 148.667 117.71 149.1L83.9901 168.557L75.7941 163.838L67.0566 175.279L84.5902 187.779L123.059 157.424C124.628 158.004 126.337 158.094 127.958 157.679C129.578 157.265 131.035 156.367 132.133 155.105C133.231 153.843 133.919 152.276 134.106 150.613C134.292 148.95 133.968 147.27 133.176 145.796C132.384 144.322 131.163 143.123 129.674 142.361C128.185 141.598 126.499 141.307 124.84 141.526C123.182 141.744 121.629 142.463 120.389 143.586C119.149 144.709 118.28 146.184 117.897 147.813V147.813Z" fill="#FFB8B8"/>
<path d="M81.1954 169.496L66.6704 178.925C65.8843 179.434 64.9283 179.61 64.0124 179.415C63.0964 179.22 62.2952 178.67 61.7845 177.884L49.5628 159.047C48.2536 157.03 47.7376 154.598 48.1143 152.223C48.4911 149.847 49.7339 147.695 51.6031 146.181C53.4723 144.668 55.8356 143.9 58.2371 144.027C60.6387 144.153 62.9085 145.164 64.6088 146.865L81.7705 164.035C82.1427 164.407 82.427 164.858 82.6026 165.354C82.7782 165.85 82.8408 166.379 82.7856 166.903C82.7305 167.426 82.5591 167.931 82.284 168.38C82.0088 168.828 81.6369 169.21 81.1954 169.496Z" fill="#3F3D56"/>
<path d="M34.3908 125.183C37.9875 129.015 44.6669 126.958 45.1355 121.722C45.1723 121.316 45.1696 120.907 45.1276 120.501C44.8856 118.182 43.5462 116.077 43.867 113.628C43.9396 113.019 44.1666 112.438 44.5265 111.941C47.3925 108.102 54.1204 113.658 56.8252 110.183C58.4839 108.052 56.5342 104.697 57.807 102.316C59.4868 99.1722 64.4624 100.723 67.5826 99.0014C71.0543 97.0861 70.8466 91.7584 68.5614 88.5178C65.7744 84.5658 60.8879 82.457 56.0623 82.153C51.2367 81.8491 46.4444 83.1539 41.9392 84.91C36.8205 86.9053 31.7445 89.6628 28.5945 94.1648C24.7638 99.6396 24.3951 107 26.311 113.402C27.4764 117.296 31.4538 122.053 34.3908 125.183Z" fill="#2F2E41"/>
<path d="M110.678 378.946H0.784952C0.576769 378.946 0.377113 378.863 0.229906 378.716C0.0826994 378.568 0 378.369 0 378.16C0 377.952 0.0826994 377.753 0.229906 377.605C0.377113 377.458 0.576769 377.375 0.784952 377.375H110.678C110.886 377.375 111.086 377.458 111.233 377.605C111.38 377.753 111.463 377.952 111.463 378.16C111.463 378.369 111.38 378.568 111.233 378.716C111.086 378.863 110.886 378.946 110.678 378.946Z" fill="#3F3D56"/>
</svg>
