<svg width="82" height="82" viewBox="0 0 82 82" fill="none" xmlns="http://www.w3.org/2000/svg">
<circle cx="41" cy="41" r="41" fill="#EE5E52"/>
<path d="M41 62.5C42.3934 62.5018 43.7528 62.0693 44.8891 61.2629C46.0254 60.4564 46.8823 59.3159 47.3405 58H34.6595C35.1177 59.3159 35.9746 60.4564 37.1109 61.2629C38.2472 62.0693 39.6066 62.5018 41 62.5ZM56.75 45.8185V35.5C56.75 28.2618 51.8338 22.1642 45.1738 20.3305C44.5145 18.67 42.9035 17.5 41 17.5C39.0965 17.5 37.4855 18.67 36.8263 20.3305C30.1663 22.1665 25.25 28.2618 25.25 35.5V45.8185L21.4093 49.6592C21.1999 49.8678 21.0339 50.1158 20.9207 50.3888C20.8076 50.6618 20.7496 50.9545 20.75 51.25V53.5C20.75 54.0967 20.9871 54.669 21.409 55.091C21.831 55.5129 22.4033 55.75 23 55.75H59C59.5967 55.75 60.169 55.5129 60.591 55.091C61.013 54.669 61.25 54.0967 61.25 53.5V51.25C61.2504 50.9545 61.1924 50.6618 61.0793 50.3888C60.9661 50.1158 60.8001 49.8678 60.5908 49.6592L56.75 45.8185Z" fill="white"/>
</svg>
