<svg width="250" height="201" viewBox="0 0 250 201" fill="none" xmlns="http://www.w3.org/2000/svg">
<g clip-path="url(#clip0_2_134)">
<path d="M142.42 177.82C140.692 175.406 138.352 173.64 135.41 172.979C132.844 172.402 130.206 172.501 127.598 172.521L94.6244 172.774C91.8004 172.796 89.0928 175.236 89.2239 178.16C89.3541 181.059 91.5974 183.568 94.6244 183.545C104.284 183.471 113.943 183.396 123.602 183.322C125.879 183.305 128.157 183.264 130.435 183.271C130.946 183.273 131.455 183.3 131.966 183.306C132.09 183.307 132.179 183.306 132.242 183.303C132.258 183.308 132.272 183.312 132.292 183.318C132.559 183.391 132.832 183.441 133.1 183.511C133.006 183.513 133.274 183.68 133.409 183.736C133.427 183.773 133.467 183.837 133.532 183.937C133.624 184.108 133.896 184.63 133.907 184.613C134.315 185.643 134.652 186.699 134.915 187.775C135.543 190.147 135.681 190.643 135.771 192.868C135.885 195.679 138.173 198.387 141.172 198.253C144 198.127 146.694 195.883 146.572 192.868C146.366 187.787 145.471 182.081 142.42 177.82Z" fill="#E6E6E6"/>
<path d="M96.5627 189.973C95.9433 186.23 95.3359 182.485 94.7045 178.744C94.0638 174.95 92.7554 171.475 89.7941 168.984C89.0029 168.319 88.1825 167.697 87.3586 167.078C87.0688 166.86 86.7796 166.642 86.4933 166.42C86.4762 166.407 86.4653 166.398 86.4505 166.387C86.419 166.36 86.3812 166.328 86.3305 166.285C85.0962 165.243 83.9036 164.155 82.7676 162.999C81.7588 161.972 80.7941 160.901 79.8734 159.786C79.6433 159.508 79.4162 159.227 79.1921 158.943C79.1535 158.895 78.9459 158.627 78.8091 158.452C78.6818 158.278 78.4493 157.962 78.4102 157.907C78.1484 157.537 77.8911 157.165 77.6386 156.789C75.9185 154.219 74.4291 151.503 73.1876 148.672C73.0645 148.391 72.9443 148.109 72.827 147.825C72.7955 147.738 72.7548 147.627 72.7008 147.478C72.4506 146.792 72.2009 146.107 71.9721 145.413C71.4861 143.938 71.0683 142.442 70.7186 140.924C70.5457 140.174 70.3901 139.421 70.2517 138.664C70.1803 138.275 70.1136 137.884 70.0514 137.493C70.0412 137.428 69.9806 137.007 69.9448 136.768C69.9184 136.529 69.8693 136.105 69.8627 136.039C69.8232 135.645 69.7881 135.25 69.7574 134.856C69.6884 133.967 69.6417 133.077 69.6174 132.185C69.5758 130.601 69.6043 129.016 69.7027 127.432C69.7588 126.542 69.8385 125.654 69.9368 124.768C69.9427 124.713 69.9473 124.67 69.9516 124.631C69.9575 124.592 69.9644 124.547 69.9727 124.491C70.0454 124.001 70.1218 123.512 70.2074 123.024C70.5313 121.173 70.9526 119.34 71.4695 117.534C71.7142 116.679 71.9801 115.831 72.267 114.99C72.3949 114.617 72.5268 114.245 72.6629 113.875C72.654 113.899 73.0619 112.86 73.0673 112.825C74.6857 109.012 77.3329 105.536 77.3365 101.204C77.339 98.2713 74.8509 95.462 71.9361 95.5975C70.4828 95.652 69.1075 96.2671 68.1001 97.313C67.0927 98.3588 66.5318 99.7539 66.5356 101.204C66.5356 101.27 66.5352 101.326 66.5351 101.381C66.5079 101.472 66.4852 101.548 66.4647 101.616C66.1491 102.299 65.7625 102.949 65.416 103.616C64.4674 105.442 63.6577 107.327 62.8885 109.24C61.6293 112.355 60.6655 115.581 60.0096 118.876C58.5841 126.094 58.4734 133.51 59.683 140.767C61.7769 153.495 68.6821 165.678 78.2819 173.867C79.115 174.578 79.9684 175.264 80.8298 175.937C81.1863 176.216 81.5458 176.489 81.907 176.76C82.0778 176.889 82.7851 177.445 82.474 177.176C83.1431 177.745 83.4247 178.032 83.5966 178.451C83.6215 178.548 83.6555 178.679 83.7015 178.859C83.8226 179.332 83.9376 179.804 84.0332 180.283C84.8688 184.474 85.4496 188.735 86.1476 192.953C86.6273 195.852 90.2053 197.738 92.7909 196.869C95.8003 195.858 97.0767 193.078 96.5627 189.973Z" fill="#E6E6E6"/>
<path d="M142.967 200.843C140.699 200.849 138.521 199.957 136.911 198.364C135.301 196.771 134.391 194.606 134.38 192.344V186.201C127.93 186.921 105.844 186.754 99.5132 185.74V192.098C99.4962 194.358 98.584 196.52 96.9755 198.112C95.367 199.704 93.1927 200.597 90.9264 200.597C88.6601 200.597 86.4857 199.704 84.8772 198.112C83.2687 196.52 82.3566 194.358 82.3396 192.098V179.614C73.7649 174.863 66.6166 167.918 61.6326 159.493C56.6485 151.068 54.0092 141.47 53.9871 131.688C53.9871 114.916 61.6095 99.27 74.9 88.7621C83.5413 81.9068 94.0405 77.784 105.049 76.9233C106.543 76.8065 108.047 76.7473 109.517 76.7473C114.699 76.7473 138.079 77.5455 143.945 79.2285L157.32 65.9934C157.517 65.7962 157.768 65.6618 158.042 65.6074C158.315 65.5531 158.599 65.5812 158.856 65.6882C159.116 65.7911 159.338 65.9698 159.493 66.2009C159.649 66.4319 159.731 66.7045 159.728 66.9829V69.0872L162.333 66.515C162.529 66.3176 162.78 66.183 163.053 66.1286C163.327 66.0741 163.61 66.1022 163.867 66.2093C164.127 66.3122 164.349 66.4909 164.505 66.7221C164.661 66.9532 164.743 67.226 164.741 67.5046V91.02C171.452 97.0537 176.568 104.645 179.634 113.122C182.7 121.599 183.621 130.698 182.317 139.615C181.013 148.532 177.523 156.99 172.157 164.241C166.791 171.491 159.714 177.309 151.553 181.18V192.344C151.542 194.606 150.632 196.771 149.022 198.364C147.413 199.957 145.235 200.849 142.967 200.843ZM135.055 185.437V192.344C135.072 194.425 135.913 196.415 137.395 197.881C138.877 199.347 140.879 200.169 142.967 200.169C145.054 200.169 147.057 199.347 148.538 197.881C150.02 196.415 150.861 194.425 150.878 192.344V180.754L151.071 180.663C160.227 176.33 168.001 169.552 173.527 161.08C180.57 150.27 183.499 137.302 181.784 124.525C180.069 111.747 173.823 100.004 164.178 91.4206L164.066 91.3202V67.5045C164.068 67.3598 164.026 67.2179 163.945 67.0978C163.864 66.9777 163.748 66.8852 163.613 66.8328C163.478 66.7755 163.33 66.76 163.186 66.7884C163.043 66.8169 162.911 66.8879 162.809 66.9921L159.053 70.7014V66.9829C159.056 66.8382 159.014 66.6962 158.933 66.5761C158.852 66.456 158.736 66.3636 158.6 66.3112C158.466 66.254 158.317 66.2386 158.173 66.2673C158.029 66.2959 157.898 66.3671 157.795 66.4716L144.133 79.99L143.939 79.9294C138.486 78.2274 114.739 77.4205 109.517 77.4205C108.064 77.4205 106.578 77.479 105.102 77.5945C94.2273 78.4447 83.8557 82.5174 75.3194 89.2895C62.1914 99.6691 54.6621 115.123 54.6621 131.688C54.6845 141.383 57.3097 150.895 62.2649 159.236C67.2202 167.578 74.3247 174.444 82.8405 179.121L83.0146 179.217V192.098C83.032 194.179 83.8732 196.169 85.3551 197.635C86.8369 199.1 88.8394 199.922 90.9264 199.922C93.0133 199.922 95.0158 199.1 96.4977 197.635C97.9795 196.169 98.8207 194.179 98.8381 192.098V184.934L99.238 185.009C104.927 186.076 128.884 186.244 134.674 185.487L135.055 185.437Z" fill="#3F3D56"/>
<path d="M97.2078 40.0932L59.8297 51.2947C58.6409 51.6524 57.643 52.4661 57.0554 53.557C56.4678 54.6479 56.3384 55.9268 56.6958 57.1128C57.0532 58.2987 57.868 59.2947 58.9613 59.8819C60.0546 60.4691 61.337 60.5995 62.5267 60.2445L95.2366 50.4398L95.9218 50.2344C96.0605 46.7133 97.0184 43.2725 98.72 40.184C98.5064 40.0882 98.2782 40.029 98.0449 40.009C97.763 39.9818 97.4786 40.0104 97.2078 40.0932Z" fill="#7B79FF"/>
<path d="M61.8803 62.6326C61.3841 62.6314 60.9008 62.4747 60.4988 62.1847C60.0968 61.8948 59.7963 61.4861 59.6398 61.0166L57.3025 53.9833C57.2048 53.6896 57.1662 53.3796 57.1887 53.071C57.2113 52.7624 57.2945 52.4612 57.4338 52.1847C57.5731 51.9082 57.7656 51.6617 58.0004 51.4594C58.2352 51.2571 58.5076 51.1029 58.8022 51.0056L89.2242 40.9518C89.5187 40.8545 89.8295 40.8159 90.139 40.8384C90.4484 40.8608 90.7504 40.9438 91.0277 41.0826C91.305 41.2215 91.5521 41.4134 91.755 41.6475C91.9579 41.8816 92.1126 42.1532 92.2102 42.4469L94.5475 49.4802C94.742 50.0587 94.703 50.6899 94.4388 51.2402C94.1746 51.7905 93.706 52.2167 93.1322 52.4284C93.1041 52.4389 93.0757 52.4488 93.0471 52.4582L62.6258 62.5117C62.3854 62.5916 62.1337 62.6324 61.8803 62.6326Z" fill="#2F2E41"/>
<path d="M118.854 27.6025C112.714 27.6048 106.815 29.9896 102.407 34.252C97.9995 38.5144 95.4278 44.3199 95.2366 50.4397C95.2298 50.6787 95.2265 50.9211 95.2265 51.1634C95.2265 55.8233 96.6122 60.3786 99.2084 64.2531C101.805 68.1277 105.495 71.1476 109.812 72.9309C114.129 74.7141 118.88 75.1807 123.463 74.2716C128.046 73.3625 132.256 71.1185 135.56 67.8235C138.865 64.5284 141.115 60.3303 142.027 55.7599C142.938 51.1895 142.47 46.4522 140.682 42.147C138.894 37.8418 135.866 34.1621 131.98 31.5732C128.095 28.9843 123.527 27.6025 118.854 27.6025ZM118.854 74.0512C112.768 74.0448 106.934 71.6314 102.631 67.3405C98.3281 63.0496 95.9079 57.2317 95.9016 51.1634C95.9016 50.8504 95.9083 50.5407 95.9218 50.2344C96.1046 45.7511 97.6049 41.4202 100.236 37.7803C102.868 34.1404 106.514 31.3521 110.721 29.7621C114.929 28.1721 119.513 27.8505 123.902 28.8374C128.292 29.8243 132.293 32.0761 135.41 35.3128C138.526 38.5495 140.62 42.6283 141.43 47.042C142.241 51.4556 141.732 56.0095 139.968 60.1374C138.204 64.2652 135.262 67.7848 131.508 70.2586C127.754 72.7324 123.353 74.0513 118.854 74.0512Z" fill="#3F3D56"/>
<path d="M138.768 51.1634C138.768 56.4302 136.67 61.4813 132.935 65.2055C129.2 68.9297 124.135 71.0219 118.854 71.0219C113.572 71.0219 108.507 68.9297 104.772 65.2055C101.037 61.4813 98.9393 56.4302 98.9393 51.1634C98.9393 50.534 98.9697 49.9147 99.027 49.3021C99.5069 44.2191 101.932 39.5157 105.798 36.1684C109.663 32.8212 114.674 31.0873 119.788 31.3269C124.902 31.5664 129.727 33.7609 133.262 37.4548C136.796 41.1486 138.768 46.0579 138.768 51.1634Z" fill="#E6E6E6"/>
<path d="M124.784 52.4828C124.301 51.8499 123.666 51.3487 122.938 51.0254C122.039 50.6478 121.111 50.3438 120.163 50.1166V44.7111C121.621 44.9302 122.987 45.5516 124.109 46.5051L125.209 44.1658C124.576 43.6036 123.85 43.1559 123.063 42.843C122.19 42.4906 121.274 42.2563 120.339 42.1463V39.4065H117.79V42.1732C116.806 42.2834 115.857 42.6013 115.006 43.1056C114.237 43.5595 113.589 44.1923 113.119 44.95C112.67 45.6895 112.437 46.5394 112.447 47.4037C112.403 48.3404 112.676 49.2647 113.22 50.0291C113.722 50.6909 114.384 51.2145 115.144 51.5505C116.057 51.9392 117.001 52.2511 117.966 52.4828V57.6629C116.246 57.5335 114.608 56.8815 113.271 55.7948L112.171 58.1374C112.918 58.7536 113.768 59.2343 114.682 59.5578C115.683 59.9152 116.729 60.1326 117.79 60.2041V62.9203H120.339V60.1536C121.754 59.9993 123.082 59.3924 124.122 58.4235C124.581 57.9852 124.943 57.4567 125.186 56.8715C125.429 56.2863 125.547 55.6572 125.533 55.024C125.576 54.1172 125.312 53.2224 124.784 52.4828ZM117.966 49.5444C117.345 49.3567 116.768 49.0478 116.268 48.6356C116.07 48.4599 115.913 48.2426 115.81 47.9993C115.706 47.7561 115.657 47.4929 115.667 47.2287C115.649 46.6292 115.87 46.047 116.282 45.6098C116.738 45.1511 117.327 44.8462 117.966 44.738V49.5444ZM121.763 56.707C121.333 57.1473 120.772 57.4387 120.163 57.5383V53.0819C120.745 53.2376 121.289 53.5089 121.763 53.8796C121.943 54.0327 122.086 54.2241 122.181 54.4397C122.276 54.6553 122.321 54.8895 122.313 55.125C122.337 55.7027 122.14 56.2678 121.763 56.707Z" fill="#7B79FF"/>
<path d="M62.9651 91.1376C62.4433 91.1368 61.9364 90.9643 61.5229 90.6469C61.1095 90.3294 60.8126 89.8849 60.6783 89.3821L59.4058 84.579C59.2465 83.9753 59.3338 83.3332 59.6486 82.7937C59.9634 82.2541 60.48 81.8611 61.085 81.7008L101.231 71.122C101.837 70.9644 102.481 71.0524 103.021 71.3669C103.562 71.6814 103.956 72.1967 104.117 72.8L105.195 76.8693L104.993 76.8849C94.6971 77.6832 84.8456 81.4058 76.6045 87.6122L76.5459 87.6405L63.5645 91.0601C63.3689 91.1115 63.1674 91.1376 62.9651 91.1376Z" fill="#2F2E41"/>
<path d="M56.3161 114.862C51.6067 114.168 47.1028 112.47 43.1112 109.883C41.1337 108.603 39.303 107.11 37.652 105.431C36.0225 103.774 34.4635 101.89 33.6564 99.6824C32.8798 97.6402 32.9198 95.3785 33.7682 93.3649C34.605 91.3637 36.2034 89.7749 38.213 88.9471C40.2347 88.1431 42.6773 88.0571 44.6448 88.9376C45.5824 89.3474 46.3937 89.9986 46.9955 90.8244C47.2752 91.2051 47.4823 91.6339 47.6065 92.0894C47.7217 92.5021 47.7322 92.9369 47.637 93.3546C47.5216 93.7717 47.3182 94.1593 47.0403 94.4915C46.7624 94.8238 46.4164 95.0929 46.0257 95.2809C45.1657 95.7208 44.2339 96.0042 43.2741 96.1177C42.3087 96.249 40.922 96.3684 40.1459 95.5957C39.9861 95.4428 39.8605 95.2581 39.7771 95.0535C39.7188 94.8969 39.6988 94.7286 39.7189 94.5627C39.7076 94.6359 39.7657 94.4038 39.7624 94.413C39.7501 94.4473 39.697 94.531 39.7725 94.4025C39.7961 94.3601 39.8224 94.3193 39.8512 94.2803C39.8256 94.3134 39.7692 94.3686 39.8698 94.2739C39.953 94.1831 40.0599 94.1173 40.1784 94.0839C40.2252 94.0703 40.2726 94.0595 40.3194 94.0467C40.4385 94.0143 40.2007 94.0485 40.3225 94.0446C40.3695 94.0431 40.4171 94.0443 40.464 94.0422C40.5834 94.0368 40.3461 94.0097 40.4606 94.0384C40.5051 94.0495 40.5491 94.0604 40.5929 94.0742C40.6881 94.1041 40.5255 94.0045 40.59 94.0791C40.6656 94.1664 40.5106 93.9941 40.5965 94.0787C40.6393 94.1205 40.6796 94.1649 40.7173 94.2114C40.8663 94.3581 41.0673 94.4404 41.2767 94.4404C41.4862 94.4404 41.6872 94.3581 41.8362 94.2114C41.9801 94.0611 42.0605 93.8613 42.0605 93.6535C42.0605 93.4457 41.9801 93.2459 41.8362 93.0956C41.056 92.1312 39.515 92.3695 38.7258 93.1846C37.7192 94.2241 38.1178 95.8716 39.0969 96.7786C40.2052 97.8055 41.775 97.8768 43.2007 97.7046C44.4056 97.5895 45.5798 97.2586 46.6668 96.7278C47.747 96.1986 48.5918 95.2885 49.0376 94.1738C49.2389 93.5789 49.3112 92.9481 49.2498 92.3233C49.1883 91.6984 48.9945 91.0937 48.6811 90.5491C47.4223 88.1893 44.8158 86.9794 42.2395 86.7698C40.9131 86.6662 39.5793 86.826 38.3152 87.2398C37.051 87.6536 35.8818 88.3133 34.875 89.1807C32.9346 90.9228 31.7397 93.3418 31.5375 95.9377C31.3126 98.629 32.3597 101.243 33.8864 103.415C35.4847 105.621 37.3919 107.588 39.55 109.256C43.7689 112.614 48.7177 114.942 54.0003 116.051C54.6286 116.181 55.2603 116.292 55.8954 116.384C56.0975 116.433 56.3107 116.403 56.4915 116.3C56.6723 116.198 56.8072 116.031 56.8687 115.833C56.9229 115.631 56.8954 115.416 56.792 115.235C56.6885 115.053 56.5176 114.919 56.3161 114.862L56.3161 114.862Z" fill="#3F3D56"/>
<path d="M131.715 80.5722C124.815 80.4751 117.937 80.6497 111.081 81.0961C108.738 81.2487 106.71 82.0747 106.71 83.463C106.71 84.6237 108.721 85.9835 111.081 85.8298C117.934 85.3836 124.812 85.209 131.715 85.306C137.343 85.3852 137.34 80.6514 131.715 80.5722Z" fill="#CCCCCC"/>
<path d="M121.517 85.0715C120.772 85.0715 103.255 85.0438 103.255 82.631C103.255 80.2183 120.772 80.1906 121.517 80.1906C122.263 80.1906 139.78 80.2183 139.78 82.631C139.78 85.0438 122.263 85.0715 121.517 85.0715ZM103.94 82.631C104.419 83.3625 110.858 84.3984 121.517 84.3984C132.177 84.3984 138.615 83.3625 139.095 82.631C138.615 81.8996 132.177 80.8637 121.517 80.8637C110.858 80.8637 104.419 81.8996 103.94 82.631V82.631Z" fill="#3F3D56"/>
<path d="M177.093 148.501C180.971 148.394 185.796 148.259 189.514 145.551C190.621 144.712 191.531 143.641 192.179 142.414C192.828 141.187 193.199 139.833 193.268 138.448C193.344 136.309 192.569 134.442 191.086 133.193C189.144 131.556 186.308 131.173 183.253 132.068L186.419 108.996L184.094 108.678L180.372 135.803L182.313 134.915C184.563 133.885 187.652 133.362 189.571 134.979C190.043 135.402 190.41 135.928 190.644 136.515C190.879 137.102 190.974 137.736 190.924 138.366C190.867 139.397 190.588 140.404 190.106 141.317C189.624 142.231 188.95 143.031 188.13 143.662C185.237 145.769 181.39 146.041 177.028 146.163L177.093 148.501Z" fill="#3F3D56"/>
<path d="M170.667 110.986H158.032V113.325H170.667V110.986Z" fill="#3F3D56"/>
<path d="M68.6823 101.897C68.1199 101.895 67.5766 101.694 67.1496 101.329C66.7226 100.964 66.4398 100.459 66.352 99.9051L65.5808 94.9972C65.4845 94.3799 65.6376 93.7498 66.0067 93.245C66.3758 92.7402 66.9305 92.4021 67.5493 92.3047L108.57 85.8953C109.189 85.7993 109.821 85.952 110.327 86.32C110.833 86.688 111.172 87.2412 111.27 87.8583L112.041 92.7663C112.137 93.3836 111.984 94.0137 111.615 94.5185C111.246 95.0233 110.691 95.3615 110.072 95.4588L69.052 101.868C68.9297 101.887 68.8061 101.897 68.6823 101.897Z" fill="#2F2E41"/>
<path d="M51.706 44.3803C61.213 44.3803 68.92 36.6949 68.92 27.2145C68.92 17.734 61.213 10.0486 51.706 10.0486C42.1989 10.0486 34.4919 17.734 34.4919 27.2145C34.4919 36.6949 42.1989 44.3803 51.706 44.3803Z" fill="#7B79FF"/>
<path d="M61.4523 31.656C62.0024 31.4641 62.505 31.157 62.9262 30.7552C63.2049 30.4688 63.4174 30.1251 63.5489 29.7482C63.6804 29.3712 63.7276 28.9702 63.6873 28.5732C63.6639 28.2902 63.5752 28.0164 63.4281 27.7733C63.281 27.5301 63.0795 27.3242 62.8394 27.1716C62.2164 26.7895 61.3932 26.804 60.5621 27.1882L60.4662 20.4875L59.7912 20.4971L59.9039 28.3744L60.4178 28.0384C61.0136 27.6493 61.8697 27.3672 62.4857 27.745C62.638 27.845 62.7652 27.9787 62.8573 28.1357C62.9493 28.2928 63.0039 28.4688 63.0166 28.6503C63.045 28.9461 63.0092 29.2445 62.9115 29.5252C62.8139 29.806 62.6568 30.0625 62.4508 30.2772C61.7191 31.0012 60.636 31.2438 59.3998 31.4657L59.5194 32.1282C60.1765 32.0287 60.8234 31.8706 61.4523 31.656Z" fill="#2F2E41"/>
<path d="M67.4171 20.0172L63.8224 20.5601L63.9235 21.2256L67.5182 20.6827L67.4171 20.0172Z" fill="#2F2E41"/>
<path d="M56.0705 21.7304L52.4757 22.2733L52.5768 22.9387L56.1715 22.3959L56.0705 21.7304Z" fill="#2F2E41"/>
<path d="M63.0818 101.597C62.4627 101.595 61.8587 101.406 61.3501 101.054C60.8416 100.702 60.4526 100.204 60.2349 99.626L48.3663 67.9302C46.9157 64.0429 47.0706 59.7405 48.797 55.967C50.5235 52.1934 53.6806 49.2569 57.5755 47.8017L67.2261 44.2082C67.5992 44.0683 67.9965 44.0034 68.3949 44.0172C68.7933 44.031 69.1851 44.1232 69.5476 44.2886C69.9093 44.4497 70.2351 44.6811 70.506 44.9693C70.777 45.2574 70.9876 45.5965 71.1257 45.9667L93.1112 87.3612C93.2539 87.7345 93.3212 88.1322 93.3092 88.5315C93.2972 88.9308 93.2062 89.3238 93.0413 89.6879C92.8764 90.052 92.6409 90.3799 92.3484 90.6529C92.0559 90.9259 91.7121 91.1385 91.3369 91.2785L64.1434 101.404C63.8039 101.531 63.4443 101.596 63.0818 101.597Z" fill="#2F2E41"/>
<path d="M64.2981 45.2984L86.1123 74.3879L71.3516 45.6037C71.2297 45.2678 71.0426 44.9592 70.8011 44.6955C70.5595 44.4317 70.2683 44.218 69.9439 44.0666C69.6195 43.9151 69.2684 43.8288 68.9106 43.8127C68.5528 43.7966 68.1952 43.8509 67.8585 43.9726L64.2981 45.2984Z" fill="#E6E6E6"/>
<path d="M98.8382 67.3902L59.8889 64.8883C59.2749 64.8489 58.6748 64.6892 58.1227 64.4185C57.5706 64.1478 57.0775 63.7713 56.6713 63.3105C56.2651 62.8498 55.954 62.3137 55.7556 61.733C55.5572 61.1523 55.4754 60.5383 55.5149 59.9261C55.5545 59.3139 55.7146 58.7154 55.986 58.1649C56.2575 57.6144 56.6351 57.1226 57.0971 56.7175C57.5592 56.3125 58.0968 56.0022 58.6791 55.8044C59.2614 55.6065 59.8772 55.525 60.4911 55.5644L99.4404 58.0661C99.728 58.0845 100.009 58.1593 100.268 58.2861C100.526 58.4128 100.757 58.5891 100.947 58.8049C101.138 59.0207 101.283 59.2718 101.376 59.5437C101.469 59.8157 101.507 60.1032 101.489 60.3899L101.169 65.3475C101.131 65.9266 100.865 66.4671 100.428 66.8501C99.9906 67.2332 99.4189 67.4275 98.8382 67.3902Z" fill="#7B79FF"/>
<path d="M88.4304 68.994C88.379 68.994 88.3274 68.9924 88.2757 68.9891H88.2756L56.2926 66.9347C55.983 66.9149 55.6803 66.8344 55.4018 66.6979C55.1234 66.5614 54.8746 66.3715 54.6698 66.1391C54.4649 65.9067 54.308 65.6364 54.208 65.3435C54.1079 65.0506 54.0667 64.741 54.0866 64.4322L54.6335 55.9643C54.6535 55.6556 54.7342 55.3537 54.8712 55.0761C55.0081 54.7984 55.1985 54.5504 55.4316 54.3461C55.6647 54.1419 55.9358 53.9854 56.2295 53.8856C56.5232 53.7859 56.8338 53.7448 57.1434 53.7647L89.1264 55.8189C89.7514 55.8597 90.3347 56.1461 90.7482 56.6153C91.1618 57.0845 91.3718 57.698 91.3323 58.3214L90.7854 66.7894C90.7553 67.2432 90.5945 67.6786 90.3223 68.0435C90.0501 68.4083 89.6781 68.6871 89.251 68.8463C88.9885 68.9442 88.7106 68.9942 88.4304 68.994Z" fill="#2F2E41"/>
<path d="M51.5087 15.7994C53.7732 13.8572 56.883 15.5947 59.48 15.2905C61.9646 14.9995 63.9265 12.7771 64.4277 10.416C65.0124 7.66137 63.5786 4.90166 61.4653 3.18421C59.1507 1.30317 56.081 0.763176 53.1721 1.11118C49.8381 1.51003 46.789 3.05979 44.0531 4.93429C41.4122 6.6876 38.9837 8.73973 36.8159 11.0498C34.8747 13.1876 33.23 15.7359 32.7048 18.6127C32.2276 21.2272 32.592 24.1243 34.1419 26.3391C34.9637 27.4743 36.0651 28.3791 37.3397 28.9662C38.6687 29.617 40.0864 30.0822 41.3739 30.818C43.3207 31.9305 45.2128 34.2373 44.603 36.6379C44.4722 37.1623 44.2142 37.6466 43.8516 38.0482C43.416 38.5304 42.6302 37.8931 43.067 37.4096C43.8341 36.5604 43.8039 35.4278 43.3951 34.4139C42.9089 33.2714 42.0481 32.3275 40.9536 31.7367C39.6058 30.9683 38.1178 30.494 36.7365 29.794C35.4143 29.1547 34.2666 28.2062 33.3911 27.0294C31.7378 24.7383 31.2433 21.7565 31.6182 18.9981C32.024 16.0132 33.5619 13.3007 35.4899 11.0277C37.588 8.55396 40.1653 6.46003 42.7982 4.57892C45.6234 2.56047 48.7446 0.854013 52.1985 0.236814C55.1924 -0.298201 58.4376 0.0311882 61.0557 1.65819C63.4995 3.17689 65.3735 5.78935 65.5599 8.70853C65.6268 10.0367 65.3376 11.3587 64.722 12.5385C64.1064 13.7182 63.1867 14.7131 62.0576 15.4207C60.8989 16.1121 59.5518 16.4233 58.2063 16.3104C56.7679 16.2186 55.3281 15.7794 53.8805 15.9013C53.2255 15.941 52.6012 16.1925 52.1024 16.6177C51.6076 17.0421 51.018 16.2203 51.5087 15.7994Z" fill="#2F2E41"/>
<path d="M249.598 201H0.401889C0.295502 201 0.193581 200.957 0.118463 200.882C0.043345 200.807 0.00115967 200.705 0.00115967 200.599C0.00115967 200.493 0.043345 200.391 0.118463 200.316C0.193581 200.241 0.295502 200.199 0.401889 200.198H249.598C249.705 200.198 249.807 200.241 249.882 200.316C249.958 200.391 250 200.493 250 200.599C250 200.706 249.958 200.807 249.882 200.883C249.807 200.958 249.705 201 249.598 201Z" fill="#3F3D56"/>
</g>
<defs>
<clipPath id="clip0_2_134">
<rect width="250" height="201" fill="white"/>
</clipPath>
</defs>
</svg>
