<svg width="256" height="195" viewBox="0 0 256 195" fill="none" xmlns="http://www.w3.org/2000/svg">
<path d="M36.5679 115.143C45.5269 115.143 52.7896 107.892 52.7896 98.947C52.7896 90.0023 45.5269 82.7511 36.5679 82.7511C27.6088 82.7511 20.3461 90.0023 20.3461 98.947C20.3461 107.892 27.6088 115.143 36.5679 115.143Z" fill="#FF6584"/>
<path d="M69.7883 190.429H69.7718C69.2006 190.428 68.653 190.201 68.2491 189.798C67.8452 189.395 67.618 188.848 67.6174 188.278V62.0001C67.618 61.4298 67.8452 60.883 68.2491 60.4798C68.653 60.0765 69.2006 59.8497 69.7718 59.8491H176.227C176.798 59.8497 177.346 60.0765 177.75 60.4798C178.154 60.883 178.381 61.4298 178.382 62.0001V160.188C178.381 160.755 178.156 161.3 177.756 161.702C177.356 162.105 176.812 162.334 176.244 162.339L69.7883 190.429Z" fill="#F2F2F2"/>
<path d="M148.473 42.0082H99.0471V13.4123C99.0478 12.8084 99.2883 12.2295 99.716 11.8025C100.144 11.3756 100.723 11.1354 101.328 11.1347H146.192C146.796 11.1354 147.376 11.3756 147.804 11.8025C148.232 12.2295 148.472 12.8084 148.473 13.4123V42.0082ZM99.554 41.5021H147.966V13.4123C147.965 12.9426 147.778 12.4923 147.446 12.1602C147.113 11.8282 146.662 11.6414 146.192 11.6408H101.328C100.858 11.6414 100.407 11.8282 100.074 12.1602C99.7416 12.4923 99.5545 12.9426 99.554 13.4123V41.5021Z" fill="#3F3D56"/>
<path d="M113.114 22.0164H134.405C134.943 22.0164 135.459 22.2297 135.839 22.6093C136.22 22.989 136.433 23.5039 136.433 24.0409V54.4082H111.087V24.0409C111.087 23.5039 111.3 22.989 111.681 22.6093C112.061 22.2297 112.577 22.0164 113.114 22.0164Z" fill="#E6E6E6"/>
<path d="M117.297 11.6408H106.905V1.26531C106.905 0.929845 107.039 0.608232 107.276 0.371024C107.514 0.133816 107.836 0.000383781 108.172 0H116.029C116.365 0.000383781 116.687 0.133816 116.925 0.371024C117.163 0.608232 117.296 0.929845 117.297 1.26531V11.6408ZM107.411 11.1347H116.79V1.26531C116.789 1.06403 116.709 0.871053 116.567 0.728726C116.424 0.586399 116.231 0.506343 116.029 0.506123H108.172C107.97 0.506343 107.777 0.586399 107.634 0.728726C107.492 0.871053 107.412 1.06403 107.411 1.26531V11.1347Z" fill="#3F3D56"/>
<path d="M202.692 164.196C202.591 164.196 202.492 164.196 202.391 164.194C196.121 164.125 190.091 161.772 185.436 157.577C185.264 157.421 185.093 157.262 184.924 157.102L184.845 157.027V108.527L184.869 108.476C185.037 108.121 185.207 107.771 185.377 107.42C190.65 96.7338 196.798 90.8491 202.692 90.8491C211.19 90.8491 217.781 102.488 220.954 109.426C225.365 119.074 228.446 131.029 228.446 138.498C228.444 145.265 225.77 151.758 221.003 156.568C216.237 161.379 209.763 164.119 202.986 164.194C202.891 164.196 202.79 164.196 202.692 164.196ZM185.352 156.81C185.492 156.942 185.634 157.073 185.776 157.202C190.341 161.314 196.252 163.621 202.4 163.688C202.503 163.69 202.6 163.688 202.698 163.69C202.79 163.69 202.885 163.69 202.977 163.688C216.743 163.535 227.939 152.235 227.939 138.498C227.939 131.094 224.877 119.225 220.493 109.636C217.371 102.809 210.907 91.3552 202.692 91.3552C197.002 91.3552 191.015 97.1396 185.833 107.643C185.672 107.973 185.511 108.305 185.352 108.64L185.352 156.81Z" fill="#3F3D56"/>
<path d="M202.69 194.88C202.613 194.88 202.539 194.849 202.484 194.794C202.43 194.74 202.399 194.666 202.399 194.588V135.152C202.399 135.114 202.406 135.076 202.421 135.04C202.435 135.005 202.456 134.973 202.484 134.945C202.511 134.918 202.543 134.897 202.578 134.882C202.614 134.867 202.652 134.859 202.69 134.859C202.729 134.859 202.767 134.867 202.802 134.882C202.838 134.897 202.87 134.918 202.897 134.945C202.924 134.973 202.946 135.005 202.96 135.04C202.975 135.076 202.982 135.114 202.982 135.152V194.588C202.982 194.666 202.951 194.74 202.897 194.794C202.842 194.849 202.768 194.88 202.69 194.88Z" fill="#CCCCCC"/>
<path d="M51.3716 194.88C51.2942 194.88 51.2201 194.849 51.1654 194.794C51.1107 194.74 51.08 194.666 51.08 194.588V135.152C51.0797 135.114 51.0871 135.076 51.1017 135.04C51.1162 135.005 51.1377 134.973 51.1648 134.945C51.1919 134.918 51.2241 134.897 51.2596 134.882C51.2951 134.867 51.3331 134.859 51.3716 134.859C51.41 134.859 51.4481 134.867 51.4836 134.882C51.5191 134.897 51.5513 134.918 51.5784 134.945C51.6055 134.973 51.6269 135.005 51.6415 135.04C51.656 135.076 51.6634 135.114 51.6632 135.152V194.588C51.6632 194.666 51.6325 194.74 51.5778 194.794C51.5231 194.849 51.4489 194.88 51.3716 194.88Z" fill="#CCCCCC"/>
<path d="M202.691 146.257C202.649 146.257 202.607 146.248 202.569 146.231C202.531 146.214 202.497 146.188 202.47 146.157L187.804 129.27C187.753 129.211 187.728 129.135 187.733 129.059C187.739 128.982 187.775 128.91 187.833 128.86C187.892 128.809 187.968 128.784 188.045 128.789C188.122 128.794 188.194 128.83 188.244 128.888L202.911 145.775C202.947 145.817 202.971 145.869 202.979 145.924C202.987 145.98 202.979 146.036 202.956 146.087C202.933 146.138 202.895 146.181 202.848 146.211C202.801 146.241 202.747 146.257 202.691 146.257V146.257Z" fill="#CCCCCC"/>
<path d="M202.69 156.003C202.633 156.003 202.576 155.986 202.528 155.954C202.48 155.922 202.443 155.876 202.421 155.823C202.399 155.77 202.393 155.711 202.404 155.655C202.416 155.598 202.443 155.546 202.484 155.506L210.818 147.185C210.873 147.131 210.947 147.1 211.024 147.1C211.101 147.101 211.175 147.131 211.23 147.186C211.284 147.24 211.315 147.314 211.315 147.391C211.315 147.468 211.285 147.542 211.23 147.597L202.897 155.918C202.87 155.945 202.837 155.966 202.802 155.981C202.767 155.995 202.729 156.003 202.69 156.003Z" fill="#CCCCCC"/>
<path d="M229.671 195H207.872V194.747C207.871 193.317 208.152 191.902 208.7 190.581C209.247 189.26 210.05 188.06 211.062 187.049C212.074 186.038 213.276 185.235 214.599 184.688C215.922 184.141 217.34 183.859 218.771 183.859C220.203 183.859 221.621 184.141 222.944 184.688C224.266 185.235 225.468 186.038 226.48 187.049C227.493 188.06 228.295 189.26 228.843 190.581C229.39 191.902 229.672 193.317 229.671 194.747L229.671 195ZM208.382 194.494H229.161C229.095 191.787 227.971 189.212 226.03 187.321C224.089 185.429 221.484 184.371 218.771 184.371C216.059 184.371 213.454 185.429 211.513 187.321C209.571 189.212 208.448 191.787 208.382 194.494H208.382Z" fill="#3F3D56"/>
<path d="M218.771 188.57C218.695 188.57 218.622 188.601 218.568 188.655C218.514 188.708 218.484 188.782 218.484 188.858V191.91L215.506 189.358C215.477 189.333 215.444 189.314 215.408 189.303C215.372 189.291 215.334 189.286 215.297 189.289C215.259 189.292 215.222 189.302 215.188 189.319C215.154 189.336 215.124 189.36 215.1 189.388C215.075 189.417 215.056 189.45 215.045 189.486C215.033 189.522 215.028 189.56 215.031 189.598C215.034 189.635 215.044 189.672 215.062 189.706C215.079 189.739 215.102 189.769 215.131 189.794L218.484 192.667V194.46C218.484 194.497 218.491 194.535 218.505 194.57C218.52 194.605 218.541 194.637 218.568 194.663C218.594 194.69 218.626 194.711 218.661 194.726C218.696 194.74 218.734 194.748 218.771 194.748C218.809 194.748 218.847 194.74 218.882 194.726C218.917 194.711 218.948 194.69 218.975 194.663C219.002 194.637 219.023 194.605 219.037 194.57C219.052 194.535 219.059 194.497 219.059 194.46V188.858C219.059 188.782 219.029 188.708 218.975 188.655C218.921 188.601 218.848 188.57 218.771 188.57Z" fill="#3F3D56"/>
<path d="M46.9225 195H25.1232V194.747C25.1225 193.317 25.4039 191.902 25.9514 190.581C26.4988 189.26 27.3016 188.06 28.3138 187.049C29.326 186.038 30.5278 185.235 31.8505 184.688C33.1733 184.141 34.591 183.859 36.0228 183.859C37.4546 183.859 38.8724 184.141 40.1952 184.688C41.5179 185.235 42.7197 186.038 43.7319 187.049C44.7441 188.06 45.5469 189.26 46.0943 190.581C46.6418 191.902 46.9232 193.317 46.9225 194.747L46.9225 195ZM25.6332 194.494H46.4125C46.3464 191.787 45.2227 189.212 43.2815 187.321C41.3403 185.429 38.7353 184.371 36.0228 184.371C33.3104 184.371 30.7054 185.429 28.7642 187.321C26.823 189.212 25.6993 191.787 25.6331 194.494H25.6332Z" fill="#3F3D56"/>
<path d="M36.0228 188.57C35.9465 188.57 35.8733 188.601 35.8193 188.655C35.7654 188.708 35.7351 188.782 35.7351 188.858V191.91L32.7575 189.358C32.7288 189.333 32.6956 189.314 32.6596 189.303C32.6237 189.291 32.5857 189.286 32.548 189.289C32.5103 189.292 32.4734 189.302 32.4397 189.319C32.4059 189.336 32.3758 189.36 32.3512 189.388C32.3265 189.417 32.3078 189.45 32.296 189.486C32.2842 189.522 32.2797 189.56 32.2826 189.598C32.2855 189.635 32.2959 189.672 32.313 189.706C32.3302 189.739 32.3538 189.769 32.3826 189.794L35.7351 192.667V194.46C35.7349 194.497 35.7423 194.535 35.7567 194.57C35.7711 194.605 35.7923 194.637 35.819 194.663C35.8458 194.69 35.8775 194.711 35.9125 194.726C35.9475 194.74 35.985 194.748 36.0228 194.748C36.0607 194.748 36.0982 194.74 36.1331 194.726C36.1681 194.711 36.1998 194.69 36.2266 194.663C36.2533 194.637 36.2745 194.605 36.2889 194.57C36.3033 194.535 36.3107 194.497 36.3106 194.46V188.858C36.3106 188.782 36.2802 188.708 36.2263 188.655C36.1723 188.601 36.0991 188.57 36.0228 188.57Z" fill="#3F3D56"/>
<path d="M51.6263 164.196C51.5253 164.196 51.4269 164.196 51.3259 164.194C44.5496 164.118 38.0766 161.377 33.311 156.567C28.5454 151.756 25.8715 145.264 25.8691 138.498C25.8691 131.028 28.9503 119.074 33.3619 109.426C36.5346 102.488 43.1262 90.8491 51.6263 90.8491C55.1274 90.8491 58.6529 92.8415 62.105 96.771C62.2761 96.9647 62.4477 97.1643 62.6168 97.3688L62.6748 97.439V161.713L62.5318 161.782C62.3613 161.865 62.1882 161.942 62.0151 162.017C58.8341 163.422 55.3988 164.163 51.9205 164.194C51.8258 164.196 51.7247 164.196 51.6263 164.196ZM51.6263 91.3552C43.4097 91.3552 36.9452 102.809 33.8231 109.636C29.4384 119.225 26.376 131.093 26.376 138.498C26.376 152.233 37.5726 163.533 51.3351 163.688C51.4376 163.69 51.5333 163.691 51.633 163.69C51.725 163.69 51.8193 163.69 51.9112 163.688C55.3228 163.658 58.6921 162.932 61.8119 161.553C61.9315 161.502 62.0503 161.449 62.1679 161.394V97.6212C62.0211 97.4453 61.8727 97.2733 61.7243 97.1051C58.3723 93.2897 54.975 91.3552 51.6263 91.3552Z" fill="#3F3D56"/>
<path d="M51.6252 146.257C51.5834 146.257 51.542 146.248 51.504 146.231C51.4659 146.214 51.4321 146.188 51.4047 146.157L36.7383 129.27C36.6878 129.211 36.6626 129.135 36.6681 129.059C36.6737 128.982 36.7096 128.91 36.7679 128.86C36.8263 128.809 36.9024 128.784 36.9794 128.789C37.0565 128.794 37.1283 128.83 37.179 128.888L51.8454 145.775C51.882 145.817 51.9057 145.869 51.9137 145.924C51.9216 145.98 51.9135 146.036 51.8903 146.087C51.8671 146.138 51.8298 146.181 51.7828 146.211C51.7358 146.241 51.6811 146.257 51.6252 146.257V146.257Z" fill="#CCCCCC"/>
<path d="M51.6251 156.003C51.5674 156.003 51.511 155.986 51.4631 155.954C51.4151 155.922 51.3777 155.876 51.3557 155.823C51.3336 155.77 51.3278 155.711 51.3391 155.655C51.3503 155.598 51.3781 155.546 51.4189 155.506L59.7526 147.185C59.8073 147.131 59.8814 147.1 59.9586 147.1C60.0358 147.101 60.1098 147.131 60.1644 147.186C60.219 147.24 60.2497 147.314 60.2498 147.391C60.2499 147.468 60.2194 147.542 60.165 147.597L51.8313 155.918C51.8042 155.945 51.7721 155.966 51.7367 155.981C51.7013 155.995 51.6634 156.003 51.6251 156.003Z" fill="#CCCCCC"/>
<path d="M74.5268 44.0327L74.7144 44.4022C74.7975 44.5616 74.841 44.7387 74.8411 44.9184V54.9143H83.7124V44.9184C83.7125 44.7387 83.756 44.5616 83.8391 44.4022L84.0268 44.0327H74.5268ZM83.2055 44.9184V54.4082H75.3481V44.9184C75.3482 44.7905 75.3329 44.663 75.3024 44.5388H83.2512C83.2207 44.663 83.2053 44.7905 83.2055 44.9184ZM85.6793 44.0327L85.8669 44.4022C85.95 44.5616 85.9935 44.7387 85.9936 44.9184V54.9143H94.8649V44.9184C94.865 44.7387 94.9085 44.5616 94.9916 44.4022L95.1793 44.0327H85.6793ZM94.358 44.9184V54.4082H86.5005V44.9184C86.5007 44.7905 86.4853 44.663 86.4549 44.5388H94.4036C94.3732 44.663 94.3578 44.7905 94.358 44.9184ZM96.8317 44.0327L97.0193 44.4022C97.1025 44.5616 97.146 44.7387 97.1461 44.9184V54.9143H106.017V44.9184C106.017 44.7387 106.061 44.5616 106.144 44.4022L106.332 44.0327H96.8317ZM105.51 44.9184V54.4082H97.653V44.9184C97.6531 44.7905 97.6378 44.663 97.6073 44.5388H105.556C105.526 44.663 105.51 44.7905 105.51 44.9184ZM107.984 44.0327L108.172 44.4022C108.255 44.5616 108.298 44.7387 108.299 44.9184V54.9143H117.17V44.9184C117.17 44.7387 117.213 44.5616 117.297 44.4022L117.484 44.0327H107.984ZM116.663 44.9184V54.4082H108.805V44.9184C108.806 44.7905 108.79 44.663 108.76 44.5388H116.709C116.678 44.663 116.663 44.7905 116.663 44.9184ZM119.137 44.0327L119.324 44.4022C119.407 44.5616 119.451 44.7387 119.451 44.9184V54.9143H128.322V44.9184C128.322 44.7387 128.366 44.5616 128.449 44.4022L128.637 44.0327H119.137ZM127.815 44.9184V54.4082H119.958V44.9184C119.958 44.7905 119.943 44.663 119.912 44.5388H127.861C127.831 44.663 127.815 44.7905 127.815 44.9184ZM130.289 44.0327L130.477 44.4022C130.56 44.5616 130.603 44.7387 130.604 44.9184V54.9143H139.475V44.9184C139.475 44.7387 139.518 44.5616 139.602 44.4022L139.789 44.0327H130.289ZM138.968 44.9184V54.4082H131.11V44.9184C131.111 44.7905 131.095 44.663 131.065 44.5388H139.014C138.983 44.663 138.968 44.7905 138.968 44.9184ZM141.442 44.0327L141.629 44.4022C141.712 44.5616 141.756 44.7387 141.756 44.9184V54.9143H150.627V44.9184C150.627 44.7387 150.671 44.5616 150.754 44.4022L150.942 44.0327H141.442ZM150.12 44.9184V54.4082H142.263V44.9184C142.263 44.7905 142.248 44.663 142.217 44.5388H150.166C150.136 44.663 150.12 44.7905 150.12 44.9184ZM152.594 44.0327L152.782 44.4022C152.865 44.5616 152.908 44.7387 152.908 44.9184V54.9143H161.78V44.9184C161.78 44.7387 161.823 44.5616 161.906 44.4022L162.094 44.0327H152.594ZM161.273 44.9184V54.4082H153.415V44.9184C153.416 44.7905 153.4 44.663 153.37 44.5388H161.318C161.288 44.663 161.273 44.7905 161.273 44.9184ZM163.747 44.0327L163.934 44.4022C164.017 44.5616 164.061 44.7387 164.061 44.9184V54.9143H172.932V44.9184C172.932 44.7387 172.976 44.5616 173.059 44.4022L173.247 44.0327H163.747ZM172.425 44.9184V54.4082H164.568V44.9184C164.568 44.7905 164.553 44.663 164.522 44.5388H172.471C172.44 44.663 172.425 44.7905 172.425 44.9184ZM163.747 44.0327L163.934 44.4022C164.017 44.5616 164.061 44.7387 164.061 44.9184V54.9143H172.932V44.9184C172.932 44.7387 172.976 44.5616 173.059 44.4022L173.247 44.0327H163.747ZM172.425 44.9184V54.4082H164.568V44.9184C164.568 44.7905 164.553 44.663 164.522 44.5388H172.471C172.44 44.663 172.425 44.7905 172.425 44.9184ZM152.594 44.0327L152.782 44.4022C152.865 44.5616 152.908 44.7387 152.908 44.9184V54.9143H161.78V44.9184C161.78 44.7387 161.823 44.5616 161.906 44.4022L162.094 44.0327H152.594ZM161.273 44.9184V54.4082H153.415V44.9184C153.416 44.7905 153.4 44.663 153.37 44.5388H161.318C161.288 44.663 161.273 44.7905 161.273 44.9184ZM141.442 44.0327L141.629 44.4022C141.712 44.5616 141.756 44.7387 141.756 44.9184V54.9143H150.627V44.9184C150.627 44.7387 150.671 44.5616 150.754 44.4022L150.942 44.0327H141.442ZM150.12 44.9184V54.4082H142.263V44.9184C142.263 44.7905 142.248 44.663 142.217 44.5388H150.166C150.136 44.663 150.12 44.7905 150.12 44.9184ZM130.289 44.0327L130.477 44.4022C130.56 44.5616 130.603 44.7387 130.604 44.9184V54.9143H139.475V44.9184C139.475 44.7387 139.518 44.5616 139.602 44.4022L139.789 44.0327H130.289ZM138.968 44.9184V54.4082H131.11V44.9184C131.111 44.7905 131.095 44.663 131.065 44.5388H139.014C138.983 44.663 138.968 44.7905 138.968 44.9184ZM119.137 44.0327L119.324 44.4022C119.407 44.5616 119.451 44.7387 119.451 44.9184V54.9143H128.322V44.9184C128.322 44.7387 128.366 44.5616 128.449 44.4022L128.637 44.0327H119.137ZM127.815 44.9184V54.4082H119.958V44.9184C119.958 44.7905 119.943 44.663 119.912 44.5388H127.861C127.831 44.663 127.815 44.7905 127.815 44.9184ZM107.984 44.0327L108.172 44.4022C108.255 44.5616 108.298 44.7387 108.299 44.9184V54.9143H117.17V44.9184C117.17 44.7387 117.213 44.5616 117.297 44.4022L117.484 44.0327H107.984ZM116.663 44.9184V54.4082H108.805V44.9184C108.806 44.7905 108.79 44.663 108.76 44.5388H116.709C116.678 44.663 116.663 44.7905 116.663 44.9184ZM96.8317 44.0327L97.0193 44.4022C97.1025 44.5616 97.146 44.7387 97.1461 44.9184V54.9143H106.017V44.9184C106.017 44.7387 106.061 44.5616 106.144 44.4022L106.332 44.0327H96.8317ZM105.51 44.9184V54.4082H97.653V44.9184C97.6531 44.7905 97.6378 44.663 97.6073 44.5388H105.556C105.526 44.663 105.51 44.7905 105.51 44.9184ZM85.6793 44.0327L85.8669 44.4022C85.95 44.5616 85.9935 44.7387 85.9936 44.9184V54.9143H94.8649V44.9184C94.865 44.7387 94.9085 44.5616 94.9916 44.4022L95.1793 44.0327H85.6793ZM94.358 44.9184V54.4082H86.5005V44.9184C86.5007 44.7905 86.4853 44.663 86.4549 44.5388H94.4036C94.3732 44.663 94.3578 44.7905 94.358 44.9184ZM74.5268 44.0327L74.7144 44.4022C74.7975 44.5616 74.841 44.7387 74.8411 44.9184V54.9143H83.7124V44.9184C83.7125 44.7387 83.756 44.5616 83.8391 44.4022L84.0268 44.0327H74.5268ZM83.2055 44.9184V54.4082H75.3481V44.9184C75.3482 44.7905 75.3329 44.663 75.3024 44.5388H83.2512C83.2207 44.663 83.2053 44.7905 83.2055 44.9184ZM163.747 44.0327L163.934 44.4022C164.017 44.5616 164.061 44.7387 164.061 44.9184V54.9143H172.932V44.9184C172.932 44.7387 172.976 44.5616 173.059 44.4022L173.247 44.0327H163.747ZM172.425 44.9184V54.4082H164.568V44.9184C164.568 44.7905 164.553 44.663 164.522 44.5388H172.471C172.44 44.663 172.425 44.7905 172.425 44.9184ZM152.594 44.0327L152.782 44.4022C152.865 44.5616 152.908 44.7387 152.908 44.9184V54.9143H161.78V44.9184C161.78 44.7387 161.823 44.5616 161.906 44.4022L162.094 44.0327H152.594ZM161.273 44.9184V54.4082H153.415V44.9184C153.416 44.7905 153.4 44.663 153.37 44.5388H161.318C161.288 44.663 161.273 44.7905 161.273 44.9184ZM141.442 44.0327L141.629 44.4022C141.712 44.5616 141.756 44.7387 141.756 44.9184V54.9143H150.627V44.9184C150.627 44.7387 150.671 44.5616 150.754 44.4022L150.942 44.0327H141.442ZM150.12 44.9184V54.4082H142.263V44.9184C142.263 44.7905 142.248 44.663 142.217 44.5388H150.166C150.136 44.663 150.12 44.7905 150.12 44.9184ZM130.289 44.0327L130.477 44.4022C130.56 44.5616 130.603 44.7387 130.604 44.9184V54.9143H139.475V44.9184C139.475 44.7387 139.518 44.5616 139.602 44.4022L139.789 44.0327H130.289ZM138.968 44.9184V54.4082H131.11V44.9184C131.111 44.7905 131.095 44.663 131.065 44.5388H139.014C138.983 44.663 138.968 44.7905 138.968 44.9184ZM119.137 44.0327L119.324 44.4022C119.407 44.5616 119.451 44.7387 119.451 44.9184V54.9143H128.322V44.9184C128.322 44.7387 128.366 44.5616 128.449 44.4022L128.637 44.0327H119.137ZM127.815 44.9184V54.4082H119.958V44.9184C119.958 44.7905 119.943 44.663 119.912 44.5388H127.861C127.831 44.663 127.815 44.7905 127.815 44.9184ZM107.984 44.0327L108.172 44.4022C108.255 44.5616 108.298 44.7387 108.299 44.9184V54.9143H117.17V44.9184C117.17 44.7387 117.213 44.5616 117.297 44.4022L117.484 44.0327H107.984ZM116.663 44.9184V54.4082H108.805V44.9184C108.806 44.7905 108.79 44.663 108.76 44.5388H116.709C116.678 44.663 116.663 44.7905 116.663 44.9184ZM96.8317 44.0327L97.0193 44.4022C97.1025 44.5616 97.146 44.7387 97.1461 44.9184V54.9143H106.017V44.9184C106.017 44.7387 106.061 44.5616 106.144 44.4022L106.332 44.0327H96.8317ZM105.51 44.9184V54.4082H97.653V44.9184C97.6531 44.7905 97.6378 44.663 97.6073 44.5388H105.556C105.526 44.663 105.51 44.7905 105.51 44.9184ZM85.6793 44.0327L85.8669 44.4022C85.95 44.5616 85.9935 44.7387 85.9936 44.9184V54.9143H94.8649V44.9184C94.865 44.7387 94.9085 44.5616 94.9916 44.4022L95.1793 44.0327H85.6793ZM94.358 44.9184V54.4082H86.5005V44.9184C86.5007 44.7905 86.4853 44.663 86.4549 44.5388H94.4036C94.3732 44.663 94.3578 44.7905 94.358 44.9184ZM74.5268 44.0327L74.7144 44.4022C74.7975 44.5616 74.841 44.7387 74.8411 44.9184V54.9143H83.7124V44.9184C83.7125 44.7387 83.756 44.5616 83.8391 44.4022L84.0268 44.0327H74.5268ZM83.2055 44.9184V54.4082H75.3481V44.9184C75.3482 44.7905 75.3329 44.663 75.3024 44.5388H83.2512C83.2207 44.663 83.2053 44.7905 83.2055 44.9184ZM163.747 44.0327L163.934 44.4022C164.017 44.5616 164.061 44.7387 164.061 44.9184V54.9143H172.932V44.9184C172.932 44.7387 172.976 44.5616 173.059 44.4022L173.247 44.0327H163.747ZM172.425 44.9184V54.4082H164.568V44.9184C164.568 44.7905 164.553 44.663 164.522 44.5388H172.471C172.44 44.663 172.425 44.7905 172.425 44.9184ZM152.594 44.0327L152.782 44.4022C152.865 44.5616 152.908 44.7387 152.908 44.9184V54.9143H161.78V44.9184C161.78 44.7387 161.823 44.5616 161.906 44.4022L162.094 44.0327H152.594ZM161.273 44.9184V54.4082H153.415V44.9184C153.416 44.7905 153.4 44.663 153.37 44.5388H161.318C161.288 44.663 161.273 44.7905 161.273 44.9184ZM141.442 44.0327L141.629 44.4022C141.712 44.5616 141.756 44.7387 141.756 44.9184V54.9143H150.627V44.9184C150.627 44.7387 150.671 44.5616 150.754 44.4022L150.942 44.0327H141.442ZM150.12 44.9184V54.4082H142.263V44.9184C142.263 44.7905 142.248 44.663 142.217 44.5388H150.166C150.136 44.663 150.12 44.7905 150.12 44.9184ZM130.289 44.0327L130.477 44.4022C130.56 44.5616 130.603 44.7387 130.604 44.9184V54.9143H139.475V44.9184C139.475 44.7387 139.518 44.5616 139.602 44.4022L139.789 44.0327H130.289ZM138.968 44.9184V54.4082H131.11V44.9184C131.111 44.7905 131.095 44.663 131.065 44.5388H139.014C138.983 44.663 138.968 44.7905 138.968 44.9184ZM119.137 44.0327L119.324 44.4022C119.407 44.5616 119.451 44.7387 119.451 44.9184V54.9143H128.322V44.9184C128.322 44.7387 128.366 44.5616 128.449 44.4022L128.637 44.0327H119.137ZM127.815 44.9184V54.4082H119.958V44.9184C119.958 44.7905 119.943 44.663 119.912 44.5388H127.861C127.831 44.663 127.815 44.7905 127.815 44.9184ZM107.984 44.0327L108.172 44.4022C108.255 44.5616 108.298 44.7387 108.299 44.9184V54.9143H117.17V44.9184C117.17 44.7387 117.213 44.5616 117.297 44.4022L117.484 44.0327H107.984ZM116.663 44.9184V54.4082H108.805V44.9184C108.806 44.7905 108.79 44.663 108.76 44.5388H116.709C116.678 44.663 116.663 44.7905 116.663 44.9184ZM96.8317 44.0327L97.0193 44.4022C97.1025 44.5616 97.146 44.7387 97.1461 44.9184V54.9143H106.017V44.9184C106.017 44.7387 106.061 44.5616 106.144 44.4022L106.332 44.0327H96.8317ZM105.51 44.9184V54.4082H97.653V44.9184C97.6531 44.7905 97.6378 44.663 97.6073 44.5388H105.556C105.526 44.663 105.51 44.7905 105.51 44.9184ZM85.6793 44.0327L85.8669 44.4022C85.95 44.5616 85.9935 44.7387 85.9936 44.9184V54.9143H94.8649V44.9184C94.865 44.7387 94.9085 44.5616 94.9916 44.4022L95.1793 44.0327H85.6793ZM94.358 44.9184V54.4082H86.5005V44.9184C86.5007 44.7905 86.4853 44.663 86.4549 44.5388H94.4036C94.3732 44.663 94.3578 44.7905 94.358 44.9184ZM74.5268 44.0327L74.7144 44.4022C74.7975 44.5616 74.841 44.7387 74.8411 44.9184V54.9143H83.7124V44.9184C83.7125 44.7387 83.756 44.5616 83.8391 44.4022L84.0268 44.0327H74.5268ZM83.2055 44.9184V54.4082H75.3481V44.9184C75.3482 44.7905 75.3329 44.663 75.3024 44.5388H83.2512C83.2207 44.663 83.2053 44.7905 83.2055 44.9184ZM163.747 44.0327L163.934 44.4022C164.017 44.5616 164.061 44.7387 164.061 44.9184V54.9143H172.932V44.9184C172.932 44.7387 172.976 44.5616 173.059 44.4022L173.247 44.0327H163.747ZM172.425 44.9184V54.4082H164.568V44.9184C164.568 44.7905 164.553 44.663 164.522 44.5388H172.471C172.44 44.663 172.425 44.7905 172.425 44.9184ZM152.594 44.0327L152.782 44.4022C152.865 44.5616 152.908 44.7387 152.908 44.9184V54.9143H161.78V44.9184C161.78 44.7387 161.823 44.5616 161.906 44.4022L162.094 44.0327H152.594ZM161.273 44.9184V54.4082H153.415V44.9184C153.416 44.7905 153.4 44.663 153.37 44.5388H161.318C161.288 44.663 161.273 44.7905 161.273 44.9184ZM141.442 44.0327L141.629 44.4022C141.712 44.5616 141.756 44.7387 141.756 44.9184V54.9143H150.627V44.9184C150.627 44.7387 150.671 44.5616 150.754 44.4022L150.942 44.0327H141.442ZM150.12 44.9184V54.4082H142.263V44.9184C142.263 44.7905 142.248 44.663 142.217 44.5388H150.166C150.136 44.663 150.12 44.7905 150.12 44.9184ZM130.289 44.0327L130.477 44.4022C130.56 44.5616 130.603 44.7387 130.604 44.9184V54.9143H139.475V44.9184C139.475 44.7387 139.518 44.5616 139.602 44.4022L139.789 44.0327H130.289ZM138.968 44.9184V54.4082H131.11V44.9184C131.111 44.7905 131.095 44.663 131.065 44.5388H139.014C138.983 44.663 138.968 44.7905 138.968 44.9184ZM119.137 44.0327L119.324 44.4022C119.407 44.5616 119.451 44.7387 119.451 44.9184V54.9143H128.322V44.9184C128.322 44.7387 128.366 44.5616 128.449 44.4022L128.637 44.0327H119.137ZM127.815 44.9184V54.4082H119.958V44.9184C119.958 44.7905 119.943 44.663 119.912 44.5388H127.861C127.831 44.663 127.815 44.7905 127.815 44.9184ZM107.984 44.0327L108.172 44.4022C108.255 44.5616 108.298 44.7387 108.299 44.9184V54.9143H117.17V44.9184C117.17 44.7387 117.213 44.5616 117.297 44.4022L117.484 44.0327H107.984ZM116.663 44.9184V54.4082H108.805V44.9184C108.806 44.7905 108.79 44.663 108.76 44.5388H116.709C116.678 44.663 116.663 44.7905 116.663 44.9184ZM96.8317 44.0327L97.0193 44.4022C97.1025 44.5616 97.146 44.7387 97.1461 44.9184V54.9143H106.017V44.9184C106.017 44.7387 106.061 44.5616 106.144 44.4022L106.332 44.0327H96.8317ZM105.51 44.9184V54.4082H97.653V44.9184C97.6531 44.7905 97.6378 44.663 97.6073 44.5388H105.556C105.526 44.663 105.51 44.7905 105.51 44.9184ZM85.6793 44.0327L85.8669 44.4022C85.95 44.5616 85.9935 44.7387 85.9936 44.9184V54.9143H94.8649V44.9184C94.865 44.7387 94.9085 44.5616 94.9916 44.4022L95.1793 44.0327H85.6793ZM94.358 44.9184V54.4082H86.5005V44.9184C86.5007 44.7905 86.4853 44.663 86.4549 44.5388H94.4036C94.3732 44.663 94.3578 44.7905 94.358 44.9184ZM74.5268 44.0327L74.7144 44.4022C74.7975 44.5616 74.841 44.7387 74.8411 44.9184V54.9143H83.7124V44.9184C83.7125 44.7387 83.756 44.5616 83.8391 44.4022L84.0268 44.0327H74.5268ZM83.2055 44.9184V54.4082H75.3481V44.9184C75.3482 44.7905 75.3329 44.663 75.3024 44.5388H83.2512C83.2207 44.663 83.2053 44.7905 83.2055 44.9184ZM163.747 44.0327L163.934 44.4022C164.017 44.5616 164.061 44.7387 164.061 44.9184V54.9143H172.932V44.9184C172.932 44.7387 172.976 44.5616 173.059 44.4022L173.247 44.0327H163.747ZM172.425 44.9184V54.4082H164.568V44.9184C164.568 44.7905 164.553 44.663 164.522 44.5388H172.471C172.44 44.663 172.425 44.7905 172.425 44.9184ZM152.782 44.4022C152.865 44.5616 152.908 44.7387 152.908 44.9184V54.9143H161.78V44.9184C161.78 44.7387 161.823 44.5616 161.906 44.4022L162.094 44.0327H152.594L152.782 44.4022ZM161.318 44.5388C161.288 44.663 161.273 44.7905 161.273 44.9184V54.4082H153.415V44.9184C153.416 44.7905 153.4 44.663 153.37 44.5388H161.318ZM141.629 44.4022C141.712 44.5616 141.756 44.7387 141.756 44.9184V54.9143H150.627V44.9184C150.627 44.7387 150.671 44.5616 150.754 44.4022L150.942 44.0327H141.442L141.629 44.4022ZM150.166 44.5388C150.136 44.663 150.12 44.7905 150.12 44.9184V54.4082H142.263V44.9184C142.263 44.7905 142.248 44.663 142.217 44.5388H150.166ZM130.477 44.4022C130.56 44.5616 130.603 44.7387 130.604 44.9184V54.9143H139.475V44.9184C139.475 44.7387 139.518 44.5616 139.602 44.4022L139.789 44.0327H130.289L130.477 44.4022ZM139.014 44.5388C138.983 44.663 138.968 44.7905 138.968 44.9184V54.4082H131.11V44.9184C131.111 44.7905 131.095 44.663 131.065 44.5388H139.014ZM119.324 44.4022C119.407 44.5616 119.451 44.7387 119.451 44.9184V54.9143H128.322V44.9184C128.322 44.7387 128.366 44.5616 128.449 44.4022L128.637 44.0327H119.137L119.324 44.4022ZM127.861 44.5388C127.831 44.663 127.815 44.7905 127.815 44.9184V54.4082H119.958V44.9184C119.958 44.7905 119.943 44.663 119.912 44.5388H127.861ZM108.172 44.4022C108.255 44.5616 108.298 44.7387 108.299 44.9184V54.9143H117.17V44.9184C117.17 44.7387 117.213 44.5616 117.297 44.4022L117.484 44.0327H107.984L108.172 44.4022ZM116.709 44.5388C116.678 44.663 116.663 44.7905 116.663 44.9184V54.4082H108.805V44.9184C108.806 44.7905 108.79 44.663 108.76 44.5388H116.709ZM97.0193 44.4022C97.1025 44.5616 97.146 44.7387 97.1461 44.9184V54.9143H106.017V44.9184C106.017 44.7387 106.061 44.5616 106.144 44.4022L106.332 44.0327H96.8317L97.0193 44.4022ZM105.556 44.5388C105.526 44.663 105.51 44.7905 105.51 44.9184V54.4082H97.653V44.9184C97.6531 44.7905 97.6378 44.663 97.6073 44.5388H105.556ZM85.8669 44.4022C85.95 44.5616 85.9935 44.7387 85.9936 44.9184V54.9143H94.8649V44.9184C94.865 44.7387 94.9085 44.5616 94.9916 44.4022L95.1793 44.0327H85.6793L85.8669 44.4022ZM94.4036 44.5388C94.3732 44.663 94.3578 44.7905 94.358 44.9184V54.4082H86.5005V44.9184C86.5007 44.7905 86.4853 44.663 86.4549 44.5388H94.4036ZM74.7144 44.4022C74.7975 44.5616 74.841 44.7387 74.8411 44.9184V54.9143H83.7124V44.9184C83.7125 44.7387 83.756 44.5616 83.8391 44.4022L84.0268 44.0327H74.5268L74.7144 44.4022ZM83.2512 44.5388C83.2207 44.663 83.2053 44.7905 83.2055 44.9184V54.4082H75.3481V44.9184C75.3482 44.7905 75.3329 44.663 75.3024 44.5388H83.2512ZM163.934 44.4022C164.017 44.5616 164.061 44.7387 164.061 44.9184V54.9143H172.932V44.9184C172.932 44.7387 172.976 44.5616 173.059 44.4022L173.247 44.0327H163.747L163.934 44.4022ZM172.471 44.5388C172.44 44.663 172.425 44.7905 172.425 44.9184V54.4082H164.568V44.9184C164.568 44.7905 164.553 44.663 164.522 44.5388H172.471ZM152.782 44.4022C152.865 44.5616 152.908 44.7387 152.908 44.9184V54.9143H161.78V44.9184C161.78 44.7387 161.823 44.5616 161.906 44.4022L162.094 44.0327H152.594L152.782 44.4022ZM161.318 44.5388C161.288 44.663 161.273 44.7905 161.273 44.9184V54.4082H153.415V44.9184C153.416 44.7905 153.4 44.663 153.37 44.5388H161.318ZM141.629 44.4022C141.712 44.5616 141.756 44.7387 141.756 44.9184V54.9143H150.627V44.9184C150.627 44.7387 150.671 44.5616 150.754 44.4022L150.942 44.0327H141.442L141.629 44.4022ZM150.166 44.5388C150.136 44.663 150.12 44.7905 150.12 44.9184V54.4082H142.263V44.9184C142.263 44.7905 142.248 44.663 142.217 44.5388H150.166ZM130.477 44.4022C130.56 44.5616 130.603 44.7387 130.604 44.9184V54.9143H139.475V44.9184C139.475 44.7387 139.518 44.5616 139.602 44.4022L139.789 44.0327H130.289L130.477 44.4022ZM139.014 44.5388C138.983 44.663 138.968 44.7905 138.968 44.9184V54.4082H131.11V44.9184C131.111 44.7905 131.095 44.663 131.065 44.5388H139.014ZM119.324 44.4022C119.407 44.5616 119.451 44.7387 119.451 44.9184V54.9143H128.322V44.9184C128.322 44.7387 128.366 44.5616 128.449 44.4022L128.637 44.0327H119.137L119.324 44.4022ZM127.861 44.5388C127.831 44.663 127.815 44.7905 127.815 44.9184V54.4082H119.958V44.9184C119.958 44.7905 119.943 44.663 119.912 44.5388H127.861ZM108.172 44.4022C108.255 44.5616 108.298 44.7387 108.299 44.9184V54.9143H117.17V44.9184C117.17 44.7387 117.213 44.5616 117.297 44.4022L117.484 44.0327H107.984L108.172 44.4022ZM116.709 44.5388C116.678 44.663 116.663 44.7905 116.663 44.9184V54.4082H108.805V44.9184C108.806 44.7905 108.79 44.663 108.76 44.5388H116.709ZM97.0193 44.4022C97.1025 44.5616 97.146 44.7387 97.1461 44.9184V54.9143H106.017V44.9184C106.017 44.7387 106.061 44.5616 106.144 44.4022L106.332 44.0327H96.8317L97.0193 44.4022ZM105.556 44.5388C105.526 44.663 105.51 44.7905 105.51 44.9184V54.4082H97.653V44.9184C97.6531 44.7905 97.6378 44.663 97.6073 44.5388H105.556ZM85.8669 44.4022C85.95 44.5616 85.9935 44.7387 85.9936 44.9184V54.9143H94.8649V44.9184C94.865 44.7387 94.9085 44.5616 94.9916 44.4022L95.1793 44.0327H85.6793L85.8669 44.4022ZM94.4036 44.5388C94.3732 44.663 94.3578 44.7905 94.358 44.9184V54.4082H86.5005V44.9184C86.5007 44.7905 86.4853 44.663 86.4549 44.5388H94.4036ZM74.7144 44.4022C74.7975 44.5616 74.841 44.7387 74.8411 44.9184V54.9143H83.7124V44.9184C83.7125 44.7387 83.756 44.5616 83.8391 44.4022L84.0268 44.0327H74.5268L74.7144 44.4022ZM83.2512 44.5388C83.2207 44.663 83.2053 44.7905 83.2055 44.9184V54.4082H75.3481V44.9184C75.3482 44.7905 75.3329 44.663 75.3024 44.5388H83.2512ZM183.071 56.4327H180.05C179.883 55.8506 179.531 55.3383 179.048 54.9731C178.564 54.6079 177.974 54.4097 177.368 54.4082H175.72V44.9184C175.721 44.7147 175.682 44.5128 175.606 44.3237C175.893 44.1549 176.117 43.8963 176.242 43.588C176.368 43.2797 176.388 42.9388 176.3 42.6178C176.212 42.2969 176.021 42.0137 175.756 41.8121C175.491 41.6104 175.166 41.5015 174.833 41.5021H72.9401C72.6068 41.5015 72.2826 41.6104 72.0175 41.8121C71.7524 42.0137 71.5611 42.2969 71.4731 42.6178C71.3852 42.9388 71.4055 43.2797 71.5309 43.588C71.6564 43.8963 71.8799 44.1549 72.1671 44.3237C72.0911 44.5128 72.0523 44.7147 72.053 44.9184V54.4082H70.4055C69.7991 54.4097 69.2095 54.6079 68.7258 54.9731C68.2421 55.3383 67.8904 55.8506 67.7238 56.4327H64.449C63.8443 56.4336 63.2646 56.6739 62.837 57.1008C62.4094 57.5277 62.1688 58.1065 62.1679 58.7103V192.327C62.1692 192.93 62.4099 193.509 62.8375 193.936C63.265 194.363 63.8444 194.603 64.449 194.604H183.071C183.676 194.603 184.255 194.363 184.683 193.936C185.111 193.509 185.351 192.931 185.352 192.327V58.7103C185.351 58.1065 185.11 57.5277 184.683 57.1008C184.255 56.6739 183.676 56.4336 183.071 56.4327ZM184.845 192.327C184.845 192.688 184.733 193.041 184.526 193.338C184.319 193.635 184.026 193.861 183.687 193.987C183.49 194.062 183.281 194.099 183.071 194.098H64.449C64.2386 194.099 64.0298 194.062 63.8331 193.987C63.4935 193.861 63.2005 193.635 62.9934 193.338C62.7864 193.041 62.6752 192.688 62.6748 192.327V58.7103C62.6753 58.2406 62.8624 57.7903 63.195 57.4582C63.5277 57.1262 63.9786 56.9394 64.449 56.9388H68.1294L68.17 56.7364C68.2765 56.2226 68.5569 55.7612 68.964 55.4294C69.371 55.0976 69.88 54.9158 70.4055 54.9143H72.5599V44.9184C72.56 44.7125 72.6161 44.5104 72.7222 44.3338L72.8792 44.0732L72.5929 43.9669C72.369 43.8859 72.181 43.7286 72.0619 43.5228C71.9428 43.317 71.9002 43.0758 71.9417 42.8418C71.9832 42.6077 72.1061 42.3958 72.2888 42.2433C72.4714 42.0908 72.7021 42.0076 72.9401 42.0082H174.833C175.071 42.0076 175.302 42.0908 175.485 42.2433C175.667 42.3958 175.79 42.6077 175.832 42.8418C175.873 43.0758 175.831 43.317 175.711 43.5228C175.592 43.7286 175.404 43.8859 175.18 43.9669L174.894 44.0732L175.051 44.3338C175.157 44.5104 175.213 44.7125 175.213 44.9184V54.9143H177.368C177.893 54.9157 178.402 55.0976 178.809 55.4294C179.216 55.7611 179.497 56.2226 179.603 56.7364L179.644 56.9388H183.071C183.541 56.9394 183.992 57.1262 184.325 57.4582C184.657 57.7903 184.845 58.2406 184.845 58.7103L184.845 192.327ZM74.5268 44.0327L74.7144 44.4022C74.7975 44.5616 74.841 44.7387 74.8411 44.9184V54.9143H83.7124V44.9184C83.7125 44.7387 83.756 44.5616 83.8391 44.4022L84.0268 44.0327H74.5268ZM83.2055 44.9184V54.4082H75.3481V44.9184C75.3482 44.7905 75.3329 44.663 75.3024 44.5388H83.2512C83.2207 44.663 83.2053 44.7905 83.2055 44.9184ZM85.6793 44.0327L85.8669 44.4022C85.95 44.5616 85.9935 44.7387 85.9936 44.9184V54.9143H94.8649V44.9184C94.865 44.7387 94.9085 44.5616 94.9916 44.4022L95.1793 44.0327H85.6793ZM94.358 44.9184V54.4082H86.5005V44.9184C86.5007 44.7905 86.4853 44.663 86.4549 44.5388H94.4036C94.3732 44.663 94.3578 44.7905 94.358 44.9184ZM96.8317 44.0327L97.0193 44.4022C97.1025 44.5616 97.146 44.7387 97.1461 44.9184V54.9143H106.017V44.9184C106.017 44.7387 106.061 44.5616 106.144 44.4022L106.332 44.0327H96.8317ZM105.51 44.9184V54.4082H97.653V44.9184C97.6531 44.7905 97.6378 44.663 97.6073 44.5388H105.556C105.526 44.663 105.51 44.7905 105.51 44.9184ZM107.984 44.0327L108.172 44.4022C108.255 44.5616 108.298 44.7387 108.299 44.9184V54.9143H117.17V44.9184C117.17 44.7387 117.213 44.5616 117.297 44.4022L117.484 44.0327H107.984ZM116.663 44.9184V54.4082H108.805V44.9184C108.806 44.7905 108.79 44.663 108.76 44.5388H116.709C116.678 44.663 116.663 44.7905 116.663 44.9184ZM119.137 44.0327L119.324 44.4022C119.407 44.5616 119.451 44.7387 119.451 44.9184V54.9143H128.322V44.9184C128.322 44.7387 128.366 44.5616 128.449 44.4022L128.637 44.0327H119.137ZM127.815 44.9184V54.4082H119.958V44.9184C119.958 44.7905 119.943 44.663 119.912 44.5388H127.861C127.831 44.663 127.815 44.7905 127.815 44.9184ZM130.289 44.0327L130.477 44.4022C130.56 44.5616 130.603 44.7387 130.604 44.9184V54.9143H139.475V44.9184C139.475 44.7387 139.518 44.5616 139.602 44.4022L139.789 44.0327H130.289ZM138.968 44.9184V54.4082H131.11V44.9184C131.111 44.7905 131.095 44.663 131.065 44.5388H139.014C138.983 44.663 138.968 44.7905 138.968 44.9184ZM141.442 44.0327L141.629 44.4022C141.712 44.5616 141.756 44.7387 141.756 44.9184V54.9143H150.627V44.9184C150.627 44.7387 150.671 44.5616 150.754 44.4022L150.942 44.0327H141.442ZM150.12 44.9184V54.4082H142.263V44.9184C142.263 44.7905 142.248 44.663 142.217 44.5388H150.166C150.136 44.663 150.12 44.7905 150.12 44.9184ZM152.594 44.0327L152.782 44.4022C152.865 44.5616 152.908 44.7387 152.908 44.9184V54.9143H161.78V44.9184C161.78 44.7387 161.823 44.5616 161.906 44.4022L162.094 44.0327H152.594ZM161.273 44.9184V54.4082H153.415V44.9184C153.416 44.7905 153.4 44.663 153.37 44.5388H161.318C161.288 44.663 161.273 44.7905 161.273 44.9184ZM163.747 44.0327L163.934 44.4022C164.017 44.5616 164.061 44.7387 164.061 44.9184V54.9143H172.932V44.9184C172.932 44.7387 172.976 44.5616 173.059 44.4022L173.247 44.0327H163.747ZM172.425 44.9184V54.4082H164.568V44.9184C164.568 44.7905 164.553 44.663 164.522 44.5388H172.471C172.44 44.663 172.425 44.7905 172.425 44.9184ZM74.5268 44.0327L74.7144 44.4022C74.7975 44.5616 74.841 44.7387 74.8411 44.9184V54.9143H83.7124V44.9184C83.7125 44.7387 83.756 44.5616 83.8391 44.4022L84.0268 44.0327H74.5268ZM83.2055 44.9184V54.4082H75.3481V44.9184C75.3482 44.7905 75.3329 44.663 75.3024 44.5388H83.2512C83.2207 44.663 83.2053 44.7905 83.2055 44.9184ZM85.6793 44.0327L85.8669 44.4022C85.95 44.5616 85.9935 44.7387 85.9936 44.9184V54.9143H94.8649V44.9184C94.865 44.7387 94.9085 44.5616 94.9916 44.4022L95.1793 44.0327H85.6793ZM94.358 44.9184V54.4082H86.5005V44.9184C86.5007 44.7905 86.4853 44.663 86.4549 44.5388H94.4036C94.3732 44.663 94.3578 44.7905 94.358 44.9184ZM96.8317 44.0327L97.0193 44.4022C97.1025 44.5616 97.146 44.7387 97.1461 44.9184V54.9143H106.017V44.9184C106.017 44.7387 106.061 44.5616 106.144 44.4022L106.332 44.0327H96.8317ZM105.51 44.9184V54.4082H97.653V44.9184C97.6531 44.7905 97.6378 44.663 97.6073 44.5388H105.556C105.526 44.663 105.51 44.7905 105.51 44.9184ZM107.984 44.0327L108.172 44.4022C108.255 44.5616 108.298 44.7387 108.299 44.9184V54.9143H117.17V44.9184C117.17 44.7387 117.213 44.5616 117.297 44.4022L117.484 44.0327H107.984ZM116.663 44.9184V54.4082H108.805V44.9184C108.806 44.7905 108.79 44.663 108.76 44.5388H116.709C116.678 44.663 116.663 44.7905 116.663 44.9184ZM119.137 44.0327L119.324 44.4022C119.407 44.5616 119.451 44.7387 119.451 44.9184V54.9143H128.322V44.9184C128.322 44.7387 128.366 44.5616 128.449 44.4022L128.637 44.0327H119.137ZM127.815 44.9184V54.4082H119.958V44.9184C119.958 44.7905 119.943 44.663 119.912 44.5388H127.861C127.831 44.663 127.815 44.7905 127.815 44.9184ZM130.289 44.0327L130.477 44.4022C130.56 44.5616 130.603 44.7387 130.604 44.9184V54.9143H139.475V44.9184C139.475 44.7387 139.518 44.5616 139.602 44.4022L139.789 44.0327H130.289ZM138.968 44.9184V54.4082H131.11V44.9184C131.111 44.7905 131.095 44.663 131.065 44.5388H139.014C138.983 44.663 138.968 44.7905 138.968 44.9184ZM141.442 44.0327L141.629 44.4022C141.712 44.5616 141.756 44.7387 141.756 44.9184V54.9143H150.627V44.9184C150.627 44.7387 150.671 44.5616 150.754 44.4022L150.942 44.0327H141.442ZM150.12 44.9184V54.4082H142.263V44.9184C142.263 44.7905 142.248 44.663 142.217 44.5388H150.166C150.136 44.663 150.12 44.7905 150.12 44.9184ZM152.594 44.0327L152.782 44.4022C152.865 44.5616 152.908 44.7387 152.908 44.9184V54.9143H161.78V44.9184C161.78 44.7387 161.823 44.5616 161.906 44.4022L162.094 44.0327H152.594ZM161.273 44.9184V54.4082H153.415V44.9184C153.416 44.7905 153.4 44.663 153.37 44.5388H161.318C161.288 44.663 161.273 44.7905 161.273 44.9184ZM163.747 44.0327L163.934 44.4022C164.017 44.5616 164.061 44.7387 164.061 44.9184V54.9143H172.932V44.9184C172.932 44.7387 172.976 44.5616 173.059 44.4022L173.247 44.0327H163.747ZM172.425 44.9184V54.4082H164.568V44.9184C164.568 44.7905 164.553 44.663 164.522 44.5388H172.471C172.44 44.663 172.425 44.7905 172.425 44.9184ZM74.5268 44.0327L74.7144 44.4022C74.7975 44.5616 74.841 44.7387 74.8411 44.9184V54.9143H83.7124V44.9184C83.7125 44.7387 83.756 44.5616 83.8391 44.4022L84.0268 44.0327H74.5268ZM83.2055 44.9184V54.4082H75.3481V44.9184C75.3482 44.7905 75.3329 44.663 75.3024 44.5388H83.2512C83.2207 44.663 83.2053 44.7905 83.2055 44.9184ZM85.6793 44.0327L85.8669 44.4022C85.95 44.5616 85.9935 44.7387 85.9936 44.9184V54.9143H94.8649V44.9184C94.865 44.7387 94.9085 44.5616 94.9916 44.4022L95.1793 44.0327H85.6793ZM94.358 44.9184V54.4082H86.5005V44.9184C86.5007 44.7905 86.4853 44.663 86.4549 44.5388H94.4036C94.3732 44.663 94.3578 44.7905 94.358 44.9184ZM96.8317 44.0327L97.0193 44.4022C97.1025 44.5616 97.146 44.7387 97.1461 44.9184V54.9143H106.017V44.9184C106.017 44.7387 106.061 44.5616 106.144 44.4022L106.332 44.0327H96.8317ZM105.51 44.9184V54.4082H97.653V44.9184C97.6531 44.7905 97.6378 44.663 97.6073 44.5388H105.556C105.526 44.663 105.51 44.7905 105.51 44.9184ZM107.984 44.0327L108.172 44.4022C108.255 44.5616 108.298 44.7387 108.299 44.9184V54.9143H117.17V44.9184C117.17 44.7387 117.213 44.5616 117.297 44.4022L117.484 44.0327H107.984ZM116.663 44.9184V54.4082H108.805V44.9184C108.806 44.7905 108.79 44.663 108.76 44.5388H116.709C116.678 44.663 116.663 44.7905 116.663 44.9184ZM119.137 44.0327L119.324 44.4022C119.407 44.5616 119.451 44.7387 119.451 44.9184V54.9143H128.322V44.9184C128.322 44.7387 128.366 44.5616 128.449 44.4022L128.637 44.0327H119.137ZM127.815 44.9184V54.4082H119.958V44.9184C119.958 44.7905 119.943 44.663 119.912 44.5388H127.861C127.831 44.663 127.815 44.7905 127.815 44.9184ZM130.289 44.0327L130.477 44.4022C130.56 44.5616 130.603 44.7387 130.604 44.9184V54.9143H139.475V44.9184C139.475 44.7387 139.518 44.5616 139.602 44.4022L139.789 44.0327H130.289ZM138.968 44.9184V54.4082H131.11V44.9184C131.111 44.7905 131.095 44.663 131.065 44.5388H139.014C138.983 44.663 138.968 44.7905 138.968 44.9184ZM141.442 44.0327L141.629 44.4022C141.712 44.5616 141.756 44.7387 141.756 44.9184V54.9143H150.627V44.9184C150.627 44.7387 150.671 44.5616 150.754 44.4022L150.942 44.0327H141.442ZM150.12 44.9184V54.4082H142.263V44.9184C142.263 44.7905 142.248 44.663 142.217 44.5388H150.166C150.136 44.663 150.12 44.7905 150.12 44.9184ZM152.594 44.0327L152.782 44.4022C152.865 44.5616 152.908 44.7387 152.908 44.9184V54.9143H161.78V44.9184C161.78 44.7387 161.823 44.5616 161.906 44.4022L162.094 44.0327H152.594ZM161.273 44.9184V54.4082H153.415V44.9184C153.416 44.7905 153.4 44.663 153.37 44.5388H161.318C161.288 44.663 161.273 44.7905 161.273 44.9184ZM163.747 44.0327L163.934 44.4022C164.017 44.5616 164.061 44.7387 164.061 44.9184V54.9143H172.932V44.9184C172.932 44.7387 172.976 44.5616 173.059 44.4022L173.247 44.0327H163.747ZM172.425 44.9184V54.4082H164.568V44.9184C164.568 44.7905 164.553 44.663 164.522 44.5388H172.471C172.44 44.663 172.425 44.7905 172.425 44.9184ZM74.5268 44.0327L74.7144 44.4022C74.7975 44.5616 74.841 44.7387 74.8411 44.9184V54.9143H83.7124V44.9184C83.7125 44.7387 83.756 44.5616 83.8391 44.4022L84.0268 44.0327H74.5268ZM83.2055 44.9184V54.4082H75.3481V44.9184C75.3482 44.7905 75.3329 44.663 75.3024 44.5388H83.2512C83.2207 44.663 83.2053 44.7905 83.2055 44.9184ZM85.6793 44.0327L85.8669 44.4022C85.95 44.5616 85.9935 44.7387 85.9936 44.9184V54.9143H94.8649V44.9184C94.865 44.7387 94.9085 44.5616 94.9916 44.4022L95.1793 44.0327H85.6793ZM94.358 44.9184V54.4082H86.5005V44.9184C86.5007 44.7905 86.4853 44.663 86.4549 44.5388H94.4036C94.3732 44.663 94.3578 44.7905 94.358 44.9184ZM96.8317 44.0327L97.0193 44.4022C97.1025 44.5616 97.146 44.7387 97.1461 44.9184V54.9143H106.017V44.9184C106.017 44.7387 106.061 44.5616 106.144 44.4022L106.332 44.0327H96.8317ZM105.51 44.9184V54.4082H97.653V44.9184C97.6531 44.7905 97.6378 44.663 97.6073 44.5388H105.556C105.526 44.663 105.51 44.7905 105.51 44.9184ZM107.984 44.0327L108.172 44.4022C108.255 44.5616 108.298 44.7387 108.299 44.9184V54.9143H117.17V44.9184C117.17 44.7387 117.213 44.5616 117.297 44.4022L117.484 44.0327H107.984ZM116.663 44.9184V54.4082H108.805V44.9184C108.806 44.7905 108.79 44.663 108.76 44.5388H116.709C116.678 44.663 116.663 44.7905 116.663 44.9184ZM119.137 44.0327L119.324 44.4022C119.407 44.5616 119.451 44.7387 119.451 44.9184V54.9143H128.322V44.9184C128.322 44.7387 128.366 44.5616 128.449 44.4022L128.637 44.0327H119.137ZM127.815 44.9184V54.4082H119.958V44.9184C119.958 44.7905 119.943 44.663 119.912 44.5388H127.861C127.831 44.663 127.815 44.7905 127.815 44.9184ZM130.289 44.0327L130.477 44.4022C130.56 44.5616 130.603 44.7387 130.604 44.9184V54.9143H139.475V44.9184C139.475 44.7387 139.518 44.5616 139.602 44.4022L139.789 44.0327H130.289ZM138.968 44.9184V54.4082H131.11V44.9184C131.111 44.7905 131.095 44.663 131.065 44.5388H139.014C138.983 44.663 138.968 44.7905 138.968 44.9184ZM141.442 44.0327L141.629 44.4022C141.712 44.5616 141.756 44.7387 141.756 44.9184V54.9143H150.627V44.9184C150.627 44.7387 150.671 44.5616 150.754 44.4022L150.942 44.0327H141.442ZM150.12 44.9184V54.4082H142.263V44.9184C142.263 44.7905 142.248 44.663 142.217 44.5388H150.166C150.136 44.663 150.12 44.7905 150.12 44.9184ZM152.594 44.0327L152.782 44.4022C152.865 44.5616 152.908 44.7387 152.908 44.9184V54.9143H161.78V44.9184C161.78 44.7387 161.823 44.5616 161.906 44.4022L162.094 44.0327H152.594ZM161.273 44.9184V54.4082H153.415V44.9184C153.416 44.7905 153.4 44.663 153.37 44.5388H161.318C161.288 44.663 161.273 44.7905 161.273 44.9184ZM163.747 44.0327L163.934 44.4022C164.017 44.5616 164.061 44.7387 164.061 44.9184V54.9143H172.932V44.9184C172.932 44.7387 172.976 44.5616 173.059 44.4022L173.247 44.0327H163.747ZM172.425 44.9184V54.4082H164.568V44.9184C164.568 44.7905 164.553 44.663 164.522 44.5388H172.471C172.44 44.663 172.425 44.7905 172.425 44.9184Z" fill="#3F3D56"/>
<path d="M104.662 88.3185H85.9705C85.5769 88.3181 85.1994 88.1617 84.9211 87.8838C84.6427 87.6059 84.4861 87.2291 84.4857 86.836V76.8948C84.4861 76.5018 84.6427 76.125 84.9211 75.847C85.1994 75.5691 85.5769 75.4128 85.9705 75.4124H104.662C105.056 75.4128 105.433 75.5691 105.711 75.847C105.99 76.125 106.146 76.5018 106.147 76.8948V86.836C106.146 87.2291 105.99 87.6059 105.711 87.8838C105.433 88.1617 105.056 88.3181 104.662 88.3185Z" fill="#7B79FF"/>
<path d="M133.106 88.3185H114.414C114.021 88.3181 113.643 88.1617 113.365 87.8838C113.086 87.6059 112.93 87.2291 112.929 86.836V76.8948C112.93 76.5018 113.086 76.125 113.365 75.847C113.643 75.5691 114.021 75.4128 114.414 75.4124H133.106C133.499 75.4128 133.877 75.5691 134.155 75.847C134.433 76.125 134.59 76.5018 134.59 76.8948V86.836C134.59 87.2291 134.433 87.6059 134.155 87.8838C133.877 88.1617 133.499 88.3181 133.106 88.3185Z" fill="#7B79FF"/>
<path d="M161.549 88.3185H142.858C142.464 88.3181 142.087 88.1617 141.809 87.8838C141.53 87.6059 141.374 87.2291 141.373 86.836V76.8948C141.374 76.5018 141.53 76.125 141.809 75.847C142.087 75.5691 142.464 75.4128 142.858 75.4124H161.549C161.943 75.4128 162.32 75.5691 162.599 75.847C162.877 76.125 163.034 76.5018 163.034 76.8948V86.836C163.034 87.2291 162.877 87.6059 162.599 87.8838C162.32 88.1617 161.943 88.3181 161.549 88.3185Z" fill="#7B79FF"/>
<path d="M104.662 121.47H85.9705C85.5769 121.469 85.1994 121.313 84.9211 121.035C84.6427 120.757 84.4861 120.38 84.4857 119.987V110.046C84.4861 109.653 84.6427 109.276 84.9211 108.998C85.1994 108.72 85.5769 108.564 85.9705 108.563H104.662C105.056 108.564 105.433 108.72 105.711 108.998C105.99 109.276 106.146 109.653 106.147 110.046V119.987C106.146 120.38 105.99 120.757 105.711 121.035C105.433 121.313 105.056 121.469 104.662 121.47Z" fill="#7B79FF"/>
<path d="M133.106 121.47H114.414C114.021 121.469 113.643 121.313 113.365 121.035C113.086 120.757 112.93 120.38 112.929 119.987V110.046C112.93 109.653 113.086 109.276 113.365 108.998C113.643 108.72 114.021 108.564 114.414 108.563H133.106C133.499 108.564 133.877 108.72 134.155 108.998C134.433 109.276 134.59 109.653 134.59 110.046V119.987C134.59 120.38 134.433 120.757 134.155 121.035C133.877 121.313 133.499 121.469 133.106 121.47Z" fill="#7B79FF"/>
<path d="M161.549 121.47H142.858C142.464 121.469 142.087 121.313 141.809 121.035C141.53 120.757 141.374 120.38 141.373 119.987V110.046C141.374 109.653 141.53 109.276 141.809 108.998C142.087 108.72 142.464 108.564 142.858 108.563H161.549C161.943 108.564 162.32 108.72 162.599 108.998C162.877 109.276 163.034 109.653 163.034 110.046V119.987C163.034 120.38 162.877 120.757 162.599 121.035C162.32 121.313 161.943 121.469 161.549 121.47Z" fill="#7B79FF"/>
<path d="M104.662 154.621H85.9705C85.5769 154.62 85.1994 154.464 84.9211 154.186C84.6427 153.908 84.4861 153.531 84.4857 153.138V143.197C84.4861 142.804 84.6427 142.427 84.9211 142.149C85.1994 141.871 85.5769 141.715 85.9705 141.714H104.662C105.056 141.715 105.433 141.871 105.711 142.149C105.99 142.427 106.146 142.804 106.147 143.197V153.138C106.146 153.531 105.99 153.908 105.711 154.186C105.433 154.464 105.056 154.62 104.662 154.621Z" fill="#7B79FF"/>
<path d="M133.106 154.621H114.414C114.021 154.62 113.643 154.464 113.365 154.186C113.086 153.908 112.93 153.531 112.929 153.138V143.197C112.93 142.804 113.086 142.427 113.365 142.149C113.643 141.871 114.021 141.715 114.414 141.714H133.106C133.499 141.715 133.877 141.871 134.155 142.149C134.433 142.427 134.59 142.804 134.59 143.197V153.138C134.59 153.531 134.433 153.908 134.155 154.186C133.877 154.464 133.499 154.62 133.106 154.621Z" fill="#7B79FF"/>
<path d="M161.549 154.621H142.858C142.464 154.62 142.087 154.464 141.809 154.186C141.53 153.908 141.374 153.531 141.373 153.138V143.197C141.374 142.804 141.53 142.427 141.809 142.149C142.087 141.871 142.464 141.715 142.858 141.714H161.549C161.943 141.715 162.32 141.871 162.599 142.149C162.877 142.427 163.034 142.804 163.034 143.197V153.138C163.034 153.531 162.877 153.908 162.599 154.186C162.32 154.464 161.943 154.62 161.549 154.621Z" fill="#7B79FF"/>
<path d="M101.636 89.594H79.983C79.4598 89.5934 78.9581 89.3856 78.5881 89.0162C78.2181 88.6468 78.01 88.146 78.0094 87.6236V76.1073C78.01 75.5849 78.2181 75.084 78.5881 74.7146C78.9581 74.3452 79.4598 74.1374 79.983 74.1368H101.636C102.159 74.1374 102.661 74.3452 103.031 74.7146C103.401 75.084 103.609 75.5849 103.609 76.1073V87.6236C103.609 88.146 103.401 88.6468 103.031 89.0162C102.661 89.3856 102.159 89.5934 101.636 89.594ZM79.983 74.6429C79.5941 74.6433 79.2214 74.7978 78.9464 75.0723C78.6715 75.3468 78.5168 75.719 78.5164 76.1073V87.6236C78.5168 88.0118 78.6715 88.384 78.9464 88.6585C79.2214 88.9331 79.5941 89.0875 79.983 89.0879H101.636C102.025 89.0875 102.398 88.9331 102.672 88.6585C102.947 88.384 103.102 88.0118 103.103 87.6236V76.1073C103.102 75.719 102.947 75.3468 102.672 75.0723C102.398 74.7978 102.025 74.6433 101.636 74.6429H79.983Z" fill="#3F3D56"/>
<path d="M134.586 89.594H112.934C112.41 89.5934 111.909 89.3856 111.539 89.0162C111.169 88.6468 110.961 88.146 110.96 87.6236V76.1073C110.961 75.5849 111.169 75.084 111.539 74.7146C111.909 74.3452 112.41 74.1374 112.934 74.1368H134.586C135.11 74.1374 135.611 74.3452 135.981 74.7146C136.351 75.084 136.559 75.5849 136.56 76.1073V87.6236C136.559 88.146 136.351 88.6468 135.981 89.0162C135.611 89.3856 135.11 89.5934 134.586 89.594ZM112.934 74.6429C112.545 74.6433 112.172 74.7978 111.897 75.0723C111.622 75.3468 111.467 75.719 111.467 76.1073V87.6236C111.467 88.0118 111.622 88.384 111.897 88.6585C112.172 88.9331 112.545 89.0875 112.934 89.0879H134.586C134.975 89.0875 135.348 88.9331 135.623 88.6585C135.898 88.384 136.053 88.0118 136.053 87.6236V76.1073C136.053 75.719 135.898 75.3468 135.623 75.0723C135.348 74.7978 134.975 74.6433 134.586 74.6429H112.934Z" fill="#3F3D56"/>
<path d="M167.537 89.594H145.884C145.361 89.5934 144.859 89.3856 144.489 89.0162C144.119 88.6468 143.911 88.146 143.91 87.6236V76.1073C143.911 75.5849 144.119 75.084 144.489 74.7146C144.859 74.3452 145.361 74.1374 145.884 74.1368H167.537C168.06 74.1374 168.562 74.3452 168.932 74.7146C169.302 75.084 169.51 75.5849 169.51 76.1073V87.6236C169.51 88.146 169.302 88.6468 168.932 89.0162C168.562 89.3856 168.06 89.5934 167.537 89.594ZM145.884 74.6429C145.495 74.6433 145.122 74.7978 144.847 75.0723C144.572 75.3468 144.418 75.719 144.417 76.1073V87.6236C144.418 88.0118 144.572 88.384 144.847 88.6585C145.122 88.9331 145.495 89.0875 145.884 89.0879H167.537C167.926 89.0875 168.299 88.9331 168.573 88.6585C168.848 88.384 169.003 88.0118 169.003 87.6236V76.1073C169.003 75.719 168.848 75.3468 168.573 75.0723C168.299 74.7978 167.926 74.6433 167.537 74.6429H145.884Z" fill="#3F3D56"/>
<path d="M101.636 122.745H79.983C79.4598 122.745 78.9581 122.537 78.5881 122.167C78.2181 121.798 78.01 121.297 78.0094 120.775V109.258C78.01 108.736 78.2181 108.235 78.5881 107.866C78.9581 107.496 79.4598 107.288 79.983 107.288H101.636C102.159 107.288 102.661 107.496 103.031 107.866C103.401 108.235 103.609 108.736 103.609 109.258V120.775C103.609 121.297 103.401 121.798 103.031 122.167C102.661 122.537 102.159 122.745 101.636 122.745ZM79.983 107.794C79.5941 107.794 79.2214 107.949 78.9464 108.223C78.6715 108.498 78.5168 108.87 78.5164 109.258V120.775C78.5168 121.163 78.6715 121.535 78.9464 121.81C79.2214 122.084 79.5941 122.239 79.983 122.239H101.636C102.025 122.239 102.398 122.084 102.672 121.81C102.947 121.535 103.102 121.163 103.103 120.775V109.258C103.102 108.87 102.947 108.498 102.672 108.223C102.398 107.949 102.025 107.794 101.636 107.794H79.983Z" fill="#3F3D56"/>
<path d="M134.586 122.745H112.934C112.41 122.745 111.909 122.537 111.539 122.167C111.169 121.798 110.961 121.297 110.96 120.775V109.258C110.961 108.736 111.169 108.235 111.539 107.866C111.909 107.496 112.41 107.288 112.934 107.288H134.586C135.11 107.288 135.611 107.496 135.981 107.866C136.351 108.235 136.559 108.736 136.56 109.258V120.775C136.559 121.297 136.351 121.798 135.981 122.167C135.611 122.537 135.11 122.745 134.586 122.745ZM112.934 107.794C112.545 107.794 112.172 107.949 111.897 108.223C111.622 108.498 111.467 108.87 111.467 109.258V120.775C111.467 121.163 111.622 121.535 111.897 121.81C112.172 122.084 112.545 122.239 112.934 122.239H134.586C134.975 122.239 135.348 122.084 135.623 121.81C135.898 121.535 136.053 121.163 136.053 120.775V109.258C136.053 108.87 135.898 108.498 135.623 108.223C135.348 107.949 134.975 107.794 134.586 107.794H112.934Z" fill="#3F3D56"/>
<path d="M167.537 122.745H145.884C145.361 122.745 144.859 122.537 144.489 122.167C144.119 121.798 143.911 121.297 143.91 120.775V109.258C143.911 108.736 144.119 108.235 144.489 107.866C144.859 107.496 145.361 107.288 145.884 107.288H167.537C168.06 107.288 168.562 107.496 168.932 107.866C169.302 108.235 169.51 108.736 169.51 109.258V120.775C169.51 121.297 169.302 121.798 168.932 122.167C168.562 122.537 168.06 122.745 167.537 122.745ZM145.884 107.794C145.495 107.794 145.122 107.949 144.847 108.223C144.572 108.498 144.418 108.87 144.417 109.258V120.775C144.418 121.163 144.572 121.535 144.847 121.81C145.122 122.084 145.495 122.239 145.884 122.239H167.537C167.926 122.239 168.299 122.084 168.573 121.81C168.848 121.535 169.003 121.163 169.003 120.775V109.258C169.003 108.87 168.848 108.498 168.573 108.223C168.299 107.949 167.926 107.794 167.537 107.794H145.884Z" fill="#3F3D56"/>
<path d="M101.636 155.896H79.983C79.4598 155.896 78.9581 155.688 78.5881 155.318C78.2181 154.949 78.01 154.448 78.0094 153.926V142.409C78.01 141.887 78.2181 141.386 78.5881 141.017C78.9581 140.647 79.4598 140.44 79.983 140.439H101.636C102.159 140.44 102.661 140.647 103.031 141.017C103.401 141.386 103.609 141.887 103.609 142.409V153.926C103.609 154.448 103.401 154.949 103.031 155.318C102.661 155.688 102.159 155.896 101.636 155.896ZM79.983 140.945C79.5941 140.945 79.2214 141.1 78.9464 141.374C78.6715 141.649 78.5168 142.021 78.5164 142.409V153.926C78.5168 154.314 78.6715 154.686 78.9464 154.961C79.2214 155.235 79.5941 155.39 79.983 155.39H101.636C102.025 155.39 102.398 155.235 102.672 154.961C102.947 154.686 103.102 154.314 103.103 153.926V142.409C103.102 142.021 102.947 141.649 102.672 141.374C102.398 141.1 102.025 140.945 101.636 140.945H79.983Z" fill="#3F3D56"/>
<path d="M134.586 155.896H112.934C112.41 155.896 111.909 155.688 111.539 155.318C111.169 154.949 110.961 154.448 110.96 153.926V142.409C110.961 141.887 111.169 141.386 111.539 141.017C111.909 140.647 112.41 140.44 112.934 140.439H134.586C135.11 140.44 135.611 140.647 135.981 141.017C136.351 141.386 136.559 141.887 136.56 142.409V153.926C136.559 154.448 136.351 154.949 135.981 155.318C135.611 155.688 135.11 155.896 134.586 155.896ZM112.934 140.945C112.545 140.945 112.172 141.1 111.897 141.374C111.622 141.649 111.467 142.021 111.467 142.409V153.926C111.467 154.314 111.622 154.686 111.897 154.961C112.172 155.235 112.545 155.39 112.934 155.39H134.586C134.975 155.39 135.348 155.235 135.623 154.961C135.898 154.686 136.053 154.314 136.053 153.926V142.409C136.053 142.021 135.898 141.649 135.623 141.374C135.348 141.1 134.975 140.945 134.586 140.945H112.934Z" fill="#3F3D56"/>
<path d="M167.537 155.896H145.884C145.361 155.896 144.859 155.688 144.489 155.318C144.119 154.949 143.911 154.448 143.91 153.926V142.409C143.911 141.887 144.119 141.386 144.489 141.017C144.859 140.647 145.361 140.44 145.884 140.439H167.537C168.06 140.44 168.562 140.647 168.932 141.017C169.302 141.386 169.51 141.887 169.51 142.409V153.926C169.51 154.448 169.302 154.949 168.932 155.318C168.562 155.688 168.06 155.896 167.537 155.896ZM145.884 140.945C145.495 140.945 145.122 141.1 144.847 141.374C144.572 141.649 144.418 142.021 144.417 142.409V153.926C144.418 154.314 144.572 154.686 144.847 154.961C145.122 155.235 145.495 155.39 145.884 155.39H167.537C167.926 155.39 168.299 155.235 168.573 154.961C168.848 154.686 169.003 154.314 169.003 153.926V142.409C169.003 142.021 168.848 141.649 168.573 141.374C168.299 141.1 167.926 140.945 167.537 140.945H145.884Z" fill="#3F3D56"/>
<path d="M255.747 194.984H0.253465C0.186242 194.984 0.121772 194.957 0.0742381 194.91C0.0267041 194.862 0 194.798 0 194.731C0 194.664 0.0267041 194.599 0.0742381 194.552C0.121772 194.504 0.186242 194.478 0.253465 194.478H255.747C255.814 194.478 255.878 194.504 255.926 194.552C255.973 194.599 256 194.664 256 194.731C256 194.798 255.973 194.862 255.926 194.91C255.878 194.957 255.814 194.984 255.747 194.984Z" fill="#3F3D56"/>
<path d="M136.56 170.49C136.567 169.913 136.344 169.356 135.94 168.943C135.536 168.529 134.984 168.293 134.406 168.286H123.76V194.478H136.56V170.49Z" fill="#3F3D56"/>
<path d="M124.013 194.225H110.706V170.564C110.707 169.926 110.961 169.315 111.413 168.864C111.864 168.414 112.476 168.16 113.114 168.159H124.013V194.225ZM111.213 193.719H123.506V168.666H113.114C112.61 168.666 112.127 168.866 111.771 169.222C111.414 169.578 111.214 170.06 111.213 170.564V193.719Z" fill="#3F3D56"/>
<path d="M112.354 182.964C112.774 182.964 113.114 182.624 113.114 182.204C113.114 181.785 112.774 181.445 112.354 181.445C111.934 181.445 111.594 181.785 111.594 182.204C111.594 182.624 111.934 182.964 112.354 182.964Z" fill="#3F3D56"/>
</svg>
