<svg width="82" height="82" viewBox="0 0 82 82" fill="none" xmlns="http://www.w3.org/2000/svg">
<circle cx="41" cy="41" r="41" fill="#5CB176"/>
<path d="M61.25 23C61.25 20.5182 59.2318 18.5 56.75 18.5H25.25C22.7682 18.5 20.75 20.5182 20.75 23V59C20.75 61.4818 22.7682 63.5 25.25 63.5H56.75C59.2318 63.5 61.25 61.4818 61.25 59V23ZM25.25 23H56.75V38.75H25.25V23ZM25.25 59V43.25H56.7523V59H25.25Z" fill="white"/>
<path d="M45.5 29.75H36.5V27.5H32V34.25H50V27.5H45.5V29.75ZM45.5 47.75V50H36.5V47.75H32V54.5H50V47.75H45.5Z" fill="white"/>
</svg>
