<svg width="82" height="82" viewBox="0 0 82 82" fill="none" xmlns="http://www.w3.org/2000/svg">
<circle cx="41" cy="41" r="41" fill="#66B7F1"/>
<path d="M58.7525 35.7362C58.2663 34.5903 57.6719 33.4933 56.9773 32.4603L53.2468 34.978C54.3219 36.5762 55.0761 38.3682 55.4675 40.2542C55.8664 42.2202 55.8664 44.2463 55.4675 46.2122C55.2721 47.1619 54.9827 48.0897 54.6035 48.982C54.2349 49.8587 53.7805 50.6968 53.2468 51.484C52.1803 53.0568 50.8241 54.4122 49.2508 55.4777C47.6539 56.5524 45.8635 57.3066 43.979 57.6985C42.014 58.0922 39.9905 58.0922 38.0255 57.6985C35.1974 57.1175 32.6022 55.7186 30.5623 53.6755C29.2147 52.3272 28.1392 50.7322 27.3943 48.9775C27.0184 48.0852 26.7305 47.1583 26.5348 46.21C25.9408 43.2818 26.2402 40.2427 27.3943 37.4868C28.1363 35.7324 29.2114 34.1385 30.56 32.7933C31.908 31.448 33.5012 30.3734 35.2535 29.6275C36.1423 29.2517 37.076 28.9615 38.021 28.768C38.2618 28.7185 38.507 28.696 38.75 28.6578V35.5L50 26.5L38.75 17.5V24.1105C38.203 24.1711 37.6588 24.2544 37.1188 24.3602C34.6531 24.8655 32.3112 25.8518 30.227 27.2628C26.5246 29.7603 23.8045 33.4661 22.5314 37.7469C21.2584 42.0277 21.5115 46.6177 23.2475 50.7325C24.214 53.0235 25.6162 55.1051 27.3763 56.8615C29.1339 58.6158 31.2124 60.0159 33.4985 60.9857C37.0925 62.5063 41.064 62.8979 44.8858 62.1085C47.945 61.4762 50.805 60.1106 53.2199 58.1291C55.6349 56.1476 57.5327 53.6093 58.7503 50.7325C59.2453 49.5625 59.6255 48.3452 59.8753 47.1145C60.3969 44.5533 60.3969 41.9132 59.8753 39.352C59.6189 38.1132 59.2429 36.9023 58.7525 35.7362Z" fill="white"/>
</svg>
