<svg width="125" height="61" viewBox="0 0 125 61" fill="none" xmlns="http://www.w3.org/2000/svg">
<path d="M12.9642 23.1453H0V60.0206H12.9642V23.1453Z" fill="#D9D8FF"/>
<path d="M31.4286 12.9457H18.4644V60.0207H31.4286V12.9457Z" fill="#7B79FF"/>
<path d="M49.8924 0H36.9282V60.0207H49.8924V0Z" fill="#271FE0"/>
<path d="M15.714 23.1453L24.2196 36.9734H7.2085L15.714 23.1453Z" fill="white"/>
<path d="M34.1784 12.9457L42.684 26.774H25.6729L34.1784 12.9457Z" fill="white"/>
<path d="M18.5804 36.6984H12.731V60.0207H18.5804V36.6984Z" fill="white"/>
<path d="M37.1615 26.4091H31.312V60.0206H37.1615V26.4091Z" fill="white"/>
<path d="M54.9824 60.0206V24.9548H69.9956C71.6802 24.9548 73.2162 25.3006 74.6036 25.992C76.024 26.6505 77.2462 27.556 78.2702 28.7084C79.2942 29.8278 80.0869 31.0955 80.6485 32.5113C81.21 33.9271 81.4908 35.3593 81.4908 36.8081C81.4908 38.8494 81.0118 40.7756 80.0539 42.5865C79.129 44.3974 77.8242 45.8791 76.1396 47.0315C74.4549 48.1509 72.4895 48.7107 70.2433 48.7107H63.1084V60.0206H54.9824ZM63.1084 41.6481H69.7478C70.7058 41.6481 71.5316 41.2366 72.2253 40.4134C72.9189 39.5903 73.2658 38.3885 73.2658 36.8081C73.2658 35.1947 72.8529 34.0094 72.0271 33.2521C71.2343 32.4619 70.3755 32.0668 69.4505 32.0668H63.1084V41.6481ZM92.1582 24.9548H100.928L113.018 60.0206H104.694L101.969 52.1679H91.0186L88.3429 60.0206H80.0188L92.1582 24.9548ZM100.631 46.587L96.5184 33.1039L92.3068 46.587H100.631ZM116.482 60.0206V24.9548H124.608V60.0206H116.482Z" fill="black"/>
</svg>
