<svg width="1440" height="67" viewBox="0 0 1440 67" fill="none" xmlns="http://www.w3.org/2000/svg">
<path fill-rule="evenodd" clip-rule="evenodd" d="M0 60.3V53.6H57.6V13.4H115.2V20.1H172.8V6.7H230.4V67H288V6.7H345.6V53.6H403.2V40.2H460.8V40.2H518.4V13.4H576V26.8H633.6V46.9H691.2V26.8H748.8V1.3113e-06H806.4V20.1H864V60.3H921.6V60.3H979.2V1.3113e-06H1036.8V33.5H1094.4V13.4H1152V6.7H1209.6V26.8H1267.2V46.9H1324.8V20.1H1382.4V26.8H1440V67H1382.4V67H1324.8V67H1267.2V67H1209.6V67H1152V67H1094.4V67H1036.8V67H979.2V67H921.6V67H864V67H806.4V67H748.8V67H691.2V67H633.6V67H576V67H518.4V67H460.8V67H403.2V67H345.6V67H288V67H230.4V67H172.8V67H115.2V67H57.6V67H0V67V60.3Z" fill="#212134"/>
</svg>
