<svg width="1440" height="67" viewBox="0 0 1440 67" fill="none" xmlns="http://www.w3.org/2000/svg">
<path fill-rule="evenodd" clip-rule="evenodd" d="M0 6.7V13.4H57.6V53.6H115.2V46.9H172.8V60.3H230.4V0H288V60.3H345.6V13.4H403.2V26.8H460.8V26.8H518.4V53.6H576V40.2H633.6V20.1H691.2V40.2H748.8V67H806.4V46.9H864V6.7H921.6V6.7H979.2V67H1036.8V33.5H1094.4V53.6H1152V60.3H1209.6V40.2H1267.2V20.1H1324.8V46.9H1382.4V40.2H1440V0H1382.4V0H1324.8V0H1267.2V0H1209.6V0H1152V0H1094.4V0H1036.8V0H979.2V0H921.6V0H864V0H806.4V0H748.8V0H691.2V0H633.6V0H576V0H518.4V0H460.8V0H403.2V0H345.6V0H288V0H230.4V0H172.8V0H115.2V0H57.6V0H0V0V6.7Z" fill="white"/>
</svg>
