<svg width="465" height="318" viewBox="0 0 465 318" fill="none" xmlns="http://www.w3.org/2000/svg">
<path d="M429.242 47.7762H265.93V44.4157H191.879V47.7762H27.8946C24.9646 47.7762 22.1546 48.9384 20.0827 51.007C18.0109 53.0756 16.8469 55.8812 16.8469 58.8066V58.8066V282.078C16.8469 285.004 18.0109 287.81 20.0827 289.878C22.1546 291.947 24.9646 293.109 27.8946 293.109H429.242C432.172 293.109 434.982 291.947 437.053 289.878C439.125 287.81 440.289 285.004 440.289 282.078V58.8054C440.289 55.8802 439.125 53.0749 437.053 51.0065C434.981 48.9382 432.171 47.7762 429.242 47.7762V47.7762Z" fill="#3F3D56"/>
<path d="M425.478 67.2681H31.6582V289.075H425.478V67.2681Z" fill="#E6E6E6"/>
<path d="M408.91 78.9979H48.3596V270.722H408.91V78.9979Z" fill="white"/>
<path d="M228.231 61.2196C230.462 61.2196 232.271 59.4139 232.271 57.1866C232.271 54.9592 230.462 53.1536 228.231 53.1536C226 53.1536 224.192 54.9592 224.192 57.1866C224.192 59.4139 226 61.2196 228.231 61.2196Z" fill="#6C63FF"/>
<path d="M451.346 285.042H412.911V282.277C412.911 282.132 412.854 281.992 412.751 281.889C412.648 281.787 412.508 281.729 412.362 281.729H399.185C399.039 281.729 398.899 281.787 398.796 281.889C398.693 281.992 398.635 282.132 398.635 282.277V282.277V285.042H390.4V282.277C390.4 282.132 390.342 281.992 390.239 281.889C390.136 281.787 389.996 281.729 389.851 281.729H376.673C376.528 281.729 376.388 281.787 376.285 281.889C376.182 281.992 376.124 282.132 376.124 282.277V282.277V285.042H367.888V282.277C367.888 282.132 367.831 281.992 367.728 281.889C367.624 281.787 367.485 281.729 367.339 281.729H354.162C354.016 281.729 353.876 281.787 353.773 281.889C353.67 281.992 353.612 282.132 353.612 282.277V282.277V285.042H345.377V282.277C345.377 282.132 345.319 281.992 345.216 281.889C345.113 281.787 344.973 281.729 344.828 281.729H331.651C331.505 281.729 331.365 281.787 331.262 281.889C331.159 281.992 331.101 282.132 331.101 282.277V282.277V285.042H322.865V282.277C322.865 282.132 322.807 281.992 322.704 281.889C322.601 281.787 322.462 281.729 322.316 281.729H309.139C308.993 281.729 308.854 281.787 308.751 281.889C308.648 281.992 308.59 282.132 308.59 282.277V282.277V285.042H300.354V282.277C300.354 282.132 300.296 281.992 300.193 281.889C300.09 281.787 299.95 281.729 299.804 281.729H286.63C286.484 281.729 286.345 281.787 286.242 281.889C286.139 281.992 286.081 282.132 286.081 282.277V282.277V285.042H277.842V282.277C277.842 282.132 277.784 281.992 277.681 281.889C277.578 281.787 277.439 281.729 277.293 281.729H174.07C173.924 281.729 173.784 281.787 173.681 281.889C173.578 281.992 173.521 282.132 173.521 282.277V282.277V285.042H165.285V282.277C165.285 282.132 165.227 281.992 165.124 281.889C165.021 281.787 164.881 281.729 164.736 281.729H151.558C151.413 281.729 151.273 281.787 151.17 281.889C151.067 281.992 151.009 282.132 151.009 282.277V282.277V285.042H142.773V282.277C142.773 282.132 142.716 281.992 142.613 281.889C142.51 281.787 142.37 281.729 142.224 281.729H129.047C128.902 281.729 128.762 281.787 128.659 281.889C128.556 281.992 128.498 282.132 128.498 282.277V282.277V285.042H120.262V282.277C120.262 282.132 120.204 281.992 120.101 281.889C119.998 281.787 119.858 281.729 119.713 281.729H106.536C106.39 281.729 106.25 281.787 106.147 281.889C106.044 281.992 105.987 282.132 105.987 282.277V282.277V285.042H97.7522V282.277C97.7522 282.132 97.6944 281.992 97.5914 281.889C97.4884 281.787 97.3487 281.729 97.203 281.729H84.0242C83.8785 281.729 83.7388 281.787 83.6358 281.889C83.5328 281.992 83.475 282.132 83.475 282.277V282.277V285.042H75.2394V282.277C75.2394 282.132 75.1815 281.992 75.0785 281.889C74.9755 281.787 74.8358 281.729 74.6902 281.729H61.5127C61.367 281.729 61.2273 281.787 61.1243 281.889C61.0213 281.992 60.9634 282.132 60.9634 282.277V282.277V285.042H52.7279V282.277C52.7279 282.132 52.67 281.992 52.567 281.889C52.464 281.787 52.3243 281.729 52.1786 281.729H38.9986C38.8529 281.729 38.7132 281.787 38.6102 281.889C38.5072 281.992 38.4494 282.132 38.4494 282.277V282.277V285.042H13.1953C9.70044 285.042 6.34869 286.428 3.87743 288.896C1.40617 291.363 0.0178223 294.71 0.0178223 298.199V304.148C0.0178223 307.638 1.40617 310.984 3.87743 313.451C6.34869 315.919 9.70044 317.305 13.1953 317.305H451.346C454.84 317.305 458.192 315.919 460.663 313.452C463.134 310.984 464.523 307.638 464.523 304.149V298.2C464.523 294.71 463.135 291.364 460.663 288.896C458.192 286.429 454.84 285.043 451.346 285.043V285.042Z" fill="#3F3D56"/>
<path d="M308.355 92.445H148.916V259.781H308.355V92.445Z" fill="#E6E6E6"/>
<path d="M247.873 139.815C259.576 139.815 269.063 130.343 269.063 118.659C269.063 106.974 259.576 97.5021 247.873 97.5021C236.17 97.5021 226.683 106.974 226.683 118.659C226.683 130.343 236.17 139.815 247.873 139.815Z" fill="#A0616A"/>
<path d="M199.119 260.126L212.803 174.116C213.53 169.543 215.225 165.177 217.774 161.309C220.323 157.441 223.668 154.159 227.586 151.681C231.504 149.204 235.905 147.588 240.497 146.942C245.089 146.295 249.767 146.632 254.218 147.93V147.93C262.001 150.178 268.666 155.242 272.91 162.133C277.153 169.024 278.672 177.247 277.168 185.196L262.856 262.007L199.119 260.126Z" fill="#6C63FF"/>
<path d="M253.723 275.515C254.781 274.818 255.674 273.897 256.337 272.817C257 271.738 257.418 270.526 257.562 269.268C257.705 268.01 257.571 266.736 257.168 265.535C256.765 264.335 256.103 263.237 255.23 262.319L269.375 234.969L253.445 236.666L242.454 262.378C241.014 263.948 240.198 265.989 240.162 268.118C240.126 270.247 240.872 272.315 242.259 273.932C243.646 275.549 245.578 276.603 247.69 276.894C249.802 277.186 251.948 276.696 253.722 275.516L253.723 275.515Z" fill="#A0616A"/>
<path d="M256.752 257.495C255.97 257.385 255.24 257.039 254.659 256.504L249.247 251.51C248.662 250.968 248.259 250.26 248.09 249.482C247.922 248.703 247.997 247.892 248.305 247.157L259.122 221.558L257.587 170.978C258.036 167.697 259.771 164.728 262.412 162.724C265.053 160.72 268.383 159.846 271.67 160.294C274.956 160.741 277.93 162.474 279.937 165.111C281.944 167.748 282.82 171.073 282.371 174.354V174.354L284.995 206.15C285.793 215.8 283.052 225.41 277.284 233.194L260.416 255.963C260.091 256.4 259.678 256.765 259.203 257.032C258.728 257.3 258.202 257.465 257.66 257.516C257.357 257.545 257.053 257.538 256.752 257.495V257.495Z" fill="#6C63FF"/>
<path d="M125.848 107.132C126.079 108.377 126.58 109.556 127.317 110.587C128.054 111.618 129.008 112.474 130.112 113.097C131.217 113.72 132.444 114.093 133.709 114.191C134.973 114.289 136.244 114.108 137.431 113.663L157.141 137.332L161.786 122.023L142.357 101.894C141.471 99.9582 139.906 98.4138 137.957 97.5517C136.008 96.6895 133.811 96.5694 131.78 97.2139C129.749 97.8585 128.024 99.2231 126.931 101.05C125.838 102.877 125.453 105.041 125.849 107.132H125.848Z" fill="#A0616A"/>
<path d="M141.288 116.943C141.695 116.266 142.298 115.73 143.018 115.405L149.735 112.376C150.463 112.049 151.273 111.954 152.057 112.103C152.841 112.252 153.56 112.637 154.117 113.207L173.51 133.133L220.759 151.443C222.172 152.28 223.406 153.387 224.391 154.7C225.375 156.013 226.091 157.508 226.497 159.097C226.903 160.687 226.991 162.341 226.756 163.965C226.522 165.588 225.969 167.15 225.13 168.56C224.291 169.971 223.181 171.202 221.865 172.184C220.549 173.166 219.052 173.88 217.459 174.284C215.867 174.688 214.21 174.775 212.584 174.54C210.958 174.305 209.394 173.752 207.982 172.913V172.913L177.635 162.928C168.423 159.899 160.627 153.632 155.697 145.294L141.275 120.908C140.998 120.439 140.823 119.917 140.761 119.376C140.7 118.835 140.753 118.287 140.917 117.768C141.008 117.479 141.133 117.202 141.29 116.943L141.288 116.943Z" fill="#6C63FF"/>
<path opacity="0.1" d="M265.06 192.019L264.198 219.583L248.305 247.159L261.575 216.431L265.06 192.019Z" fill="black"/>
<path d="M233.523 108.054C235.709 110.637 239.407 111.365 242.819 111.664C249.749 112.271 259.825 111.288 266.596 109.726C267.08 114.403 265.762 119.446 268.521 123.293C269.814 118.635 270.566 113.844 270.762 109.014C270.846 106.946 270.813 104.8 269.97 102.899C269.127 100.997 267.289 99.3835 265.171 99.3666C266.744 98.1752 268.587 97.3886 270.536 97.0765L263.832 93.7129L265.554 91.948L253.417 91.2066L256.932 88.9767C251.641 88.2515 246.289 88.0834 240.962 88.4753C238.489 88.6571 235.903 89.0049 233.899 90.4357C231.896 91.8665 230.738 94.71 231.982 96.8108C230.424 97.0661 228.958 97.7143 227.721 98.6938C226.485 99.6733 225.519 100.952 224.916 102.408C224.023 104.669 224.105 107.181 224.38 109.591C224.838 113.445 225.735 117.234 227.054 120.885" fill="#2F2E41"/>
<path d="M324.108 55.0543L131.025 99.5611C130.077 99.7785 129.081 99.6115 128.256 99.0967C127.431 98.582 126.844 97.7615 126.624 96.8153L115.567 48.9948C115.349 48.0481 115.516 47.0538 116.032 46.23C116.547 45.4063 117.369 44.8203 118.317 44.6007L311.399 0.0938394C312.347 -0.123539 313.343 0.0434626 314.168 0.558205C314.993 1.07295 315.58 1.8934 315.8 2.8396L326.858 50.6602C327.075 51.6069 326.908 52.6012 326.393 53.4249C325.877 54.2487 325.055 54.8346 324.108 55.0543Z" fill="white"/>
<path d="M324.108 55.0543L131.025 99.5611C130.077 99.7785 129.081 99.6115 128.256 99.0967C127.431 98.582 126.844 97.7615 126.624 96.8153L115.567 48.9948C115.349 48.0481 115.516 47.0538 116.032 46.23C116.547 45.4063 117.369 44.8203 118.317 44.6007L311.399 0.0938394C312.347 -0.123539 313.343 0.0434626 314.168 0.558205C314.993 1.07295 315.58 1.8934 315.8 2.8396L326.858 50.6602C327.075 51.6069 326.908 52.6012 326.393 53.4249C325.877 54.2487 325.055 54.8346 324.108 55.0543ZM118.647 46.029C118.078 46.1607 117.585 46.5123 117.276 47.0067C116.967 47.501 116.866 48.0976 116.997 48.6658L128.054 96.4864C128.186 97.0542 128.538 97.5467 129.034 97.8556C129.529 98.1645 130.126 98.2646 130.695 98.134L323.778 53.6271C324.346 53.4955 324.84 53.1439 325.149 52.6496C325.458 52.1552 325.559 51.5585 325.428 50.9904L314.37 3.16919C314.238 2.6013 313.886 2.10883 313.391 1.79992C312.896 1.491 312.298 1.39088 311.729 1.52153L118.647 46.029Z" fill="#E6E6E6"/>
<path d="M185.645 45.8811C185.326 45.954 185.024 46.0889 184.758 46.2781C184.491 46.4673 184.264 46.7071 184.09 46.9838C183.916 47.2606 183.799 47.5688 183.744 47.891C183.689 48.2131 183.699 48.5429 183.772 48.8614C183.845 49.1799 183.98 49.4809 184.17 49.7472C184.359 50.0135 184.6 50.2399 184.877 50.4135C185.154 50.5871 185.463 50.7044 185.786 50.7588C186.108 50.8132 186.438 50.8036 186.757 50.7305L186.766 50.7286L301.205 24.3495C301.848 24.2003 302.405 23.8024 302.755 23.2432C303.104 22.684 303.217 22.0093 303.068 21.3671C302.92 20.7249 302.522 20.1679 301.963 19.8182C301.403 19.4685 300.728 19.3548 300.084 19.5021L185.645 45.8811Z" fill="#E6E6E6"/>
<path d="M189.008 60.4241C188.689 60.497 188.387 60.6319 188.12 60.8211C187.854 61.0103 187.627 61.2501 187.453 61.5268C187.279 61.8036 187.161 62.1118 187.107 62.434C187.052 62.7562 187.062 63.0859 187.135 63.4044C187.208 63.7229 187.343 64.0239 187.533 64.2902C187.722 64.5565 187.962 64.7829 188.24 64.9565C188.517 65.1301 188.826 65.2474 189.148 65.3018C189.471 65.3562 189.801 65.3466 190.12 65.2735L190.129 65.2716L239.372 53.9206C240.016 53.7732 240.575 53.3764 240.926 52.8176C241.277 52.2588 241.391 51.5837 241.244 50.9408C241.096 50.2978 240.699 49.7397 240.139 49.3891C239.58 49.0385 238.904 48.9242 238.26 49.0712L238.251 49.0732L189.008 60.4241Z" fill="#E6E6E6"/>
<path d="M154.36 78.1134C162.615 78.1134 169.308 71.4313 169.308 63.1885C169.308 54.9457 162.615 48.2636 154.36 48.2636C146.104 48.2636 139.411 54.9457 139.411 63.1885C139.411 71.4313 146.104 78.1134 154.36 78.1134Z" fill="#6C63FF"/>
<path d="M153.939 71.7984C153.45 71.9119 152.937 71.8635 152.478 71.6605L152.449 71.6479L146.434 68.9216C146.155 68.7953 145.904 68.6152 145.694 68.3917C145.485 68.1682 145.321 67.9056 145.213 67.619C145.106 67.3324 145.055 67.0275 145.066 66.7215C145.076 66.4156 145.147 66.1146 145.274 65.836C145.401 65.5573 145.581 65.3064 145.806 65.0975C146.03 64.8886 146.293 64.7259 146.58 64.6187C146.867 64.5115 147.173 64.4618 147.479 64.4726C147.786 64.4833 148.087 64.5543 148.366 64.6814L152.263 66.453L157.731 54.4575C157.987 53.8959 158.456 53.4588 159.035 53.2424C159.614 53.026 160.255 53.048 160.817 53.3035V53.3035L160.785 53.3818L160.819 53.3031C161.381 53.5594 161.819 54.0278 162.035 54.6057C162.252 55.1835 162.23 55.8236 161.975 56.3853L155.544 70.4965C155.395 70.8216 155.173 71.1081 154.895 71.3336C154.617 71.5592 154.291 71.7178 153.942 71.7972L153.939 71.7984Z" fill="white"/>
</svg>
