<?xml version="1.0" encoding="UTF-8"?>
<svg xmlns="http://www.w3.org/2000/svg" xmlns:xlink="http://www.w3.org/1999/xlink" width="500px" height="403px" viewBox="0 0 500 403" version="1.1">
<g id="surface1">
<path style=" stroke:none;fill-rule:nonzero;fill:rgb(90.196078%,90.196078%,90.196078%);fill-opacity:1;" d="M 284.714844 356.628906 C 281.261719 351.789062 276.582031 348.246094 270.699219 346.921875 C 265.570312 345.765625 260.296875 345.960938 255.085938 346 L 189.164062 346.511719 C 183.519531 346.554688 178.105469 351.445312 178.371094 357.308594 C 178.628906 363.125 183.113281 368.15625 189.164062 368.109375 C 208.476562 367.960938 227.785156 367.8125 247.09375 367.664062 C 251.648438 367.628906 256.203125 367.546875 260.753906 367.5625 C 261.777344 367.566406 262.796875 367.621094 263.816406 367.628906 C 264.0625 367.632812 264.242188 367.632812 264.367188 367.625 C 264.402344 367.636719 264.425781 367.644531 264.46875 367.65625 C 265 367.800781 265.546875 367.902344 266.085938 368.042969 C 265.894531 368.046875 266.429688 368.382812 266.699219 368.496094 C 266.738281 368.566406 266.816406 368.695312 266.949219 368.898438 C 267.132812 369.242188 267.675781 370.285156 267.695312 370.253906 C 268.511719 372.320312 269.1875 374.4375 269.710938 376.59375 C 270.96875 381.351562 271.242188 382.34375 271.421875 386.808594 C 271.652344 392.445312 276.226562 397.878906 282.21875 397.609375 C 287.875 397.355469 293.261719 392.855469 293.015625 386.808594 C 292.601562 376.621094 290.816406 365.175781 284.714844 356.628906 Z M 284.714844 356.628906 "/>
<path style=" stroke:none;fill-rule:nonzero;fill:rgb(90.196078%,90.196078%,90.196078%);fill-opacity:1;" d="M 193.039062 381.003906 C 191.800781 373.496094 190.589844 365.984375 189.324219 358.484375 C 188.046875 350.871094 185.429688 343.902344 179.507812 338.910156 C 177.929688 337.574219 176.289062 336.328125 174.640625 335.085938 C 174.0625 334.648438 173.484375 334.210938 172.910156 333.765625 C 172.875 333.738281 172.855469 333.722656 172.824219 333.699219 C 172.761719 333.644531 172.6875 333.582031 172.585938 333.496094 C 170.117188 331.40625 167.734375 329.222656 165.460938 326.902344 C 163.445312 324.84375 161.515625 322.695312 159.675781 320.460938 C 159.21875 319.902344 158.761719 319.339844 158.316406 318.769531 C 158.238281 318.671875 157.824219 318.136719 157.550781 317.785156 C 157.292969 317.4375 156.828125 316.800781 156.75 316.691406 C 156.226562 315.953125 155.714844 315.203125 155.210938 314.449219 C 151.769531 309.296875 148.792969 303.847656 146.3125 298.171875 C 146.066406 297.609375 145.824219 297.042969 145.589844 296.472656 C 145.527344 296.296875 145.445312 296.074219 145.335938 295.777344 C 144.835938 294.402344 144.339844 293.027344 143.882812 291.632812 C 142.910156 288.675781 142.074219 285.675781 141.375 282.632812 C 141.03125 281.128906 140.71875 279.617188 140.441406 278.097656 C 140.300781 277.316406 140.164062 276.535156 140.042969 275.75 C 140.019531 275.621094 139.898438 274.777344 139.828125 274.296875 C 139.777344 273.816406 139.675781 272.964844 139.664062 272.835938 C 139.585938 272.042969 139.515625 271.253906 139.453125 270.460938 C 139.316406 268.679688 139.222656 266.894531 139.171875 265.105469 C 139.089844 261.929688 139.148438 258.75 139.34375 255.574219 C 139.457031 253.789062 139.617188 252.007812 139.8125 250.230469 C 139.824219 250.121094 139.832031 250.035156 139.84375 249.957031 C 139.855469 249.875 139.867188 249.785156 139.882812 249.675781 C 140.03125 248.691406 140.183594 247.710938 140.351562 246.734375 C 141 243.019531 141.84375 239.34375 142.875 235.722656 C 143.367188 234.007812 143.898438 232.308594 144.472656 230.621094 C 144.726562 229.871094 144.988281 229.125 145.261719 228.382812 C 145.246094 228.433594 146.058594 226.347656 146.070312 226.277344 C 149.304688 218.628906 154.597656 211.660156 154.605469 202.972656 C 154.609375 197.089844 149.636719 191.453125 143.808594 191.726562 C 137.769531 191.953125 132.996094 196.925781 133.011719 202.972656 C 133.011719 203.101562 133.011719 203.214844 133.011719 203.324219 C 132.957031 203.507812 132.910156 203.660156 132.871094 203.796875 C 132.242188 205.167969 131.46875 206.472656 130.773438 207.808594 C 128.878906 211.46875 127.257812 215.25 125.722656 219.089844 C 123.203125 225.335938 121.277344 231.804688 119.964844 238.414062 C 117.117188 252.890625 116.894531 267.761719 119.3125 282.316406 C 123.5 307.84375 137.304688 332.277344 156.496094 348.703125 C 158.160156 350.125 159.867188 351.503906 161.589844 352.851562 C 162.300781 353.410156 163.019531 353.960938 163.742188 354.503906 C 164.082031 354.761719 165.496094 355.878906 164.875 355.335938 C 166.214844 356.480469 166.777344 357.054688 167.121094 357.894531 C 167.167969 358.089844 167.238281 358.351562 167.328125 358.710938 C 167.570312 359.660156 167.800781 360.609375 167.992188 361.570312 C 169.664062 369.976562 170.824219 378.519531 172.21875 386.980469 C 173.179688 392.792969 180.332031 396.578125 185.5 394.835938 C 191.515625 392.804688 194.070312 387.230469 193.039062 381.003906 Z M 193.039062 381.003906 "/>
<path style=" stroke:none;fill-rule:nonzero;fill:rgb(24.705882%,23.921569%,33.72549%);fill-opacity:1;" d="M 285.808594 402.800781 C 276.367188 402.828125 268.6875 395.203125 268.640625 385.757812 L 268.640625 373.4375 C 255.75 374.882812 211.59375 374.546875 198.9375 372.511719 L 198.9375 385.265625 C 198.867188 394.699219 191.203125 402.308594 181.773438 402.308594 C 172.34375 402.308594 164.675781 394.699219 164.605469 385.265625 L 164.605469 360.226562 C 129.703125 340.828125 108.015625 304.054688 107.925781 264.109375 C 107.925781 230.472656 123.164062 199.09375 149.734375 178.019531 C 167.007812 164.269531 188 156 210.007812 154.273438 C 212.992188 154.039062 216 153.921875 218.9375 153.921875 C 229.296875 153.921875 276.035156 155.523438 287.761719 158.898438 L 314.503906 132.355469 C 315.308594 131.542969 316.519531 131.304688 317.574219 131.742188 C 318.632812 132.164062 319.328125 133.195312 319.316406 134.339844 L 319.316406 138.558594 L 324.523438 133.398438 C 325.328125 132.589844 326.539062 132.347656 327.589844 132.785156 C 328.652344 133.210938 329.347656 134.242188 329.335938 135.382812 L 329.335938 182.546875 C 356.585938 207.121094 369.769531 243.6875 364.476562 280.007812 C 359.179688 316.328125 336.105469 347.601562 302.972656 363.367188 L 302.972656 385.757812 C 302.929688 395.203125 295.25 402.828125 285.808594 402.800781 Z M 269.992188 371.90625 L 269.992188 385.757812 C 270.0625 394.445312 277.121094 401.453125 285.808594 401.453125 C 294.492188 401.453125 301.554688 394.445312 301.625 385.757812 L 301.625 362.515625 L 302.011719 362.332031 C 320.316406 353.640625 335.855469 340.046875 346.902344 323.054688 C 375.992188 278.253906 368.054688 218.921875 328.210938 183.351562 L 327.988281 183.148438 L 327.988281 135.382812 C 327.996094 134.789062 327.636719 134.253906 327.082031 134.039062 C 326.53125 133.800781 325.894531 133.929688 325.476562 134.355469 L 317.96875 141.796875 L 317.96875 134.339844 C 317.976562 133.742188 317.617188 133.207031 317.0625 132.992188 C 316.511719 132.757812 315.871094 132.882812 315.453125 133.3125 L 288.140625 160.425781 L 287.753906 160.304688 C 276.851562 156.890625 229.375 155.273438 218.9375 155.273438 C 216.035156 155.273438 213.0625 155.390625 210.113281 155.621094 C 188.371094 157.324219 167.636719 165.492188 150.574219 179.074219 C 124.328125 199.894531 109.277344 230.886719 109.277344 264.109375 C 109.367188 303.707031 130.9375 340.132812 165.609375 359.238281 L 165.957031 359.429688 L 165.957031 385.265625 C 166.027344 393.953125 173.089844 400.957031 181.773438 400.957031 C 190.457031 400.957031 197.515625 393.953125 197.589844 385.265625 L 197.589844 370.894531 L 198.390625 371.046875 C 209.761719 373.1875 257.65625 373.523438 269.230469 372.007812 Z M 269.992188 371.90625 "/>
<path style=" stroke:none;fill-rule:nonzero;fill:rgb(42.352941%,38.823529%,100%);fill-opacity:1;" d="M 194.332031 80.410156 L 119.605469 102.875 C 114.65625 104.367188 111.855469 109.589844 113.34375 114.542969 C 114.828125 119.496094 120.046875 122.308594 125 120.824219 L 190.390625 101.160156 L 191.757812 100.75 C 192.035156 93.6875 193.953125 86.785156 197.351562 80.589844 C 196.925781 80.398438 196.46875 80.28125 196.003906 80.242188 C 195.441406 80.1875 194.871094 80.242188 194.332031 80.410156 Z M 194.332031 80.410156 "/>
<path style=" stroke:none;fill-rule:nonzero;fill:rgb(18.431373%,18.039216%,25.490196%);fill-opacity:1;" d="M 123.707031 125.613281 C 121.671875 125.609375 119.867188 124.304688 119.226562 122.371094 L 114.554688 108.265625 C 113.734375 105.789062 115.078125 103.117188 117.554688 102.296875 L 178.371094 82.132812 C 180.847656 81.308594 183.519531 82.652344 184.339844 85.128906 L 189.011719 99.234375 C 189.820312 101.648438 188.566406 104.265625 186.183594 105.148438 C 186.125 105.167969 186.070312 105.191406 186.011719 105.207031 L 125.195312 125.371094 C 124.714844 125.53125 124.210938 125.613281 123.707031 125.613281 Z M 123.707031 125.613281 "/>
<path style=" stroke:none;fill-rule:nonzero;fill:rgb(24.705882%,23.921569%,33.72549%);fill-opacity:1;" d="M 237.601562 55.359375 C 212.085938 55.367188 191.183594 75.644531 190.390625 101.160156 C 190.375 101.640625 190.371094 102.125 190.371094 102.613281 C 190.371094 128.707031 211.515625 149.863281 237.601562 149.863281 C 263.6875 149.863281 284.835938 128.707031 284.835938 102.613281 C 284.835938 76.515625 263.6875 55.359375 237.601562 55.359375 Z M 237.601562 148.515625 C 212.273438 148.488281 191.746094 127.953125 191.71875 102.613281 C 191.71875 101.984375 191.734375 101.363281 191.757812 100.75 C 192.777344 75.660156 213.757812 56.046875 238.847656 56.726562 C 263.9375 57.410156 283.824219 78.128906 283.484375 103.234375 C 283.140625 128.339844 262.699219 148.515625 237.601562 148.515625 Z M 237.601562 148.515625 "/>
<path style=" stroke:none;fill-rule:nonzero;fill:rgb(90.196078%,90.196078%,90.196078%);fill-opacity:1;" d="M 277.414062 102.613281 C 277.414062 124.609375 259.589844 142.4375 237.601562 142.4375 C 215.617188 142.4375 197.792969 124.609375 197.792969 102.613281 C 197.792969 101.347656 197.851562 100.105469 197.96875 98.878906 C 199.960938 77.703125 218.234375 61.832031 239.472656 62.828125 C 260.707031 63.824219 277.414062 81.34375 277.414062 102.613281 Z M 277.414062 102.613281 "/>
<path style=" stroke:none;fill-rule:nonzero;fill:rgb(42.352941%,38.823529%,100%);fill-opacity:1;" d="M 249.457031 105.257812 C 248.492188 103.988281 247.222656 102.984375 245.769531 102.335938 C 243.972656 101.578125 242.117188 100.96875 240.222656 100.511719 L 240.222656 89.671875 C 243.132812 90.109375 245.867188 91.355469 248.109375 93.269531 L 250.308594 88.578125 C 249.042969 87.449219 247.589844 86.550781 246.015625 85.925781 C 244.273438 85.21875 242.441406 84.746094 240.570312 84.527344 L 240.570312 79.03125 L 235.476562 79.03125 L 235.476562 84.582031 C 233.511719 84.800781 231.613281 85.441406 229.910156 86.449219 C 228.375 87.363281 227.078125 88.628906 226.136719 90.148438 C 225.242188 91.632812 224.777344 93.335938 224.796875 95.070312 C 224.707031 96.949219 225.253906 98.804688 226.339844 100.335938 C 227.34375 101.664062 228.667969 102.714844 230.1875 103.386719 C 232.011719 104.167969 233.898438 104.792969 235.828125 105.257812 L 235.828125 115.648438 C 232.390625 115.386719 229.113281 114.078125 226.441406 111.898438 L 224.242188 116.597656 C 225.738281 117.835938 227.4375 118.796875 229.261719 119.445312 C 231.265625 120.164062 233.355469 120.601562 235.476562 120.742188 L 235.476562 126.191406 L 240.570312 126.191406 L 240.570312 120.640625 C 243.402344 120.332031 246.054688 119.117188 248.136719 117.171875 C 249.988281 115.394531 251.011719 112.921875 250.957031 110.355469 C 251.042969 108.535156 250.515625 106.742188 249.457031 105.257812 Z M 235.828125 99.363281 C 234.585938 98.988281 233.433594 98.367188 232.433594 97.542969 C 231.632812 96.828125 231.191406 95.792969 231.234375 94.71875 C 231.195312 93.519531 231.636719 92.351562 232.460938 91.472656 C 233.375 90.554688 234.550781 89.941406 235.828125 89.726562 Z M 243.417969 113.730469 C 242.558594 114.613281 241.4375 115.195312 240.222656 115.398438 L 240.222656 106.460938 C 241.382812 106.769531 242.472656 107.316406 243.417969 108.058594 C 244.148438 108.679688 244.550781 109.601562 244.519531 110.558594 C 244.566406 111.714844 244.171875 112.847656 243.417969 113.730469 Z M 243.417969 113.730469 "/>
<path style=" stroke:none;fill-rule:nonzero;fill:rgb(18.431373%,18.039216%,25.490196%);fill-opacity:1;" d="M 125.875 182.78125 C 123.730469 182.777344 121.855469 181.335938 121.304688 179.261719 L 118.757812 169.628906 C 118.097656 167.109375 119.597656 164.527344 122.117188 163.855469 L 202.375 142.640625 C 204.894531 141.980469 207.472656 143.484375 208.144531 146.003906 L 210.296875 154.167969 L 209.894531 154.199219 C 189.3125 155.796875 169.617188 163.265625 153.140625 175.710938 L 153.023438 175.769531 L 127.074219 182.625 C 126.683594 182.730469 126.28125 182.78125 125.875 182.78125 Z M 125.875 182.78125 "/>
<path style=" stroke:none;fill-rule:nonzero;fill:rgb(24.705882%,23.921569%,33.72549%);fill-opacity:1;" d="M 112.582031 230.363281 C 103.167969 228.972656 94.164062 225.566406 86.183594 220.378906 C 82.230469 217.808594 78.570312 214.816406 75.269531 211.449219 C 72.011719 208.125 68.898438 204.347656 67.285156 199.917969 C 65.730469 195.824219 65.8125 191.289062 67.507812 187.25 C 69.179688 183.234375 72.375 180.050781 76.394531 178.390625 C 80.433594 176.777344 85.316406 176.605469 89.25 178.371094 C 91.125 179.191406 92.746094 180.496094 93.949219 182.152344 C 94.507812 182.917969 94.921875 183.777344 95.171875 184.691406 C 95.402344 185.519531 95.421875 186.390625 95.230469 187.230469 C 94.765625 188.921875 93.589844 190.328125 92.011719 191.09375 C 90.292969 191.972656 88.429688 192.542969 86.511719 192.769531 C 84.582031 193.035156 81.808594 193.273438 80.257812 191.722656 C 79.9375 191.417969 79.6875 191.046875 79.519531 190.636719 C 79.402344 190.320312 79.363281 189.984375 79.402344 189.652344 C 79.378906 189.796875 79.496094 189.332031 79.488281 189.351562 C 79.464844 189.421875 79.359375 189.585938 79.511719 189.332031 C 79.558594 189.246094 79.609375 189.164062 79.667969 189.085938 C 79.617188 189.152344 79.503906 189.261719 79.703125 189.070312 C 79.871094 188.890625 80.085938 188.757812 80.320312 188.691406 C 80.414062 188.664062 80.511719 188.640625 80.601562 188.617188 C 80.839844 188.550781 80.367188 188.621094 80.609375 188.613281 C 80.703125 188.609375 80.800781 188.613281 80.890625 188.609375 C 81.132812 188.597656 80.65625 188.542969 80.886719 188.601562 C 80.976562 188.621094 81.0625 188.644531 81.148438 188.671875 C 81.339844 188.730469 81.015625 188.53125 81.144531 188.679688 C 81.296875 188.855469 80.984375 188.511719 81.15625 188.679688 C 81.242188 188.765625 81.324219 188.855469 81.398438 188.945312 C 82.019531 189.558594 83.015625 189.558594 83.636719 188.945312 C 84.234375 188.320312 84.234375 187.335938 83.636719 186.710938 C 82.074219 184.773438 78.996094 185.253906 77.417969 186.886719 C 75.40625 188.972656 76.203125 192.277344 78.160156 194.09375 C 80.375 196.15625 83.511719 196.296875 86.363281 195.953125 C 88.773438 195.722656 91.121094 195.058594 93.292969 193.992188 C 95.453125 192.933594 97.140625 191.105469 98.03125 188.871094 C 98.847656 186.457031 98.585938 183.8125 97.320312 181.601562 C 94.804688 176.871094 89.59375 174.441406 84.441406 174.023438 C 79.085938 173.601562 73.785156 175.34375 69.71875 178.859375 C 65.839844 182.351562 63.453125 187.203125 63.046875 192.410156 C 62.597656 197.808594 64.691406 203.046875 67.742188 207.40625 C 70.9375 211.832031 74.75 215.777344 79.066406 219.117188 C 87.5 225.855469 97.394531 230.523438 107.953125 232.75 C 109.210938 233.007812 110.472656 233.230469 111.742188 233.414062 C 112.582031 233.617188 113.433594 233.132812 113.6875 232.308594 C 113.914062 231.46875 113.421875 230.601562 112.582031 230.363281 Z M 112.582031 230.363281 "/>
<path style=" stroke:none;fill-rule:nonzero;fill:rgb(80%,80%,80%);fill-opacity:1;" d="M 263.316406 161.59375 C 249.523438 161.398438 235.773438 161.75 222.066406 162.644531 C 217.378906 162.949219 213.324219 164.605469 213.324219 167.390625 C 213.324219 169.71875 217.347656 172.445312 222.066406 172.136719 C 235.765625 171.242188 249.515625 170.890625 263.316406 171.085938 C 274.566406 171.246094 274.558594 161.75 263.316406 161.59375 Z M 263.316406 161.59375 "/>
<path style=" stroke:none;fill-rule:nonzero;fill:rgb(24.705882%,23.921569%,33.72549%);fill-opacity:1;" d="M 242.929688 170.617188 C 241.4375 170.617188 206.417969 170.5625 206.417969 165.722656 C 206.417969 160.882812 241.4375 160.828125 242.929688 160.828125 C 244.417969 160.828125 279.4375 160.882812 279.4375 165.722656 C 279.4375 170.5625 244.417969 170.617188 242.929688 170.617188 Z M 207.789062 165.722656 C 208.746094 167.1875 221.617188 169.265625 242.929688 169.265625 C 264.238281 169.265625 277.109375 167.1875 278.066406 165.722656 C 277.109375 164.253906 264.238281 162.175781 242.929688 162.175781 C 221.617188 162.175781 208.746094 164.253906 207.789062 165.722656 Z M 207.789062 165.722656 "/>
<path style=" stroke:none;fill-rule:nonzero;fill:rgb(24.705882%,23.921569%,33.72549%);fill-opacity:1;" d="M 354.03125 297.828125 C 361.78125 297.613281 371.429688 297.34375 378.863281 291.914062 C 383.34375 288.503906 386.089844 283.289062 386.367188 277.667969 C 386.519531 273.375 384.96875 269.632812 382.003906 267.125 C 378.121094 263.84375 372.453125 263.074219 366.34375 264.871094 L 372.671875 218.597656 L 368.027344 217.960938 L 360.585938 272.359375 L 364.464844 270.578125 C 368.964844 268.515625 375.140625 267.464844 378.976562 270.710938 C 380.886719 272.429688 381.886719 274.941406 381.679688 277.5 C 381.449219 281.683594 379.410156 285.5625 376.097656 288.125 C 370.3125 292.351562 362.621094 292.894531 353.898438 293.140625 Z M 354.03125 297.828125 "/>
<path style=" stroke:none;fill-rule:nonzero;fill:rgb(24.705882%,23.921569%,33.72549%);fill-opacity:1;" d="M 315.925781 222.589844 L 341.183594 222.589844 L 341.183594 227.28125 L 315.925781 227.28125 Z M 315.925781 222.589844 "/>
<path style=" stroke:none;fill-rule:nonzero;fill:rgb(18.431373%,18.039216%,25.490196%);fill-opacity:1;" d="M 137.304688 204.359375 C 134.980469 204.351562 133.007812 202.660156 132.644531 200.367188 L 131.105469 190.523438 C 130.703125 187.945312 132.464844 185.53125 135.039062 185.121094 L 217.042969 172.269531 C 219.621094 171.867188 222.035156 173.628906 222.441406 176.207031 L 223.984375 186.046875 C 224.382812 188.625 222.625 191.042969 220.046875 191.449219 L 138.042969 204.304688 C 137.800781 204.339844 137.550781 204.359375 137.304688 204.359375 Z M 137.304688 204.359375 "/>
<path style=" stroke:none;fill-rule:nonzero;fill:rgb(42.352941%,38.823529%,100%);fill-opacity:1;" d="M 137.78125 54.582031 C 137.78125 73.59375 122.371094 89.007812 103.367188 89.007812 C 84.359375 89.007812 68.953125 73.59375 68.953125 54.582031 C 68.953125 35.566406 84.359375 20.152344 103.367188 20.152344 C 122.371094 20.152344 137.78125 35.566406 137.78125 54.582031 Z M 137.78125 54.582031 "/>
<path style=" stroke:none;fill-rule:nonzero;fill:rgb(18.431373%,18.039216%,25.490196%);fill-opacity:1;" d="M 122.851562 63.488281 C 123.949219 63.101562 124.957031 62.488281 125.796875 61.679688 C 126.925781 60.519531 127.480469 58.917969 127.320312 57.304688 C 127.222656 56.15625 126.597656 55.113281 125.625 54.496094 C 124.378906 53.726562 122.734375 53.757812 121.070312 54.527344 L 120.878906 41.089844 L 119.53125 41.109375 L 119.753906 56.90625 L 120.78125 56.234375 C 121.972656 55.453125 123.683594 54.886719 124.917969 55.644531 C 125.535156 56.050781 125.925781 56.722656 125.976562 57.460938 C 126.09375 58.660156 125.679688 59.851562 124.847656 60.722656 C 123.382812 62.175781 121.21875 62.660156 118.746094 63.105469 L 118.988281 64.433594 C 120.300781 64.234375 121.59375 63.917969 122.851562 63.488281 Z M 122.851562 63.488281 "/>
<path style=" stroke:none;fill-rule:nonzero;fill:rgb(18.431373%,18.039216%,25.490196%);fill-opacity:1;" d="M 127.589844 41.234375 L 134.773438 40.144531 L 134.976562 41.480469 L 127.789062 42.570312 Z M 127.589844 41.234375 "/>
<path style=" stroke:none;fill-rule:nonzero;fill:rgb(18.431373%,18.039216%,25.490196%);fill-opacity:1;" d="M 104.90625 44.671875 L 112.09375 43.582031 L 112.292969 44.917969 L 105.109375 46.003906 Z M 104.90625 44.671875 "/>
<path style=" stroke:none;fill-rule:nonzero;fill:rgb(18.431373%,18.039216%,25.490196%);fill-opacity:1;" d="M 126.109375 203.757812 C 123.574219 203.753906 121.308594 202.179688 120.417969 199.804688 L 96.691406 136.238281 C 90.652344 120.003906 98.886719 101.945312 115.101562 95.871094 L 134.394531 88.664062 C 135.898438 88.097656 137.570312 88.152344 139.035156 88.824219 C 140.496094 89.476562 141.632812 90.6875 142.1875 92.1875 L 186.140625 175.207031 C 186.71875 176.71875 186.667969 178.398438 186 179.875 C 185.335938 181.351562 184.109375 182.496094 182.59375 183.066406 L 128.230469 203.371094 C 127.550781 203.628906 126.832031 203.757812 126.109375 203.757812 Z M 126.109375 203.757812 "/>
<path style=" stroke:none;fill-rule:nonzero;fill:rgb(90.196078%,90.196078%,90.196078%);fill-opacity:1;" d="M 128.539062 90.847656 L 172.148438 149.191406 L 142.640625 91.460938 C 141.617188 88.628906 138.488281 87.164062 135.65625 88.191406 Z M 128.539062 90.847656 "/>
<path style=" stroke:none;fill-rule:nonzero;fill:rgb(42.352941%,38.823529%,100%);fill-opacity:1;" d="M 197.589844 135.15625 L 119.726562 130.136719 C 114.5625 129.804688 110.648438 125.347656 110.980469 120.183594 C 111.3125 115.023438 115.765625 111.105469 120.929688 111.4375 L 198.792969 116.457031 C 201.210938 116.609375 203.042969 118.699219 202.890625 121.117188 L 202.25 131.058594 C 202.09375 133.476562 200.007812 135.3125 197.589844 135.15625 Z M 197.589844 135.15625 "/>
<path style=" stroke:none;fill-rule:nonzero;fill:rgb(18.431373%,18.039216%,25.490196%);fill-opacity:1;" d="M 176.785156 138.371094 C 176.679688 138.371094 176.578125 138.367188 176.472656 138.363281 L 112.535156 134.242188 C 109.933594 134.074219 107.957031 131.828125 108.125 129.222656 L 109.21875 112.238281 C 109.386719 109.636719 111.632812 107.660156 114.238281 107.828125 L 178.175781 111.949219 C 180.777344 112.117188 182.75 114.363281 182.585938 116.96875 L 181.492188 133.949219 C 181.367188 135.808594 180.167969 137.421875 178.421875 138.074219 C 177.898438 138.273438 177.34375 138.371094 176.785156 138.371094 Z M 176.785156 138.371094 "/>
<path style=" stroke:none;fill-rule:nonzero;fill:rgb(18.431373%,18.039216%,25.490196%);fill-opacity:1;" d="M 102.972656 31.6875 C 107.5 27.792969 113.714844 31.277344 118.90625 30.667969 C 123.875 30.082031 127.796875 25.625 128.800781 20.890625 C 129.96875 15.367188 127.101562 9.832031 122.875 6.386719 C 118.25 2.613281 112.113281 1.53125 106.296875 2.230469 C 99.632812 3.027344 93.535156 6.136719 88.066406 9.894531 C 82.789062 13.414062 77.933594 17.527344 73.597656 22.160156 C 69.71875 26.449219 66.429688 31.558594 65.382812 37.328125 C 64.425781 42.574219 65.15625 48.382812 68.253906 52.824219 C 69.898438 55.101562 72.097656 56.917969 74.648438 58.09375 C 77.304688 59.398438 80.136719 60.332031 82.710938 61.808594 C 86.601562 64.039062 90.386719 68.664062 89.167969 73.480469 C 88.90625 74.53125 88.390625 75.503906 87.664062 76.308594 C 86.792969 77.273438 85.222656 75.996094 86.097656 75.027344 C 87.628906 73.324219 87.570312 71.054688 86.753906 69.019531 C 85.78125 66.726562 84.058594 64.835938 81.871094 63.648438 C 79.175781 62.109375 76.203125 61.15625 73.441406 59.753906 C 70.796875 58.472656 68.503906 56.570312 66.753906 54.210938 C 63.449219 49.613281 62.460938 43.632812 63.207031 38.101562 C 64.019531 32.117188 67.09375 26.675781 70.949219 22.117188 C 75.144531 17.15625 80.296875 12.957031 85.558594 9.183594 C 91.207031 5.136719 97.445312 1.710938 104.351562 0.476562 C 110.335938 -0.597656 116.824219 0.0625 122.058594 3.324219 C 126.941406 6.371094 130.691406 11.609375 131.0625 17.464844 C 131.335938 22.890625 128.65625 28.039062 124.0625 30.925781 C 121.746094 32.3125 119.050781 32.9375 116.363281 32.710938 C 113.484375 32.527344 110.609375 31.648438 107.714844 31.890625 C 106.402344 31.96875 105.15625 32.476562 104.160156 33.328125 C 103.171875 34.179688 101.992188 32.53125 102.972656 31.6875 Z M 102.972656 31.6875 "/>
<path style=" stroke:none;fill-rule:nonzero;fill:rgb(24.705882%,23.921569%,33.72549%);fill-opacity:1;" d="M 498.976562 403.117188 L 0.804688 403.117188 C 0.359375 403.117188 0.00390625 402.757812 0.00390625 402.316406 C 0.00390625 401.871094 0.359375 401.511719 0.804688 401.511719 L 498.976562 401.511719 C 499.421875 401.511719 499.78125 401.871094 499.78125 402.316406 C 499.78125 402.757812 499.421875 403.117188 498.976562 403.117188 Z M 498.976562 403.117188 "/>
</g>
</svg>
